%TF.GenerationSoftware,KiCad,Pcbnew,(5.1.4)-1*%
%TF.CreationDate,2019-12-19T18:40:16-07:00*%
%TF.ProjectId,mainboard,6d61696e-626f-4617-9264-2e6b69636164,rev?*%
%TF.SameCoordinates,Original*%
%TF.FileFunction,Soldermask,Bot*%
%TF.FilePolarity,Negative*%
%FSLAX46Y46*%
G04 Gerber Fmt 4.6, Leading zero omitted, Abs format (unit mm)*
G04 Created by KiCad (PCBNEW (5.1.4)-1) date 2019-12-19 18:40:16*
%MOMM*%
%LPD*%
G04 APERTURE LIST*
%ADD10C,0.190500*%
%ADD11C,0.150000*%
%ADD12R,2.901600X2.901600*%
%ADD13R,0.901600X0.401600*%
%ADD14R,0.401600X0.901600*%
%ADD15C,2.159000*%
%ADD16R,2.159000X2.159000*%
%ADD17C,0.100000*%
%ADD18C,1.251600*%
%ADD19C,0.976600*%
%ADD20C,0.751600*%
%ADD21O,1.101600X2.201600*%
%ADD22O,1.101600X1.701600*%
%ADD23R,1.101600X1.901600*%
%ADD24O,1.801600X1.801600*%
%ADD25R,1.601600X1.651600*%
%ADD26C,1.371600*%
%ADD27C,1.509600*%
%ADD28R,0.551600X1.451600*%
%ADD29R,1.081600X3.501600*%
%ADD30C,2.351600*%
%ADD31C,2.151600*%
%ADD32C,2.000000*%
%ADD33R,1.427000X2.127000*%
%ADD34C,5.701600*%
%ADD35R,2.108200X2.413000*%
%ADD36R,2.413000X2.108200*%
%ADD37C,2.006600*%
%ADD38C,5.101600*%
%ADD39C,0.701600*%
%ADD40R,2.006600X2.006600*%
%ADD41R,0.711200X2.311400*%
%ADD42R,1.752600X0.939800*%
%ADD43R,0.889000X0.431800*%
%ADD44R,0.431800X0.889000*%
%ADD45R,2.921000X2.921000*%
%ADD46R,1.367000X0.927000*%
%ADD47R,2.627000X1.077000*%
%ADD48R,2.327000X1.277000*%
%ADD49R,1.377000X1.287000*%
%ADD50R,1.327000X1.287000*%
%ADD51R,1.277000X1.627000*%
%ADD52R,1.447800X0.685800*%
%ADD53C,2.133600*%
G04 APERTURE END LIST*
D10*
X140498285Y-59472285D02*
X141260285Y-59472285D01*
X140897428Y-59472285D02*
X140897428Y-59036857D01*
X140498285Y-59036857D02*
X141260285Y-59036857D01*
X141260285Y-58528857D02*
X141260285Y-58383714D01*
X141224000Y-58311142D01*
X141151428Y-58238571D01*
X141006285Y-58202285D01*
X140752285Y-58202285D01*
X140607142Y-58238571D01*
X140534571Y-58311142D01*
X140498285Y-58383714D01*
X140498285Y-58528857D01*
X140534571Y-58601428D01*
X140607142Y-58674000D01*
X140752285Y-58710285D01*
X141006285Y-58710285D01*
X141151428Y-58674000D01*
X141224000Y-58601428D01*
X141260285Y-58528857D01*
X140498285Y-57512857D02*
X140498285Y-57875714D01*
X141260285Y-57875714D01*
X140498285Y-56896000D02*
X140498285Y-57258857D01*
X141260285Y-57258857D01*
X140498285Y-56642000D02*
X141260285Y-56642000D01*
X140498285Y-56279142D02*
X141260285Y-56279142D01*
X141260285Y-56097714D01*
X141224000Y-55988857D01*
X141151428Y-55916285D01*
X141078857Y-55880000D01*
X140933714Y-55843714D01*
X140824857Y-55843714D01*
X140679714Y-55880000D01*
X140607142Y-55916285D01*
X140534571Y-55988857D01*
X140498285Y-56097714D01*
X140498285Y-56279142D01*
X140716000Y-55553428D02*
X140716000Y-55190571D01*
X140498285Y-55626000D02*
X141260285Y-55372000D01*
X140498285Y-55118000D01*
X140861142Y-54718857D02*
X140498285Y-54718857D01*
X141260285Y-54972857D02*
X140861142Y-54718857D01*
X141260285Y-54464857D01*
D11*
X98336100Y-54489100D02*
X98336100Y-146374100D01*
X100336100Y-148374100D02*
G75*
G02X98336100Y-146374100I0J2000000D01*
G01*
X100336100Y-148374100D02*
X186506100Y-148374100D01*
X188506100Y-146374100D02*
G75*
G02X186506100Y-148374100I-2000000J0D01*
G01*
X188506100Y-146374100D02*
X188506100Y-54489100D01*
X186506100Y-52489100D02*
G75*
G02X188506100Y-54489100I0J-2000000D01*
G01*
X186506100Y-52489100D02*
X154276100Y-52499096D01*
X154276100Y-52499096D02*
X153006100Y-53388096D01*
X153006100Y-53388096D02*
X142211100Y-53388096D01*
X142211100Y-53388096D02*
X140931103Y-52489100D01*
X140931103Y-52489100D02*
X100336100Y-52489100D01*
X98336100Y-54489100D02*
G75*
G02X100336100Y-52489100I2000000J0D01*
G01*
D12*
X152400000Y-66294000D03*
D13*
X150400000Y-65044000D03*
X150400000Y-65544000D03*
X150400000Y-66044000D03*
X150400000Y-66544000D03*
X150400000Y-67044000D03*
X150400000Y-67544000D03*
D14*
X151150000Y-68294000D03*
X151650000Y-68294000D03*
X152150000Y-68294000D03*
X152650000Y-68294000D03*
X153150000Y-68294000D03*
X153650000Y-68294000D03*
D13*
X154400000Y-67544000D03*
X154400000Y-67044000D03*
X154400000Y-66544000D03*
X154400000Y-66044000D03*
X154400000Y-65544000D03*
X154400000Y-65044000D03*
D14*
X153650000Y-64294000D03*
X153150000Y-64294000D03*
X152650000Y-64294000D03*
X152150000Y-64294000D03*
X151650000Y-64294000D03*
X151150000Y-64294000D03*
D15*
X171282100Y-81316296D03*
D16*
X171282100Y-85171896D03*
D17*
G36*
X138147983Y-103499110D02*
G01*
X138174395Y-103503028D01*
X138200296Y-103509516D01*
X138225437Y-103518511D01*
X138249574Y-103529928D01*
X138272477Y-103543655D01*
X138293924Y-103559561D01*
X138313708Y-103577492D01*
X138331639Y-103597276D01*
X138347545Y-103618723D01*
X138361272Y-103641626D01*
X138372689Y-103665763D01*
X138381684Y-103690904D01*
X138388172Y-103716805D01*
X138392090Y-103743217D01*
X138393400Y-103769886D01*
X138393400Y-104477314D01*
X138392090Y-104503983D01*
X138388172Y-104530395D01*
X138381684Y-104556296D01*
X138372689Y-104581437D01*
X138361272Y-104605574D01*
X138347545Y-104628477D01*
X138331639Y-104649924D01*
X138313708Y-104669708D01*
X138293924Y-104687639D01*
X138272477Y-104703545D01*
X138249574Y-104717272D01*
X138225437Y-104728689D01*
X138200296Y-104737684D01*
X138174395Y-104744172D01*
X138147983Y-104748090D01*
X138121314Y-104749400D01*
X137163886Y-104749400D01*
X137137217Y-104748090D01*
X137110805Y-104744172D01*
X137084904Y-104737684D01*
X137059763Y-104728689D01*
X137035626Y-104717272D01*
X137012723Y-104703545D01*
X136991276Y-104687639D01*
X136971492Y-104669708D01*
X136953561Y-104649924D01*
X136937655Y-104628477D01*
X136923928Y-104605574D01*
X136912511Y-104581437D01*
X136903516Y-104556296D01*
X136897028Y-104530395D01*
X136893110Y-104503983D01*
X136891800Y-104477314D01*
X136891800Y-103769886D01*
X136893110Y-103743217D01*
X136897028Y-103716805D01*
X136903516Y-103690904D01*
X136912511Y-103665763D01*
X136923928Y-103641626D01*
X136937655Y-103618723D01*
X136953561Y-103597276D01*
X136971492Y-103577492D01*
X136991276Y-103559561D01*
X137012723Y-103543655D01*
X137035626Y-103529928D01*
X137059763Y-103518511D01*
X137084904Y-103509516D01*
X137110805Y-103503028D01*
X137137217Y-103499110D01*
X137163886Y-103497800D01*
X138121314Y-103497800D01*
X138147983Y-103499110D01*
X138147983Y-103499110D01*
G37*
D18*
X137642600Y-104123600D03*
D17*
G36*
X138147983Y-101449110D02*
G01*
X138174395Y-101453028D01*
X138200296Y-101459516D01*
X138225437Y-101468511D01*
X138249574Y-101479928D01*
X138272477Y-101493655D01*
X138293924Y-101509561D01*
X138313708Y-101527492D01*
X138331639Y-101547276D01*
X138347545Y-101568723D01*
X138361272Y-101591626D01*
X138372689Y-101615763D01*
X138381684Y-101640904D01*
X138388172Y-101666805D01*
X138392090Y-101693217D01*
X138393400Y-101719886D01*
X138393400Y-102427314D01*
X138392090Y-102453983D01*
X138388172Y-102480395D01*
X138381684Y-102506296D01*
X138372689Y-102531437D01*
X138361272Y-102555574D01*
X138347545Y-102578477D01*
X138331639Y-102599924D01*
X138313708Y-102619708D01*
X138293924Y-102637639D01*
X138272477Y-102653545D01*
X138249574Y-102667272D01*
X138225437Y-102678689D01*
X138200296Y-102687684D01*
X138174395Y-102694172D01*
X138147983Y-102698090D01*
X138121314Y-102699400D01*
X137163886Y-102699400D01*
X137137217Y-102698090D01*
X137110805Y-102694172D01*
X137084904Y-102687684D01*
X137059763Y-102678689D01*
X137035626Y-102667272D01*
X137012723Y-102653545D01*
X136991276Y-102637639D01*
X136971492Y-102619708D01*
X136953561Y-102599924D01*
X136937655Y-102578477D01*
X136923928Y-102555574D01*
X136912511Y-102531437D01*
X136903516Y-102506296D01*
X136897028Y-102480395D01*
X136893110Y-102453983D01*
X136891800Y-102427314D01*
X136891800Y-101719886D01*
X136893110Y-101693217D01*
X136897028Y-101666805D01*
X136903516Y-101640904D01*
X136912511Y-101615763D01*
X136923928Y-101591626D01*
X136937655Y-101568723D01*
X136953561Y-101547276D01*
X136971492Y-101527492D01*
X136991276Y-101509561D01*
X137012723Y-101493655D01*
X137035626Y-101479928D01*
X137059763Y-101468511D01*
X137084904Y-101459516D01*
X137110805Y-101453028D01*
X137137217Y-101449110D01*
X137163886Y-101447800D01*
X138121314Y-101447800D01*
X138147983Y-101449110D01*
X138147983Y-101449110D01*
G37*
D18*
X137642600Y-102073600D03*
D17*
G36*
X164376881Y-99014572D02*
G01*
X164400581Y-99018087D01*
X164423823Y-99023909D01*
X164446382Y-99031981D01*
X164468042Y-99042225D01*
X164488592Y-99054543D01*
X164507837Y-99068815D01*
X164525590Y-99084906D01*
X164541681Y-99102659D01*
X164555953Y-99121904D01*
X164568271Y-99142454D01*
X164578515Y-99164114D01*
X164586587Y-99186673D01*
X164592409Y-99209915D01*
X164595924Y-99233615D01*
X164597100Y-99257546D01*
X164597100Y-99745846D01*
X164595924Y-99769777D01*
X164592409Y-99793477D01*
X164586587Y-99816719D01*
X164578515Y-99839278D01*
X164568271Y-99860938D01*
X164555953Y-99881488D01*
X164541681Y-99900733D01*
X164525590Y-99918486D01*
X164507837Y-99934577D01*
X164488592Y-99948849D01*
X164468042Y-99961167D01*
X164446382Y-99971411D01*
X164423823Y-99979483D01*
X164400581Y-99985305D01*
X164376881Y-99988820D01*
X164352950Y-99989996D01*
X163789650Y-99989996D01*
X163765719Y-99988820D01*
X163742019Y-99985305D01*
X163718777Y-99979483D01*
X163696218Y-99971411D01*
X163674558Y-99961167D01*
X163654008Y-99948849D01*
X163634763Y-99934577D01*
X163617010Y-99918486D01*
X163600919Y-99900733D01*
X163586647Y-99881488D01*
X163574329Y-99860938D01*
X163564085Y-99839278D01*
X163556013Y-99816719D01*
X163550191Y-99793477D01*
X163546676Y-99769777D01*
X163545500Y-99745846D01*
X163545500Y-99257546D01*
X163546676Y-99233615D01*
X163550191Y-99209915D01*
X163556013Y-99186673D01*
X163564085Y-99164114D01*
X163574329Y-99142454D01*
X163586647Y-99121904D01*
X163600919Y-99102659D01*
X163617010Y-99084906D01*
X163634763Y-99068815D01*
X163654008Y-99054543D01*
X163674558Y-99042225D01*
X163696218Y-99031981D01*
X163718777Y-99023909D01*
X163742019Y-99018087D01*
X163765719Y-99014572D01*
X163789650Y-99013396D01*
X164352950Y-99013396D01*
X164376881Y-99014572D01*
X164376881Y-99014572D01*
G37*
D19*
X164071300Y-99501696D03*
D17*
G36*
X164376881Y-100589572D02*
G01*
X164400581Y-100593087D01*
X164423823Y-100598909D01*
X164446382Y-100606981D01*
X164468042Y-100617225D01*
X164488592Y-100629543D01*
X164507837Y-100643815D01*
X164525590Y-100659906D01*
X164541681Y-100677659D01*
X164555953Y-100696904D01*
X164568271Y-100717454D01*
X164578515Y-100739114D01*
X164586587Y-100761673D01*
X164592409Y-100784915D01*
X164595924Y-100808615D01*
X164597100Y-100832546D01*
X164597100Y-101320846D01*
X164595924Y-101344777D01*
X164592409Y-101368477D01*
X164586587Y-101391719D01*
X164578515Y-101414278D01*
X164568271Y-101435938D01*
X164555953Y-101456488D01*
X164541681Y-101475733D01*
X164525590Y-101493486D01*
X164507837Y-101509577D01*
X164488592Y-101523849D01*
X164468042Y-101536167D01*
X164446382Y-101546411D01*
X164423823Y-101554483D01*
X164400581Y-101560305D01*
X164376881Y-101563820D01*
X164352950Y-101564996D01*
X163789650Y-101564996D01*
X163765719Y-101563820D01*
X163742019Y-101560305D01*
X163718777Y-101554483D01*
X163696218Y-101546411D01*
X163674558Y-101536167D01*
X163654008Y-101523849D01*
X163634763Y-101509577D01*
X163617010Y-101493486D01*
X163600919Y-101475733D01*
X163586647Y-101456488D01*
X163574329Y-101435938D01*
X163564085Y-101414278D01*
X163556013Y-101391719D01*
X163550191Y-101368477D01*
X163546676Y-101344777D01*
X163545500Y-101320846D01*
X163545500Y-100832546D01*
X163546676Y-100808615D01*
X163550191Y-100784915D01*
X163556013Y-100761673D01*
X163564085Y-100739114D01*
X163574329Y-100717454D01*
X163586647Y-100696904D01*
X163600919Y-100677659D01*
X163617010Y-100659906D01*
X163634763Y-100643815D01*
X163654008Y-100629543D01*
X163674558Y-100617225D01*
X163696218Y-100606981D01*
X163718777Y-100598909D01*
X163742019Y-100593087D01*
X163765719Y-100589572D01*
X163789650Y-100588396D01*
X164352950Y-100588396D01*
X164376881Y-100589572D01*
X164376881Y-100589572D01*
G37*
D19*
X164071300Y-101076696D03*
D17*
G36*
X166599381Y-99017276D02*
G01*
X166623081Y-99020791D01*
X166646323Y-99026613D01*
X166668882Y-99034685D01*
X166690542Y-99044929D01*
X166711092Y-99057247D01*
X166730337Y-99071519D01*
X166748090Y-99087610D01*
X166764181Y-99105363D01*
X166778453Y-99124608D01*
X166790771Y-99145158D01*
X166801015Y-99166818D01*
X166809087Y-99189377D01*
X166814909Y-99212619D01*
X166818424Y-99236319D01*
X166819600Y-99260250D01*
X166819600Y-99748550D01*
X166818424Y-99772481D01*
X166814909Y-99796181D01*
X166809087Y-99819423D01*
X166801015Y-99841982D01*
X166790771Y-99863642D01*
X166778453Y-99884192D01*
X166764181Y-99903437D01*
X166748090Y-99921190D01*
X166730337Y-99937281D01*
X166711092Y-99951553D01*
X166690542Y-99963871D01*
X166668882Y-99974115D01*
X166646323Y-99982187D01*
X166623081Y-99988009D01*
X166599381Y-99991524D01*
X166575450Y-99992700D01*
X166012150Y-99992700D01*
X165988219Y-99991524D01*
X165964519Y-99988009D01*
X165941277Y-99982187D01*
X165918718Y-99974115D01*
X165897058Y-99963871D01*
X165876508Y-99951553D01*
X165857263Y-99937281D01*
X165839510Y-99921190D01*
X165823419Y-99903437D01*
X165809147Y-99884192D01*
X165796829Y-99863642D01*
X165786585Y-99841982D01*
X165778513Y-99819423D01*
X165772691Y-99796181D01*
X165769176Y-99772481D01*
X165768000Y-99748550D01*
X165768000Y-99260250D01*
X165769176Y-99236319D01*
X165772691Y-99212619D01*
X165778513Y-99189377D01*
X165786585Y-99166818D01*
X165796829Y-99145158D01*
X165809147Y-99124608D01*
X165823419Y-99105363D01*
X165839510Y-99087610D01*
X165857263Y-99071519D01*
X165876508Y-99057247D01*
X165897058Y-99044929D01*
X165918718Y-99034685D01*
X165941277Y-99026613D01*
X165964519Y-99020791D01*
X165988219Y-99017276D01*
X166012150Y-99016100D01*
X166575450Y-99016100D01*
X166599381Y-99017276D01*
X166599381Y-99017276D01*
G37*
D19*
X166293800Y-99504400D03*
D17*
G36*
X166599381Y-100592276D02*
G01*
X166623081Y-100595791D01*
X166646323Y-100601613D01*
X166668882Y-100609685D01*
X166690542Y-100619929D01*
X166711092Y-100632247D01*
X166730337Y-100646519D01*
X166748090Y-100662610D01*
X166764181Y-100680363D01*
X166778453Y-100699608D01*
X166790771Y-100720158D01*
X166801015Y-100741818D01*
X166809087Y-100764377D01*
X166814909Y-100787619D01*
X166818424Y-100811319D01*
X166819600Y-100835250D01*
X166819600Y-101323550D01*
X166818424Y-101347481D01*
X166814909Y-101371181D01*
X166809087Y-101394423D01*
X166801015Y-101416982D01*
X166790771Y-101438642D01*
X166778453Y-101459192D01*
X166764181Y-101478437D01*
X166748090Y-101496190D01*
X166730337Y-101512281D01*
X166711092Y-101526553D01*
X166690542Y-101538871D01*
X166668882Y-101549115D01*
X166646323Y-101557187D01*
X166623081Y-101563009D01*
X166599381Y-101566524D01*
X166575450Y-101567700D01*
X166012150Y-101567700D01*
X165988219Y-101566524D01*
X165964519Y-101563009D01*
X165941277Y-101557187D01*
X165918718Y-101549115D01*
X165897058Y-101538871D01*
X165876508Y-101526553D01*
X165857263Y-101512281D01*
X165839510Y-101496190D01*
X165823419Y-101478437D01*
X165809147Y-101459192D01*
X165796829Y-101438642D01*
X165786585Y-101416982D01*
X165778513Y-101394423D01*
X165772691Y-101371181D01*
X165769176Y-101347481D01*
X165768000Y-101323550D01*
X165768000Y-100835250D01*
X165769176Y-100811319D01*
X165772691Y-100787619D01*
X165778513Y-100764377D01*
X165786585Y-100741818D01*
X165796829Y-100720158D01*
X165809147Y-100699608D01*
X165823419Y-100680363D01*
X165839510Y-100662610D01*
X165857263Y-100646519D01*
X165876508Y-100632247D01*
X165897058Y-100619929D01*
X165918718Y-100609685D01*
X165941277Y-100601613D01*
X165964519Y-100595791D01*
X165988219Y-100592276D01*
X166012150Y-100591100D01*
X166575450Y-100591100D01*
X166599381Y-100592276D01*
X166599381Y-100592276D01*
G37*
D19*
X166293800Y-101079400D03*
D20*
X144666600Y-59086800D03*
D21*
X151876600Y-59586800D03*
X143236600Y-59586800D03*
D22*
X143236600Y-55436800D03*
X151876600Y-55436800D03*
D20*
X150446600Y-59086800D03*
D23*
X161617520Y-121538400D03*
X163617520Y-121538400D03*
X165617520Y-121538400D03*
X167617520Y-121538400D03*
X169617520Y-121538400D03*
X171617520Y-121538400D03*
X173617520Y-121538400D03*
X175617520Y-121538400D03*
X175617520Y-137338400D03*
X173617520Y-137338400D03*
X171617520Y-137338400D03*
X169617520Y-137338400D03*
X167617520Y-137338400D03*
X165617520Y-137338400D03*
X163617520Y-137338400D03*
X161617520Y-137338400D03*
D16*
X171192100Y-88264000D03*
D24*
X158242000Y-114604800D03*
X155702000Y-114604800D03*
X153162000Y-114604800D03*
X150622000Y-114604800D03*
X148082000Y-114604800D03*
D25*
X150598600Y-54508400D03*
X144498600Y-54508400D03*
X148548600Y-54508400D03*
X146548600Y-54508400D03*
D26*
X151048600Y-54508400D03*
X144048600Y-54508400D03*
D27*
X150048600Y-57208400D03*
X145048600Y-57208400D03*
D28*
X148848600Y-57183400D03*
X148198600Y-57183400D03*
X147548600Y-57183400D03*
X146898600Y-57183400D03*
X146248600Y-57183400D03*
D17*
G36*
X149112181Y-61273576D02*
G01*
X149135881Y-61277091D01*
X149159123Y-61282913D01*
X149181682Y-61290985D01*
X149203342Y-61301229D01*
X149223892Y-61313547D01*
X149243137Y-61327819D01*
X149260890Y-61343910D01*
X149276981Y-61361663D01*
X149291253Y-61380908D01*
X149303571Y-61401458D01*
X149313815Y-61423118D01*
X149321887Y-61445677D01*
X149327709Y-61468919D01*
X149331224Y-61492619D01*
X149332400Y-61516550D01*
X149332400Y-62079850D01*
X149331224Y-62103781D01*
X149327709Y-62127481D01*
X149321887Y-62150723D01*
X149313815Y-62173282D01*
X149303571Y-62194942D01*
X149291253Y-62215492D01*
X149276981Y-62234737D01*
X149260890Y-62252490D01*
X149243137Y-62268581D01*
X149223892Y-62282853D01*
X149203342Y-62295171D01*
X149181682Y-62305415D01*
X149159123Y-62313487D01*
X149135881Y-62319309D01*
X149112181Y-62322824D01*
X149088250Y-62324000D01*
X148599950Y-62324000D01*
X148576019Y-62322824D01*
X148552319Y-62319309D01*
X148529077Y-62313487D01*
X148506518Y-62305415D01*
X148484858Y-62295171D01*
X148464308Y-62282853D01*
X148445063Y-62268581D01*
X148427310Y-62252490D01*
X148411219Y-62234737D01*
X148396947Y-62215492D01*
X148384629Y-62194942D01*
X148374385Y-62173282D01*
X148366313Y-62150723D01*
X148360491Y-62127481D01*
X148356976Y-62103781D01*
X148355800Y-62079850D01*
X148355800Y-61516550D01*
X148356976Y-61492619D01*
X148360491Y-61468919D01*
X148366313Y-61445677D01*
X148374385Y-61423118D01*
X148384629Y-61401458D01*
X148396947Y-61380908D01*
X148411219Y-61361663D01*
X148427310Y-61343910D01*
X148445063Y-61327819D01*
X148464308Y-61313547D01*
X148484858Y-61301229D01*
X148506518Y-61290985D01*
X148529077Y-61282913D01*
X148552319Y-61277091D01*
X148576019Y-61273576D01*
X148599950Y-61272400D01*
X149088250Y-61272400D01*
X149112181Y-61273576D01*
X149112181Y-61273576D01*
G37*
D19*
X148844100Y-61798200D03*
D17*
G36*
X147537181Y-61273576D02*
G01*
X147560881Y-61277091D01*
X147584123Y-61282913D01*
X147606682Y-61290985D01*
X147628342Y-61301229D01*
X147648892Y-61313547D01*
X147668137Y-61327819D01*
X147685890Y-61343910D01*
X147701981Y-61361663D01*
X147716253Y-61380908D01*
X147728571Y-61401458D01*
X147738815Y-61423118D01*
X147746887Y-61445677D01*
X147752709Y-61468919D01*
X147756224Y-61492619D01*
X147757400Y-61516550D01*
X147757400Y-62079850D01*
X147756224Y-62103781D01*
X147752709Y-62127481D01*
X147746887Y-62150723D01*
X147738815Y-62173282D01*
X147728571Y-62194942D01*
X147716253Y-62215492D01*
X147701981Y-62234737D01*
X147685890Y-62252490D01*
X147668137Y-62268581D01*
X147648892Y-62282853D01*
X147628342Y-62295171D01*
X147606682Y-62305415D01*
X147584123Y-62313487D01*
X147560881Y-62319309D01*
X147537181Y-62322824D01*
X147513250Y-62324000D01*
X147024950Y-62324000D01*
X147001019Y-62322824D01*
X146977319Y-62319309D01*
X146954077Y-62313487D01*
X146931518Y-62305415D01*
X146909858Y-62295171D01*
X146889308Y-62282853D01*
X146870063Y-62268581D01*
X146852310Y-62252490D01*
X146836219Y-62234737D01*
X146821947Y-62215492D01*
X146809629Y-62194942D01*
X146799385Y-62173282D01*
X146791313Y-62150723D01*
X146785491Y-62127481D01*
X146781976Y-62103781D01*
X146780800Y-62079850D01*
X146780800Y-61516550D01*
X146781976Y-61492619D01*
X146785491Y-61468919D01*
X146791313Y-61445677D01*
X146799385Y-61423118D01*
X146809629Y-61401458D01*
X146821947Y-61380908D01*
X146836219Y-61361663D01*
X146852310Y-61343910D01*
X146870063Y-61327819D01*
X146889308Y-61313547D01*
X146909858Y-61301229D01*
X146931518Y-61290985D01*
X146954077Y-61282913D01*
X146977319Y-61277091D01*
X147001019Y-61273576D01*
X147024950Y-61272400D01*
X147513250Y-61272400D01*
X147537181Y-61273576D01*
X147537181Y-61273576D01*
G37*
D19*
X147269100Y-61798200D03*
D17*
G36*
X147537181Y-62568976D02*
G01*
X147560881Y-62572491D01*
X147584123Y-62578313D01*
X147606682Y-62586385D01*
X147628342Y-62596629D01*
X147648892Y-62608947D01*
X147668137Y-62623219D01*
X147685890Y-62639310D01*
X147701981Y-62657063D01*
X147716253Y-62676308D01*
X147728571Y-62696858D01*
X147738815Y-62718518D01*
X147746887Y-62741077D01*
X147752709Y-62764319D01*
X147756224Y-62788019D01*
X147757400Y-62811950D01*
X147757400Y-63375250D01*
X147756224Y-63399181D01*
X147752709Y-63422881D01*
X147746887Y-63446123D01*
X147738815Y-63468682D01*
X147728571Y-63490342D01*
X147716253Y-63510892D01*
X147701981Y-63530137D01*
X147685890Y-63547890D01*
X147668137Y-63563981D01*
X147648892Y-63578253D01*
X147628342Y-63590571D01*
X147606682Y-63600815D01*
X147584123Y-63608887D01*
X147560881Y-63614709D01*
X147537181Y-63618224D01*
X147513250Y-63619400D01*
X147024950Y-63619400D01*
X147001019Y-63618224D01*
X146977319Y-63614709D01*
X146954077Y-63608887D01*
X146931518Y-63600815D01*
X146909858Y-63590571D01*
X146889308Y-63578253D01*
X146870063Y-63563981D01*
X146852310Y-63547890D01*
X146836219Y-63530137D01*
X146821947Y-63510892D01*
X146809629Y-63490342D01*
X146799385Y-63468682D01*
X146791313Y-63446123D01*
X146785491Y-63422881D01*
X146781976Y-63399181D01*
X146780800Y-63375250D01*
X146780800Y-62811950D01*
X146781976Y-62788019D01*
X146785491Y-62764319D01*
X146791313Y-62741077D01*
X146799385Y-62718518D01*
X146809629Y-62696858D01*
X146821947Y-62676308D01*
X146836219Y-62657063D01*
X146852310Y-62639310D01*
X146870063Y-62623219D01*
X146889308Y-62608947D01*
X146909858Y-62596629D01*
X146931518Y-62586385D01*
X146954077Y-62578313D01*
X146977319Y-62572491D01*
X147001019Y-62568976D01*
X147024950Y-62567800D01*
X147513250Y-62567800D01*
X147537181Y-62568976D01*
X147537181Y-62568976D01*
G37*
D19*
X147269100Y-63093600D03*
D17*
G36*
X149112181Y-62568976D02*
G01*
X149135881Y-62572491D01*
X149159123Y-62578313D01*
X149181682Y-62586385D01*
X149203342Y-62596629D01*
X149223892Y-62608947D01*
X149243137Y-62623219D01*
X149260890Y-62639310D01*
X149276981Y-62657063D01*
X149291253Y-62676308D01*
X149303571Y-62696858D01*
X149313815Y-62718518D01*
X149321887Y-62741077D01*
X149327709Y-62764319D01*
X149331224Y-62788019D01*
X149332400Y-62811950D01*
X149332400Y-63375250D01*
X149331224Y-63399181D01*
X149327709Y-63422881D01*
X149321887Y-63446123D01*
X149313815Y-63468682D01*
X149303571Y-63490342D01*
X149291253Y-63510892D01*
X149276981Y-63530137D01*
X149260890Y-63547890D01*
X149243137Y-63563981D01*
X149223892Y-63578253D01*
X149203342Y-63590571D01*
X149181682Y-63600815D01*
X149159123Y-63608887D01*
X149135881Y-63614709D01*
X149112181Y-63618224D01*
X149088250Y-63619400D01*
X148599950Y-63619400D01*
X148576019Y-63618224D01*
X148552319Y-63614709D01*
X148529077Y-63608887D01*
X148506518Y-63600815D01*
X148484858Y-63590571D01*
X148464308Y-63578253D01*
X148445063Y-63563981D01*
X148427310Y-63547890D01*
X148411219Y-63530137D01*
X148396947Y-63510892D01*
X148384629Y-63490342D01*
X148374385Y-63468682D01*
X148366313Y-63446123D01*
X148360491Y-63422881D01*
X148356976Y-63399181D01*
X148355800Y-63375250D01*
X148355800Y-62811950D01*
X148356976Y-62788019D01*
X148360491Y-62764319D01*
X148366313Y-62741077D01*
X148374385Y-62718518D01*
X148384629Y-62696858D01*
X148396947Y-62676308D01*
X148411219Y-62657063D01*
X148427310Y-62639310D01*
X148445063Y-62623219D01*
X148464308Y-62608947D01*
X148484858Y-62596629D01*
X148506518Y-62586385D01*
X148529077Y-62578313D01*
X148552319Y-62572491D01*
X148576019Y-62568976D01*
X148599950Y-62567800D01*
X149088250Y-62567800D01*
X149112181Y-62568976D01*
X149112181Y-62568976D01*
G37*
D19*
X148844100Y-63093600D03*
D17*
G36*
X158535581Y-64753376D02*
G01*
X158559281Y-64756891D01*
X158582523Y-64762713D01*
X158605082Y-64770785D01*
X158626742Y-64781029D01*
X158647292Y-64793347D01*
X158666537Y-64807619D01*
X158684290Y-64823710D01*
X158700381Y-64841463D01*
X158714653Y-64860708D01*
X158726971Y-64881258D01*
X158737215Y-64902918D01*
X158745287Y-64925477D01*
X158751109Y-64948719D01*
X158754624Y-64972419D01*
X158755800Y-64996350D01*
X158755800Y-65559650D01*
X158754624Y-65583581D01*
X158751109Y-65607281D01*
X158745287Y-65630523D01*
X158737215Y-65653082D01*
X158726971Y-65674742D01*
X158714653Y-65695292D01*
X158700381Y-65714537D01*
X158684290Y-65732290D01*
X158666537Y-65748381D01*
X158647292Y-65762653D01*
X158626742Y-65774971D01*
X158605082Y-65785215D01*
X158582523Y-65793287D01*
X158559281Y-65799109D01*
X158535581Y-65802624D01*
X158511650Y-65803800D01*
X158023350Y-65803800D01*
X157999419Y-65802624D01*
X157975719Y-65799109D01*
X157952477Y-65793287D01*
X157929918Y-65785215D01*
X157908258Y-65774971D01*
X157887708Y-65762653D01*
X157868463Y-65748381D01*
X157850710Y-65732290D01*
X157834619Y-65714537D01*
X157820347Y-65695292D01*
X157808029Y-65674742D01*
X157797785Y-65653082D01*
X157789713Y-65630523D01*
X157783891Y-65607281D01*
X157780376Y-65583581D01*
X157779200Y-65559650D01*
X157779200Y-64996350D01*
X157780376Y-64972419D01*
X157783891Y-64948719D01*
X157789713Y-64925477D01*
X157797785Y-64902918D01*
X157808029Y-64881258D01*
X157820347Y-64860708D01*
X157834619Y-64841463D01*
X157850710Y-64823710D01*
X157868463Y-64807619D01*
X157887708Y-64793347D01*
X157908258Y-64781029D01*
X157929918Y-64770785D01*
X157952477Y-64762713D01*
X157975719Y-64756891D01*
X157999419Y-64753376D01*
X158023350Y-64752200D01*
X158511650Y-64752200D01*
X158535581Y-64753376D01*
X158535581Y-64753376D01*
G37*
D19*
X158267500Y-65278000D03*
D17*
G36*
X156960581Y-64753376D02*
G01*
X156984281Y-64756891D01*
X157007523Y-64762713D01*
X157030082Y-64770785D01*
X157051742Y-64781029D01*
X157072292Y-64793347D01*
X157091537Y-64807619D01*
X157109290Y-64823710D01*
X157125381Y-64841463D01*
X157139653Y-64860708D01*
X157151971Y-64881258D01*
X157162215Y-64902918D01*
X157170287Y-64925477D01*
X157176109Y-64948719D01*
X157179624Y-64972419D01*
X157180800Y-64996350D01*
X157180800Y-65559650D01*
X157179624Y-65583581D01*
X157176109Y-65607281D01*
X157170287Y-65630523D01*
X157162215Y-65653082D01*
X157151971Y-65674742D01*
X157139653Y-65695292D01*
X157125381Y-65714537D01*
X157109290Y-65732290D01*
X157091537Y-65748381D01*
X157072292Y-65762653D01*
X157051742Y-65774971D01*
X157030082Y-65785215D01*
X157007523Y-65793287D01*
X156984281Y-65799109D01*
X156960581Y-65802624D01*
X156936650Y-65803800D01*
X156448350Y-65803800D01*
X156424419Y-65802624D01*
X156400719Y-65799109D01*
X156377477Y-65793287D01*
X156354918Y-65785215D01*
X156333258Y-65774971D01*
X156312708Y-65762653D01*
X156293463Y-65748381D01*
X156275710Y-65732290D01*
X156259619Y-65714537D01*
X156245347Y-65695292D01*
X156233029Y-65674742D01*
X156222785Y-65653082D01*
X156214713Y-65630523D01*
X156208891Y-65607281D01*
X156205376Y-65583581D01*
X156204200Y-65559650D01*
X156204200Y-64996350D01*
X156205376Y-64972419D01*
X156208891Y-64948719D01*
X156214713Y-64925477D01*
X156222785Y-64902918D01*
X156233029Y-64881258D01*
X156245347Y-64860708D01*
X156259619Y-64841463D01*
X156275710Y-64823710D01*
X156293463Y-64807619D01*
X156312708Y-64793347D01*
X156333258Y-64781029D01*
X156354918Y-64770785D01*
X156377477Y-64762713D01*
X156400719Y-64756891D01*
X156424419Y-64753376D01*
X156448350Y-64752200D01*
X156936650Y-64752200D01*
X156960581Y-64753376D01*
X156960581Y-64753376D01*
G37*
D19*
X156692500Y-65278000D03*
D17*
G36*
X162269381Y-62416576D02*
G01*
X162293081Y-62420091D01*
X162316323Y-62425913D01*
X162338882Y-62433985D01*
X162360542Y-62444229D01*
X162381092Y-62456547D01*
X162400337Y-62470819D01*
X162418090Y-62486910D01*
X162434181Y-62504663D01*
X162448453Y-62523908D01*
X162460771Y-62544458D01*
X162471015Y-62566118D01*
X162479087Y-62588677D01*
X162484909Y-62611919D01*
X162488424Y-62635619D01*
X162489600Y-62659550D01*
X162489600Y-63222850D01*
X162488424Y-63246781D01*
X162484909Y-63270481D01*
X162479087Y-63293723D01*
X162471015Y-63316282D01*
X162460771Y-63337942D01*
X162448453Y-63358492D01*
X162434181Y-63377737D01*
X162418090Y-63395490D01*
X162400337Y-63411581D01*
X162381092Y-63425853D01*
X162360542Y-63438171D01*
X162338882Y-63448415D01*
X162316323Y-63456487D01*
X162293081Y-63462309D01*
X162269381Y-63465824D01*
X162245450Y-63467000D01*
X161757150Y-63467000D01*
X161733219Y-63465824D01*
X161709519Y-63462309D01*
X161686277Y-63456487D01*
X161663718Y-63448415D01*
X161642058Y-63438171D01*
X161621508Y-63425853D01*
X161602263Y-63411581D01*
X161584510Y-63395490D01*
X161568419Y-63377737D01*
X161554147Y-63358492D01*
X161541829Y-63337942D01*
X161531585Y-63316282D01*
X161523513Y-63293723D01*
X161517691Y-63270481D01*
X161514176Y-63246781D01*
X161513000Y-63222850D01*
X161513000Y-62659550D01*
X161514176Y-62635619D01*
X161517691Y-62611919D01*
X161523513Y-62588677D01*
X161531585Y-62566118D01*
X161541829Y-62544458D01*
X161554147Y-62523908D01*
X161568419Y-62504663D01*
X161584510Y-62486910D01*
X161602263Y-62470819D01*
X161621508Y-62456547D01*
X161642058Y-62444229D01*
X161663718Y-62433985D01*
X161686277Y-62425913D01*
X161709519Y-62420091D01*
X161733219Y-62416576D01*
X161757150Y-62415400D01*
X162245450Y-62415400D01*
X162269381Y-62416576D01*
X162269381Y-62416576D01*
G37*
D19*
X162001300Y-62941200D03*
D17*
G36*
X160694381Y-62416576D02*
G01*
X160718081Y-62420091D01*
X160741323Y-62425913D01*
X160763882Y-62433985D01*
X160785542Y-62444229D01*
X160806092Y-62456547D01*
X160825337Y-62470819D01*
X160843090Y-62486910D01*
X160859181Y-62504663D01*
X160873453Y-62523908D01*
X160885771Y-62544458D01*
X160896015Y-62566118D01*
X160904087Y-62588677D01*
X160909909Y-62611919D01*
X160913424Y-62635619D01*
X160914600Y-62659550D01*
X160914600Y-63222850D01*
X160913424Y-63246781D01*
X160909909Y-63270481D01*
X160904087Y-63293723D01*
X160896015Y-63316282D01*
X160885771Y-63337942D01*
X160873453Y-63358492D01*
X160859181Y-63377737D01*
X160843090Y-63395490D01*
X160825337Y-63411581D01*
X160806092Y-63425853D01*
X160785542Y-63438171D01*
X160763882Y-63448415D01*
X160741323Y-63456487D01*
X160718081Y-63462309D01*
X160694381Y-63465824D01*
X160670450Y-63467000D01*
X160182150Y-63467000D01*
X160158219Y-63465824D01*
X160134519Y-63462309D01*
X160111277Y-63456487D01*
X160088718Y-63448415D01*
X160067058Y-63438171D01*
X160046508Y-63425853D01*
X160027263Y-63411581D01*
X160009510Y-63395490D01*
X159993419Y-63377737D01*
X159979147Y-63358492D01*
X159966829Y-63337942D01*
X159956585Y-63316282D01*
X159948513Y-63293723D01*
X159942691Y-63270481D01*
X159939176Y-63246781D01*
X159938000Y-63222850D01*
X159938000Y-62659550D01*
X159939176Y-62635619D01*
X159942691Y-62611919D01*
X159948513Y-62588677D01*
X159956585Y-62566118D01*
X159966829Y-62544458D01*
X159979147Y-62523908D01*
X159993419Y-62504663D01*
X160009510Y-62486910D01*
X160027263Y-62470819D01*
X160046508Y-62456547D01*
X160067058Y-62444229D01*
X160088718Y-62433985D01*
X160111277Y-62425913D01*
X160134519Y-62420091D01*
X160158219Y-62416576D01*
X160182150Y-62415400D01*
X160670450Y-62415400D01*
X160694381Y-62416576D01*
X160694381Y-62416576D01*
G37*
D19*
X160426300Y-62941200D03*
D17*
G36*
X156452581Y-62416576D02*
G01*
X156476281Y-62420091D01*
X156499523Y-62425913D01*
X156522082Y-62433985D01*
X156543742Y-62444229D01*
X156564292Y-62456547D01*
X156583537Y-62470819D01*
X156601290Y-62486910D01*
X156617381Y-62504663D01*
X156631653Y-62523908D01*
X156643971Y-62544458D01*
X156654215Y-62566118D01*
X156662287Y-62588677D01*
X156668109Y-62611919D01*
X156671624Y-62635619D01*
X156672800Y-62659550D01*
X156672800Y-63222850D01*
X156671624Y-63246781D01*
X156668109Y-63270481D01*
X156662287Y-63293723D01*
X156654215Y-63316282D01*
X156643971Y-63337942D01*
X156631653Y-63358492D01*
X156617381Y-63377737D01*
X156601290Y-63395490D01*
X156583537Y-63411581D01*
X156564292Y-63425853D01*
X156543742Y-63438171D01*
X156522082Y-63448415D01*
X156499523Y-63456487D01*
X156476281Y-63462309D01*
X156452581Y-63465824D01*
X156428650Y-63467000D01*
X155940350Y-63467000D01*
X155916419Y-63465824D01*
X155892719Y-63462309D01*
X155869477Y-63456487D01*
X155846918Y-63448415D01*
X155825258Y-63438171D01*
X155804708Y-63425853D01*
X155785463Y-63411581D01*
X155767710Y-63395490D01*
X155751619Y-63377737D01*
X155737347Y-63358492D01*
X155725029Y-63337942D01*
X155714785Y-63316282D01*
X155706713Y-63293723D01*
X155700891Y-63270481D01*
X155697376Y-63246781D01*
X155696200Y-63222850D01*
X155696200Y-62659550D01*
X155697376Y-62635619D01*
X155700891Y-62611919D01*
X155706713Y-62588677D01*
X155714785Y-62566118D01*
X155725029Y-62544458D01*
X155737347Y-62523908D01*
X155751619Y-62504663D01*
X155767710Y-62486910D01*
X155785463Y-62470819D01*
X155804708Y-62456547D01*
X155825258Y-62444229D01*
X155846918Y-62433985D01*
X155869477Y-62425913D01*
X155892719Y-62420091D01*
X155916419Y-62416576D01*
X155940350Y-62415400D01*
X156428650Y-62415400D01*
X156452581Y-62416576D01*
X156452581Y-62416576D01*
G37*
D19*
X156184500Y-62941200D03*
D17*
G36*
X158027581Y-62416576D02*
G01*
X158051281Y-62420091D01*
X158074523Y-62425913D01*
X158097082Y-62433985D01*
X158118742Y-62444229D01*
X158139292Y-62456547D01*
X158158537Y-62470819D01*
X158176290Y-62486910D01*
X158192381Y-62504663D01*
X158206653Y-62523908D01*
X158218971Y-62544458D01*
X158229215Y-62566118D01*
X158237287Y-62588677D01*
X158243109Y-62611919D01*
X158246624Y-62635619D01*
X158247800Y-62659550D01*
X158247800Y-63222850D01*
X158246624Y-63246781D01*
X158243109Y-63270481D01*
X158237287Y-63293723D01*
X158229215Y-63316282D01*
X158218971Y-63337942D01*
X158206653Y-63358492D01*
X158192381Y-63377737D01*
X158176290Y-63395490D01*
X158158537Y-63411581D01*
X158139292Y-63425853D01*
X158118742Y-63438171D01*
X158097082Y-63448415D01*
X158074523Y-63456487D01*
X158051281Y-63462309D01*
X158027581Y-63465824D01*
X158003650Y-63467000D01*
X157515350Y-63467000D01*
X157491419Y-63465824D01*
X157467719Y-63462309D01*
X157444477Y-63456487D01*
X157421918Y-63448415D01*
X157400258Y-63438171D01*
X157379708Y-63425853D01*
X157360463Y-63411581D01*
X157342710Y-63395490D01*
X157326619Y-63377737D01*
X157312347Y-63358492D01*
X157300029Y-63337942D01*
X157289785Y-63316282D01*
X157281713Y-63293723D01*
X157275891Y-63270481D01*
X157272376Y-63246781D01*
X157271200Y-63222850D01*
X157271200Y-62659550D01*
X157272376Y-62635619D01*
X157275891Y-62611919D01*
X157281713Y-62588677D01*
X157289785Y-62566118D01*
X157300029Y-62544458D01*
X157312347Y-62523908D01*
X157326619Y-62504663D01*
X157342710Y-62486910D01*
X157360463Y-62470819D01*
X157379708Y-62456547D01*
X157400258Y-62444229D01*
X157421918Y-62433985D01*
X157444477Y-62425913D01*
X157467719Y-62420091D01*
X157491419Y-62416576D01*
X157515350Y-62415400D01*
X158003650Y-62415400D01*
X158027581Y-62416576D01*
X158027581Y-62416576D01*
G37*
D19*
X157759500Y-62941200D03*
D29*
X147481200Y-71120000D03*
X149851200Y-71120000D03*
D17*
G36*
X155601181Y-70912376D02*
G01*
X155624881Y-70915891D01*
X155648123Y-70921713D01*
X155670682Y-70929785D01*
X155692342Y-70940029D01*
X155712892Y-70952347D01*
X155732137Y-70966619D01*
X155749890Y-70982710D01*
X155765981Y-71000463D01*
X155780253Y-71019708D01*
X155792571Y-71040258D01*
X155802815Y-71061918D01*
X155810887Y-71084477D01*
X155816709Y-71107719D01*
X155820224Y-71131419D01*
X155821400Y-71155350D01*
X155821400Y-71643650D01*
X155820224Y-71667581D01*
X155816709Y-71691281D01*
X155810887Y-71714523D01*
X155802815Y-71737082D01*
X155792571Y-71758742D01*
X155780253Y-71779292D01*
X155765981Y-71798537D01*
X155749890Y-71816290D01*
X155732137Y-71832381D01*
X155712892Y-71846653D01*
X155692342Y-71858971D01*
X155670682Y-71869215D01*
X155648123Y-71877287D01*
X155624881Y-71883109D01*
X155601181Y-71886624D01*
X155577250Y-71887800D01*
X155013950Y-71887800D01*
X154990019Y-71886624D01*
X154966319Y-71883109D01*
X154943077Y-71877287D01*
X154920518Y-71869215D01*
X154898858Y-71858971D01*
X154878308Y-71846653D01*
X154859063Y-71832381D01*
X154841310Y-71816290D01*
X154825219Y-71798537D01*
X154810947Y-71779292D01*
X154798629Y-71758742D01*
X154788385Y-71737082D01*
X154780313Y-71714523D01*
X154774491Y-71691281D01*
X154770976Y-71667581D01*
X154769800Y-71643650D01*
X154769800Y-71155350D01*
X154770976Y-71131419D01*
X154774491Y-71107719D01*
X154780313Y-71084477D01*
X154788385Y-71061918D01*
X154798629Y-71040258D01*
X154810947Y-71019708D01*
X154825219Y-71000463D01*
X154841310Y-70982710D01*
X154859063Y-70966619D01*
X154878308Y-70952347D01*
X154898858Y-70940029D01*
X154920518Y-70929785D01*
X154943077Y-70921713D01*
X154966319Y-70915891D01*
X154990019Y-70912376D01*
X155013950Y-70911200D01*
X155577250Y-70911200D01*
X155601181Y-70912376D01*
X155601181Y-70912376D01*
G37*
D19*
X155295600Y-71399500D03*
D17*
G36*
X155601181Y-69337376D02*
G01*
X155624881Y-69340891D01*
X155648123Y-69346713D01*
X155670682Y-69354785D01*
X155692342Y-69365029D01*
X155712892Y-69377347D01*
X155732137Y-69391619D01*
X155749890Y-69407710D01*
X155765981Y-69425463D01*
X155780253Y-69444708D01*
X155792571Y-69465258D01*
X155802815Y-69486918D01*
X155810887Y-69509477D01*
X155816709Y-69532719D01*
X155820224Y-69556419D01*
X155821400Y-69580350D01*
X155821400Y-70068650D01*
X155820224Y-70092581D01*
X155816709Y-70116281D01*
X155810887Y-70139523D01*
X155802815Y-70162082D01*
X155792571Y-70183742D01*
X155780253Y-70204292D01*
X155765981Y-70223537D01*
X155749890Y-70241290D01*
X155732137Y-70257381D01*
X155712892Y-70271653D01*
X155692342Y-70283971D01*
X155670682Y-70294215D01*
X155648123Y-70302287D01*
X155624881Y-70308109D01*
X155601181Y-70311624D01*
X155577250Y-70312800D01*
X155013950Y-70312800D01*
X154990019Y-70311624D01*
X154966319Y-70308109D01*
X154943077Y-70302287D01*
X154920518Y-70294215D01*
X154898858Y-70283971D01*
X154878308Y-70271653D01*
X154859063Y-70257381D01*
X154841310Y-70241290D01*
X154825219Y-70223537D01*
X154810947Y-70204292D01*
X154798629Y-70183742D01*
X154788385Y-70162082D01*
X154780313Y-70139523D01*
X154774491Y-70116281D01*
X154770976Y-70092581D01*
X154769800Y-70068650D01*
X154769800Y-69580350D01*
X154770976Y-69556419D01*
X154774491Y-69532719D01*
X154780313Y-69509477D01*
X154788385Y-69486918D01*
X154798629Y-69465258D01*
X154810947Y-69444708D01*
X154825219Y-69425463D01*
X154841310Y-69407710D01*
X154859063Y-69391619D01*
X154878308Y-69377347D01*
X154898858Y-69365029D01*
X154920518Y-69354785D01*
X154943077Y-69346713D01*
X154966319Y-69340891D01*
X154990019Y-69337376D01*
X155013950Y-69336200D01*
X155577250Y-69336200D01*
X155601181Y-69337376D01*
X155601181Y-69337376D01*
G37*
D19*
X155295600Y-69824500D03*
D17*
G36*
X151968981Y-70912376D02*
G01*
X151992681Y-70915891D01*
X152015923Y-70921713D01*
X152038482Y-70929785D01*
X152060142Y-70940029D01*
X152080692Y-70952347D01*
X152099937Y-70966619D01*
X152117690Y-70982710D01*
X152133781Y-71000463D01*
X152148053Y-71019708D01*
X152160371Y-71040258D01*
X152170615Y-71061918D01*
X152178687Y-71084477D01*
X152184509Y-71107719D01*
X152188024Y-71131419D01*
X152189200Y-71155350D01*
X152189200Y-71643650D01*
X152188024Y-71667581D01*
X152184509Y-71691281D01*
X152178687Y-71714523D01*
X152170615Y-71737082D01*
X152160371Y-71758742D01*
X152148053Y-71779292D01*
X152133781Y-71798537D01*
X152117690Y-71816290D01*
X152099937Y-71832381D01*
X152080692Y-71846653D01*
X152060142Y-71858971D01*
X152038482Y-71869215D01*
X152015923Y-71877287D01*
X151992681Y-71883109D01*
X151968981Y-71886624D01*
X151945050Y-71887800D01*
X151381750Y-71887800D01*
X151357819Y-71886624D01*
X151334119Y-71883109D01*
X151310877Y-71877287D01*
X151288318Y-71869215D01*
X151266658Y-71858971D01*
X151246108Y-71846653D01*
X151226863Y-71832381D01*
X151209110Y-71816290D01*
X151193019Y-71798537D01*
X151178747Y-71779292D01*
X151166429Y-71758742D01*
X151156185Y-71737082D01*
X151148113Y-71714523D01*
X151142291Y-71691281D01*
X151138776Y-71667581D01*
X151137600Y-71643650D01*
X151137600Y-71155350D01*
X151138776Y-71131419D01*
X151142291Y-71107719D01*
X151148113Y-71084477D01*
X151156185Y-71061918D01*
X151166429Y-71040258D01*
X151178747Y-71019708D01*
X151193019Y-71000463D01*
X151209110Y-70982710D01*
X151226863Y-70966619D01*
X151246108Y-70952347D01*
X151266658Y-70940029D01*
X151288318Y-70929785D01*
X151310877Y-70921713D01*
X151334119Y-70915891D01*
X151357819Y-70912376D01*
X151381750Y-70911200D01*
X151945050Y-70911200D01*
X151968981Y-70912376D01*
X151968981Y-70912376D01*
G37*
D19*
X151663400Y-71399500D03*
D17*
G36*
X151968981Y-69337376D02*
G01*
X151992681Y-69340891D01*
X152015923Y-69346713D01*
X152038482Y-69354785D01*
X152060142Y-69365029D01*
X152080692Y-69377347D01*
X152099937Y-69391619D01*
X152117690Y-69407710D01*
X152133781Y-69425463D01*
X152148053Y-69444708D01*
X152160371Y-69465258D01*
X152170615Y-69486918D01*
X152178687Y-69509477D01*
X152184509Y-69532719D01*
X152188024Y-69556419D01*
X152189200Y-69580350D01*
X152189200Y-70068650D01*
X152188024Y-70092581D01*
X152184509Y-70116281D01*
X152178687Y-70139523D01*
X152170615Y-70162082D01*
X152160371Y-70183742D01*
X152148053Y-70204292D01*
X152133781Y-70223537D01*
X152117690Y-70241290D01*
X152099937Y-70257381D01*
X152080692Y-70271653D01*
X152060142Y-70283971D01*
X152038482Y-70294215D01*
X152015923Y-70302287D01*
X151992681Y-70308109D01*
X151968981Y-70311624D01*
X151945050Y-70312800D01*
X151381750Y-70312800D01*
X151357819Y-70311624D01*
X151334119Y-70308109D01*
X151310877Y-70302287D01*
X151288318Y-70294215D01*
X151266658Y-70283971D01*
X151246108Y-70271653D01*
X151226863Y-70257381D01*
X151209110Y-70241290D01*
X151193019Y-70223537D01*
X151178747Y-70204292D01*
X151166429Y-70183742D01*
X151156185Y-70162082D01*
X151148113Y-70139523D01*
X151142291Y-70116281D01*
X151138776Y-70092581D01*
X151137600Y-70068650D01*
X151137600Y-69580350D01*
X151138776Y-69556419D01*
X151142291Y-69532719D01*
X151148113Y-69509477D01*
X151156185Y-69486918D01*
X151166429Y-69465258D01*
X151178747Y-69444708D01*
X151193019Y-69425463D01*
X151209110Y-69407710D01*
X151226863Y-69391619D01*
X151246108Y-69377347D01*
X151266658Y-69365029D01*
X151288318Y-69354785D01*
X151310877Y-69346713D01*
X151334119Y-69340891D01*
X151357819Y-69337376D01*
X151381750Y-69336200D01*
X151945050Y-69336200D01*
X151968981Y-69337376D01*
X151968981Y-69337376D01*
G37*
D19*
X151663400Y-69824500D03*
D17*
G36*
X153721581Y-70912376D02*
G01*
X153745281Y-70915891D01*
X153768523Y-70921713D01*
X153791082Y-70929785D01*
X153812742Y-70940029D01*
X153833292Y-70952347D01*
X153852537Y-70966619D01*
X153870290Y-70982710D01*
X153886381Y-71000463D01*
X153900653Y-71019708D01*
X153912971Y-71040258D01*
X153923215Y-71061918D01*
X153931287Y-71084477D01*
X153937109Y-71107719D01*
X153940624Y-71131419D01*
X153941800Y-71155350D01*
X153941800Y-71643650D01*
X153940624Y-71667581D01*
X153937109Y-71691281D01*
X153931287Y-71714523D01*
X153923215Y-71737082D01*
X153912971Y-71758742D01*
X153900653Y-71779292D01*
X153886381Y-71798537D01*
X153870290Y-71816290D01*
X153852537Y-71832381D01*
X153833292Y-71846653D01*
X153812742Y-71858971D01*
X153791082Y-71869215D01*
X153768523Y-71877287D01*
X153745281Y-71883109D01*
X153721581Y-71886624D01*
X153697650Y-71887800D01*
X153134350Y-71887800D01*
X153110419Y-71886624D01*
X153086719Y-71883109D01*
X153063477Y-71877287D01*
X153040918Y-71869215D01*
X153019258Y-71858971D01*
X152998708Y-71846653D01*
X152979463Y-71832381D01*
X152961710Y-71816290D01*
X152945619Y-71798537D01*
X152931347Y-71779292D01*
X152919029Y-71758742D01*
X152908785Y-71737082D01*
X152900713Y-71714523D01*
X152894891Y-71691281D01*
X152891376Y-71667581D01*
X152890200Y-71643650D01*
X152890200Y-71155350D01*
X152891376Y-71131419D01*
X152894891Y-71107719D01*
X152900713Y-71084477D01*
X152908785Y-71061918D01*
X152919029Y-71040258D01*
X152931347Y-71019708D01*
X152945619Y-71000463D01*
X152961710Y-70982710D01*
X152979463Y-70966619D01*
X152998708Y-70952347D01*
X153019258Y-70940029D01*
X153040918Y-70929785D01*
X153063477Y-70921713D01*
X153086719Y-70915891D01*
X153110419Y-70912376D01*
X153134350Y-70911200D01*
X153697650Y-70911200D01*
X153721581Y-70912376D01*
X153721581Y-70912376D01*
G37*
D19*
X153416000Y-71399500D03*
D17*
G36*
X153721581Y-69337376D02*
G01*
X153745281Y-69340891D01*
X153768523Y-69346713D01*
X153791082Y-69354785D01*
X153812742Y-69365029D01*
X153833292Y-69377347D01*
X153852537Y-69391619D01*
X153870290Y-69407710D01*
X153886381Y-69425463D01*
X153900653Y-69444708D01*
X153912971Y-69465258D01*
X153923215Y-69486918D01*
X153931287Y-69509477D01*
X153937109Y-69532719D01*
X153940624Y-69556419D01*
X153941800Y-69580350D01*
X153941800Y-70068650D01*
X153940624Y-70092581D01*
X153937109Y-70116281D01*
X153931287Y-70139523D01*
X153923215Y-70162082D01*
X153912971Y-70183742D01*
X153900653Y-70204292D01*
X153886381Y-70223537D01*
X153870290Y-70241290D01*
X153852537Y-70257381D01*
X153833292Y-70271653D01*
X153812742Y-70283971D01*
X153791082Y-70294215D01*
X153768523Y-70302287D01*
X153745281Y-70308109D01*
X153721581Y-70311624D01*
X153697650Y-70312800D01*
X153134350Y-70312800D01*
X153110419Y-70311624D01*
X153086719Y-70308109D01*
X153063477Y-70302287D01*
X153040918Y-70294215D01*
X153019258Y-70283971D01*
X152998708Y-70271653D01*
X152979463Y-70257381D01*
X152961710Y-70241290D01*
X152945619Y-70223537D01*
X152931347Y-70204292D01*
X152919029Y-70183742D01*
X152908785Y-70162082D01*
X152900713Y-70139523D01*
X152894891Y-70116281D01*
X152891376Y-70092581D01*
X152890200Y-70068650D01*
X152890200Y-69580350D01*
X152891376Y-69556419D01*
X152894891Y-69532719D01*
X152900713Y-69509477D01*
X152908785Y-69486918D01*
X152919029Y-69465258D01*
X152931347Y-69444708D01*
X152945619Y-69425463D01*
X152961710Y-69407710D01*
X152979463Y-69391619D01*
X152998708Y-69377347D01*
X153019258Y-69365029D01*
X153040918Y-69354785D01*
X153063477Y-69346713D01*
X153086719Y-69340891D01*
X153110419Y-69337376D01*
X153134350Y-69336200D01*
X153697650Y-69336200D01*
X153721581Y-69337376D01*
X153721581Y-69337376D01*
G37*
D19*
X153416000Y-69824500D03*
D17*
G36*
X148971781Y-67330976D02*
G01*
X148995481Y-67334491D01*
X149018723Y-67340313D01*
X149041282Y-67348385D01*
X149062942Y-67358629D01*
X149083492Y-67370947D01*
X149102737Y-67385219D01*
X149120490Y-67401310D01*
X149136581Y-67419063D01*
X149150853Y-67438308D01*
X149163171Y-67458858D01*
X149173415Y-67480518D01*
X149181487Y-67503077D01*
X149187309Y-67526319D01*
X149190824Y-67550019D01*
X149192000Y-67573950D01*
X149192000Y-68062250D01*
X149190824Y-68086181D01*
X149187309Y-68109881D01*
X149181487Y-68133123D01*
X149173415Y-68155682D01*
X149163171Y-68177342D01*
X149150853Y-68197892D01*
X149136581Y-68217137D01*
X149120490Y-68234890D01*
X149102737Y-68250981D01*
X149083492Y-68265253D01*
X149062942Y-68277571D01*
X149041282Y-68287815D01*
X149018723Y-68295887D01*
X148995481Y-68301709D01*
X148971781Y-68305224D01*
X148947850Y-68306400D01*
X148384550Y-68306400D01*
X148360619Y-68305224D01*
X148336919Y-68301709D01*
X148313677Y-68295887D01*
X148291118Y-68287815D01*
X148269458Y-68277571D01*
X148248908Y-68265253D01*
X148229663Y-68250981D01*
X148211910Y-68234890D01*
X148195819Y-68217137D01*
X148181547Y-68197892D01*
X148169229Y-68177342D01*
X148158985Y-68155682D01*
X148150913Y-68133123D01*
X148145091Y-68109881D01*
X148141576Y-68086181D01*
X148140400Y-68062250D01*
X148140400Y-67573950D01*
X148141576Y-67550019D01*
X148145091Y-67526319D01*
X148150913Y-67503077D01*
X148158985Y-67480518D01*
X148169229Y-67458858D01*
X148181547Y-67438308D01*
X148195819Y-67419063D01*
X148211910Y-67401310D01*
X148229663Y-67385219D01*
X148248908Y-67370947D01*
X148269458Y-67358629D01*
X148291118Y-67348385D01*
X148313677Y-67340313D01*
X148336919Y-67334491D01*
X148360619Y-67330976D01*
X148384550Y-67329800D01*
X148947850Y-67329800D01*
X148971781Y-67330976D01*
X148971781Y-67330976D01*
G37*
D19*
X148666200Y-67818100D03*
D17*
G36*
X148971781Y-65755976D02*
G01*
X148995481Y-65759491D01*
X149018723Y-65765313D01*
X149041282Y-65773385D01*
X149062942Y-65783629D01*
X149083492Y-65795947D01*
X149102737Y-65810219D01*
X149120490Y-65826310D01*
X149136581Y-65844063D01*
X149150853Y-65863308D01*
X149163171Y-65883858D01*
X149173415Y-65905518D01*
X149181487Y-65928077D01*
X149187309Y-65951319D01*
X149190824Y-65975019D01*
X149192000Y-65998950D01*
X149192000Y-66487250D01*
X149190824Y-66511181D01*
X149187309Y-66534881D01*
X149181487Y-66558123D01*
X149173415Y-66580682D01*
X149163171Y-66602342D01*
X149150853Y-66622892D01*
X149136581Y-66642137D01*
X149120490Y-66659890D01*
X149102737Y-66675981D01*
X149083492Y-66690253D01*
X149062942Y-66702571D01*
X149041282Y-66712815D01*
X149018723Y-66720887D01*
X148995481Y-66726709D01*
X148971781Y-66730224D01*
X148947850Y-66731400D01*
X148384550Y-66731400D01*
X148360619Y-66730224D01*
X148336919Y-66726709D01*
X148313677Y-66720887D01*
X148291118Y-66712815D01*
X148269458Y-66702571D01*
X148248908Y-66690253D01*
X148229663Y-66675981D01*
X148211910Y-66659890D01*
X148195819Y-66642137D01*
X148181547Y-66622892D01*
X148169229Y-66602342D01*
X148158985Y-66580682D01*
X148150913Y-66558123D01*
X148145091Y-66534881D01*
X148141576Y-66511181D01*
X148140400Y-66487250D01*
X148140400Y-65998950D01*
X148141576Y-65975019D01*
X148145091Y-65951319D01*
X148150913Y-65928077D01*
X148158985Y-65905518D01*
X148169229Y-65883858D01*
X148181547Y-65863308D01*
X148195819Y-65844063D01*
X148211910Y-65826310D01*
X148229663Y-65810219D01*
X148248908Y-65795947D01*
X148269458Y-65783629D01*
X148291118Y-65773385D01*
X148313677Y-65765313D01*
X148336919Y-65759491D01*
X148360619Y-65755976D01*
X148384550Y-65754800D01*
X148947850Y-65754800D01*
X148971781Y-65755976D01*
X148971781Y-65755976D01*
G37*
D19*
X148666200Y-66243100D03*
D17*
G36*
X149086781Y-63889776D02*
G01*
X149110481Y-63893291D01*
X149133723Y-63899113D01*
X149156282Y-63907185D01*
X149177942Y-63917429D01*
X149198492Y-63929747D01*
X149217737Y-63944019D01*
X149235490Y-63960110D01*
X149251581Y-63977863D01*
X149265853Y-63997108D01*
X149278171Y-64017658D01*
X149288415Y-64039318D01*
X149296487Y-64061877D01*
X149302309Y-64085119D01*
X149305824Y-64108819D01*
X149307000Y-64132750D01*
X149307000Y-64696050D01*
X149305824Y-64719981D01*
X149302309Y-64743681D01*
X149296487Y-64766923D01*
X149288415Y-64789482D01*
X149278171Y-64811142D01*
X149265853Y-64831692D01*
X149251581Y-64850937D01*
X149235490Y-64868690D01*
X149217737Y-64884781D01*
X149198492Y-64899053D01*
X149177942Y-64911371D01*
X149156282Y-64921615D01*
X149133723Y-64929687D01*
X149110481Y-64935509D01*
X149086781Y-64939024D01*
X149062850Y-64940200D01*
X148574550Y-64940200D01*
X148550619Y-64939024D01*
X148526919Y-64935509D01*
X148503677Y-64929687D01*
X148481118Y-64921615D01*
X148459458Y-64911371D01*
X148438908Y-64899053D01*
X148419663Y-64884781D01*
X148401910Y-64868690D01*
X148385819Y-64850937D01*
X148371547Y-64831692D01*
X148359229Y-64811142D01*
X148348985Y-64789482D01*
X148340913Y-64766923D01*
X148335091Y-64743681D01*
X148331576Y-64719981D01*
X148330400Y-64696050D01*
X148330400Y-64132750D01*
X148331576Y-64108819D01*
X148335091Y-64085119D01*
X148340913Y-64061877D01*
X148348985Y-64039318D01*
X148359229Y-64017658D01*
X148371547Y-63997108D01*
X148385819Y-63977863D01*
X148401910Y-63960110D01*
X148419663Y-63944019D01*
X148438908Y-63929747D01*
X148459458Y-63917429D01*
X148481118Y-63907185D01*
X148503677Y-63899113D01*
X148526919Y-63893291D01*
X148550619Y-63889776D01*
X148574550Y-63888600D01*
X149062850Y-63888600D01*
X149086781Y-63889776D01*
X149086781Y-63889776D01*
G37*
D19*
X148818700Y-64414400D03*
D17*
G36*
X147511781Y-63889776D02*
G01*
X147535481Y-63893291D01*
X147558723Y-63899113D01*
X147581282Y-63907185D01*
X147602942Y-63917429D01*
X147623492Y-63929747D01*
X147642737Y-63944019D01*
X147660490Y-63960110D01*
X147676581Y-63977863D01*
X147690853Y-63997108D01*
X147703171Y-64017658D01*
X147713415Y-64039318D01*
X147721487Y-64061877D01*
X147727309Y-64085119D01*
X147730824Y-64108819D01*
X147732000Y-64132750D01*
X147732000Y-64696050D01*
X147730824Y-64719981D01*
X147727309Y-64743681D01*
X147721487Y-64766923D01*
X147713415Y-64789482D01*
X147703171Y-64811142D01*
X147690853Y-64831692D01*
X147676581Y-64850937D01*
X147660490Y-64868690D01*
X147642737Y-64884781D01*
X147623492Y-64899053D01*
X147602942Y-64911371D01*
X147581282Y-64921615D01*
X147558723Y-64929687D01*
X147535481Y-64935509D01*
X147511781Y-64939024D01*
X147487850Y-64940200D01*
X146999550Y-64940200D01*
X146975619Y-64939024D01*
X146951919Y-64935509D01*
X146928677Y-64929687D01*
X146906118Y-64921615D01*
X146884458Y-64911371D01*
X146863908Y-64899053D01*
X146844663Y-64884781D01*
X146826910Y-64868690D01*
X146810819Y-64850937D01*
X146796547Y-64831692D01*
X146784229Y-64811142D01*
X146773985Y-64789482D01*
X146765913Y-64766923D01*
X146760091Y-64743681D01*
X146756576Y-64719981D01*
X146755400Y-64696050D01*
X146755400Y-64132750D01*
X146756576Y-64108819D01*
X146760091Y-64085119D01*
X146765913Y-64061877D01*
X146773985Y-64039318D01*
X146784229Y-64017658D01*
X146796547Y-63997108D01*
X146810819Y-63977863D01*
X146826910Y-63960110D01*
X146844663Y-63944019D01*
X146863908Y-63929747D01*
X146884458Y-63917429D01*
X146906118Y-63907185D01*
X146928677Y-63899113D01*
X146951919Y-63893291D01*
X146975619Y-63889776D01*
X146999550Y-63888600D01*
X147487850Y-63888600D01*
X147511781Y-63889776D01*
X147511781Y-63889776D01*
G37*
D19*
X147243700Y-64414400D03*
D30*
X101571100Y-110284096D03*
X101571100Y-115364096D03*
X106651100Y-115364096D03*
X106651100Y-110284096D03*
D31*
X104111100Y-112824096D03*
D30*
X101571100Y-121714096D03*
X101571100Y-126794096D03*
X106651100Y-126794096D03*
X106651100Y-121714096D03*
D31*
X104111100Y-124254096D03*
D32*
X186436000Y-54356000D03*
X100838000Y-54864000D03*
X100330000Y-146558000D03*
D33*
X175617520Y-103528096D03*
X173617520Y-103528096D03*
X171617520Y-103528096D03*
X169617520Y-103528096D03*
X167617520Y-103528096D03*
X165617520Y-103528096D03*
X163617520Y-103528096D03*
X161617520Y-103528096D03*
X175617520Y-137344096D03*
X173617520Y-137344096D03*
X171617520Y-137344096D03*
X169617520Y-137344096D03*
X167617520Y-137344096D03*
X165617520Y-137344096D03*
X163617520Y-137344096D03*
X161617520Y-137344096D03*
D30*
X180467000Y-137224096D03*
X180467000Y-132144096D03*
X185547000Y-132144096D03*
X185547000Y-137224096D03*
D31*
X183007000Y-134684096D03*
D34*
X107226100Y-57569100D03*
D35*
X131799460Y-64757300D03*
X134339460Y-64757300D03*
X136879460Y-64757300D03*
X139419460Y-64757300D03*
X141959460Y-64757300D03*
D36*
X144245460Y-67297300D03*
X144245460Y-69837300D03*
X144245460Y-72377300D03*
X144245460Y-74917300D03*
X144245460Y-77457300D03*
X144245460Y-79997300D03*
X144245460Y-82537300D03*
X144245460Y-85077300D03*
X144245460Y-87617300D03*
X129513460Y-87617300D03*
X129513460Y-85077300D03*
X129513460Y-82537300D03*
X129513460Y-79997300D03*
X129513460Y-77457300D03*
X129513460Y-74917300D03*
X129513460Y-72377300D03*
X129513460Y-69837300D03*
X129513460Y-67297300D03*
D35*
X111503460Y-64757300D03*
X114043460Y-64757300D03*
X116583460Y-64757300D03*
X119123460Y-64757300D03*
X121663460Y-64757300D03*
D36*
X123949460Y-67297300D03*
X123949460Y-69837300D03*
X123949460Y-72377300D03*
X123949460Y-74917300D03*
X123949460Y-77457300D03*
X123949460Y-79997300D03*
X123949460Y-82537300D03*
X123949460Y-85077300D03*
X123949460Y-87617300D03*
X109217460Y-87617300D03*
X109217460Y-85077300D03*
X109217460Y-82537300D03*
X109217460Y-79997300D03*
X109217460Y-77457300D03*
X109217460Y-74917300D03*
X109217460Y-72377300D03*
X109217460Y-69837300D03*
X109217460Y-67297300D03*
D37*
X124307600Y-144322800D03*
X121767600Y-144322800D03*
D17*
G36*
X133655581Y-122855376D02*
G01*
X133679281Y-122858891D01*
X133702523Y-122864713D01*
X133725082Y-122872785D01*
X133746742Y-122883029D01*
X133767292Y-122895347D01*
X133786537Y-122909619D01*
X133804290Y-122925710D01*
X133820381Y-122943463D01*
X133834653Y-122962708D01*
X133846971Y-122983258D01*
X133857215Y-123004918D01*
X133865287Y-123027477D01*
X133871109Y-123050719D01*
X133874624Y-123074419D01*
X133875800Y-123098350D01*
X133875800Y-123586650D01*
X133874624Y-123610581D01*
X133871109Y-123634281D01*
X133865287Y-123657523D01*
X133857215Y-123680082D01*
X133846971Y-123701742D01*
X133834653Y-123722292D01*
X133820381Y-123741537D01*
X133804290Y-123759290D01*
X133786537Y-123775381D01*
X133767292Y-123789653D01*
X133746742Y-123801971D01*
X133725082Y-123812215D01*
X133702523Y-123820287D01*
X133679281Y-123826109D01*
X133655581Y-123829624D01*
X133631650Y-123830800D01*
X133068350Y-123830800D01*
X133044419Y-123829624D01*
X133020719Y-123826109D01*
X132997477Y-123820287D01*
X132974918Y-123812215D01*
X132953258Y-123801971D01*
X132932708Y-123789653D01*
X132913463Y-123775381D01*
X132895710Y-123759290D01*
X132879619Y-123741537D01*
X132865347Y-123722292D01*
X132853029Y-123701742D01*
X132842785Y-123680082D01*
X132834713Y-123657523D01*
X132828891Y-123634281D01*
X132825376Y-123610581D01*
X132824200Y-123586650D01*
X132824200Y-123098350D01*
X132825376Y-123074419D01*
X132828891Y-123050719D01*
X132834713Y-123027477D01*
X132842785Y-123004918D01*
X132853029Y-122983258D01*
X132865347Y-122962708D01*
X132879619Y-122943463D01*
X132895710Y-122925710D01*
X132913463Y-122909619D01*
X132932708Y-122895347D01*
X132953258Y-122883029D01*
X132974918Y-122872785D01*
X132997477Y-122864713D01*
X133020719Y-122858891D01*
X133044419Y-122855376D01*
X133068350Y-122854200D01*
X133631650Y-122854200D01*
X133655581Y-122855376D01*
X133655581Y-122855376D01*
G37*
D19*
X133350000Y-123342500D03*
D17*
G36*
X133655581Y-121280376D02*
G01*
X133679281Y-121283891D01*
X133702523Y-121289713D01*
X133725082Y-121297785D01*
X133746742Y-121308029D01*
X133767292Y-121320347D01*
X133786537Y-121334619D01*
X133804290Y-121350710D01*
X133820381Y-121368463D01*
X133834653Y-121387708D01*
X133846971Y-121408258D01*
X133857215Y-121429918D01*
X133865287Y-121452477D01*
X133871109Y-121475719D01*
X133874624Y-121499419D01*
X133875800Y-121523350D01*
X133875800Y-122011650D01*
X133874624Y-122035581D01*
X133871109Y-122059281D01*
X133865287Y-122082523D01*
X133857215Y-122105082D01*
X133846971Y-122126742D01*
X133834653Y-122147292D01*
X133820381Y-122166537D01*
X133804290Y-122184290D01*
X133786537Y-122200381D01*
X133767292Y-122214653D01*
X133746742Y-122226971D01*
X133725082Y-122237215D01*
X133702523Y-122245287D01*
X133679281Y-122251109D01*
X133655581Y-122254624D01*
X133631650Y-122255800D01*
X133068350Y-122255800D01*
X133044419Y-122254624D01*
X133020719Y-122251109D01*
X132997477Y-122245287D01*
X132974918Y-122237215D01*
X132953258Y-122226971D01*
X132932708Y-122214653D01*
X132913463Y-122200381D01*
X132895710Y-122184290D01*
X132879619Y-122166537D01*
X132865347Y-122147292D01*
X132853029Y-122126742D01*
X132842785Y-122105082D01*
X132834713Y-122082523D01*
X132828891Y-122059281D01*
X132825376Y-122035581D01*
X132824200Y-122011650D01*
X132824200Y-121523350D01*
X132825376Y-121499419D01*
X132828891Y-121475719D01*
X132834713Y-121452477D01*
X132842785Y-121429918D01*
X132853029Y-121408258D01*
X132865347Y-121387708D01*
X132879619Y-121368463D01*
X132895710Y-121350710D01*
X132913463Y-121334619D01*
X132932708Y-121320347D01*
X132953258Y-121308029D01*
X132974918Y-121297785D01*
X132997477Y-121289713D01*
X133020719Y-121283891D01*
X133044419Y-121280376D01*
X133068350Y-121279200D01*
X133631650Y-121279200D01*
X133655581Y-121280376D01*
X133655581Y-121280376D01*
G37*
D19*
X133350000Y-121767500D03*
D17*
G36*
X133655581Y-121280576D02*
G01*
X133679281Y-121284091D01*
X133702523Y-121289913D01*
X133725082Y-121297985D01*
X133746742Y-121308229D01*
X133767292Y-121320547D01*
X133786537Y-121334819D01*
X133804290Y-121350910D01*
X133820381Y-121368663D01*
X133834653Y-121387908D01*
X133846971Y-121408458D01*
X133857215Y-121430118D01*
X133865287Y-121452677D01*
X133871109Y-121475919D01*
X133874624Y-121499619D01*
X133875800Y-121523550D01*
X133875800Y-122011850D01*
X133874624Y-122035781D01*
X133871109Y-122059481D01*
X133865287Y-122082723D01*
X133857215Y-122105282D01*
X133846971Y-122126942D01*
X133834653Y-122147492D01*
X133820381Y-122166737D01*
X133804290Y-122184490D01*
X133786537Y-122200581D01*
X133767292Y-122214853D01*
X133746742Y-122227171D01*
X133725082Y-122237415D01*
X133702523Y-122245487D01*
X133679281Y-122251309D01*
X133655581Y-122254824D01*
X133631650Y-122256000D01*
X133068350Y-122256000D01*
X133044419Y-122254824D01*
X133020719Y-122251309D01*
X132997477Y-122245487D01*
X132974918Y-122237415D01*
X132953258Y-122227171D01*
X132932708Y-122214853D01*
X132913463Y-122200581D01*
X132895710Y-122184490D01*
X132879619Y-122166737D01*
X132865347Y-122147492D01*
X132853029Y-122126942D01*
X132842785Y-122105282D01*
X132834713Y-122082723D01*
X132828891Y-122059481D01*
X132825376Y-122035781D01*
X132824200Y-122011850D01*
X132824200Y-121523550D01*
X132825376Y-121499619D01*
X132828891Y-121475919D01*
X132834713Y-121452677D01*
X132842785Y-121430118D01*
X132853029Y-121408458D01*
X132865347Y-121387908D01*
X132879619Y-121368663D01*
X132895710Y-121350910D01*
X132913463Y-121334819D01*
X132932708Y-121320547D01*
X132953258Y-121308229D01*
X132974918Y-121297985D01*
X132997477Y-121289913D01*
X133020719Y-121284091D01*
X133044419Y-121280576D01*
X133068350Y-121279400D01*
X133631650Y-121279400D01*
X133655581Y-121280576D01*
X133655581Y-121280576D01*
G37*
D19*
X133350000Y-121767700D03*
D17*
G36*
X133655581Y-119705576D02*
G01*
X133679281Y-119709091D01*
X133702523Y-119714913D01*
X133725082Y-119722985D01*
X133746742Y-119733229D01*
X133767292Y-119745547D01*
X133786537Y-119759819D01*
X133804290Y-119775910D01*
X133820381Y-119793663D01*
X133834653Y-119812908D01*
X133846971Y-119833458D01*
X133857215Y-119855118D01*
X133865287Y-119877677D01*
X133871109Y-119900919D01*
X133874624Y-119924619D01*
X133875800Y-119948550D01*
X133875800Y-120436850D01*
X133874624Y-120460781D01*
X133871109Y-120484481D01*
X133865287Y-120507723D01*
X133857215Y-120530282D01*
X133846971Y-120551942D01*
X133834653Y-120572492D01*
X133820381Y-120591737D01*
X133804290Y-120609490D01*
X133786537Y-120625581D01*
X133767292Y-120639853D01*
X133746742Y-120652171D01*
X133725082Y-120662415D01*
X133702523Y-120670487D01*
X133679281Y-120676309D01*
X133655581Y-120679824D01*
X133631650Y-120681000D01*
X133068350Y-120681000D01*
X133044419Y-120679824D01*
X133020719Y-120676309D01*
X132997477Y-120670487D01*
X132974918Y-120662415D01*
X132953258Y-120652171D01*
X132932708Y-120639853D01*
X132913463Y-120625581D01*
X132895710Y-120609490D01*
X132879619Y-120591737D01*
X132865347Y-120572492D01*
X132853029Y-120551942D01*
X132842785Y-120530282D01*
X132834713Y-120507723D01*
X132828891Y-120484481D01*
X132825376Y-120460781D01*
X132824200Y-120436850D01*
X132824200Y-119948550D01*
X132825376Y-119924619D01*
X132828891Y-119900919D01*
X132834713Y-119877677D01*
X132842785Y-119855118D01*
X132853029Y-119833458D01*
X132865347Y-119812908D01*
X132879619Y-119793663D01*
X132895710Y-119775910D01*
X132913463Y-119759819D01*
X132932708Y-119745547D01*
X132953258Y-119733229D01*
X132974918Y-119722985D01*
X132997477Y-119714913D01*
X133020719Y-119709091D01*
X133044419Y-119705576D01*
X133068350Y-119704400D01*
X133631650Y-119704400D01*
X133655581Y-119705576D01*
X133655581Y-119705576D01*
G37*
D19*
X133350000Y-120192700D03*
D38*
X180886100Y-57569100D03*
X183426100Y-143294100D03*
X103426100Y-143294100D03*
D24*
X136017000Y-91948000D03*
X133477000Y-91948000D03*
X130937000Y-91948000D03*
X128397000Y-91948000D03*
X125857000Y-91948000D03*
X123317000Y-91948000D03*
X120777000Y-91948000D03*
X118237000Y-91948000D03*
X115697000Y-91948000D03*
X156718000Y-91948000D03*
X154178000Y-91948000D03*
X151638000Y-91948000D03*
X149098000Y-91948000D03*
X146558000Y-91948000D03*
X132384800Y-105816400D03*
X132384800Y-108356400D03*
X132384800Y-110896400D03*
X132384800Y-113436400D03*
X132384800Y-115976400D03*
D17*
G36*
X140248592Y-97567045D02*
G01*
X140265619Y-97569570D01*
X140282316Y-97573753D01*
X140298523Y-97579552D01*
X140314083Y-97586911D01*
X140328847Y-97595760D01*
X140342673Y-97606014D01*
X140355427Y-97617573D01*
X140366986Y-97630327D01*
X140377240Y-97644153D01*
X140386089Y-97658917D01*
X140393448Y-97674477D01*
X140399247Y-97690684D01*
X140403430Y-97707381D01*
X140405955Y-97724408D01*
X140406800Y-97741600D01*
X140406800Y-98092400D01*
X140405955Y-98109592D01*
X140403430Y-98126619D01*
X140399247Y-98143316D01*
X140393448Y-98159523D01*
X140386089Y-98175083D01*
X140377240Y-98189847D01*
X140366986Y-98203673D01*
X140355427Y-98216427D01*
X140342673Y-98227986D01*
X140328847Y-98238240D01*
X140314083Y-98247089D01*
X140298523Y-98254448D01*
X140282316Y-98260247D01*
X140265619Y-98264430D01*
X140248592Y-98266955D01*
X140231400Y-98267800D01*
X138730600Y-98267800D01*
X138713408Y-98266955D01*
X138696381Y-98264430D01*
X138679684Y-98260247D01*
X138663477Y-98254448D01*
X138647917Y-98247089D01*
X138633153Y-98238240D01*
X138619327Y-98227986D01*
X138606573Y-98216427D01*
X138595014Y-98203673D01*
X138584760Y-98189847D01*
X138575911Y-98175083D01*
X138568552Y-98159523D01*
X138562753Y-98143316D01*
X138558570Y-98126619D01*
X138556045Y-98109592D01*
X138555200Y-98092400D01*
X138555200Y-97741600D01*
X138556045Y-97724408D01*
X138558570Y-97707381D01*
X138562753Y-97690684D01*
X138568552Y-97674477D01*
X138575911Y-97658917D01*
X138584760Y-97644153D01*
X138595014Y-97630327D01*
X138606573Y-97617573D01*
X138619327Y-97606014D01*
X138633153Y-97595760D01*
X138647917Y-97586911D01*
X138663477Y-97579552D01*
X138679684Y-97573753D01*
X138696381Y-97569570D01*
X138713408Y-97567045D01*
X138730600Y-97566200D01*
X140231400Y-97566200D01*
X140248592Y-97567045D01*
X140248592Y-97567045D01*
G37*
D39*
X139481000Y-97917000D03*
D17*
G36*
X140248592Y-96297045D02*
G01*
X140265619Y-96299570D01*
X140282316Y-96303753D01*
X140298523Y-96309552D01*
X140314083Y-96316911D01*
X140328847Y-96325760D01*
X140342673Y-96336014D01*
X140355427Y-96347573D01*
X140366986Y-96360327D01*
X140377240Y-96374153D01*
X140386089Y-96388917D01*
X140393448Y-96404477D01*
X140399247Y-96420684D01*
X140403430Y-96437381D01*
X140405955Y-96454408D01*
X140406800Y-96471600D01*
X140406800Y-96822400D01*
X140405955Y-96839592D01*
X140403430Y-96856619D01*
X140399247Y-96873316D01*
X140393448Y-96889523D01*
X140386089Y-96905083D01*
X140377240Y-96919847D01*
X140366986Y-96933673D01*
X140355427Y-96946427D01*
X140342673Y-96957986D01*
X140328847Y-96968240D01*
X140314083Y-96977089D01*
X140298523Y-96984448D01*
X140282316Y-96990247D01*
X140265619Y-96994430D01*
X140248592Y-96996955D01*
X140231400Y-96997800D01*
X138730600Y-96997800D01*
X138713408Y-96996955D01*
X138696381Y-96994430D01*
X138679684Y-96990247D01*
X138663477Y-96984448D01*
X138647917Y-96977089D01*
X138633153Y-96968240D01*
X138619327Y-96957986D01*
X138606573Y-96946427D01*
X138595014Y-96933673D01*
X138584760Y-96919847D01*
X138575911Y-96905083D01*
X138568552Y-96889523D01*
X138562753Y-96873316D01*
X138558570Y-96856619D01*
X138556045Y-96839592D01*
X138555200Y-96822400D01*
X138555200Y-96471600D01*
X138556045Y-96454408D01*
X138558570Y-96437381D01*
X138562753Y-96420684D01*
X138568552Y-96404477D01*
X138575911Y-96388917D01*
X138584760Y-96374153D01*
X138595014Y-96360327D01*
X138606573Y-96347573D01*
X138619327Y-96336014D01*
X138633153Y-96325760D01*
X138647917Y-96316911D01*
X138663477Y-96309552D01*
X138679684Y-96303753D01*
X138696381Y-96299570D01*
X138713408Y-96297045D01*
X138730600Y-96296200D01*
X140231400Y-96296200D01*
X140248592Y-96297045D01*
X140248592Y-96297045D01*
G37*
D39*
X139481000Y-96647000D03*
D17*
G36*
X140248592Y-95027045D02*
G01*
X140265619Y-95029570D01*
X140282316Y-95033753D01*
X140298523Y-95039552D01*
X140314083Y-95046911D01*
X140328847Y-95055760D01*
X140342673Y-95066014D01*
X140355427Y-95077573D01*
X140366986Y-95090327D01*
X140377240Y-95104153D01*
X140386089Y-95118917D01*
X140393448Y-95134477D01*
X140399247Y-95150684D01*
X140403430Y-95167381D01*
X140405955Y-95184408D01*
X140406800Y-95201600D01*
X140406800Y-95552400D01*
X140405955Y-95569592D01*
X140403430Y-95586619D01*
X140399247Y-95603316D01*
X140393448Y-95619523D01*
X140386089Y-95635083D01*
X140377240Y-95649847D01*
X140366986Y-95663673D01*
X140355427Y-95676427D01*
X140342673Y-95687986D01*
X140328847Y-95698240D01*
X140314083Y-95707089D01*
X140298523Y-95714448D01*
X140282316Y-95720247D01*
X140265619Y-95724430D01*
X140248592Y-95726955D01*
X140231400Y-95727800D01*
X138730600Y-95727800D01*
X138713408Y-95726955D01*
X138696381Y-95724430D01*
X138679684Y-95720247D01*
X138663477Y-95714448D01*
X138647917Y-95707089D01*
X138633153Y-95698240D01*
X138619327Y-95687986D01*
X138606573Y-95676427D01*
X138595014Y-95663673D01*
X138584760Y-95649847D01*
X138575911Y-95635083D01*
X138568552Y-95619523D01*
X138562753Y-95603316D01*
X138558570Y-95586619D01*
X138556045Y-95569592D01*
X138555200Y-95552400D01*
X138555200Y-95201600D01*
X138556045Y-95184408D01*
X138558570Y-95167381D01*
X138562753Y-95150684D01*
X138568552Y-95134477D01*
X138575911Y-95118917D01*
X138584760Y-95104153D01*
X138595014Y-95090327D01*
X138606573Y-95077573D01*
X138619327Y-95066014D01*
X138633153Y-95055760D01*
X138647917Y-95046911D01*
X138663477Y-95039552D01*
X138679684Y-95033753D01*
X138696381Y-95029570D01*
X138713408Y-95027045D01*
X138730600Y-95026200D01*
X140231400Y-95026200D01*
X140248592Y-95027045D01*
X140248592Y-95027045D01*
G37*
D39*
X139481000Y-95377000D03*
D17*
G36*
X140248592Y-93757045D02*
G01*
X140265619Y-93759570D01*
X140282316Y-93763753D01*
X140298523Y-93769552D01*
X140314083Y-93776911D01*
X140328847Y-93785760D01*
X140342673Y-93796014D01*
X140355427Y-93807573D01*
X140366986Y-93820327D01*
X140377240Y-93834153D01*
X140386089Y-93848917D01*
X140393448Y-93864477D01*
X140399247Y-93880684D01*
X140403430Y-93897381D01*
X140405955Y-93914408D01*
X140406800Y-93931600D01*
X140406800Y-94282400D01*
X140405955Y-94299592D01*
X140403430Y-94316619D01*
X140399247Y-94333316D01*
X140393448Y-94349523D01*
X140386089Y-94365083D01*
X140377240Y-94379847D01*
X140366986Y-94393673D01*
X140355427Y-94406427D01*
X140342673Y-94417986D01*
X140328847Y-94428240D01*
X140314083Y-94437089D01*
X140298523Y-94444448D01*
X140282316Y-94450247D01*
X140265619Y-94454430D01*
X140248592Y-94456955D01*
X140231400Y-94457800D01*
X138730600Y-94457800D01*
X138713408Y-94456955D01*
X138696381Y-94454430D01*
X138679684Y-94450247D01*
X138663477Y-94444448D01*
X138647917Y-94437089D01*
X138633153Y-94428240D01*
X138619327Y-94417986D01*
X138606573Y-94406427D01*
X138595014Y-94393673D01*
X138584760Y-94379847D01*
X138575911Y-94365083D01*
X138568552Y-94349523D01*
X138562753Y-94333316D01*
X138558570Y-94316619D01*
X138556045Y-94299592D01*
X138555200Y-94282400D01*
X138555200Y-93931600D01*
X138556045Y-93914408D01*
X138558570Y-93897381D01*
X138562753Y-93880684D01*
X138568552Y-93864477D01*
X138575911Y-93848917D01*
X138584760Y-93834153D01*
X138595014Y-93820327D01*
X138606573Y-93807573D01*
X138619327Y-93796014D01*
X138633153Y-93785760D01*
X138647917Y-93776911D01*
X138663477Y-93769552D01*
X138679684Y-93763753D01*
X138696381Y-93759570D01*
X138713408Y-93757045D01*
X138730600Y-93756200D01*
X140231400Y-93756200D01*
X140248592Y-93757045D01*
X140248592Y-93757045D01*
G37*
D39*
X139481000Y-94107000D03*
D17*
G36*
X135098592Y-93757045D02*
G01*
X135115619Y-93759570D01*
X135132316Y-93763753D01*
X135148523Y-93769552D01*
X135164083Y-93776911D01*
X135178847Y-93785760D01*
X135192673Y-93796014D01*
X135205427Y-93807573D01*
X135216986Y-93820327D01*
X135227240Y-93834153D01*
X135236089Y-93848917D01*
X135243448Y-93864477D01*
X135249247Y-93880684D01*
X135253430Y-93897381D01*
X135255955Y-93914408D01*
X135256800Y-93931600D01*
X135256800Y-94282400D01*
X135255955Y-94299592D01*
X135253430Y-94316619D01*
X135249247Y-94333316D01*
X135243448Y-94349523D01*
X135236089Y-94365083D01*
X135227240Y-94379847D01*
X135216986Y-94393673D01*
X135205427Y-94406427D01*
X135192673Y-94417986D01*
X135178847Y-94428240D01*
X135164083Y-94437089D01*
X135148523Y-94444448D01*
X135132316Y-94450247D01*
X135115619Y-94454430D01*
X135098592Y-94456955D01*
X135081400Y-94457800D01*
X133580600Y-94457800D01*
X133563408Y-94456955D01*
X133546381Y-94454430D01*
X133529684Y-94450247D01*
X133513477Y-94444448D01*
X133497917Y-94437089D01*
X133483153Y-94428240D01*
X133469327Y-94417986D01*
X133456573Y-94406427D01*
X133445014Y-94393673D01*
X133434760Y-94379847D01*
X133425911Y-94365083D01*
X133418552Y-94349523D01*
X133412753Y-94333316D01*
X133408570Y-94316619D01*
X133406045Y-94299592D01*
X133405200Y-94282400D01*
X133405200Y-93931600D01*
X133406045Y-93914408D01*
X133408570Y-93897381D01*
X133412753Y-93880684D01*
X133418552Y-93864477D01*
X133425911Y-93848917D01*
X133434760Y-93834153D01*
X133445014Y-93820327D01*
X133456573Y-93807573D01*
X133469327Y-93796014D01*
X133483153Y-93785760D01*
X133497917Y-93776911D01*
X133513477Y-93769552D01*
X133529684Y-93763753D01*
X133546381Y-93759570D01*
X133563408Y-93757045D01*
X133580600Y-93756200D01*
X135081400Y-93756200D01*
X135098592Y-93757045D01*
X135098592Y-93757045D01*
G37*
D39*
X134331000Y-94107000D03*
D17*
G36*
X135098592Y-95027045D02*
G01*
X135115619Y-95029570D01*
X135132316Y-95033753D01*
X135148523Y-95039552D01*
X135164083Y-95046911D01*
X135178847Y-95055760D01*
X135192673Y-95066014D01*
X135205427Y-95077573D01*
X135216986Y-95090327D01*
X135227240Y-95104153D01*
X135236089Y-95118917D01*
X135243448Y-95134477D01*
X135249247Y-95150684D01*
X135253430Y-95167381D01*
X135255955Y-95184408D01*
X135256800Y-95201600D01*
X135256800Y-95552400D01*
X135255955Y-95569592D01*
X135253430Y-95586619D01*
X135249247Y-95603316D01*
X135243448Y-95619523D01*
X135236089Y-95635083D01*
X135227240Y-95649847D01*
X135216986Y-95663673D01*
X135205427Y-95676427D01*
X135192673Y-95687986D01*
X135178847Y-95698240D01*
X135164083Y-95707089D01*
X135148523Y-95714448D01*
X135132316Y-95720247D01*
X135115619Y-95724430D01*
X135098592Y-95726955D01*
X135081400Y-95727800D01*
X133580600Y-95727800D01*
X133563408Y-95726955D01*
X133546381Y-95724430D01*
X133529684Y-95720247D01*
X133513477Y-95714448D01*
X133497917Y-95707089D01*
X133483153Y-95698240D01*
X133469327Y-95687986D01*
X133456573Y-95676427D01*
X133445014Y-95663673D01*
X133434760Y-95649847D01*
X133425911Y-95635083D01*
X133418552Y-95619523D01*
X133412753Y-95603316D01*
X133408570Y-95586619D01*
X133406045Y-95569592D01*
X133405200Y-95552400D01*
X133405200Y-95201600D01*
X133406045Y-95184408D01*
X133408570Y-95167381D01*
X133412753Y-95150684D01*
X133418552Y-95134477D01*
X133425911Y-95118917D01*
X133434760Y-95104153D01*
X133445014Y-95090327D01*
X133456573Y-95077573D01*
X133469327Y-95066014D01*
X133483153Y-95055760D01*
X133497917Y-95046911D01*
X133513477Y-95039552D01*
X133529684Y-95033753D01*
X133546381Y-95029570D01*
X133563408Y-95027045D01*
X133580600Y-95026200D01*
X135081400Y-95026200D01*
X135098592Y-95027045D01*
X135098592Y-95027045D01*
G37*
D39*
X134331000Y-95377000D03*
D17*
G36*
X135098592Y-96297045D02*
G01*
X135115619Y-96299570D01*
X135132316Y-96303753D01*
X135148523Y-96309552D01*
X135164083Y-96316911D01*
X135178847Y-96325760D01*
X135192673Y-96336014D01*
X135205427Y-96347573D01*
X135216986Y-96360327D01*
X135227240Y-96374153D01*
X135236089Y-96388917D01*
X135243448Y-96404477D01*
X135249247Y-96420684D01*
X135253430Y-96437381D01*
X135255955Y-96454408D01*
X135256800Y-96471600D01*
X135256800Y-96822400D01*
X135255955Y-96839592D01*
X135253430Y-96856619D01*
X135249247Y-96873316D01*
X135243448Y-96889523D01*
X135236089Y-96905083D01*
X135227240Y-96919847D01*
X135216986Y-96933673D01*
X135205427Y-96946427D01*
X135192673Y-96957986D01*
X135178847Y-96968240D01*
X135164083Y-96977089D01*
X135148523Y-96984448D01*
X135132316Y-96990247D01*
X135115619Y-96994430D01*
X135098592Y-96996955D01*
X135081400Y-96997800D01*
X133580600Y-96997800D01*
X133563408Y-96996955D01*
X133546381Y-96994430D01*
X133529684Y-96990247D01*
X133513477Y-96984448D01*
X133497917Y-96977089D01*
X133483153Y-96968240D01*
X133469327Y-96957986D01*
X133456573Y-96946427D01*
X133445014Y-96933673D01*
X133434760Y-96919847D01*
X133425911Y-96905083D01*
X133418552Y-96889523D01*
X133412753Y-96873316D01*
X133408570Y-96856619D01*
X133406045Y-96839592D01*
X133405200Y-96822400D01*
X133405200Y-96471600D01*
X133406045Y-96454408D01*
X133408570Y-96437381D01*
X133412753Y-96420684D01*
X133418552Y-96404477D01*
X133425911Y-96388917D01*
X133434760Y-96374153D01*
X133445014Y-96360327D01*
X133456573Y-96347573D01*
X133469327Y-96336014D01*
X133483153Y-96325760D01*
X133497917Y-96316911D01*
X133513477Y-96309552D01*
X133529684Y-96303753D01*
X133546381Y-96299570D01*
X133563408Y-96297045D01*
X133580600Y-96296200D01*
X135081400Y-96296200D01*
X135098592Y-96297045D01*
X135098592Y-96297045D01*
G37*
D39*
X134331000Y-96647000D03*
D17*
G36*
X135098592Y-97567045D02*
G01*
X135115619Y-97569570D01*
X135132316Y-97573753D01*
X135148523Y-97579552D01*
X135164083Y-97586911D01*
X135178847Y-97595760D01*
X135192673Y-97606014D01*
X135205427Y-97617573D01*
X135216986Y-97630327D01*
X135227240Y-97644153D01*
X135236089Y-97658917D01*
X135243448Y-97674477D01*
X135249247Y-97690684D01*
X135253430Y-97707381D01*
X135255955Y-97724408D01*
X135256800Y-97741600D01*
X135256800Y-98092400D01*
X135255955Y-98109592D01*
X135253430Y-98126619D01*
X135249247Y-98143316D01*
X135243448Y-98159523D01*
X135236089Y-98175083D01*
X135227240Y-98189847D01*
X135216986Y-98203673D01*
X135205427Y-98216427D01*
X135192673Y-98227986D01*
X135178847Y-98238240D01*
X135164083Y-98247089D01*
X135148523Y-98254448D01*
X135132316Y-98260247D01*
X135115619Y-98264430D01*
X135098592Y-98266955D01*
X135081400Y-98267800D01*
X133580600Y-98267800D01*
X133563408Y-98266955D01*
X133546381Y-98264430D01*
X133529684Y-98260247D01*
X133513477Y-98254448D01*
X133497917Y-98247089D01*
X133483153Y-98238240D01*
X133469327Y-98227986D01*
X133456573Y-98216427D01*
X133445014Y-98203673D01*
X133434760Y-98189847D01*
X133425911Y-98175083D01*
X133418552Y-98159523D01*
X133412753Y-98143316D01*
X133408570Y-98126619D01*
X133406045Y-98109592D01*
X133405200Y-98092400D01*
X133405200Y-97741600D01*
X133406045Y-97724408D01*
X133408570Y-97707381D01*
X133412753Y-97690684D01*
X133418552Y-97674477D01*
X133425911Y-97658917D01*
X133434760Y-97644153D01*
X133445014Y-97630327D01*
X133456573Y-97617573D01*
X133469327Y-97606014D01*
X133483153Y-97595760D01*
X133497917Y-97586911D01*
X133513477Y-97579552D01*
X133529684Y-97573753D01*
X133546381Y-97569570D01*
X133563408Y-97567045D01*
X133580600Y-97566200D01*
X135081400Y-97566200D01*
X135098592Y-97567045D01*
X135098592Y-97567045D01*
G37*
D39*
X134331000Y-97917000D03*
D17*
G36*
X133274581Y-125344376D02*
G01*
X133298281Y-125347891D01*
X133321523Y-125353713D01*
X133344082Y-125361785D01*
X133365742Y-125372029D01*
X133386292Y-125384347D01*
X133405537Y-125398619D01*
X133423290Y-125414710D01*
X133439381Y-125432463D01*
X133453653Y-125451708D01*
X133465971Y-125472258D01*
X133476215Y-125493918D01*
X133484287Y-125516477D01*
X133490109Y-125539719D01*
X133493624Y-125563419D01*
X133494800Y-125587350D01*
X133494800Y-126075650D01*
X133493624Y-126099581D01*
X133490109Y-126123281D01*
X133484287Y-126146523D01*
X133476215Y-126169082D01*
X133465971Y-126190742D01*
X133453653Y-126211292D01*
X133439381Y-126230537D01*
X133423290Y-126248290D01*
X133405537Y-126264381D01*
X133386292Y-126278653D01*
X133365742Y-126290971D01*
X133344082Y-126301215D01*
X133321523Y-126309287D01*
X133298281Y-126315109D01*
X133274581Y-126318624D01*
X133250650Y-126319800D01*
X132687350Y-126319800D01*
X132663419Y-126318624D01*
X132639719Y-126315109D01*
X132616477Y-126309287D01*
X132593918Y-126301215D01*
X132572258Y-126290971D01*
X132551708Y-126278653D01*
X132532463Y-126264381D01*
X132514710Y-126248290D01*
X132498619Y-126230537D01*
X132484347Y-126211292D01*
X132472029Y-126190742D01*
X132461785Y-126169082D01*
X132453713Y-126146523D01*
X132447891Y-126123281D01*
X132444376Y-126099581D01*
X132443200Y-126075650D01*
X132443200Y-125587350D01*
X132444376Y-125563419D01*
X132447891Y-125539719D01*
X132453713Y-125516477D01*
X132461785Y-125493918D01*
X132472029Y-125472258D01*
X132484347Y-125451708D01*
X132498619Y-125432463D01*
X132514710Y-125414710D01*
X132532463Y-125398619D01*
X132551708Y-125384347D01*
X132572258Y-125372029D01*
X132593918Y-125361785D01*
X132616477Y-125353713D01*
X132639719Y-125347891D01*
X132663419Y-125344376D01*
X132687350Y-125343200D01*
X133250650Y-125343200D01*
X133274581Y-125344376D01*
X133274581Y-125344376D01*
G37*
D19*
X132969000Y-125831500D03*
D17*
G36*
X133274581Y-126919376D02*
G01*
X133298281Y-126922891D01*
X133321523Y-126928713D01*
X133344082Y-126936785D01*
X133365742Y-126947029D01*
X133386292Y-126959347D01*
X133405537Y-126973619D01*
X133423290Y-126989710D01*
X133439381Y-127007463D01*
X133453653Y-127026708D01*
X133465971Y-127047258D01*
X133476215Y-127068918D01*
X133484287Y-127091477D01*
X133490109Y-127114719D01*
X133493624Y-127138419D01*
X133494800Y-127162350D01*
X133494800Y-127650650D01*
X133493624Y-127674581D01*
X133490109Y-127698281D01*
X133484287Y-127721523D01*
X133476215Y-127744082D01*
X133465971Y-127765742D01*
X133453653Y-127786292D01*
X133439381Y-127805537D01*
X133423290Y-127823290D01*
X133405537Y-127839381D01*
X133386292Y-127853653D01*
X133365742Y-127865971D01*
X133344082Y-127876215D01*
X133321523Y-127884287D01*
X133298281Y-127890109D01*
X133274581Y-127893624D01*
X133250650Y-127894800D01*
X132687350Y-127894800D01*
X132663419Y-127893624D01*
X132639719Y-127890109D01*
X132616477Y-127884287D01*
X132593918Y-127876215D01*
X132572258Y-127865971D01*
X132551708Y-127853653D01*
X132532463Y-127839381D01*
X132514710Y-127823290D01*
X132498619Y-127805537D01*
X132484347Y-127786292D01*
X132472029Y-127765742D01*
X132461785Y-127744082D01*
X132453713Y-127721523D01*
X132447891Y-127698281D01*
X132444376Y-127674581D01*
X132443200Y-127650650D01*
X132443200Y-127162350D01*
X132444376Y-127138419D01*
X132447891Y-127114719D01*
X132453713Y-127091477D01*
X132461785Y-127068918D01*
X132472029Y-127047258D01*
X132484347Y-127026708D01*
X132498619Y-127007463D01*
X132514710Y-126989710D01*
X132532463Y-126973619D01*
X132551708Y-126959347D01*
X132572258Y-126947029D01*
X132593918Y-126936785D01*
X132616477Y-126928713D01*
X132639719Y-126922891D01*
X132663419Y-126919376D01*
X132687350Y-126918200D01*
X133250650Y-126918200D01*
X133274581Y-126919376D01*
X133274581Y-126919376D01*
G37*
D19*
X132969000Y-127406500D03*
D40*
X168148000Y-143757096D03*
D37*
X170688000Y-144011096D03*
X173228000Y-143757096D03*
D17*
G36*
X146350501Y-108880296D02*
G01*
X146374201Y-108883811D01*
X146397443Y-108889633D01*
X146420002Y-108897705D01*
X146441662Y-108907949D01*
X146462212Y-108920267D01*
X146481457Y-108934539D01*
X146499210Y-108950630D01*
X146515301Y-108968383D01*
X146529573Y-108987628D01*
X146541891Y-109008178D01*
X146552135Y-109029838D01*
X146560207Y-109052397D01*
X146566029Y-109075639D01*
X146569544Y-109099339D01*
X146570720Y-109123270D01*
X146570720Y-109611570D01*
X146569544Y-109635501D01*
X146566029Y-109659201D01*
X146560207Y-109682443D01*
X146552135Y-109705002D01*
X146541891Y-109726662D01*
X146529573Y-109747212D01*
X146515301Y-109766457D01*
X146499210Y-109784210D01*
X146481457Y-109800301D01*
X146462212Y-109814573D01*
X146441662Y-109826891D01*
X146420002Y-109837135D01*
X146397443Y-109845207D01*
X146374201Y-109851029D01*
X146350501Y-109854544D01*
X146326570Y-109855720D01*
X145763270Y-109855720D01*
X145739339Y-109854544D01*
X145715639Y-109851029D01*
X145692397Y-109845207D01*
X145669838Y-109837135D01*
X145648178Y-109826891D01*
X145627628Y-109814573D01*
X145608383Y-109800301D01*
X145590630Y-109784210D01*
X145574539Y-109766457D01*
X145560267Y-109747212D01*
X145547949Y-109726662D01*
X145537705Y-109705002D01*
X145529633Y-109682443D01*
X145523811Y-109659201D01*
X145520296Y-109635501D01*
X145519120Y-109611570D01*
X145519120Y-109123270D01*
X145520296Y-109099339D01*
X145523811Y-109075639D01*
X145529633Y-109052397D01*
X145537705Y-109029838D01*
X145547949Y-109008178D01*
X145560267Y-108987628D01*
X145574539Y-108968383D01*
X145590630Y-108950630D01*
X145608383Y-108934539D01*
X145627628Y-108920267D01*
X145648178Y-108907949D01*
X145669838Y-108897705D01*
X145692397Y-108889633D01*
X145715639Y-108883811D01*
X145739339Y-108880296D01*
X145763270Y-108879120D01*
X146326570Y-108879120D01*
X146350501Y-108880296D01*
X146350501Y-108880296D01*
G37*
D19*
X146044920Y-109367420D03*
D17*
G36*
X146350501Y-107305296D02*
G01*
X146374201Y-107308811D01*
X146397443Y-107314633D01*
X146420002Y-107322705D01*
X146441662Y-107332949D01*
X146462212Y-107345267D01*
X146481457Y-107359539D01*
X146499210Y-107375630D01*
X146515301Y-107393383D01*
X146529573Y-107412628D01*
X146541891Y-107433178D01*
X146552135Y-107454838D01*
X146560207Y-107477397D01*
X146566029Y-107500639D01*
X146569544Y-107524339D01*
X146570720Y-107548270D01*
X146570720Y-108036570D01*
X146569544Y-108060501D01*
X146566029Y-108084201D01*
X146560207Y-108107443D01*
X146552135Y-108130002D01*
X146541891Y-108151662D01*
X146529573Y-108172212D01*
X146515301Y-108191457D01*
X146499210Y-108209210D01*
X146481457Y-108225301D01*
X146462212Y-108239573D01*
X146441662Y-108251891D01*
X146420002Y-108262135D01*
X146397443Y-108270207D01*
X146374201Y-108276029D01*
X146350501Y-108279544D01*
X146326570Y-108280720D01*
X145763270Y-108280720D01*
X145739339Y-108279544D01*
X145715639Y-108276029D01*
X145692397Y-108270207D01*
X145669838Y-108262135D01*
X145648178Y-108251891D01*
X145627628Y-108239573D01*
X145608383Y-108225301D01*
X145590630Y-108209210D01*
X145574539Y-108191457D01*
X145560267Y-108172212D01*
X145547949Y-108151662D01*
X145537705Y-108130002D01*
X145529633Y-108107443D01*
X145523811Y-108084201D01*
X145520296Y-108060501D01*
X145519120Y-108036570D01*
X145519120Y-107548270D01*
X145520296Y-107524339D01*
X145523811Y-107500639D01*
X145529633Y-107477397D01*
X145537705Y-107454838D01*
X145547949Y-107433178D01*
X145560267Y-107412628D01*
X145574539Y-107393383D01*
X145590630Y-107375630D01*
X145608383Y-107359539D01*
X145627628Y-107345267D01*
X145648178Y-107332949D01*
X145669838Y-107322705D01*
X145692397Y-107314633D01*
X145715639Y-107308811D01*
X145739339Y-107305296D01*
X145763270Y-107304120D01*
X146326570Y-107304120D01*
X146350501Y-107305296D01*
X146350501Y-107305296D01*
G37*
D19*
X146044920Y-107792420D03*
D31*
X104111100Y-134684096D03*
D30*
X106651100Y-137224096D03*
X106651100Y-132144096D03*
X101571100Y-132144096D03*
X101571100Y-137224096D03*
D17*
G36*
X149403581Y-105329376D02*
G01*
X149427281Y-105332891D01*
X149450523Y-105338713D01*
X149473082Y-105346785D01*
X149494742Y-105357029D01*
X149515292Y-105369347D01*
X149534537Y-105383619D01*
X149552290Y-105399710D01*
X149568381Y-105417463D01*
X149582653Y-105436708D01*
X149594971Y-105457258D01*
X149605215Y-105478918D01*
X149613287Y-105501477D01*
X149619109Y-105524719D01*
X149622624Y-105548419D01*
X149623800Y-105572350D01*
X149623800Y-106060650D01*
X149622624Y-106084581D01*
X149619109Y-106108281D01*
X149613287Y-106131523D01*
X149605215Y-106154082D01*
X149594971Y-106175742D01*
X149582653Y-106196292D01*
X149568381Y-106215537D01*
X149552290Y-106233290D01*
X149534537Y-106249381D01*
X149515292Y-106263653D01*
X149494742Y-106275971D01*
X149473082Y-106286215D01*
X149450523Y-106294287D01*
X149427281Y-106300109D01*
X149403581Y-106303624D01*
X149379650Y-106304800D01*
X148816350Y-106304800D01*
X148792419Y-106303624D01*
X148768719Y-106300109D01*
X148745477Y-106294287D01*
X148722918Y-106286215D01*
X148701258Y-106275971D01*
X148680708Y-106263653D01*
X148661463Y-106249381D01*
X148643710Y-106233290D01*
X148627619Y-106215537D01*
X148613347Y-106196292D01*
X148601029Y-106175742D01*
X148590785Y-106154082D01*
X148582713Y-106131523D01*
X148576891Y-106108281D01*
X148573376Y-106084581D01*
X148572200Y-106060650D01*
X148572200Y-105572350D01*
X148573376Y-105548419D01*
X148576891Y-105524719D01*
X148582713Y-105501477D01*
X148590785Y-105478918D01*
X148601029Y-105457258D01*
X148613347Y-105436708D01*
X148627619Y-105417463D01*
X148643710Y-105399710D01*
X148661463Y-105383619D01*
X148680708Y-105369347D01*
X148701258Y-105357029D01*
X148722918Y-105346785D01*
X148745477Y-105338713D01*
X148768719Y-105332891D01*
X148792419Y-105329376D01*
X148816350Y-105328200D01*
X149379650Y-105328200D01*
X149403581Y-105329376D01*
X149403581Y-105329376D01*
G37*
D19*
X149098000Y-105816500D03*
D17*
G36*
X149403581Y-103754376D02*
G01*
X149427281Y-103757891D01*
X149450523Y-103763713D01*
X149473082Y-103771785D01*
X149494742Y-103782029D01*
X149515292Y-103794347D01*
X149534537Y-103808619D01*
X149552290Y-103824710D01*
X149568381Y-103842463D01*
X149582653Y-103861708D01*
X149594971Y-103882258D01*
X149605215Y-103903918D01*
X149613287Y-103926477D01*
X149619109Y-103949719D01*
X149622624Y-103973419D01*
X149623800Y-103997350D01*
X149623800Y-104485650D01*
X149622624Y-104509581D01*
X149619109Y-104533281D01*
X149613287Y-104556523D01*
X149605215Y-104579082D01*
X149594971Y-104600742D01*
X149582653Y-104621292D01*
X149568381Y-104640537D01*
X149552290Y-104658290D01*
X149534537Y-104674381D01*
X149515292Y-104688653D01*
X149494742Y-104700971D01*
X149473082Y-104711215D01*
X149450523Y-104719287D01*
X149427281Y-104725109D01*
X149403581Y-104728624D01*
X149379650Y-104729800D01*
X148816350Y-104729800D01*
X148792419Y-104728624D01*
X148768719Y-104725109D01*
X148745477Y-104719287D01*
X148722918Y-104711215D01*
X148701258Y-104700971D01*
X148680708Y-104688653D01*
X148661463Y-104674381D01*
X148643710Y-104658290D01*
X148627619Y-104640537D01*
X148613347Y-104621292D01*
X148601029Y-104600742D01*
X148590785Y-104579082D01*
X148582713Y-104556523D01*
X148576891Y-104533281D01*
X148573376Y-104509581D01*
X148572200Y-104485650D01*
X148572200Y-103997350D01*
X148573376Y-103973419D01*
X148576891Y-103949719D01*
X148582713Y-103926477D01*
X148590785Y-103903918D01*
X148601029Y-103882258D01*
X148613347Y-103861708D01*
X148627619Y-103842463D01*
X148643710Y-103824710D01*
X148661463Y-103808619D01*
X148680708Y-103794347D01*
X148701258Y-103782029D01*
X148722918Y-103771785D01*
X148745477Y-103763713D01*
X148768719Y-103757891D01*
X148792419Y-103754376D01*
X148816350Y-103753200D01*
X149379650Y-103753200D01*
X149403581Y-103754376D01*
X149403581Y-103754376D01*
G37*
D19*
X149098000Y-104241500D03*
D17*
G36*
X149213581Y-98408376D02*
G01*
X149237281Y-98411891D01*
X149260523Y-98417713D01*
X149283082Y-98425785D01*
X149304742Y-98436029D01*
X149325292Y-98448347D01*
X149344537Y-98462619D01*
X149362290Y-98478710D01*
X149378381Y-98496463D01*
X149392653Y-98515708D01*
X149404971Y-98536258D01*
X149415215Y-98557918D01*
X149423287Y-98580477D01*
X149429109Y-98603719D01*
X149432624Y-98627419D01*
X149433800Y-98651350D01*
X149433800Y-99214650D01*
X149432624Y-99238581D01*
X149429109Y-99262281D01*
X149423287Y-99285523D01*
X149415215Y-99308082D01*
X149404971Y-99329742D01*
X149392653Y-99350292D01*
X149378381Y-99369537D01*
X149362290Y-99387290D01*
X149344537Y-99403381D01*
X149325292Y-99417653D01*
X149304742Y-99429971D01*
X149283082Y-99440215D01*
X149260523Y-99448287D01*
X149237281Y-99454109D01*
X149213581Y-99457624D01*
X149189650Y-99458800D01*
X148701350Y-99458800D01*
X148677419Y-99457624D01*
X148653719Y-99454109D01*
X148630477Y-99448287D01*
X148607918Y-99440215D01*
X148586258Y-99429971D01*
X148565708Y-99417653D01*
X148546463Y-99403381D01*
X148528710Y-99387290D01*
X148512619Y-99369537D01*
X148498347Y-99350292D01*
X148486029Y-99329742D01*
X148475785Y-99308082D01*
X148467713Y-99285523D01*
X148461891Y-99262281D01*
X148458376Y-99238581D01*
X148457200Y-99214650D01*
X148457200Y-98651350D01*
X148458376Y-98627419D01*
X148461891Y-98603719D01*
X148467713Y-98580477D01*
X148475785Y-98557918D01*
X148486029Y-98536258D01*
X148498347Y-98515708D01*
X148512619Y-98496463D01*
X148528710Y-98478710D01*
X148546463Y-98462619D01*
X148565708Y-98448347D01*
X148586258Y-98436029D01*
X148607918Y-98425785D01*
X148630477Y-98417713D01*
X148653719Y-98411891D01*
X148677419Y-98408376D01*
X148701350Y-98407200D01*
X149189650Y-98407200D01*
X149213581Y-98408376D01*
X149213581Y-98408376D01*
G37*
D19*
X148945500Y-98933000D03*
D17*
G36*
X150788581Y-98408376D02*
G01*
X150812281Y-98411891D01*
X150835523Y-98417713D01*
X150858082Y-98425785D01*
X150879742Y-98436029D01*
X150900292Y-98448347D01*
X150919537Y-98462619D01*
X150937290Y-98478710D01*
X150953381Y-98496463D01*
X150967653Y-98515708D01*
X150979971Y-98536258D01*
X150990215Y-98557918D01*
X150998287Y-98580477D01*
X151004109Y-98603719D01*
X151007624Y-98627419D01*
X151008800Y-98651350D01*
X151008800Y-99214650D01*
X151007624Y-99238581D01*
X151004109Y-99262281D01*
X150998287Y-99285523D01*
X150990215Y-99308082D01*
X150979971Y-99329742D01*
X150967653Y-99350292D01*
X150953381Y-99369537D01*
X150937290Y-99387290D01*
X150919537Y-99403381D01*
X150900292Y-99417653D01*
X150879742Y-99429971D01*
X150858082Y-99440215D01*
X150835523Y-99448287D01*
X150812281Y-99454109D01*
X150788581Y-99457624D01*
X150764650Y-99458800D01*
X150276350Y-99458800D01*
X150252419Y-99457624D01*
X150228719Y-99454109D01*
X150205477Y-99448287D01*
X150182918Y-99440215D01*
X150161258Y-99429971D01*
X150140708Y-99417653D01*
X150121463Y-99403381D01*
X150103710Y-99387290D01*
X150087619Y-99369537D01*
X150073347Y-99350292D01*
X150061029Y-99329742D01*
X150050785Y-99308082D01*
X150042713Y-99285523D01*
X150036891Y-99262281D01*
X150033376Y-99238581D01*
X150032200Y-99214650D01*
X150032200Y-98651350D01*
X150033376Y-98627419D01*
X150036891Y-98603719D01*
X150042713Y-98580477D01*
X150050785Y-98557918D01*
X150061029Y-98536258D01*
X150073347Y-98515708D01*
X150087619Y-98496463D01*
X150103710Y-98478710D01*
X150121463Y-98462619D01*
X150140708Y-98448347D01*
X150161258Y-98436029D01*
X150182918Y-98425785D01*
X150205477Y-98417713D01*
X150228719Y-98411891D01*
X150252419Y-98408376D01*
X150276350Y-98407200D01*
X150764650Y-98407200D01*
X150788581Y-98408376D01*
X150788581Y-98408376D01*
G37*
D19*
X150520500Y-98933000D03*
D17*
G36*
X141847581Y-96122376D02*
G01*
X141871281Y-96125891D01*
X141894523Y-96131713D01*
X141917082Y-96139785D01*
X141938742Y-96150029D01*
X141959292Y-96162347D01*
X141978537Y-96176619D01*
X141996290Y-96192710D01*
X142012381Y-96210463D01*
X142026653Y-96229708D01*
X142038971Y-96250258D01*
X142049215Y-96271918D01*
X142057287Y-96294477D01*
X142063109Y-96317719D01*
X142066624Y-96341419D01*
X142067800Y-96365350D01*
X142067800Y-96928650D01*
X142066624Y-96952581D01*
X142063109Y-96976281D01*
X142057287Y-96999523D01*
X142049215Y-97022082D01*
X142038971Y-97043742D01*
X142026653Y-97064292D01*
X142012381Y-97083537D01*
X141996290Y-97101290D01*
X141978537Y-97117381D01*
X141959292Y-97131653D01*
X141938742Y-97143971D01*
X141917082Y-97154215D01*
X141894523Y-97162287D01*
X141871281Y-97168109D01*
X141847581Y-97171624D01*
X141823650Y-97172800D01*
X141335350Y-97172800D01*
X141311419Y-97171624D01*
X141287719Y-97168109D01*
X141264477Y-97162287D01*
X141241918Y-97154215D01*
X141220258Y-97143971D01*
X141199708Y-97131653D01*
X141180463Y-97117381D01*
X141162710Y-97101290D01*
X141146619Y-97083537D01*
X141132347Y-97064292D01*
X141120029Y-97043742D01*
X141109785Y-97022082D01*
X141101713Y-96999523D01*
X141095891Y-96976281D01*
X141092376Y-96952581D01*
X141091200Y-96928650D01*
X141091200Y-96365350D01*
X141092376Y-96341419D01*
X141095891Y-96317719D01*
X141101713Y-96294477D01*
X141109785Y-96271918D01*
X141120029Y-96250258D01*
X141132347Y-96229708D01*
X141146619Y-96210463D01*
X141162710Y-96192710D01*
X141180463Y-96176619D01*
X141199708Y-96162347D01*
X141220258Y-96150029D01*
X141241918Y-96139785D01*
X141264477Y-96131713D01*
X141287719Y-96125891D01*
X141311419Y-96122376D01*
X141335350Y-96121200D01*
X141823650Y-96121200D01*
X141847581Y-96122376D01*
X141847581Y-96122376D01*
G37*
D19*
X141579500Y-96647000D03*
D17*
G36*
X143422581Y-96122376D02*
G01*
X143446281Y-96125891D01*
X143469523Y-96131713D01*
X143492082Y-96139785D01*
X143513742Y-96150029D01*
X143534292Y-96162347D01*
X143553537Y-96176619D01*
X143571290Y-96192710D01*
X143587381Y-96210463D01*
X143601653Y-96229708D01*
X143613971Y-96250258D01*
X143624215Y-96271918D01*
X143632287Y-96294477D01*
X143638109Y-96317719D01*
X143641624Y-96341419D01*
X143642800Y-96365350D01*
X143642800Y-96928650D01*
X143641624Y-96952581D01*
X143638109Y-96976281D01*
X143632287Y-96999523D01*
X143624215Y-97022082D01*
X143613971Y-97043742D01*
X143601653Y-97064292D01*
X143587381Y-97083537D01*
X143571290Y-97101290D01*
X143553537Y-97117381D01*
X143534292Y-97131653D01*
X143513742Y-97143971D01*
X143492082Y-97154215D01*
X143469523Y-97162287D01*
X143446281Y-97168109D01*
X143422581Y-97171624D01*
X143398650Y-97172800D01*
X142910350Y-97172800D01*
X142886419Y-97171624D01*
X142862719Y-97168109D01*
X142839477Y-97162287D01*
X142816918Y-97154215D01*
X142795258Y-97143971D01*
X142774708Y-97131653D01*
X142755463Y-97117381D01*
X142737710Y-97101290D01*
X142721619Y-97083537D01*
X142707347Y-97064292D01*
X142695029Y-97043742D01*
X142684785Y-97022082D01*
X142676713Y-96999523D01*
X142670891Y-96976281D01*
X142667376Y-96952581D01*
X142666200Y-96928650D01*
X142666200Y-96365350D01*
X142667376Y-96341419D01*
X142670891Y-96317719D01*
X142676713Y-96294477D01*
X142684785Y-96271918D01*
X142695029Y-96250258D01*
X142707347Y-96229708D01*
X142721619Y-96210463D01*
X142737710Y-96192710D01*
X142755463Y-96176619D01*
X142774708Y-96162347D01*
X142795258Y-96150029D01*
X142816918Y-96139785D01*
X142839477Y-96131713D01*
X142862719Y-96125891D01*
X142886419Y-96122376D01*
X142910350Y-96121200D01*
X143398650Y-96121200D01*
X143422581Y-96122376D01*
X143422581Y-96122376D01*
G37*
D19*
X143154500Y-96647000D03*
D17*
G36*
X152197581Y-105329376D02*
G01*
X152221281Y-105332891D01*
X152244523Y-105338713D01*
X152267082Y-105346785D01*
X152288742Y-105357029D01*
X152309292Y-105369347D01*
X152328537Y-105383619D01*
X152346290Y-105399710D01*
X152362381Y-105417463D01*
X152376653Y-105436708D01*
X152388971Y-105457258D01*
X152399215Y-105478918D01*
X152407287Y-105501477D01*
X152413109Y-105524719D01*
X152416624Y-105548419D01*
X152417800Y-105572350D01*
X152417800Y-106060650D01*
X152416624Y-106084581D01*
X152413109Y-106108281D01*
X152407287Y-106131523D01*
X152399215Y-106154082D01*
X152388971Y-106175742D01*
X152376653Y-106196292D01*
X152362381Y-106215537D01*
X152346290Y-106233290D01*
X152328537Y-106249381D01*
X152309292Y-106263653D01*
X152288742Y-106275971D01*
X152267082Y-106286215D01*
X152244523Y-106294287D01*
X152221281Y-106300109D01*
X152197581Y-106303624D01*
X152173650Y-106304800D01*
X151610350Y-106304800D01*
X151586419Y-106303624D01*
X151562719Y-106300109D01*
X151539477Y-106294287D01*
X151516918Y-106286215D01*
X151495258Y-106275971D01*
X151474708Y-106263653D01*
X151455463Y-106249381D01*
X151437710Y-106233290D01*
X151421619Y-106215537D01*
X151407347Y-106196292D01*
X151395029Y-106175742D01*
X151384785Y-106154082D01*
X151376713Y-106131523D01*
X151370891Y-106108281D01*
X151367376Y-106084581D01*
X151366200Y-106060650D01*
X151366200Y-105572350D01*
X151367376Y-105548419D01*
X151370891Y-105524719D01*
X151376713Y-105501477D01*
X151384785Y-105478918D01*
X151395029Y-105457258D01*
X151407347Y-105436708D01*
X151421619Y-105417463D01*
X151437710Y-105399710D01*
X151455463Y-105383619D01*
X151474708Y-105369347D01*
X151495258Y-105357029D01*
X151516918Y-105346785D01*
X151539477Y-105338713D01*
X151562719Y-105332891D01*
X151586419Y-105329376D01*
X151610350Y-105328200D01*
X152173650Y-105328200D01*
X152197581Y-105329376D01*
X152197581Y-105329376D01*
G37*
D19*
X151892000Y-105816500D03*
D17*
G36*
X152197581Y-103754376D02*
G01*
X152221281Y-103757891D01*
X152244523Y-103763713D01*
X152267082Y-103771785D01*
X152288742Y-103782029D01*
X152309292Y-103794347D01*
X152328537Y-103808619D01*
X152346290Y-103824710D01*
X152362381Y-103842463D01*
X152376653Y-103861708D01*
X152388971Y-103882258D01*
X152399215Y-103903918D01*
X152407287Y-103926477D01*
X152413109Y-103949719D01*
X152416624Y-103973419D01*
X152417800Y-103997350D01*
X152417800Y-104485650D01*
X152416624Y-104509581D01*
X152413109Y-104533281D01*
X152407287Y-104556523D01*
X152399215Y-104579082D01*
X152388971Y-104600742D01*
X152376653Y-104621292D01*
X152362381Y-104640537D01*
X152346290Y-104658290D01*
X152328537Y-104674381D01*
X152309292Y-104688653D01*
X152288742Y-104700971D01*
X152267082Y-104711215D01*
X152244523Y-104719287D01*
X152221281Y-104725109D01*
X152197581Y-104728624D01*
X152173650Y-104729800D01*
X151610350Y-104729800D01*
X151586419Y-104728624D01*
X151562719Y-104725109D01*
X151539477Y-104719287D01*
X151516918Y-104711215D01*
X151495258Y-104700971D01*
X151474708Y-104688653D01*
X151455463Y-104674381D01*
X151437710Y-104658290D01*
X151421619Y-104640537D01*
X151407347Y-104621292D01*
X151395029Y-104600742D01*
X151384785Y-104579082D01*
X151376713Y-104556523D01*
X151370891Y-104533281D01*
X151367376Y-104509581D01*
X151366200Y-104485650D01*
X151366200Y-103997350D01*
X151367376Y-103973419D01*
X151370891Y-103949719D01*
X151376713Y-103926477D01*
X151384785Y-103903918D01*
X151395029Y-103882258D01*
X151407347Y-103861708D01*
X151421619Y-103842463D01*
X151437710Y-103824710D01*
X151455463Y-103808619D01*
X151474708Y-103794347D01*
X151495258Y-103782029D01*
X151516918Y-103771785D01*
X151539477Y-103763713D01*
X151562719Y-103757891D01*
X151586419Y-103754376D01*
X151610350Y-103753200D01*
X152173650Y-103753200D01*
X152197581Y-103754376D01*
X152197581Y-103754376D01*
G37*
D19*
X151892000Y-104241500D03*
D17*
G36*
X136386581Y-99805376D02*
G01*
X136410281Y-99808891D01*
X136433523Y-99814713D01*
X136456082Y-99822785D01*
X136477742Y-99833029D01*
X136498292Y-99845347D01*
X136517537Y-99859619D01*
X136535290Y-99875710D01*
X136551381Y-99893463D01*
X136565653Y-99912708D01*
X136577971Y-99933258D01*
X136588215Y-99954918D01*
X136596287Y-99977477D01*
X136602109Y-100000719D01*
X136605624Y-100024419D01*
X136606800Y-100048350D01*
X136606800Y-100611650D01*
X136605624Y-100635581D01*
X136602109Y-100659281D01*
X136596287Y-100682523D01*
X136588215Y-100705082D01*
X136577971Y-100726742D01*
X136565653Y-100747292D01*
X136551381Y-100766537D01*
X136535290Y-100784290D01*
X136517537Y-100800381D01*
X136498292Y-100814653D01*
X136477742Y-100826971D01*
X136456082Y-100837215D01*
X136433523Y-100845287D01*
X136410281Y-100851109D01*
X136386581Y-100854624D01*
X136362650Y-100855800D01*
X135874350Y-100855800D01*
X135850419Y-100854624D01*
X135826719Y-100851109D01*
X135803477Y-100845287D01*
X135780918Y-100837215D01*
X135759258Y-100826971D01*
X135738708Y-100814653D01*
X135719463Y-100800381D01*
X135701710Y-100784290D01*
X135685619Y-100766537D01*
X135671347Y-100747292D01*
X135659029Y-100726742D01*
X135648785Y-100705082D01*
X135640713Y-100682523D01*
X135634891Y-100659281D01*
X135631376Y-100635581D01*
X135630200Y-100611650D01*
X135630200Y-100048350D01*
X135631376Y-100024419D01*
X135634891Y-100000719D01*
X135640713Y-99977477D01*
X135648785Y-99954918D01*
X135659029Y-99933258D01*
X135671347Y-99912708D01*
X135685619Y-99893463D01*
X135701710Y-99875710D01*
X135719463Y-99859619D01*
X135738708Y-99845347D01*
X135759258Y-99833029D01*
X135780918Y-99822785D01*
X135803477Y-99814713D01*
X135826719Y-99808891D01*
X135850419Y-99805376D01*
X135874350Y-99804200D01*
X136362650Y-99804200D01*
X136386581Y-99805376D01*
X136386581Y-99805376D01*
G37*
D19*
X136118500Y-100330000D03*
D17*
G36*
X137961581Y-99805376D02*
G01*
X137985281Y-99808891D01*
X138008523Y-99814713D01*
X138031082Y-99822785D01*
X138052742Y-99833029D01*
X138073292Y-99845347D01*
X138092537Y-99859619D01*
X138110290Y-99875710D01*
X138126381Y-99893463D01*
X138140653Y-99912708D01*
X138152971Y-99933258D01*
X138163215Y-99954918D01*
X138171287Y-99977477D01*
X138177109Y-100000719D01*
X138180624Y-100024419D01*
X138181800Y-100048350D01*
X138181800Y-100611650D01*
X138180624Y-100635581D01*
X138177109Y-100659281D01*
X138171287Y-100682523D01*
X138163215Y-100705082D01*
X138152971Y-100726742D01*
X138140653Y-100747292D01*
X138126381Y-100766537D01*
X138110290Y-100784290D01*
X138092537Y-100800381D01*
X138073292Y-100814653D01*
X138052742Y-100826971D01*
X138031082Y-100837215D01*
X138008523Y-100845287D01*
X137985281Y-100851109D01*
X137961581Y-100854624D01*
X137937650Y-100855800D01*
X137449350Y-100855800D01*
X137425419Y-100854624D01*
X137401719Y-100851109D01*
X137378477Y-100845287D01*
X137355918Y-100837215D01*
X137334258Y-100826971D01*
X137313708Y-100814653D01*
X137294463Y-100800381D01*
X137276710Y-100784290D01*
X137260619Y-100766537D01*
X137246347Y-100747292D01*
X137234029Y-100726742D01*
X137223785Y-100705082D01*
X137215713Y-100682523D01*
X137209891Y-100659281D01*
X137206376Y-100635581D01*
X137205200Y-100611650D01*
X137205200Y-100048350D01*
X137206376Y-100024419D01*
X137209891Y-100000719D01*
X137215713Y-99977477D01*
X137223785Y-99954918D01*
X137234029Y-99933258D01*
X137246347Y-99912708D01*
X137260619Y-99893463D01*
X137276710Y-99875710D01*
X137294463Y-99859619D01*
X137313708Y-99845347D01*
X137334258Y-99833029D01*
X137355918Y-99822785D01*
X137378477Y-99814713D01*
X137401719Y-99808891D01*
X137425419Y-99805376D01*
X137449350Y-99804200D01*
X137937650Y-99804200D01*
X137961581Y-99805376D01*
X137961581Y-99805376D01*
G37*
D19*
X137693500Y-100330000D03*
D41*
X135509000Y-134696200D03*
X134239000Y-134696200D03*
X132969000Y-134696200D03*
X131699000Y-134696200D03*
X131699000Y-129463800D03*
X132969000Y-129463800D03*
X134239000Y-129463800D03*
X135509000Y-129463800D03*
D17*
G36*
X142418581Y-92705376D02*
G01*
X142442281Y-92708891D01*
X142465523Y-92714713D01*
X142488082Y-92722785D01*
X142509742Y-92733029D01*
X142530292Y-92745347D01*
X142549537Y-92759619D01*
X142567290Y-92775710D01*
X142583381Y-92793463D01*
X142597653Y-92812708D01*
X142609971Y-92833258D01*
X142620215Y-92854918D01*
X142628287Y-92877477D01*
X142634109Y-92900719D01*
X142637624Y-92924419D01*
X142638800Y-92948350D01*
X142638800Y-93436650D01*
X142637624Y-93460581D01*
X142634109Y-93484281D01*
X142628287Y-93507523D01*
X142620215Y-93530082D01*
X142609971Y-93551742D01*
X142597653Y-93572292D01*
X142583381Y-93591537D01*
X142567290Y-93609290D01*
X142549537Y-93625381D01*
X142530292Y-93639653D01*
X142509742Y-93651971D01*
X142488082Y-93662215D01*
X142465523Y-93670287D01*
X142442281Y-93676109D01*
X142418581Y-93679624D01*
X142394650Y-93680800D01*
X141831350Y-93680800D01*
X141807419Y-93679624D01*
X141783719Y-93676109D01*
X141760477Y-93670287D01*
X141737918Y-93662215D01*
X141716258Y-93651971D01*
X141695708Y-93639653D01*
X141676463Y-93625381D01*
X141658710Y-93609290D01*
X141642619Y-93591537D01*
X141628347Y-93572292D01*
X141616029Y-93551742D01*
X141605785Y-93530082D01*
X141597713Y-93507523D01*
X141591891Y-93484281D01*
X141588376Y-93460581D01*
X141587200Y-93436650D01*
X141587200Y-92948350D01*
X141588376Y-92924419D01*
X141591891Y-92900719D01*
X141597713Y-92877477D01*
X141605785Y-92854918D01*
X141616029Y-92833258D01*
X141628347Y-92812708D01*
X141642619Y-92793463D01*
X141658710Y-92775710D01*
X141676463Y-92759619D01*
X141695708Y-92745347D01*
X141716258Y-92733029D01*
X141737918Y-92722785D01*
X141760477Y-92714713D01*
X141783719Y-92708891D01*
X141807419Y-92705376D01*
X141831350Y-92704200D01*
X142394650Y-92704200D01*
X142418581Y-92705376D01*
X142418581Y-92705376D01*
G37*
D19*
X142113000Y-93192500D03*
D17*
G36*
X142418581Y-94280376D02*
G01*
X142442281Y-94283891D01*
X142465523Y-94289713D01*
X142488082Y-94297785D01*
X142509742Y-94308029D01*
X142530292Y-94320347D01*
X142549537Y-94334619D01*
X142567290Y-94350710D01*
X142583381Y-94368463D01*
X142597653Y-94387708D01*
X142609971Y-94408258D01*
X142620215Y-94429918D01*
X142628287Y-94452477D01*
X142634109Y-94475719D01*
X142637624Y-94499419D01*
X142638800Y-94523350D01*
X142638800Y-95011650D01*
X142637624Y-95035581D01*
X142634109Y-95059281D01*
X142628287Y-95082523D01*
X142620215Y-95105082D01*
X142609971Y-95126742D01*
X142597653Y-95147292D01*
X142583381Y-95166537D01*
X142567290Y-95184290D01*
X142549537Y-95200381D01*
X142530292Y-95214653D01*
X142509742Y-95226971D01*
X142488082Y-95237215D01*
X142465523Y-95245287D01*
X142442281Y-95251109D01*
X142418581Y-95254624D01*
X142394650Y-95255800D01*
X141831350Y-95255800D01*
X141807419Y-95254624D01*
X141783719Y-95251109D01*
X141760477Y-95245287D01*
X141737918Y-95237215D01*
X141716258Y-95226971D01*
X141695708Y-95214653D01*
X141676463Y-95200381D01*
X141658710Y-95184290D01*
X141642619Y-95166537D01*
X141628347Y-95147292D01*
X141616029Y-95126742D01*
X141605785Y-95105082D01*
X141597713Y-95082523D01*
X141591891Y-95059281D01*
X141588376Y-95035581D01*
X141587200Y-95011650D01*
X141587200Y-94523350D01*
X141588376Y-94499419D01*
X141591891Y-94475719D01*
X141597713Y-94452477D01*
X141605785Y-94429918D01*
X141616029Y-94408258D01*
X141628347Y-94387708D01*
X141642619Y-94368463D01*
X141658710Y-94350710D01*
X141676463Y-94334619D01*
X141695708Y-94320347D01*
X141716258Y-94308029D01*
X141737918Y-94297785D01*
X141760477Y-94289713D01*
X141783719Y-94283891D01*
X141807419Y-94280376D01*
X141831350Y-94279200D01*
X142394650Y-94279200D01*
X142418581Y-94280376D01*
X142418581Y-94280376D01*
G37*
D19*
X142113000Y-94767500D03*
D17*
G36*
X170231581Y-100376376D02*
G01*
X170255281Y-100379891D01*
X170278523Y-100385713D01*
X170301082Y-100393785D01*
X170322742Y-100404029D01*
X170343292Y-100416347D01*
X170362537Y-100430619D01*
X170380290Y-100446710D01*
X170396381Y-100464463D01*
X170410653Y-100483708D01*
X170422971Y-100504258D01*
X170433215Y-100525918D01*
X170441287Y-100548477D01*
X170447109Y-100571719D01*
X170450624Y-100595419D01*
X170451800Y-100619350D01*
X170451800Y-101107650D01*
X170450624Y-101131581D01*
X170447109Y-101155281D01*
X170441287Y-101178523D01*
X170433215Y-101201082D01*
X170422971Y-101222742D01*
X170410653Y-101243292D01*
X170396381Y-101262537D01*
X170380290Y-101280290D01*
X170362537Y-101296381D01*
X170343292Y-101310653D01*
X170322742Y-101322971D01*
X170301082Y-101333215D01*
X170278523Y-101341287D01*
X170255281Y-101347109D01*
X170231581Y-101350624D01*
X170207650Y-101351800D01*
X169644350Y-101351800D01*
X169620419Y-101350624D01*
X169596719Y-101347109D01*
X169573477Y-101341287D01*
X169550918Y-101333215D01*
X169529258Y-101322971D01*
X169508708Y-101310653D01*
X169489463Y-101296381D01*
X169471710Y-101280290D01*
X169455619Y-101262537D01*
X169441347Y-101243292D01*
X169429029Y-101222742D01*
X169418785Y-101201082D01*
X169410713Y-101178523D01*
X169404891Y-101155281D01*
X169401376Y-101131581D01*
X169400200Y-101107650D01*
X169400200Y-100619350D01*
X169401376Y-100595419D01*
X169404891Y-100571719D01*
X169410713Y-100548477D01*
X169418785Y-100525918D01*
X169429029Y-100504258D01*
X169441347Y-100483708D01*
X169455619Y-100464463D01*
X169471710Y-100446710D01*
X169489463Y-100430619D01*
X169508708Y-100416347D01*
X169529258Y-100404029D01*
X169550918Y-100393785D01*
X169573477Y-100385713D01*
X169596719Y-100379891D01*
X169620419Y-100376376D01*
X169644350Y-100375200D01*
X170207650Y-100375200D01*
X170231581Y-100376376D01*
X170231581Y-100376376D01*
G37*
D19*
X169926000Y-100863500D03*
D17*
G36*
X170231581Y-98801376D02*
G01*
X170255281Y-98804891D01*
X170278523Y-98810713D01*
X170301082Y-98818785D01*
X170322742Y-98829029D01*
X170343292Y-98841347D01*
X170362537Y-98855619D01*
X170380290Y-98871710D01*
X170396381Y-98889463D01*
X170410653Y-98908708D01*
X170422971Y-98929258D01*
X170433215Y-98950918D01*
X170441287Y-98973477D01*
X170447109Y-98996719D01*
X170450624Y-99020419D01*
X170451800Y-99044350D01*
X170451800Y-99532650D01*
X170450624Y-99556581D01*
X170447109Y-99580281D01*
X170441287Y-99603523D01*
X170433215Y-99626082D01*
X170422971Y-99647742D01*
X170410653Y-99668292D01*
X170396381Y-99687537D01*
X170380290Y-99705290D01*
X170362537Y-99721381D01*
X170343292Y-99735653D01*
X170322742Y-99747971D01*
X170301082Y-99758215D01*
X170278523Y-99766287D01*
X170255281Y-99772109D01*
X170231581Y-99775624D01*
X170207650Y-99776800D01*
X169644350Y-99776800D01*
X169620419Y-99775624D01*
X169596719Y-99772109D01*
X169573477Y-99766287D01*
X169550918Y-99758215D01*
X169529258Y-99747971D01*
X169508708Y-99735653D01*
X169489463Y-99721381D01*
X169471710Y-99705290D01*
X169455619Y-99687537D01*
X169441347Y-99668292D01*
X169429029Y-99647742D01*
X169418785Y-99626082D01*
X169410713Y-99603523D01*
X169404891Y-99580281D01*
X169401376Y-99556581D01*
X169400200Y-99532650D01*
X169400200Y-99044350D01*
X169401376Y-99020419D01*
X169404891Y-98996719D01*
X169410713Y-98973477D01*
X169418785Y-98950918D01*
X169429029Y-98929258D01*
X169441347Y-98908708D01*
X169455619Y-98889463D01*
X169471710Y-98871710D01*
X169489463Y-98855619D01*
X169508708Y-98841347D01*
X169529258Y-98829029D01*
X169550918Y-98818785D01*
X169573477Y-98810713D01*
X169596719Y-98804891D01*
X169620419Y-98801376D01*
X169644350Y-98800200D01*
X170207650Y-98800200D01*
X170231581Y-98801376D01*
X170231581Y-98801376D01*
G37*
D19*
X169926000Y-99288500D03*
D17*
G36*
X168199581Y-97248347D02*
G01*
X168223281Y-97251862D01*
X168246523Y-97257684D01*
X168269082Y-97265756D01*
X168290742Y-97276000D01*
X168311292Y-97288318D01*
X168330537Y-97302590D01*
X168348290Y-97318681D01*
X168364381Y-97336434D01*
X168378653Y-97355679D01*
X168390971Y-97376229D01*
X168401215Y-97397889D01*
X168409287Y-97420448D01*
X168415109Y-97443690D01*
X168418624Y-97467390D01*
X168419800Y-97491321D01*
X168419800Y-97979621D01*
X168418624Y-98003552D01*
X168415109Y-98027252D01*
X168409287Y-98050494D01*
X168401215Y-98073053D01*
X168390971Y-98094713D01*
X168378653Y-98115263D01*
X168364381Y-98134508D01*
X168348290Y-98152261D01*
X168330537Y-98168352D01*
X168311292Y-98182624D01*
X168290742Y-98194942D01*
X168269082Y-98205186D01*
X168246523Y-98213258D01*
X168223281Y-98219080D01*
X168199581Y-98222595D01*
X168175650Y-98223771D01*
X167612350Y-98223771D01*
X167588419Y-98222595D01*
X167564719Y-98219080D01*
X167541477Y-98213258D01*
X167518918Y-98205186D01*
X167497258Y-98194942D01*
X167476708Y-98182624D01*
X167457463Y-98168352D01*
X167439710Y-98152261D01*
X167423619Y-98134508D01*
X167409347Y-98115263D01*
X167397029Y-98094713D01*
X167386785Y-98073053D01*
X167378713Y-98050494D01*
X167372891Y-98027252D01*
X167369376Y-98003552D01*
X167368200Y-97979621D01*
X167368200Y-97491321D01*
X167369376Y-97467390D01*
X167372891Y-97443690D01*
X167378713Y-97420448D01*
X167386785Y-97397889D01*
X167397029Y-97376229D01*
X167409347Y-97355679D01*
X167423619Y-97336434D01*
X167439710Y-97318681D01*
X167457463Y-97302590D01*
X167476708Y-97288318D01*
X167497258Y-97276000D01*
X167518918Y-97265756D01*
X167541477Y-97257684D01*
X167564719Y-97251862D01*
X167588419Y-97248347D01*
X167612350Y-97247171D01*
X168175650Y-97247171D01*
X168199581Y-97248347D01*
X168199581Y-97248347D01*
G37*
D19*
X167894000Y-97735471D03*
D17*
G36*
X168199581Y-98823347D02*
G01*
X168223281Y-98826862D01*
X168246523Y-98832684D01*
X168269082Y-98840756D01*
X168290742Y-98851000D01*
X168311292Y-98863318D01*
X168330537Y-98877590D01*
X168348290Y-98893681D01*
X168364381Y-98911434D01*
X168378653Y-98930679D01*
X168390971Y-98951229D01*
X168401215Y-98972889D01*
X168409287Y-98995448D01*
X168415109Y-99018690D01*
X168418624Y-99042390D01*
X168419800Y-99066321D01*
X168419800Y-99554621D01*
X168418624Y-99578552D01*
X168415109Y-99602252D01*
X168409287Y-99625494D01*
X168401215Y-99648053D01*
X168390971Y-99669713D01*
X168378653Y-99690263D01*
X168364381Y-99709508D01*
X168348290Y-99727261D01*
X168330537Y-99743352D01*
X168311292Y-99757624D01*
X168290742Y-99769942D01*
X168269082Y-99780186D01*
X168246523Y-99788258D01*
X168223281Y-99794080D01*
X168199581Y-99797595D01*
X168175650Y-99798771D01*
X167612350Y-99798771D01*
X167588419Y-99797595D01*
X167564719Y-99794080D01*
X167541477Y-99788258D01*
X167518918Y-99780186D01*
X167497258Y-99769942D01*
X167476708Y-99757624D01*
X167457463Y-99743352D01*
X167439710Y-99727261D01*
X167423619Y-99709508D01*
X167409347Y-99690263D01*
X167397029Y-99669713D01*
X167386785Y-99648053D01*
X167378713Y-99625494D01*
X167372891Y-99602252D01*
X167369376Y-99578552D01*
X167368200Y-99554621D01*
X167368200Y-99066321D01*
X167369376Y-99042390D01*
X167372891Y-99018690D01*
X167378713Y-98995448D01*
X167386785Y-98972889D01*
X167397029Y-98951229D01*
X167409347Y-98930679D01*
X167423619Y-98911434D01*
X167439710Y-98893681D01*
X167457463Y-98877590D01*
X167476708Y-98863318D01*
X167497258Y-98851000D01*
X167518918Y-98840756D01*
X167541477Y-98832684D01*
X167564719Y-98826862D01*
X167588419Y-98823347D01*
X167612350Y-98822171D01*
X168175650Y-98822171D01*
X168199581Y-98823347D01*
X168199581Y-98823347D01*
G37*
D19*
X167894000Y-99310471D03*
D17*
G36*
X130226581Y-133853376D02*
G01*
X130250281Y-133856891D01*
X130273523Y-133862713D01*
X130296082Y-133870785D01*
X130317742Y-133881029D01*
X130338292Y-133893347D01*
X130357537Y-133907619D01*
X130375290Y-133923710D01*
X130391381Y-133941463D01*
X130405653Y-133960708D01*
X130417971Y-133981258D01*
X130428215Y-134002918D01*
X130436287Y-134025477D01*
X130442109Y-134048719D01*
X130445624Y-134072419D01*
X130446800Y-134096350D01*
X130446800Y-134584650D01*
X130445624Y-134608581D01*
X130442109Y-134632281D01*
X130436287Y-134655523D01*
X130428215Y-134678082D01*
X130417971Y-134699742D01*
X130405653Y-134720292D01*
X130391381Y-134739537D01*
X130375290Y-134757290D01*
X130357537Y-134773381D01*
X130338292Y-134787653D01*
X130317742Y-134799971D01*
X130296082Y-134810215D01*
X130273523Y-134818287D01*
X130250281Y-134824109D01*
X130226581Y-134827624D01*
X130202650Y-134828800D01*
X129639350Y-134828800D01*
X129615419Y-134827624D01*
X129591719Y-134824109D01*
X129568477Y-134818287D01*
X129545918Y-134810215D01*
X129524258Y-134799971D01*
X129503708Y-134787653D01*
X129484463Y-134773381D01*
X129466710Y-134757290D01*
X129450619Y-134739537D01*
X129436347Y-134720292D01*
X129424029Y-134699742D01*
X129413785Y-134678082D01*
X129405713Y-134655523D01*
X129399891Y-134632281D01*
X129396376Y-134608581D01*
X129395200Y-134584650D01*
X129395200Y-134096350D01*
X129396376Y-134072419D01*
X129399891Y-134048719D01*
X129405713Y-134025477D01*
X129413785Y-134002918D01*
X129424029Y-133981258D01*
X129436347Y-133960708D01*
X129450619Y-133941463D01*
X129466710Y-133923710D01*
X129484463Y-133907619D01*
X129503708Y-133893347D01*
X129524258Y-133881029D01*
X129545918Y-133870785D01*
X129568477Y-133862713D01*
X129591719Y-133856891D01*
X129615419Y-133853376D01*
X129639350Y-133852200D01*
X130202650Y-133852200D01*
X130226581Y-133853376D01*
X130226581Y-133853376D01*
G37*
D19*
X129921000Y-134340500D03*
D17*
G36*
X130226581Y-135428376D02*
G01*
X130250281Y-135431891D01*
X130273523Y-135437713D01*
X130296082Y-135445785D01*
X130317742Y-135456029D01*
X130338292Y-135468347D01*
X130357537Y-135482619D01*
X130375290Y-135498710D01*
X130391381Y-135516463D01*
X130405653Y-135535708D01*
X130417971Y-135556258D01*
X130428215Y-135577918D01*
X130436287Y-135600477D01*
X130442109Y-135623719D01*
X130445624Y-135647419D01*
X130446800Y-135671350D01*
X130446800Y-136159650D01*
X130445624Y-136183581D01*
X130442109Y-136207281D01*
X130436287Y-136230523D01*
X130428215Y-136253082D01*
X130417971Y-136274742D01*
X130405653Y-136295292D01*
X130391381Y-136314537D01*
X130375290Y-136332290D01*
X130357537Y-136348381D01*
X130338292Y-136362653D01*
X130317742Y-136374971D01*
X130296082Y-136385215D01*
X130273523Y-136393287D01*
X130250281Y-136399109D01*
X130226581Y-136402624D01*
X130202650Y-136403800D01*
X129639350Y-136403800D01*
X129615419Y-136402624D01*
X129591719Y-136399109D01*
X129568477Y-136393287D01*
X129545918Y-136385215D01*
X129524258Y-136374971D01*
X129503708Y-136362653D01*
X129484463Y-136348381D01*
X129466710Y-136332290D01*
X129450619Y-136314537D01*
X129436347Y-136295292D01*
X129424029Y-136274742D01*
X129413785Y-136253082D01*
X129405713Y-136230523D01*
X129399891Y-136207281D01*
X129396376Y-136183581D01*
X129395200Y-136159650D01*
X129395200Y-135671350D01*
X129396376Y-135647419D01*
X129399891Y-135623719D01*
X129405713Y-135600477D01*
X129413785Y-135577918D01*
X129424029Y-135556258D01*
X129436347Y-135535708D01*
X129450619Y-135516463D01*
X129466710Y-135498710D01*
X129484463Y-135482619D01*
X129503708Y-135468347D01*
X129524258Y-135456029D01*
X129545918Y-135445785D01*
X129568477Y-135437713D01*
X129591719Y-135431891D01*
X129615419Y-135428376D01*
X129639350Y-135427200D01*
X130202650Y-135427200D01*
X130226581Y-135428376D01*
X130226581Y-135428376D01*
G37*
D19*
X129921000Y-135915500D03*
D17*
G36*
X122133681Y-136429472D02*
G01*
X122157381Y-136432987D01*
X122180623Y-136438809D01*
X122203182Y-136446881D01*
X122224842Y-136457125D01*
X122245392Y-136469443D01*
X122264637Y-136483715D01*
X122282390Y-136499806D01*
X122298481Y-136517559D01*
X122312753Y-136536804D01*
X122325071Y-136557354D01*
X122335315Y-136579014D01*
X122343387Y-136601573D01*
X122349209Y-136624815D01*
X122352724Y-136648515D01*
X122353900Y-136672446D01*
X122353900Y-137235746D01*
X122352724Y-137259677D01*
X122349209Y-137283377D01*
X122343387Y-137306619D01*
X122335315Y-137329178D01*
X122325071Y-137350838D01*
X122312753Y-137371388D01*
X122298481Y-137390633D01*
X122282390Y-137408386D01*
X122264637Y-137424477D01*
X122245392Y-137438749D01*
X122224842Y-137451067D01*
X122203182Y-137461311D01*
X122180623Y-137469383D01*
X122157381Y-137475205D01*
X122133681Y-137478720D01*
X122109750Y-137479896D01*
X121621450Y-137479896D01*
X121597519Y-137478720D01*
X121573819Y-137475205D01*
X121550577Y-137469383D01*
X121528018Y-137461311D01*
X121506358Y-137451067D01*
X121485808Y-137438749D01*
X121466563Y-137424477D01*
X121448810Y-137408386D01*
X121432719Y-137390633D01*
X121418447Y-137371388D01*
X121406129Y-137350838D01*
X121395885Y-137329178D01*
X121387813Y-137306619D01*
X121381991Y-137283377D01*
X121378476Y-137259677D01*
X121377300Y-137235746D01*
X121377300Y-136672446D01*
X121378476Y-136648515D01*
X121381991Y-136624815D01*
X121387813Y-136601573D01*
X121395885Y-136579014D01*
X121406129Y-136557354D01*
X121418447Y-136536804D01*
X121432719Y-136517559D01*
X121448810Y-136499806D01*
X121466563Y-136483715D01*
X121485808Y-136469443D01*
X121506358Y-136457125D01*
X121528018Y-136446881D01*
X121550577Y-136438809D01*
X121573819Y-136432987D01*
X121597519Y-136429472D01*
X121621450Y-136428296D01*
X122109750Y-136428296D01*
X122133681Y-136429472D01*
X122133681Y-136429472D01*
G37*
D19*
X121865600Y-136954096D03*
D17*
G36*
X123708681Y-136429472D02*
G01*
X123732381Y-136432987D01*
X123755623Y-136438809D01*
X123778182Y-136446881D01*
X123799842Y-136457125D01*
X123820392Y-136469443D01*
X123839637Y-136483715D01*
X123857390Y-136499806D01*
X123873481Y-136517559D01*
X123887753Y-136536804D01*
X123900071Y-136557354D01*
X123910315Y-136579014D01*
X123918387Y-136601573D01*
X123924209Y-136624815D01*
X123927724Y-136648515D01*
X123928900Y-136672446D01*
X123928900Y-137235746D01*
X123927724Y-137259677D01*
X123924209Y-137283377D01*
X123918387Y-137306619D01*
X123910315Y-137329178D01*
X123900071Y-137350838D01*
X123887753Y-137371388D01*
X123873481Y-137390633D01*
X123857390Y-137408386D01*
X123839637Y-137424477D01*
X123820392Y-137438749D01*
X123799842Y-137451067D01*
X123778182Y-137461311D01*
X123755623Y-137469383D01*
X123732381Y-137475205D01*
X123708681Y-137478720D01*
X123684750Y-137479896D01*
X123196450Y-137479896D01*
X123172519Y-137478720D01*
X123148819Y-137475205D01*
X123125577Y-137469383D01*
X123103018Y-137461311D01*
X123081358Y-137451067D01*
X123060808Y-137438749D01*
X123041563Y-137424477D01*
X123023810Y-137408386D01*
X123007719Y-137390633D01*
X122993447Y-137371388D01*
X122981129Y-137350838D01*
X122970885Y-137329178D01*
X122962813Y-137306619D01*
X122956991Y-137283377D01*
X122953476Y-137259677D01*
X122952300Y-137235746D01*
X122952300Y-136672446D01*
X122953476Y-136648515D01*
X122956991Y-136624815D01*
X122962813Y-136601573D01*
X122970885Y-136579014D01*
X122981129Y-136557354D01*
X122993447Y-136536804D01*
X123007719Y-136517559D01*
X123023810Y-136499806D01*
X123041563Y-136483715D01*
X123060808Y-136469443D01*
X123081358Y-136457125D01*
X123103018Y-136446881D01*
X123125577Y-136438809D01*
X123148819Y-136432987D01*
X123172519Y-136429472D01*
X123196450Y-136428296D01*
X123684750Y-136428296D01*
X123708681Y-136429472D01*
X123708681Y-136429472D01*
G37*
D19*
X123440600Y-136954096D03*
D17*
G36*
X122133681Y-134270472D02*
G01*
X122157381Y-134273987D01*
X122180623Y-134279809D01*
X122203182Y-134287881D01*
X122224842Y-134298125D01*
X122245392Y-134310443D01*
X122264637Y-134324715D01*
X122282390Y-134340806D01*
X122298481Y-134358559D01*
X122312753Y-134377804D01*
X122325071Y-134398354D01*
X122335315Y-134420014D01*
X122343387Y-134442573D01*
X122349209Y-134465815D01*
X122352724Y-134489515D01*
X122353900Y-134513446D01*
X122353900Y-135076746D01*
X122352724Y-135100677D01*
X122349209Y-135124377D01*
X122343387Y-135147619D01*
X122335315Y-135170178D01*
X122325071Y-135191838D01*
X122312753Y-135212388D01*
X122298481Y-135231633D01*
X122282390Y-135249386D01*
X122264637Y-135265477D01*
X122245392Y-135279749D01*
X122224842Y-135292067D01*
X122203182Y-135302311D01*
X122180623Y-135310383D01*
X122157381Y-135316205D01*
X122133681Y-135319720D01*
X122109750Y-135320896D01*
X121621450Y-135320896D01*
X121597519Y-135319720D01*
X121573819Y-135316205D01*
X121550577Y-135310383D01*
X121528018Y-135302311D01*
X121506358Y-135292067D01*
X121485808Y-135279749D01*
X121466563Y-135265477D01*
X121448810Y-135249386D01*
X121432719Y-135231633D01*
X121418447Y-135212388D01*
X121406129Y-135191838D01*
X121395885Y-135170178D01*
X121387813Y-135147619D01*
X121381991Y-135124377D01*
X121378476Y-135100677D01*
X121377300Y-135076746D01*
X121377300Y-134513446D01*
X121378476Y-134489515D01*
X121381991Y-134465815D01*
X121387813Y-134442573D01*
X121395885Y-134420014D01*
X121406129Y-134398354D01*
X121418447Y-134377804D01*
X121432719Y-134358559D01*
X121448810Y-134340806D01*
X121466563Y-134324715D01*
X121485808Y-134310443D01*
X121506358Y-134298125D01*
X121528018Y-134287881D01*
X121550577Y-134279809D01*
X121573819Y-134273987D01*
X121597519Y-134270472D01*
X121621450Y-134269296D01*
X122109750Y-134269296D01*
X122133681Y-134270472D01*
X122133681Y-134270472D01*
G37*
D19*
X121865600Y-134795096D03*
D17*
G36*
X123708681Y-134270472D02*
G01*
X123732381Y-134273987D01*
X123755623Y-134279809D01*
X123778182Y-134287881D01*
X123799842Y-134298125D01*
X123820392Y-134310443D01*
X123839637Y-134324715D01*
X123857390Y-134340806D01*
X123873481Y-134358559D01*
X123887753Y-134377804D01*
X123900071Y-134398354D01*
X123910315Y-134420014D01*
X123918387Y-134442573D01*
X123924209Y-134465815D01*
X123927724Y-134489515D01*
X123928900Y-134513446D01*
X123928900Y-135076746D01*
X123927724Y-135100677D01*
X123924209Y-135124377D01*
X123918387Y-135147619D01*
X123910315Y-135170178D01*
X123900071Y-135191838D01*
X123887753Y-135212388D01*
X123873481Y-135231633D01*
X123857390Y-135249386D01*
X123839637Y-135265477D01*
X123820392Y-135279749D01*
X123799842Y-135292067D01*
X123778182Y-135302311D01*
X123755623Y-135310383D01*
X123732381Y-135316205D01*
X123708681Y-135319720D01*
X123684750Y-135320896D01*
X123196450Y-135320896D01*
X123172519Y-135319720D01*
X123148819Y-135316205D01*
X123125577Y-135310383D01*
X123103018Y-135302311D01*
X123081358Y-135292067D01*
X123060808Y-135279749D01*
X123041563Y-135265477D01*
X123023810Y-135249386D01*
X123007719Y-135231633D01*
X122993447Y-135212388D01*
X122981129Y-135191838D01*
X122970885Y-135170178D01*
X122962813Y-135147619D01*
X122956991Y-135124377D01*
X122953476Y-135100677D01*
X122952300Y-135076746D01*
X122952300Y-134513446D01*
X122953476Y-134489515D01*
X122956991Y-134465815D01*
X122962813Y-134442573D01*
X122970885Y-134420014D01*
X122981129Y-134398354D01*
X122993447Y-134377804D01*
X123007719Y-134358559D01*
X123023810Y-134340806D01*
X123041563Y-134324715D01*
X123060808Y-134310443D01*
X123081358Y-134298125D01*
X123103018Y-134287881D01*
X123125577Y-134279809D01*
X123148819Y-134273987D01*
X123172519Y-134270472D01*
X123196450Y-134269296D01*
X123684750Y-134269296D01*
X123708681Y-134270472D01*
X123708681Y-134270472D01*
G37*
D19*
X123440600Y-134795096D03*
D17*
G36*
X162611581Y-99014572D02*
G01*
X162635281Y-99018087D01*
X162658523Y-99023909D01*
X162681082Y-99031981D01*
X162702742Y-99042225D01*
X162723292Y-99054543D01*
X162742537Y-99068815D01*
X162760290Y-99084906D01*
X162776381Y-99102659D01*
X162790653Y-99121904D01*
X162802971Y-99142454D01*
X162813215Y-99164114D01*
X162821287Y-99186673D01*
X162827109Y-99209915D01*
X162830624Y-99233615D01*
X162831800Y-99257546D01*
X162831800Y-99745846D01*
X162830624Y-99769777D01*
X162827109Y-99793477D01*
X162821287Y-99816719D01*
X162813215Y-99839278D01*
X162802971Y-99860938D01*
X162790653Y-99881488D01*
X162776381Y-99900733D01*
X162760290Y-99918486D01*
X162742537Y-99934577D01*
X162723292Y-99948849D01*
X162702742Y-99961167D01*
X162681082Y-99971411D01*
X162658523Y-99979483D01*
X162635281Y-99985305D01*
X162611581Y-99988820D01*
X162587650Y-99989996D01*
X162024350Y-99989996D01*
X162000419Y-99988820D01*
X161976719Y-99985305D01*
X161953477Y-99979483D01*
X161930918Y-99971411D01*
X161909258Y-99961167D01*
X161888708Y-99948849D01*
X161869463Y-99934577D01*
X161851710Y-99918486D01*
X161835619Y-99900733D01*
X161821347Y-99881488D01*
X161809029Y-99860938D01*
X161798785Y-99839278D01*
X161790713Y-99816719D01*
X161784891Y-99793477D01*
X161781376Y-99769777D01*
X161780200Y-99745846D01*
X161780200Y-99257546D01*
X161781376Y-99233615D01*
X161784891Y-99209915D01*
X161790713Y-99186673D01*
X161798785Y-99164114D01*
X161809029Y-99142454D01*
X161821347Y-99121904D01*
X161835619Y-99102659D01*
X161851710Y-99084906D01*
X161869463Y-99068815D01*
X161888708Y-99054543D01*
X161909258Y-99042225D01*
X161930918Y-99031981D01*
X161953477Y-99023909D01*
X161976719Y-99018087D01*
X162000419Y-99014572D01*
X162024350Y-99013396D01*
X162587650Y-99013396D01*
X162611581Y-99014572D01*
X162611581Y-99014572D01*
G37*
D19*
X162306000Y-99501696D03*
D17*
G36*
X162611581Y-100589572D02*
G01*
X162635281Y-100593087D01*
X162658523Y-100598909D01*
X162681082Y-100606981D01*
X162702742Y-100617225D01*
X162723292Y-100629543D01*
X162742537Y-100643815D01*
X162760290Y-100659906D01*
X162776381Y-100677659D01*
X162790653Y-100696904D01*
X162802971Y-100717454D01*
X162813215Y-100739114D01*
X162821287Y-100761673D01*
X162827109Y-100784915D01*
X162830624Y-100808615D01*
X162831800Y-100832546D01*
X162831800Y-101320846D01*
X162830624Y-101344777D01*
X162827109Y-101368477D01*
X162821287Y-101391719D01*
X162813215Y-101414278D01*
X162802971Y-101435938D01*
X162790653Y-101456488D01*
X162776381Y-101475733D01*
X162760290Y-101493486D01*
X162742537Y-101509577D01*
X162723292Y-101523849D01*
X162702742Y-101536167D01*
X162681082Y-101546411D01*
X162658523Y-101554483D01*
X162635281Y-101560305D01*
X162611581Y-101563820D01*
X162587650Y-101564996D01*
X162024350Y-101564996D01*
X162000419Y-101563820D01*
X161976719Y-101560305D01*
X161953477Y-101554483D01*
X161930918Y-101546411D01*
X161909258Y-101536167D01*
X161888708Y-101523849D01*
X161869463Y-101509577D01*
X161851710Y-101493486D01*
X161835619Y-101475733D01*
X161821347Y-101456488D01*
X161809029Y-101435938D01*
X161798785Y-101414278D01*
X161790713Y-101391719D01*
X161784891Y-101368477D01*
X161781376Y-101344777D01*
X161780200Y-101320846D01*
X161780200Y-100832546D01*
X161781376Y-100808615D01*
X161784891Y-100784915D01*
X161790713Y-100761673D01*
X161798785Y-100739114D01*
X161809029Y-100717454D01*
X161821347Y-100696904D01*
X161835619Y-100677659D01*
X161851710Y-100659906D01*
X161869463Y-100643815D01*
X161888708Y-100629543D01*
X161909258Y-100617225D01*
X161930918Y-100606981D01*
X161953477Y-100598909D01*
X161976719Y-100593087D01*
X162000419Y-100589572D01*
X162024350Y-100588396D01*
X162587650Y-100588396D01*
X162611581Y-100589572D01*
X162611581Y-100589572D01*
G37*
D19*
X162306000Y-101076696D03*
D40*
X102800100Y-87233596D03*
D37*
X102546100Y-89773596D03*
X102800100Y-92313596D03*
D40*
X184269100Y-102981596D03*
D37*
X184523100Y-100441596D03*
X184269100Y-97901596D03*
D40*
X112649000Y-144145000D03*
D37*
X115189000Y-144399000D03*
X117729000Y-144145000D03*
D40*
X162604100Y-56711096D03*
D37*
X165144100Y-56457096D03*
X167684100Y-56711096D03*
D40*
X140881100Y-144145000D03*
D37*
X143421100Y-144399000D03*
X145961100Y-144145000D03*
D40*
X123605600Y-56711096D03*
D37*
X121065600Y-56457096D03*
X118525600Y-56711096D03*
D15*
X180708100Y-73960696D03*
D16*
X180708100Y-77816296D03*
X180708100Y-85171896D03*
D15*
X180708100Y-81316296D03*
D16*
X171282100Y-77816296D03*
D15*
X171282100Y-73960696D03*
D16*
X180708100Y-70460696D03*
D15*
X180708100Y-66605096D03*
D42*
X117370562Y-121672543D03*
X117370562Y-118372543D03*
X117370562Y-119472543D03*
X117370562Y-120572543D03*
X117370562Y-124672543D03*
X117370562Y-130172543D03*
X117370562Y-127972543D03*
X117370562Y-126872543D03*
X117370562Y-125772543D03*
X117370562Y-117272543D03*
X117370562Y-129072543D03*
X117370562Y-131272543D03*
X129570562Y-131272543D03*
X129570562Y-126872543D03*
X129570562Y-127972543D03*
X129570562Y-129072543D03*
X129570562Y-130172543D03*
X129570562Y-124672543D03*
X129570562Y-121672543D03*
X129570562Y-117272543D03*
X129570562Y-118372543D03*
X129570562Y-119472543D03*
X129570562Y-120572543D03*
X129570562Y-125772543D03*
D43*
X114661878Y-116854150D03*
X114661878Y-117354150D03*
X114661878Y-117854150D03*
X114661878Y-118354150D03*
X114661878Y-118854150D03*
X114661878Y-119354150D03*
X114661878Y-119854150D03*
X114661878Y-120354150D03*
D44*
X113911878Y-121104150D03*
X113411878Y-121104150D03*
X112911878Y-121104150D03*
X112411878Y-121104150D03*
X111911878Y-121104150D03*
X111411878Y-121104150D03*
X110911878Y-121104150D03*
X110411878Y-121104150D03*
D43*
X109661878Y-120354150D03*
X109661878Y-119854150D03*
X109661878Y-119354150D03*
X109661878Y-118854150D03*
X109661878Y-118354150D03*
X109661878Y-117854150D03*
X109661878Y-117354150D03*
X109661878Y-116854150D03*
D44*
X110411878Y-116104150D03*
X110911878Y-116104150D03*
X111411878Y-116104150D03*
X111911878Y-116104150D03*
X112411878Y-116104150D03*
X112911878Y-116104150D03*
X113411878Y-116104150D03*
X113911878Y-116104150D03*
D45*
X112161878Y-118604150D03*
D46*
X116708000Y-98573000D03*
X116708000Y-99673000D03*
X116708000Y-100773000D03*
X116708000Y-101873000D03*
X116708000Y-102973000D03*
X116708000Y-104073000D03*
X116708000Y-105173000D03*
X116708000Y-106273000D03*
D47*
X117338000Y-94228000D03*
D48*
X117188000Y-108618000D03*
D49*
X119338000Y-108213000D03*
D50*
X128338000Y-108213000D03*
D48*
X128668000Y-94328000D03*
D51*
X129463000Y-98633000D03*
X129463000Y-106413000D03*
D52*
X125713800Y-136890596D03*
X125713800Y-134985596D03*
X127593400Y-135938096D03*
D53*
X156892300Y-67485096D03*
X167052300Y-67485096D03*
X174672300Y-67485096D03*
X174672300Y-59865096D03*
X156892300Y-59865096D03*
D40*
X184277000Y-125984000D03*
D37*
X184531000Y-123444000D03*
X184277000Y-120904000D03*
M02*
