%TF.GenerationSoftware,KiCad,Pcbnew,(5.1.4)-1*%
%TF.CreationDate,2019-12-19T18:40:16-07:00*%
%TF.ProjectId,mainboard,6d61696e-626f-4617-9264-2e6b69636164,rev?*%
%TF.SameCoordinates,Original*%
%TF.FileFunction,Paste,Bot*%
%TF.FilePolarity,Positive*%
%FSLAX46Y46*%
G04 Gerber Fmt 4.6, Leading zero omitted, Abs format (unit mm)*
G04 Created by KiCad (PCBNEW (5.1.4)-1) date 2019-12-19 18:40:16*
%MOMM*%
%LPD*%
G04 APERTURE LIST*
%ADD10C,0.150000*%
%ADD11C,0.100000*%
%ADD12R,2.800000X2.800000*%
%ADD13R,0.800000X0.300000*%
%ADD14R,0.300000X0.800000*%
%ADD15C,1.150000*%
%ADD16C,0.875000*%
%ADD17R,1.000000X1.800000*%
%ADD18R,1.500000X1.550000*%
%ADD19R,0.450000X1.350000*%
%ADD20R,0.980000X3.400000*%
%ADD21R,1.300000X2.000000*%
%ADD22C,0.600000*%
%ADD23R,0.609600X2.209800*%
%ADD24R,1.625600X0.812800*%
%ADD25R,0.762000X0.304800*%
%ADD26R,0.304800X0.762000*%
%ADD27R,1.240000X0.800000*%
%ADD28R,2.500000X0.950000*%
%ADD29R,2.200000X1.150000*%
%ADD30R,1.250000X1.160000*%
%ADD31R,1.200000X1.160000*%
%ADD32R,1.150000X1.500000*%
%ADD33R,1.320800X0.558800*%
G04 APERTURE END LIST*
D10*
X98336100Y-54489100D02*
X98336100Y-146374100D01*
X100336100Y-148374100D02*
G75*
G02X98336100Y-146374100I0J2000000D01*
G01*
X100336100Y-148374100D02*
X186506100Y-148374100D01*
X188506100Y-146374100D02*
G75*
G02X186506100Y-148374100I-2000000J0D01*
G01*
X188506100Y-146374100D02*
X188506100Y-54489100D01*
X186506100Y-52489100D02*
G75*
G02X188506100Y-54489100I0J-2000000D01*
G01*
X186506100Y-52489100D02*
X154276100Y-52499096D01*
X154276100Y-52499096D02*
X153006100Y-53388096D01*
X153006100Y-53388096D02*
X142211100Y-53388096D01*
X142211100Y-53388096D02*
X140931103Y-52489100D01*
X140931103Y-52489100D02*
X100336100Y-52489100D01*
X98336100Y-54489100D02*
G75*
G02X100336100Y-52489100I2000000J0D01*
G01*
D11*
G36*
X113611878Y-118454150D02*
G01*
X112311878Y-118454150D01*
X112311878Y-117154150D01*
X113611878Y-117154150D01*
X113611878Y-118454150D01*
G37*
G36*
X112011878Y-117154150D02*
G01*
X112011878Y-118454150D01*
X110711878Y-118454150D01*
X110711878Y-117154150D01*
X112011878Y-117154150D01*
G37*
G36*
X112311878Y-120054150D02*
G01*
X112311878Y-118754150D01*
X113611878Y-118754150D01*
X113611878Y-120054150D01*
X112311878Y-120054150D01*
G37*
G36*
X110711878Y-118754150D02*
G01*
X112011878Y-118754150D01*
X112011878Y-120054150D01*
X110711878Y-120054150D01*
X110711878Y-118754150D01*
G37*
D12*
X152400000Y-66294000D03*
D13*
X150400000Y-65044000D03*
X150400000Y-65544000D03*
X150400000Y-66044000D03*
X150400000Y-66544000D03*
X150400000Y-67044000D03*
X150400000Y-67544000D03*
D14*
X151150000Y-68294000D03*
X151650000Y-68294000D03*
X152150000Y-68294000D03*
X152650000Y-68294000D03*
X153150000Y-68294000D03*
X153650000Y-68294000D03*
D13*
X154400000Y-67544000D03*
X154400000Y-67044000D03*
X154400000Y-66544000D03*
X154400000Y-66044000D03*
X154400000Y-65544000D03*
X154400000Y-65044000D03*
D14*
X153650000Y-64294000D03*
X153150000Y-64294000D03*
X152650000Y-64294000D03*
X152150000Y-64294000D03*
X151650000Y-64294000D03*
X151150000Y-64294000D03*
D11*
G36*
X138117105Y-103549804D02*
G01*
X138141373Y-103553404D01*
X138165172Y-103559365D01*
X138188271Y-103567630D01*
X138210450Y-103578120D01*
X138231493Y-103590732D01*
X138251199Y-103605347D01*
X138269377Y-103621823D01*
X138285853Y-103640001D01*
X138300468Y-103659707D01*
X138313080Y-103680750D01*
X138323570Y-103702929D01*
X138331835Y-103726028D01*
X138337796Y-103749827D01*
X138341396Y-103774095D01*
X138342600Y-103798599D01*
X138342600Y-104448601D01*
X138341396Y-104473105D01*
X138337796Y-104497373D01*
X138331835Y-104521172D01*
X138323570Y-104544271D01*
X138313080Y-104566450D01*
X138300468Y-104587493D01*
X138285853Y-104607199D01*
X138269377Y-104625377D01*
X138251199Y-104641853D01*
X138231493Y-104656468D01*
X138210450Y-104669080D01*
X138188271Y-104679570D01*
X138165172Y-104687835D01*
X138141373Y-104693796D01*
X138117105Y-104697396D01*
X138092601Y-104698600D01*
X137192599Y-104698600D01*
X137168095Y-104697396D01*
X137143827Y-104693796D01*
X137120028Y-104687835D01*
X137096929Y-104679570D01*
X137074750Y-104669080D01*
X137053707Y-104656468D01*
X137034001Y-104641853D01*
X137015823Y-104625377D01*
X136999347Y-104607199D01*
X136984732Y-104587493D01*
X136972120Y-104566450D01*
X136961630Y-104544271D01*
X136953365Y-104521172D01*
X136947404Y-104497373D01*
X136943804Y-104473105D01*
X136942600Y-104448601D01*
X136942600Y-103798599D01*
X136943804Y-103774095D01*
X136947404Y-103749827D01*
X136953365Y-103726028D01*
X136961630Y-103702929D01*
X136972120Y-103680750D01*
X136984732Y-103659707D01*
X136999347Y-103640001D01*
X137015823Y-103621823D01*
X137034001Y-103605347D01*
X137053707Y-103590732D01*
X137074750Y-103578120D01*
X137096929Y-103567630D01*
X137120028Y-103559365D01*
X137143827Y-103553404D01*
X137168095Y-103549804D01*
X137192599Y-103548600D01*
X138092601Y-103548600D01*
X138117105Y-103549804D01*
X138117105Y-103549804D01*
G37*
D15*
X137642600Y-104123600D03*
D11*
G36*
X138117105Y-101499804D02*
G01*
X138141373Y-101503404D01*
X138165172Y-101509365D01*
X138188271Y-101517630D01*
X138210450Y-101528120D01*
X138231493Y-101540732D01*
X138251199Y-101555347D01*
X138269377Y-101571823D01*
X138285853Y-101590001D01*
X138300468Y-101609707D01*
X138313080Y-101630750D01*
X138323570Y-101652929D01*
X138331835Y-101676028D01*
X138337796Y-101699827D01*
X138341396Y-101724095D01*
X138342600Y-101748599D01*
X138342600Y-102398601D01*
X138341396Y-102423105D01*
X138337796Y-102447373D01*
X138331835Y-102471172D01*
X138323570Y-102494271D01*
X138313080Y-102516450D01*
X138300468Y-102537493D01*
X138285853Y-102557199D01*
X138269377Y-102575377D01*
X138251199Y-102591853D01*
X138231493Y-102606468D01*
X138210450Y-102619080D01*
X138188271Y-102629570D01*
X138165172Y-102637835D01*
X138141373Y-102643796D01*
X138117105Y-102647396D01*
X138092601Y-102648600D01*
X137192599Y-102648600D01*
X137168095Y-102647396D01*
X137143827Y-102643796D01*
X137120028Y-102637835D01*
X137096929Y-102629570D01*
X137074750Y-102619080D01*
X137053707Y-102606468D01*
X137034001Y-102591853D01*
X137015823Y-102575377D01*
X136999347Y-102557199D01*
X136984732Y-102537493D01*
X136972120Y-102516450D01*
X136961630Y-102494271D01*
X136953365Y-102471172D01*
X136947404Y-102447373D01*
X136943804Y-102423105D01*
X136942600Y-102398601D01*
X136942600Y-101748599D01*
X136943804Y-101724095D01*
X136947404Y-101699827D01*
X136953365Y-101676028D01*
X136961630Y-101652929D01*
X136972120Y-101630750D01*
X136984732Y-101609707D01*
X136999347Y-101590001D01*
X137015823Y-101571823D01*
X137034001Y-101555347D01*
X137053707Y-101540732D01*
X137074750Y-101528120D01*
X137096929Y-101517630D01*
X137120028Y-101509365D01*
X137143827Y-101503404D01*
X137168095Y-101499804D01*
X137192599Y-101498600D01*
X138092601Y-101498600D01*
X138117105Y-101499804D01*
X138117105Y-101499804D01*
G37*
D15*
X137642600Y-102073600D03*
D11*
G36*
X164348991Y-99065249D02*
G01*
X164370226Y-99068399D01*
X164391050Y-99073615D01*
X164411262Y-99080847D01*
X164430668Y-99090026D01*
X164449081Y-99101062D01*
X164466324Y-99113850D01*
X164482230Y-99128266D01*
X164496646Y-99144172D01*
X164509434Y-99161415D01*
X164520470Y-99179828D01*
X164529649Y-99199234D01*
X164536881Y-99219446D01*
X164542097Y-99240270D01*
X164545247Y-99261505D01*
X164546300Y-99282946D01*
X164546300Y-99720446D01*
X164545247Y-99741887D01*
X164542097Y-99763122D01*
X164536881Y-99783946D01*
X164529649Y-99804158D01*
X164520470Y-99823564D01*
X164509434Y-99841977D01*
X164496646Y-99859220D01*
X164482230Y-99875126D01*
X164466324Y-99889542D01*
X164449081Y-99902330D01*
X164430668Y-99913366D01*
X164411262Y-99922545D01*
X164391050Y-99929777D01*
X164370226Y-99934993D01*
X164348991Y-99938143D01*
X164327550Y-99939196D01*
X163815050Y-99939196D01*
X163793609Y-99938143D01*
X163772374Y-99934993D01*
X163751550Y-99929777D01*
X163731338Y-99922545D01*
X163711932Y-99913366D01*
X163693519Y-99902330D01*
X163676276Y-99889542D01*
X163660370Y-99875126D01*
X163645954Y-99859220D01*
X163633166Y-99841977D01*
X163622130Y-99823564D01*
X163612951Y-99804158D01*
X163605719Y-99783946D01*
X163600503Y-99763122D01*
X163597353Y-99741887D01*
X163596300Y-99720446D01*
X163596300Y-99282946D01*
X163597353Y-99261505D01*
X163600503Y-99240270D01*
X163605719Y-99219446D01*
X163612951Y-99199234D01*
X163622130Y-99179828D01*
X163633166Y-99161415D01*
X163645954Y-99144172D01*
X163660370Y-99128266D01*
X163676276Y-99113850D01*
X163693519Y-99101062D01*
X163711932Y-99090026D01*
X163731338Y-99080847D01*
X163751550Y-99073615D01*
X163772374Y-99068399D01*
X163793609Y-99065249D01*
X163815050Y-99064196D01*
X164327550Y-99064196D01*
X164348991Y-99065249D01*
X164348991Y-99065249D01*
G37*
D16*
X164071300Y-99501696D03*
D11*
G36*
X164348991Y-100640249D02*
G01*
X164370226Y-100643399D01*
X164391050Y-100648615D01*
X164411262Y-100655847D01*
X164430668Y-100665026D01*
X164449081Y-100676062D01*
X164466324Y-100688850D01*
X164482230Y-100703266D01*
X164496646Y-100719172D01*
X164509434Y-100736415D01*
X164520470Y-100754828D01*
X164529649Y-100774234D01*
X164536881Y-100794446D01*
X164542097Y-100815270D01*
X164545247Y-100836505D01*
X164546300Y-100857946D01*
X164546300Y-101295446D01*
X164545247Y-101316887D01*
X164542097Y-101338122D01*
X164536881Y-101358946D01*
X164529649Y-101379158D01*
X164520470Y-101398564D01*
X164509434Y-101416977D01*
X164496646Y-101434220D01*
X164482230Y-101450126D01*
X164466324Y-101464542D01*
X164449081Y-101477330D01*
X164430668Y-101488366D01*
X164411262Y-101497545D01*
X164391050Y-101504777D01*
X164370226Y-101509993D01*
X164348991Y-101513143D01*
X164327550Y-101514196D01*
X163815050Y-101514196D01*
X163793609Y-101513143D01*
X163772374Y-101509993D01*
X163751550Y-101504777D01*
X163731338Y-101497545D01*
X163711932Y-101488366D01*
X163693519Y-101477330D01*
X163676276Y-101464542D01*
X163660370Y-101450126D01*
X163645954Y-101434220D01*
X163633166Y-101416977D01*
X163622130Y-101398564D01*
X163612951Y-101379158D01*
X163605719Y-101358946D01*
X163600503Y-101338122D01*
X163597353Y-101316887D01*
X163596300Y-101295446D01*
X163596300Y-100857946D01*
X163597353Y-100836505D01*
X163600503Y-100815270D01*
X163605719Y-100794446D01*
X163612951Y-100774234D01*
X163622130Y-100754828D01*
X163633166Y-100736415D01*
X163645954Y-100719172D01*
X163660370Y-100703266D01*
X163676276Y-100688850D01*
X163693519Y-100676062D01*
X163711932Y-100665026D01*
X163731338Y-100655847D01*
X163751550Y-100648615D01*
X163772374Y-100643399D01*
X163793609Y-100640249D01*
X163815050Y-100639196D01*
X164327550Y-100639196D01*
X164348991Y-100640249D01*
X164348991Y-100640249D01*
G37*
D16*
X164071300Y-101076696D03*
D11*
G36*
X166571491Y-99067953D02*
G01*
X166592726Y-99071103D01*
X166613550Y-99076319D01*
X166633762Y-99083551D01*
X166653168Y-99092730D01*
X166671581Y-99103766D01*
X166688824Y-99116554D01*
X166704730Y-99130970D01*
X166719146Y-99146876D01*
X166731934Y-99164119D01*
X166742970Y-99182532D01*
X166752149Y-99201938D01*
X166759381Y-99222150D01*
X166764597Y-99242974D01*
X166767747Y-99264209D01*
X166768800Y-99285650D01*
X166768800Y-99723150D01*
X166767747Y-99744591D01*
X166764597Y-99765826D01*
X166759381Y-99786650D01*
X166752149Y-99806862D01*
X166742970Y-99826268D01*
X166731934Y-99844681D01*
X166719146Y-99861924D01*
X166704730Y-99877830D01*
X166688824Y-99892246D01*
X166671581Y-99905034D01*
X166653168Y-99916070D01*
X166633762Y-99925249D01*
X166613550Y-99932481D01*
X166592726Y-99937697D01*
X166571491Y-99940847D01*
X166550050Y-99941900D01*
X166037550Y-99941900D01*
X166016109Y-99940847D01*
X165994874Y-99937697D01*
X165974050Y-99932481D01*
X165953838Y-99925249D01*
X165934432Y-99916070D01*
X165916019Y-99905034D01*
X165898776Y-99892246D01*
X165882870Y-99877830D01*
X165868454Y-99861924D01*
X165855666Y-99844681D01*
X165844630Y-99826268D01*
X165835451Y-99806862D01*
X165828219Y-99786650D01*
X165823003Y-99765826D01*
X165819853Y-99744591D01*
X165818800Y-99723150D01*
X165818800Y-99285650D01*
X165819853Y-99264209D01*
X165823003Y-99242974D01*
X165828219Y-99222150D01*
X165835451Y-99201938D01*
X165844630Y-99182532D01*
X165855666Y-99164119D01*
X165868454Y-99146876D01*
X165882870Y-99130970D01*
X165898776Y-99116554D01*
X165916019Y-99103766D01*
X165934432Y-99092730D01*
X165953838Y-99083551D01*
X165974050Y-99076319D01*
X165994874Y-99071103D01*
X166016109Y-99067953D01*
X166037550Y-99066900D01*
X166550050Y-99066900D01*
X166571491Y-99067953D01*
X166571491Y-99067953D01*
G37*
D16*
X166293800Y-99504400D03*
D11*
G36*
X166571491Y-100642953D02*
G01*
X166592726Y-100646103D01*
X166613550Y-100651319D01*
X166633762Y-100658551D01*
X166653168Y-100667730D01*
X166671581Y-100678766D01*
X166688824Y-100691554D01*
X166704730Y-100705970D01*
X166719146Y-100721876D01*
X166731934Y-100739119D01*
X166742970Y-100757532D01*
X166752149Y-100776938D01*
X166759381Y-100797150D01*
X166764597Y-100817974D01*
X166767747Y-100839209D01*
X166768800Y-100860650D01*
X166768800Y-101298150D01*
X166767747Y-101319591D01*
X166764597Y-101340826D01*
X166759381Y-101361650D01*
X166752149Y-101381862D01*
X166742970Y-101401268D01*
X166731934Y-101419681D01*
X166719146Y-101436924D01*
X166704730Y-101452830D01*
X166688824Y-101467246D01*
X166671581Y-101480034D01*
X166653168Y-101491070D01*
X166633762Y-101500249D01*
X166613550Y-101507481D01*
X166592726Y-101512697D01*
X166571491Y-101515847D01*
X166550050Y-101516900D01*
X166037550Y-101516900D01*
X166016109Y-101515847D01*
X165994874Y-101512697D01*
X165974050Y-101507481D01*
X165953838Y-101500249D01*
X165934432Y-101491070D01*
X165916019Y-101480034D01*
X165898776Y-101467246D01*
X165882870Y-101452830D01*
X165868454Y-101436924D01*
X165855666Y-101419681D01*
X165844630Y-101401268D01*
X165835451Y-101381862D01*
X165828219Y-101361650D01*
X165823003Y-101340826D01*
X165819853Y-101319591D01*
X165818800Y-101298150D01*
X165818800Y-100860650D01*
X165819853Y-100839209D01*
X165823003Y-100817974D01*
X165828219Y-100797150D01*
X165835451Y-100776938D01*
X165844630Y-100757532D01*
X165855666Y-100739119D01*
X165868454Y-100721876D01*
X165882870Y-100705970D01*
X165898776Y-100691554D01*
X165916019Y-100678766D01*
X165934432Y-100667730D01*
X165953838Y-100658551D01*
X165974050Y-100651319D01*
X165994874Y-100646103D01*
X166016109Y-100642953D01*
X166037550Y-100641900D01*
X166550050Y-100641900D01*
X166571491Y-100642953D01*
X166571491Y-100642953D01*
G37*
D16*
X166293800Y-101079400D03*
D17*
X161617520Y-121538400D03*
X163617520Y-121538400D03*
X165617520Y-121538400D03*
X167617520Y-121538400D03*
X169617520Y-121538400D03*
X171617520Y-121538400D03*
X173617520Y-121538400D03*
X175617520Y-121538400D03*
X175617520Y-137338400D03*
X173617520Y-137338400D03*
X171617520Y-137338400D03*
X169617520Y-137338400D03*
X167617520Y-137338400D03*
X165617520Y-137338400D03*
X163617520Y-137338400D03*
X161617520Y-137338400D03*
D18*
X150598600Y-54508400D03*
X144498600Y-54508400D03*
X148548600Y-54508400D03*
X146548600Y-54508400D03*
D19*
X148848600Y-57183400D03*
X148198600Y-57183400D03*
X147548600Y-57183400D03*
X146898600Y-57183400D03*
X146248600Y-57183400D03*
D11*
G36*
X149084291Y-61324253D02*
G01*
X149105526Y-61327403D01*
X149126350Y-61332619D01*
X149146562Y-61339851D01*
X149165968Y-61349030D01*
X149184381Y-61360066D01*
X149201624Y-61372854D01*
X149217530Y-61387270D01*
X149231946Y-61403176D01*
X149244734Y-61420419D01*
X149255770Y-61438832D01*
X149264949Y-61458238D01*
X149272181Y-61478450D01*
X149277397Y-61499274D01*
X149280547Y-61520509D01*
X149281600Y-61541950D01*
X149281600Y-62054450D01*
X149280547Y-62075891D01*
X149277397Y-62097126D01*
X149272181Y-62117950D01*
X149264949Y-62138162D01*
X149255770Y-62157568D01*
X149244734Y-62175981D01*
X149231946Y-62193224D01*
X149217530Y-62209130D01*
X149201624Y-62223546D01*
X149184381Y-62236334D01*
X149165968Y-62247370D01*
X149146562Y-62256549D01*
X149126350Y-62263781D01*
X149105526Y-62268997D01*
X149084291Y-62272147D01*
X149062850Y-62273200D01*
X148625350Y-62273200D01*
X148603909Y-62272147D01*
X148582674Y-62268997D01*
X148561850Y-62263781D01*
X148541638Y-62256549D01*
X148522232Y-62247370D01*
X148503819Y-62236334D01*
X148486576Y-62223546D01*
X148470670Y-62209130D01*
X148456254Y-62193224D01*
X148443466Y-62175981D01*
X148432430Y-62157568D01*
X148423251Y-62138162D01*
X148416019Y-62117950D01*
X148410803Y-62097126D01*
X148407653Y-62075891D01*
X148406600Y-62054450D01*
X148406600Y-61541950D01*
X148407653Y-61520509D01*
X148410803Y-61499274D01*
X148416019Y-61478450D01*
X148423251Y-61458238D01*
X148432430Y-61438832D01*
X148443466Y-61420419D01*
X148456254Y-61403176D01*
X148470670Y-61387270D01*
X148486576Y-61372854D01*
X148503819Y-61360066D01*
X148522232Y-61349030D01*
X148541638Y-61339851D01*
X148561850Y-61332619D01*
X148582674Y-61327403D01*
X148603909Y-61324253D01*
X148625350Y-61323200D01*
X149062850Y-61323200D01*
X149084291Y-61324253D01*
X149084291Y-61324253D01*
G37*
D16*
X148844100Y-61798200D03*
D11*
G36*
X147509291Y-61324253D02*
G01*
X147530526Y-61327403D01*
X147551350Y-61332619D01*
X147571562Y-61339851D01*
X147590968Y-61349030D01*
X147609381Y-61360066D01*
X147626624Y-61372854D01*
X147642530Y-61387270D01*
X147656946Y-61403176D01*
X147669734Y-61420419D01*
X147680770Y-61438832D01*
X147689949Y-61458238D01*
X147697181Y-61478450D01*
X147702397Y-61499274D01*
X147705547Y-61520509D01*
X147706600Y-61541950D01*
X147706600Y-62054450D01*
X147705547Y-62075891D01*
X147702397Y-62097126D01*
X147697181Y-62117950D01*
X147689949Y-62138162D01*
X147680770Y-62157568D01*
X147669734Y-62175981D01*
X147656946Y-62193224D01*
X147642530Y-62209130D01*
X147626624Y-62223546D01*
X147609381Y-62236334D01*
X147590968Y-62247370D01*
X147571562Y-62256549D01*
X147551350Y-62263781D01*
X147530526Y-62268997D01*
X147509291Y-62272147D01*
X147487850Y-62273200D01*
X147050350Y-62273200D01*
X147028909Y-62272147D01*
X147007674Y-62268997D01*
X146986850Y-62263781D01*
X146966638Y-62256549D01*
X146947232Y-62247370D01*
X146928819Y-62236334D01*
X146911576Y-62223546D01*
X146895670Y-62209130D01*
X146881254Y-62193224D01*
X146868466Y-62175981D01*
X146857430Y-62157568D01*
X146848251Y-62138162D01*
X146841019Y-62117950D01*
X146835803Y-62097126D01*
X146832653Y-62075891D01*
X146831600Y-62054450D01*
X146831600Y-61541950D01*
X146832653Y-61520509D01*
X146835803Y-61499274D01*
X146841019Y-61478450D01*
X146848251Y-61458238D01*
X146857430Y-61438832D01*
X146868466Y-61420419D01*
X146881254Y-61403176D01*
X146895670Y-61387270D01*
X146911576Y-61372854D01*
X146928819Y-61360066D01*
X146947232Y-61349030D01*
X146966638Y-61339851D01*
X146986850Y-61332619D01*
X147007674Y-61327403D01*
X147028909Y-61324253D01*
X147050350Y-61323200D01*
X147487850Y-61323200D01*
X147509291Y-61324253D01*
X147509291Y-61324253D01*
G37*
D16*
X147269100Y-61798200D03*
D11*
G36*
X147509291Y-62619653D02*
G01*
X147530526Y-62622803D01*
X147551350Y-62628019D01*
X147571562Y-62635251D01*
X147590968Y-62644430D01*
X147609381Y-62655466D01*
X147626624Y-62668254D01*
X147642530Y-62682670D01*
X147656946Y-62698576D01*
X147669734Y-62715819D01*
X147680770Y-62734232D01*
X147689949Y-62753638D01*
X147697181Y-62773850D01*
X147702397Y-62794674D01*
X147705547Y-62815909D01*
X147706600Y-62837350D01*
X147706600Y-63349850D01*
X147705547Y-63371291D01*
X147702397Y-63392526D01*
X147697181Y-63413350D01*
X147689949Y-63433562D01*
X147680770Y-63452968D01*
X147669734Y-63471381D01*
X147656946Y-63488624D01*
X147642530Y-63504530D01*
X147626624Y-63518946D01*
X147609381Y-63531734D01*
X147590968Y-63542770D01*
X147571562Y-63551949D01*
X147551350Y-63559181D01*
X147530526Y-63564397D01*
X147509291Y-63567547D01*
X147487850Y-63568600D01*
X147050350Y-63568600D01*
X147028909Y-63567547D01*
X147007674Y-63564397D01*
X146986850Y-63559181D01*
X146966638Y-63551949D01*
X146947232Y-63542770D01*
X146928819Y-63531734D01*
X146911576Y-63518946D01*
X146895670Y-63504530D01*
X146881254Y-63488624D01*
X146868466Y-63471381D01*
X146857430Y-63452968D01*
X146848251Y-63433562D01*
X146841019Y-63413350D01*
X146835803Y-63392526D01*
X146832653Y-63371291D01*
X146831600Y-63349850D01*
X146831600Y-62837350D01*
X146832653Y-62815909D01*
X146835803Y-62794674D01*
X146841019Y-62773850D01*
X146848251Y-62753638D01*
X146857430Y-62734232D01*
X146868466Y-62715819D01*
X146881254Y-62698576D01*
X146895670Y-62682670D01*
X146911576Y-62668254D01*
X146928819Y-62655466D01*
X146947232Y-62644430D01*
X146966638Y-62635251D01*
X146986850Y-62628019D01*
X147007674Y-62622803D01*
X147028909Y-62619653D01*
X147050350Y-62618600D01*
X147487850Y-62618600D01*
X147509291Y-62619653D01*
X147509291Y-62619653D01*
G37*
D16*
X147269100Y-63093600D03*
D11*
G36*
X149084291Y-62619653D02*
G01*
X149105526Y-62622803D01*
X149126350Y-62628019D01*
X149146562Y-62635251D01*
X149165968Y-62644430D01*
X149184381Y-62655466D01*
X149201624Y-62668254D01*
X149217530Y-62682670D01*
X149231946Y-62698576D01*
X149244734Y-62715819D01*
X149255770Y-62734232D01*
X149264949Y-62753638D01*
X149272181Y-62773850D01*
X149277397Y-62794674D01*
X149280547Y-62815909D01*
X149281600Y-62837350D01*
X149281600Y-63349850D01*
X149280547Y-63371291D01*
X149277397Y-63392526D01*
X149272181Y-63413350D01*
X149264949Y-63433562D01*
X149255770Y-63452968D01*
X149244734Y-63471381D01*
X149231946Y-63488624D01*
X149217530Y-63504530D01*
X149201624Y-63518946D01*
X149184381Y-63531734D01*
X149165968Y-63542770D01*
X149146562Y-63551949D01*
X149126350Y-63559181D01*
X149105526Y-63564397D01*
X149084291Y-63567547D01*
X149062850Y-63568600D01*
X148625350Y-63568600D01*
X148603909Y-63567547D01*
X148582674Y-63564397D01*
X148561850Y-63559181D01*
X148541638Y-63551949D01*
X148522232Y-63542770D01*
X148503819Y-63531734D01*
X148486576Y-63518946D01*
X148470670Y-63504530D01*
X148456254Y-63488624D01*
X148443466Y-63471381D01*
X148432430Y-63452968D01*
X148423251Y-63433562D01*
X148416019Y-63413350D01*
X148410803Y-63392526D01*
X148407653Y-63371291D01*
X148406600Y-63349850D01*
X148406600Y-62837350D01*
X148407653Y-62815909D01*
X148410803Y-62794674D01*
X148416019Y-62773850D01*
X148423251Y-62753638D01*
X148432430Y-62734232D01*
X148443466Y-62715819D01*
X148456254Y-62698576D01*
X148470670Y-62682670D01*
X148486576Y-62668254D01*
X148503819Y-62655466D01*
X148522232Y-62644430D01*
X148541638Y-62635251D01*
X148561850Y-62628019D01*
X148582674Y-62622803D01*
X148603909Y-62619653D01*
X148625350Y-62618600D01*
X149062850Y-62618600D01*
X149084291Y-62619653D01*
X149084291Y-62619653D01*
G37*
D16*
X148844100Y-63093600D03*
D11*
G36*
X158507691Y-64804053D02*
G01*
X158528926Y-64807203D01*
X158549750Y-64812419D01*
X158569962Y-64819651D01*
X158589368Y-64828830D01*
X158607781Y-64839866D01*
X158625024Y-64852654D01*
X158640930Y-64867070D01*
X158655346Y-64882976D01*
X158668134Y-64900219D01*
X158679170Y-64918632D01*
X158688349Y-64938038D01*
X158695581Y-64958250D01*
X158700797Y-64979074D01*
X158703947Y-65000309D01*
X158705000Y-65021750D01*
X158705000Y-65534250D01*
X158703947Y-65555691D01*
X158700797Y-65576926D01*
X158695581Y-65597750D01*
X158688349Y-65617962D01*
X158679170Y-65637368D01*
X158668134Y-65655781D01*
X158655346Y-65673024D01*
X158640930Y-65688930D01*
X158625024Y-65703346D01*
X158607781Y-65716134D01*
X158589368Y-65727170D01*
X158569962Y-65736349D01*
X158549750Y-65743581D01*
X158528926Y-65748797D01*
X158507691Y-65751947D01*
X158486250Y-65753000D01*
X158048750Y-65753000D01*
X158027309Y-65751947D01*
X158006074Y-65748797D01*
X157985250Y-65743581D01*
X157965038Y-65736349D01*
X157945632Y-65727170D01*
X157927219Y-65716134D01*
X157909976Y-65703346D01*
X157894070Y-65688930D01*
X157879654Y-65673024D01*
X157866866Y-65655781D01*
X157855830Y-65637368D01*
X157846651Y-65617962D01*
X157839419Y-65597750D01*
X157834203Y-65576926D01*
X157831053Y-65555691D01*
X157830000Y-65534250D01*
X157830000Y-65021750D01*
X157831053Y-65000309D01*
X157834203Y-64979074D01*
X157839419Y-64958250D01*
X157846651Y-64938038D01*
X157855830Y-64918632D01*
X157866866Y-64900219D01*
X157879654Y-64882976D01*
X157894070Y-64867070D01*
X157909976Y-64852654D01*
X157927219Y-64839866D01*
X157945632Y-64828830D01*
X157965038Y-64819651D01*
X157985250Y-64812419D01*
X158006074Y-64807203D01*
X158027309Y-64804053D01*
X158048750Y-64803000D01*
X158486250Y-64803000D01*
X158507691Y-64804053D01*
X158507691Y-64804053D01*
G37*
D16*
X158267500Y-65278000D03*
D11*
G36*
X156932691Y-64804053D02*
G01*
X156953926Y-64807203D01*
X156974750Y-64812419D01*
X156994962Y-64819651D01*
X157014368Y-64828830D01*
X157032781Y-64839866D01*
X157050024Y-64852654D01*
X157065930Y-64867070D01*
X157080346Y-64882976D01*
X157093134Y-64900219D01*
X157104170Y-64918632D01*
X157113349Y-64938038D01*
X157120581Y-64958250D01*
X157125797Y-64979074D01*
X157128947Y-65000309D01*
X157130000Y-65021750D01*
X157130000Y-65534250D01*
X157128947Y-65555691D01*
X157125797Y-65576926D01*
X157120581Y-65597750D01*
X157113349Y-65617962D01*
X157104170Y-65637368D01*
X157093134Y-65655781D01*
X157080346Y-65673024D01*
X157065930Y-65688930D01*
X157050024Y-65703346D01*
X157032781Y-65716134D01*
X157014368Y-65727170D01*
X156994962Y-65736349D01*
X156974750Y-65743581D01*
X156953926Y-65748797D01*
X156932691Y-65751947D01*
X156911250Y-65753000D01*
X156473750Y-65753000D01*
X156452309Y-65751947D01*
X156431074Y-65748797D01*
X156410250Y-65743581D01*
X156390038Y-65736349D01*
X156370632Y-65727170D01*
X156352219Y-65716134D01*
X156334976Y-65703346D01*
X156319070Y-65688930D01*
X156304654Y-65673024D01*
X156291866Y-65655781D01*
X156280830Y-65637368D01*
X156271651Y-65617962D01*
X156264419Y-65597750D01*
X156259203Y-65576926D01*
X156256053Y-65555691D01*
X156255000Y-65534250D01*
X156255000Y-65021750D01*
X156256053Y-65000309D01*
X156259203Y-64979074D01*
X156264419Y-64958250D01*
X156271651Y-64938038D01*
X156280830Y-64918632D01*
X156291866Y-64900219D01*
X156304654Y-64882976D01*
X156319070Y-64867070D01*
X156334976Y-64852654D01*
X156352219Y-64839866D01*
X156370632Y-64828830D01*
X156390038Y-64819651D01*
X156410250Y-64812419D01*
X156431074Y-64807203D01*
X156452309Y-64804053D01*
X156473750Y-64803000D01*
X156911250Y-64803000D01*
X156932691Y-64804053D01*
X156932691Y-64804053D01*
G37*
D16*
X156692500Y-65278000D03*
D11*
G36*
X162241491Y-62467253D02*
G01*
X162262726Y-62470403D01*
X162283550Y-62475619D01*
X162303762Y-62482851D01*
X162323168Y-62492030D01*
X162341581Y-62503066D01*
X162358824Y-62515854D01*
X162374730Y-62530270D01*
X162389146Y-62546176D01*
X162401934Y-62563419D01*
X162412970Y-62581832D01*
X162422149Y-62601238D01*
X162429381Y-62621450D01*
X162434597Y-62642274D01*
X162437747Y-62663509D01*
X162438800Y-62684950D01*
X162438800Y-63197450D01*
X162437747Y-63218891D01*
X162434597Y-63240126D01*
X162429381Y-63260950D01*
X162422149Y-63281162D01*
X162412970Y-63300568D01*
X162401934Y-63318981D01*
X162389146Y-63336224D01*
X162374730Y-63352130D01*
X162358824Y-63366546D01*
X162341581Y-63379334D01*
X162323168Y-63390370D01*
X162303762Y-63399549D01*
X162283550Y-63406781D01*
X162262726Y-63411997D01*
X162241491Y-63415147D01*
X162220050Y-63416200D01*
X161782550Y-63416200D01*
X161761109Y-63415147D01*
X161739874Y-63411997D01*
X161719050Y-63406781D01*
X161698838Y-63399549D01*
X161679432Y-63390370D01*
X161661019Y-63379334D01*
X161643776Y-63366546D01*
X161627870Y-63352130D01*
X161613454Y-63336224D01*
X161600666Y-63318981D01*
X161589630Y-63300568D01*
X161580451Y-63281162D01*
X161573219Y-63260950D01*
X161568003Y-63240126D01*
X161564853Y-63218891D01*
X161563800Y-63197450D01*
X161563800Y-62684950D01*
X161564853Y-62663509D01*
X161568003Y-62642274D01*
X161573219Y-62621450D01*
X161580451Y-62601238D01*
X161589630Y-62581832D01*
X161600666Y-62563419D01*
X161613454Y-62546176D01*
X161627870Y-62530270D01*
X161643776Y-62515854D01*
X161661019Y-62503066D01*
X161679432Y-62492030D01*
X161698838Y-62482851D01*
X161719050Y-62475619D01*
X161739874Y-62470403D01*
X161761109Y-62467253D01*
X161782550Y-62466200D01*
X162220050Y-62466200D01*
X162241491Y-62467253D01*
X162241491Y-62467253D01*
G37*
D16*
X162001300Y-62941200D03*
D11*
G36*
X160666491Y-62467253D02*
G01*
X160687726Y-62470403D01*
X160708550Y-62475619D01*
X160728762Y-62482851D01*
X160748168Y-62492030D01*
X160766581Y-62503066D01*
X160783824Y-62515854D01*
X160799730Y-62530270D01*
X160814146Y-62546176D01*
X160826934Y-62563419D01*
X160837970Y-62581832D01*
X160847149Y-62601238D01*
X160854381Y-62621450D01*
X160859597Y-62642274D01*
X160862747Y-62663509D01*
X160863800Y-62684950D01*
X160863800Y-63197450D01*
X160862747Y-63218891D01*
X160859597Y-63240126D01*
X160854381Y-63260950D01*
X160847149Y-63281162D01*
X160837970Y-63300568D01*
X160826934Y-63318981D01*
X160814146Y-63336224D01*
X160799730Y-63352130D01*
X160783824Y-63366546D01*
X160766581Y-63379334D01*
X160748168Y-63390370D01*
X160728762Y-63399549D01*
X160708550Y-63406781D01*
X160687726Y-63411997D01*
X160666491Y-63415147D01*
X160645050Y-63416200D01*
X160207550Y-63416200D01*
X160186109Y-63415147D01*
X160164874Y-63411997D01*
X160144050Y-63406781D01*
X160123838Y-63399549D01*
X160104432Y-63390370D01*
X160086019Y-63379334D01*
X160068776Y-63366546D01*
X160052870Y-63352130D01*
X160038454Y-63336224D01*
X160025666Y-63318981D01*
X160014630Y-63300568D01*
X160005451Y-63281162D01*
X159998219Y-63260950D01*
X159993003Y-63240126D01*
X159989853Y-63218891D01*
X159988800Y-63197450D01*
X159988800Y-62684950D01*
X159989853Y-62663509D01*
X159993003Y-62642274D01*
X159998219Y-62621450D01*
X160005451Y-62601238D01*
X160014630Y-62581832D01*
X160025666Y-62563419D01*
X160038454Y-62546176D01*
X160052870Y-62530270D01*
X160068776Y-62515854D01*
X160086019Y-62503066D01*
X160104432Y-62492030D01*
X160123838Y-62482851D01*
X160144050Y-62475619D01*
X160164874Y-62470403D01*
X160186109Y-62467253D01*
X160207550Y-62466200D01*
X160645050Y-62466200D01*
X160666491Y-62467253D01*
X160666491Y-62467253D01*
G37*
D16*
X160426300Y-62941200D03*
D11*
G36*
X156424691Y-62467253D02*
G01*
X156445926Y-62470403D01*
X156466750Y-62475619D01*
X156486962Y-62482851D01*
X156506368Y-62492030D01*
X156524781Y-62503066D01*
X156542024Y-62515854D01*
X156557930Y-62530270D01*
X156572346Y-62546176D01*
X156585134Y-62563419D01*
X156596170Y-62581832D01*
X156605349Y-62601238D01*
X156612581Y-62621450D01*
X156617797Y-62642274D01*
X156620947Y-62663509D01*
X156622000Y-62684950D01*
X156622000Y-63197450D01*
X156620947Y-63218891D01*
X156617797Y-63240126D01*
X156612581Y-63260950D01*
X156605349Y-63281162D01*
X156596170Y-63300568D01*
X156585134Y-63318981D01*
X156572346Y-63336224D01*
X156557930Y-63352130D01*
X156542024Y-63366546D01*
X156524781Y-63379334D01*
X156506368Y-63390370D01*
X156486962Y-63399549D01*
X156466750Y-63406781D01*
X156445926Y-63411997D01*
X156424691Y-63415147D01*
X156403250Y-63416200D01*
X155965750Y-63416200D01*
X155944309Y-63415147D01*
X155923074Y-63411997D01*
X155902250Y-63406781D01*
X155882038Y-63399549D01*
X155862632Y-63390370D01*
X155844219Y-63379334D01*
X155826976Y-63366546D01*
X155811070Y-63352130D01*
X155796654Y-63336224D01*
X155783866Y-63318981D01*
X155772830Y-63300568D01*
X155763651Y-63281162D01*
X155756419Y-63260950D01*
X155751203Y-63240126D01*
X155748053Y-63218891D01*
X155747000Y-63197450D01*
X155747000Y-62684950D01*
X155748053Y-62663509D01*
X155751203Y-62642274D01*
X155756419Y-62621450D01*
X155763651Y-62601238D01*
X155772830Y-62581832D01*
X155783866Y-62563419D01*
X155796654Y-62546176D01*
X155811070Y-62530270D01*
X155826976Y-62515854D01*
X155844219Y-62503066D01*
X155862632Y-62492030D01*
X155882038Y-62482851D01*
X155902250Y-62475619D01*
X155923074Y-62470403D01*
X155944309Y-62467253D01*
X155965750Y-62466200D01*
X156403250Y-62466200D01*
X156424691Y-62467253D01*
X156424691Y-62467253D01*
G37*
D16*
X156184500Y-62941200D03*
D11*
G36*
X157999691Y-62467253D02*
G01*
X158020926Y-62470403D01*
X158041750Y-62475619D01*
X158061962Y-62482851D01*
X158081368Y-62492030D01*
X158099781Y-62503066D01*
X158117024Y-62515854D01*
X158132930Y-62530270D01*
X158147346Y-62546176D01*
X158160134Y-62563419D01*
X158171170Y-62581832D01*
X158180349Y-62601238D01*
X158187581Y-62621450D01*
X158192797Y-62642274D01*
X158195947Y-62663509D01*
X158197000Y-62684950D01*
X158197000Y-63197450D01*
X158195947Y-63218891D01*
X158192797Y-63240126D01*
X158187581Y-63260950D01*
X158180349Y-63281162D01*
X158171170Y-63300568D01*
X158160134Y-63318981D01*
X158147346Y-63336224D01*
X158132930Y-63352130D01*
X158117024Y-63366546D01*
X158099781Y-63379334D01*
X158081368Y-63390370D01*
X158061962Y-63399549D01*
X158041750Y-63406781D01*
X158020926Y-63411997D01*
X157999691Y-63415147D01*
X157978250Y-63416200D01*
X157540750Y-63416200D01*
X157519309Y-63415147D01*
X157498074Y-63411997D01*
X157477250Y-63406781D01*
X157457038Y-63399549D01*
X157437632Y-63390370D01*
X157419219Y-63379334D01*
X157401976Y-63366546D01*
X157386070Y-63352130D01*
X157371654Y-63336224D01*
X157358866Y-63318981D01*
X157347830Y-63300568D01*
X157338651Y-63281162D01*
X157331419Y-63260950D01*
X157326203Y-63240126D01*
X157323053Y-63218891D01*
X157322000Y-63197450D01*
X157322000Y-62684950D01*
X157323053Y-62663509D01*
X157326203Y-62642274D01*
X157331419Y-62621450D01*
X157338651Y-62601238D01*
X157347830Y-62581832D01*
X157358866Y-62563419D01*
X157371654Y-62546176D01*
X157386070Y-62530270D01*
X157401976Y-62515854D01*
X157419219Y-62503066D01*
X157437632Y-62492030D01*
X157457038Y-62482851D01*
X157477250Y-62475619D01*
X157498074Y-62470403D01*
X157519309Y-62467253D01*
X157540750Y-62466200D01*
X157978250Y-62466200D01*
X157999691Y-62467253D01*
X157999691Y-62467253D01*
G37*
D16*
X157759500Y-62941200D03*
D20*
X147481200Y-71120000D03*
X149851200Y-71120000D03*
D11*
G36*
X155573291Y-70963053D02*
G01*
X155594526Y-70966203D01*
X155615350Y-70971419D01*
X155635562Y-70978651D01*
X155654968Y-70987830D01*
X155673381Y-70998866D01*
X155690624Y-71011654D01*
X155706530Y-71026070D01*
X155720946Y-71041976D01*
X155733734Y-71059219D01*
X155744770Y-71077632D01*
X155753949Y-71097038D01*
X155761181Y-71117250D01*
X155766397Y-71138074D01*
X155769547Y-71159309D01*
X155770600Y-71180750D01*
X155770600Y-71618250D01*
X155769547Y-71639691D01*
X155766397Y-71660926D01*
X155761181Y-71681750D01*
X155753949Y-71701962D01*
X155744770Y-71721368D01*
X155733734Y-71739781D01*
X155720946Y-71757024D01*
X155706530Y-71772930D01*
X155690624Y-71787346D01*
X155673381Y-71800134D01*
X155654968Y-71811170D01*
X155635562Y-71820349D01*
X155615350Y-71827581D01*
X155594526Y-71832797D01*
X155573291Y-71835947D01*
X155551850Y-71837000D01*
X155039350Y-71837000D01*
X155017909Y-71835947D01*
X154996674Y-71832797D01*
X154975850Y-71827581D01*
X154955638Y-71820349D01*
X154936232Y-71811170D01*
X154917819Y-71800134D01*
X154900576Y-71787346D01*
X154884670Y-71772930D01*
X154870254Y-71757024D01*
X154857466Y-71739781D01*
X154846430Y-71721368D01*
X154837251Y-71701962D01*
X154830019Y-71681750D01*
X154824803Y-71660926D01*
X154821653Y-71639691D01*
X154820600Y-71618250D01*
X154820600Y-71180750D01*
X154821653Y-71159309D01*
X154824803Y-71138074D01*
X154830019Y-71117250D01*
X154837251Y-71097038D01*
X154846430Y-71077632D01*
X154857466Y-71059219D01*
X154870254Y-71041976D01*
X154884670Y-71026070D01*
X154900576Y-71011654D01*
X154917819Y-70998866D01*
X154936232Y-70987830D01*
X154955638Y-70978651D01*
X154975850Y-70971419D01*
X154996674Y-70966203D01*
X155017909Y-70963053D01*
X155039350Y-70962000D01*
X155551850Y-70962000D01*
X155573291Y-70963053D01*
X155573291Y-70963053D01*
G37*
D16*
X155295600Y-71399500D03*
D11*
G36*
X155573291Y-69388053D02*
G01*
X155594526Y-69391203D01*
X155615350Y-69396419D01*
X155635562Y-69403651D01*
X155654968Y-69412830D01*
X155673381Y-69423866D01*
X155690624Y-69436654D01*
X155706530Y-69451070D01*
X155720946Y-69466976D01*
X155733734Y-69484219D01*
X155744770Y-69502632D01*
X155753949Y-69522038D01*
X155761181Y-69542250D01*
X155766397Y-69563074D01*
X155769547Y-69584309D01*
X155770600Y-69605750D01*
X155770600Y-70043250D01*
X155769547Y-70064691D01*
X155766397Y-70085926D01*
X155761181Y-70106750D01*
X155753949Y-70126962D01*
X155744770Y-70146368D01*
X155733734Y-70164781D01*
X155720946Y-70182024D01*
X155706530Y-70197930D01*
X155690624Y-70212346D01*
X155673381Y-70225134D01*
X155654968Y-70236170D01*
X155635562Y-70245349D01*
X155615350Y-70252581D01*
X155594526Y-70257797D01*
X155573291Y-70260947D01*
X155551850Y-70262000D01*
X155039350Y-70262000D01*
X155017909Y-70260947D01*
X154996674Y-70257797D01*
X154975850Y-70252581D01*
X154955638Y-70245349D01*
X154936232Y-70236170D01*
X154917819Y-70225134D01*
X154900576Y-70212346D01*
X154884670Y-70197930D01*
X154870254Y-70182024D01*
X154857466Y-70164781D01*
X154846430Y-70146368D01*
X154837251Y-70126962D01*
X154830019Y-70106750D01*
X154824803Y-70085926D01*
X154821653Y-70064691D01*
X154820600Y-70043250D01*
X154820600Y-69605750D01*
X154821653Y-69584309D01*
X154824803Y-69563074D01*
X154830019Y-69542250D01*
X154837251Y-69522038D01*
X154846430Y-69502632D01*
X154857466Y-69484219D01*
X154870254Y-69466976D01*
X154884670Y-69451070D01*
X154900576Y-69436654D01*
X154917819Y-69423866D01*
X154936232Y-69412830D01*
X154955638Y-69403651D01*
X154975850Y-69396419D01*
X154996674Y-69391203D01*
X155017909Y-69388053D01*
X155039350Y-69387000D01*
X155551850Y-69387000D01*
X155573291Y-69388053D01*
X155573291Y-69388053D01*
G37*
D16*
X155295600Y-69824500D03*
D11*
G36*
X151941091Y-70963053D02*
G01*
X151962326Y-70966203D01*
X151983150Y-70971419D01*
X152003362Y-70978651D01*
X152022768Y-70987830D01*
X152041181Y-70998866D01*
X152058424Y-71011654D01*
X152074330Y-71026070D01*
X152088746Y-71041976D01*
X152101534Y-71059219D01*
X152112570Y-71077632D01*
X152121749Y-71097038D01*
X152128981Y-71117250D01*
X152134197Y-71138074D01*
X152137347Y-71159309D01*
X152138400Y-71180750D01*
X152138400Y-71618250D01*
X152137347Y-71639691D01*
X152134197Y-71660926D01*
X152128981Y-71681750D01*
X152121749Y-71701962D01*
X152112570Y-71721368D01*
X152101534Y-71739781D01*
X152088746Y-71757024D01*
X152074330Y-71772930D01*
X152058424Y-71787346D01*
X152041181Y-71800134D01*
X152022768Y-71811170D01*
X152003362Y-71820349D01*
X151983150Y-71827581D01*
X151962326Y-71832797D01*
X151941091Y-71835947D01*
X151919650Y-71837000D01*
X151407150Y-71837000D01*
X151385709Y-71835947D01*
X151364474Y-71832797D01*
X151343650Y-71827581D01*
X151323438Y-71820349D01*
X151304032Y-71811170D01*
X151285619Y-71800134D01*
X151268376Y-71787346D01*
X151252470Y-71772930D01*
X151238054Y-71757024D01*
X151225266Y-71739781D01*
X151214230Y-71721368D01*
X151205051Y-71701962D01*
X151197819Y-71681750D01*
X151192603Y-71660926D01*
X151189453Y-71639691D01*
X151188400Y-71618250D01*
X151188400Y-71180750D01*
X151189453Y-71159309D01*
X151192603Y-71138074D01*
X151197819Y-71117250D01*
X151205051Y-71097038D01*
X151214230Y-71077632D01*
X151225266Y-71059219D01*
X151238054Y-71041976D01*
X151252470Y-71026070D01*
X151268376Y-71011654D01*
X151285619Y-70998866D01*
X151304032Y-70987830D01*
X151323438Y-70978651D01*
X151343650Y-70971419D01*
X151364474Y-70966203D01*
X151385709Y-70963053D01*
X151407150Y-70962000D01*
X151919650Y-70962000D01*
X151941091Y-70963053D01*
X151941091Y-70963053D01*
G37*
D16*
X151663400Y-71399500D03*
D11*
G36*
X151941091Y-69388053D02*
G01*
X151962326Y-69391203D01*
X151983150Y-69396419D01*
X152003362Y-69403651D01*
X152022768Y-69412830D01*
X152041181Y-69423866D01*
X152058424Y-69436654D01*
X152074330Y-69451070D01*
X152088746Y-69466976D01*
X152101534Y-69484219D01*
X152112570Y-69502632D01*
X152121749Y-69522038D01*
X152128981Y-69542250D01*
X152134197Y-69563074D01*
X152137347Y-69584309D01*
X152138400Y-69605750D01*
X152138400Y-70043250D01*
X152137347Y-70064691D01*
X152134197Y-70085926D01*
X152128981Y-70106750D01*
X152121749Y-70126962D01*
X152112570Y-70146368D01*
X152101534Y-70164781D01*
X152088746Y-70182024D01*
X152074330Y-70197930D01*
X152058424Y-70212346D01*
X152041181Y-70225134D01*
X152022768Y-70236170D01*
X152003362Y-70245349D01*
X151983150Y-70252581D01*
X151962326Y-70257797D01*
X151941091Y-70260947D01*
X151919650Y-70262000D01*
X151407150Y-70262000D01*
X151385709Y-70260947D01*
X151364474Y-70257797D01*
X151343650Y-70252581D01*
X151323438Y-70245349D01*
X151304032Y-70236170D01*
X151285619Y-70225134D01*
X151268376Y-70212346D01*
X151252470Y-70197930D01*
X151238054Y-70182024D01*
X151225266Y-70164781D01*
X151214230Y-70146368D01*
X151205051Y-70126962D01*
X151197819Y-70106750D01*
X151192603Y-70085926D01*
X151189453Y-70064691D01*
X151188400Y-70043250D01*
X151188400Y-69605750D01*
X151189453Y-69584309D01*
X151192603Y-69563074D01*
X151197819Y-69542250D01*
X151205051Y-69522038D01*
X151214230Y-69502632D01*
X151225266Y-69484219D01*
X151238054Y-69466976D01*
X151252470Y-69451070D01*
X151268376Y-69436654D01*
X151285619Y-69423866D01*
X151304032Y-69412830D01*
X151323438Y-69403651D01*
X151343650Y-69396419D01*
X151364474Y-69391203D01*
X151385709Y-69388053D01*
X151407150Y-69387000D01*
X151919650Y-69387000D01*
X151941091Y-69388053D01*
X151941091Y-69388053D01*
G37*
D16*
X151663400Y-69824500D03*
D11*
G36*
X153693691Y-70963053D02*
G01*
X153714926Y-70966203D01*
X153735750Y-70971419D01*
X153755962Y-70978651D01*
X153775368Y-70987830D01*
X153793781Y-70998866D01*
X153811024Y-71011654D01*
X153826930Y-71026070D01*
X153841346Y-71041976D01*
X153854134Y-71059219D01*
X153865170Y-71077632D01*
X153874349Y-71097038D01*
X153881581Y-71117250D01*
X153886797Y-71138074D01*
X153889947Y-71159309D01*
X153891000Y-71180750D01*
X153891000Y-71618250D01*
X153889947Y-71639691D01*
X153886797Y-71660926D01*
X153881581Y-71681750D01*
X153874349Y-71701962D01*
X153865170Y-71721368D01*
X153854134Y-71739781D01*
X153841346Y-71757024D01*
X153826930Y-71772930D01*
X153811024Y-71787346D01*
X153793781Y-71800134D01*
X153775368Y-71811170D01*
X153755962Y-71820349D01*
X153735750Y-71827581D01*
X153714926Y-71832797D01*
X153693691Y-71835947D01*
X153672250Y-71837000D01*
X153159750Y-71837000D01*
X153138309Y-71835947D01*
X153117074Y-71832797D01*
X153096250Y-71827581D01*
X153076038Y-71820349D01*
X153056632Y-71811170D01*
X153038219Y-71800134D01*
X153020976Y-71787346D01*
X153005070Y-71772930D01*
X152990654Y-71757024D01*
X152977866Y-71739781D01*
X152966830Y-71721368D01*
X152957651Y-71701962D01*
X152950419Y-71681750D01*
X152945203Y-71660926D01*
X152942053Y-71639691D01*
X152941000Y-71618250D01*
X152941000Y-71180750D01*
X152942053Y-71159309D01*
X152945203Y-71138074D01*
X152950419Y-71117250D01*
X152957651Y-71097038D01*
X152966830Y-71077632D01*
X152977866Y-71059219D01*
X152990654Y-71041976D01*
X153005070Y-71026070D01*
X153020976Y-71011654D01*
X153038219Y-70998866D01*
X153056632Y-70987830D01*
X153076038Y-70978651D01*
X153096250Y-70971419D01*
X153117074Y-70966203D01*
X153138309Y-70963053D01*
X153159750Y-70962000D01*
X153672250Y-70962000D01*
X153693691Y-70963053D01*
X153693691Y-70963053D01*
G37*
D16*
X153416000Y-71399500D03*
D11*
G36*
X153693691Y-69388053D02*
G01*
X153714926Y-69391203D01*
X153735750Y-69396419D01*
X153755962Y-69403651D01*
X153775368Y-69412830D01*
X153793781Y-69423866D01*
X153811024Y-69436654D01*
X153826930Y-69451070D01*
X153841346Y-69466976D01*
X153854134Y-69484219D01*
X153865170Y-69502632D01*
X153874349Y-69522038D01*
X153881581Y-69542250D01*
X153886797Y-69563074D01*
X153889947Y-69584309D01*
X153891000Y-69605750D01*
X153891000Y-70043250D01*
X153889947Y-70064691D01*
X153886797Y-70085926D01*
X153881581Y-70106750D01*
X153874349Y-70126962D01*
X153865170Y-70146368D01*
X153854134Y-70164781D01*
X153841346Y-70182024D01*
X153826930Y-70197930D01*
X153811024Y-70212346D01*
X153793781Y-70225134D01*
X153775368Y-70236170D01*
X153755962Y-70245349D01*
X153735750Y-70252581D01*
X153714926Y-70257797D01*
X153693691Y-70260947D01*
X153672250Y-70262000D01*
X153159750Y-70262000D01*
X153138309Y-70260947D01*
X153117074Y-70257797D01*
X153096250Y-70252581D01*
X153076038Y-70245349D01*
X153056632Y-70236170D01*
X153038219Y-70225134D01*
X153020976Y-70212346D01*
X153005070Y-70197930D01*
X152990654Y-70182024D01*
X152977866Y-70164781D01*
X152966830Y-70146368D01*
X152957651Y-70126962D01*
X152950419Y-70106750D01*
X152945203Y-70085926D01*
X152942053Y-70064691D01*
X152941000Y-70043250D01*
X152941000Y-69605750D01*
X152942053Y-69584309D01*
X152945203Y-69563074D01*
X152950419Y-69542250D01*
X152957651Y-69522038D01*
X152966830Y-69502632D01*
X152977866Y-69484219D01*
X152990654Y-69466976D01*
X153005070Y-69451070D01*
X153020976Y-69436654D01*
X153038219Y-69423866D01*
X153056632Y-69412830D01*
X153076038Y-69403651D01*
X153096250Y-69396419D01*
X153117074Y-69391203D01*
X153138309Y-69388053D01*
X153159750Y-69387000D01*
X153672250Y-69387000D01*
X153693691Y-69388053D01*
X153693691Y-69388053D01*
G37*
D16*
X153416000Y-69824500D03*
D11*
G36*
X148943891Y-67381653D02*
G01*
X148965126Y-67384803D01*
X148985950Y-67390019D01*
X149006162Y-67397251D01*
X149025568Y-67406430D01*
X149043981Y-67417466D01*
X149061224Y-67430254D01*
X149077130Y-67444670D01*
X149091546Y-67460576D01*
X149104334Y-67477819D01*
X149115370Y-67496232D01*
X149124549Y-67515638D01*
X149131781Y-67535850D01*
X149136997Y-67556674D01*
X149140147Y-67577909D01*
X149141200Y-67599350D01*
X149141200Y-68036850D01*
X149140147Y-68058291D01*
X149136997Y-68079526D01*
X149131781Y-68100350D01*
X149124549Y-68120562D01*
X149115370Y-68139968D01*
X149104334Y-68158381D01*
X149091546Y-68175624D01*
X149077130Y-68191530D01*
X149061224Y-68205946D01*
X149043981Y-68218734D01*
X149025568Y-68229770D01*
X149006162Y-68238949D01*
X148985950Y-68246181D01*
X148965126Y-68251397D01*
X148943891Y-68254547D01*
X148922450Y-68255600D01*
X148409950Y-68255600D01*
X148388509Y-68254547D01*
X148367274Y-68251397D01*
X148346450Y-68246181D01*
X148326238Y-68238949D01*
X148306832Y-68229770D01*
X148288419Y-68218734D01*
X148271176Y-68205946D01*
X148255270Y-68191530D01*
X148240854Y-68175624D01*
X148228066Y-68158381D01*
X148217030Y-68139968D01*
X148207851Y-68120562D01*
X148200619Y-68100350D01*
X148195403Y-68079526D01*
X148192253Y-68058291D01*
X148191200Y-68036850D01*
X148191200Y-67599350D01*
X148192253Y-67577909D01*
X148195403Y-67556674D01*
X148200619Y-67535850D01*
X148207851Y-67515638D01*
X148217030Y-67496232D01*
X148228066Y-67477819D01*
X148240854Y-67460576D01*
X148255270Y-67444670D01*
X148271176Y-67430254D01*
X148288419Y-67417466D01*
X148306832Y-67406430D01*
X148326238Y-67397251D01*
X148346450Y-67390019D01*
X148367274Y-67384803D01*
X148388509Y-67381653D01*
X148409950Y-67380600D01*
X148922450Y-67380600D01*
X148943891Y-67381653D01*
X148943891Y-67381653D01*
G37*
D16*
X148666200Y-67818100D03*
D11*
G36*
X148943891Y-65806653D02*
G01*
X148965126Y-65809803D01*
X148985950Y-65815019D01*
X149006162Y-65822251D01*
X149025568Y-65831430D01*
X149043981Y-65842466D01*
X149061224Y-65855254D01*
X149077130Y-65869670D01*
X149091546Y-65885576D01*
X149104334Y-65902819D01*
X149115370Y-65921232D01*
X149124549Y-65940638D01*
X149131781Y-65960850D01*
X149136997Y-65981674D01*
X149140147Y-66002909D01*
X149141200Y-66024350D01*
X149141200Y-66461850D01*
X149140147Y-66483291D01*
X149136997Y-66504526D01*
X149131781Y-66525350D01*
X149124549Y-66545562D01*
X149115370Y-66564968D01*
X149104334Y-66583381D01*
X149091546Y-66600624D01*
X149077130Y-66616530D01*
X149061224Y-66630946D01*
X149043981Y-66643734D01*
X149025568Y-66654770D01*
X149006162Y-66663949D01*
X148985950Y-66671181D01*
X148965126Y-66676397D01*
X148943891Y-66679547D01*
X148922450Y-66680600D01*
X148409950Y-66680600D01*
X148388509Y-66679547D01*
X148367274Y-66676397D01*
X148346450Y-66671181D01*
X148326238Y-66663949D01*
X148306832Y-66654770D01*
X148288419Y-66643734D01*
X148271176Y-66630946D01*
X148255270Y-66616530D01*
X148240854Y-66600624D01*
X148228066Y-66583381D01*
X148217030Y-66564968D01*
X148207851Y-66545562D01*
X148200619Y-66525350D01*
X148195403Y-66504526D01*
X148192253Y-66483291D01*
X148191200Y-66461850D01*
X148191200Y-66024350D01*
X148192253Y-66002909D01*
X148195403Y-65981674D01*
X148200619Y-65960850D01*
X148207851Y-65940638D01*
X148217030Y-65921232D01*
X148228066Y-65902819D01*
X148240854Y-65885576D01*
X148255270Y-65869670D01*
X148271176Y-65855254D01*
X148288419Y-65842466D01*
X148306832Y-65831430D01*
X148326238Y-65822251D01*
X148346450Y-65815019D01*
X148367274Y-65809803D01*
X148388509Y-65806653D01*
X148409950Y-65805600D01*
X148922450Y-65805600D01*
X148943891Y-65806653D01*
X148943891Y-65806653D01*
G37*
D16*
X148666200Y-66243100D03*
D11*
G36*
X149058891Y-63940453D02*
G01*
X149080126Y-63943603D01*
X149100950Y-63948819D01*
X149121162Y-63956051D01*
X149140568Y-63965230D01*
X149158981Y-63976266D01*
X149176224Y-63989054D01*
X149192130Y-64003470D01*
X149206546Y-64019376D01*
X149219334Y-64036619D01*
X149230370Y-64055032D01*
X149239549Y-64074438D01*
X149246781Y-64094650D01*
X149251997Y-64115474D01*
X149255147Y-64136709D01*
X149256200Y-64158150D01*
X149256200Y-64670650D01*
X149255147Y-64692091D01*
X149251997Y-64713326D01*
X149246781Y-64734150D01*
X149239549Y-64754362D01*
X149230370Y-64773768D01*
X149219334Y-64792181D01*
X149206546Y-64809424D01*
X149192130Y-64825330D01*
X149176224Y-64839746D01*
X149158981Y-64852534D01*
X149140568Y-64863570D01*
X149121162Y-64872749D01*
X149100950Y-64879981D01*
X149080126Y-64885197D01*
X149058891Y-64888347D01*
X149037450Y-64889400D01*
X148599950Y-64889400D01*
X148578509Y-64888347D01*
X148557274Y-64885197D01*
X148536450Y-64879981D01*
X148516238Y-64872749D01*
X148496832Y-64863570D01*
X148478419Y-64852534D01*
X148461176Y-64839746D01*
X148445270Y-64825330D01*
X148430854Y-64809424D01*
X148418066Y-64792181D01*
X148407030Y-64773768D01*
X148397851Y-64754362D01*
X148390619Y-64734150D01*
X148385403Y-64713326D01*
X148382253Y-64692091D01*
X148381200Y-64670650D01*
X148381200Y-64158150D01*
X148382253Y-64136709D01*
X148385403Y-64115474D01*
X148390619Y-64094650D01*
X148397851Y-64074438D01*
X148407030Y-64055032D01*
X148418066Y-64036619D01*
X148430854Y-64019376D01*
X148445270Y-64003470D01*
X148461176Y-63989054D01*
X148478419Y-63976266D01*
X148496832Y-63965230D01*
X148516238Y-63956051D01*
X148536450Y-63948819D01*
X148557274Y-63943603D01*
X148578509Y-63940453D01*
X148599950Y-63939400D01*
X149037450Y-63939400D01*
X149058891Y-63940453D01*
X149058891Y-63940453D01*
G37*
D16*
X148818700Y-64414400D03*
D11*
G36*
X147483891Y-63940453D02*
G01*
X147505126Y-63943603D01*
X147525950Y-63948819D01*
X147546162Y-63956051D01*
X147565568Y-63965230D01*
X147583981Y-63976266D01*
X147601224Y-63989054D01*
X147617130Y-64003470D01*
X147631546Y-64019376D01*
X147644334Y-64036619D01*
X147655370Y-64055032D01*
X147664549Y-64074438D01*
X147671781Y-64094650D01*
X147676997Y-64115474D01*
X147680147Y-64136709D01*
X147681200Y-64158150D01*
X147681200Y-64670650D01*
X147680147Y-64692091D01*
X147676997Y-64713326D01*
X147671781Y-64734150D01*
X147664549Y-64754362D01*
X147655370Y-64773768D01*
X147644334Y-64792181D01*
X147631546Y-64809424D01*
X147617130Y-64825330D01*
X147601224Y-64839746D01*
X147583981Y-64852534D01*
X147565568Y-64863570D01*
X147546162Y-64872749D01*
X147525950Y-64879981D01*
X147505126Y-64885197D01*
X147483891Y-64888347D01*
X147462450Y-64889400D01*
X147024950Y-64889400D01*
X147003509Y-64888347D01*
X146982274Y-64885197D01*
X146961450Y-64879981D01*
X146941238Y-64872749D01*
X146921832Y-64863570D01*
X146903419Y-64852534D01*
X146886176Y-64839746D01*
X146870270Y-64825330D01*
X146855854Y-64809424D01*
X146843066Y-64792181D01*
X146832030Y-64773768D01*
X146822851Y-64754362D01*
X146815619Y-64734150D01*
X146810403Y-64713326D01*
X146807253Y-64692091D01*
X146806200Y-64670650D01*
X146806200Y-64158150D01*
X146807253Y-64136709D01*
X146810403Y-64115474D01*
X146815619Y-64094650D01*
X146822851Y-64074438D01*
X146832030Y-64055032D01*
X146843066Y-64036619D01*
X146855854Y-64019376D01*
X146870270Y-64003470D01*
X146886176Y-63989054D01*
X146903419Y-63976266D01*
X146921832Y-63965230D01*
X146941238Y-63956051D01*
X146961450Y-63948819D01*
X146982274Y-63943603D01*
X147003509Y-63940453D01*
X147024950Y-63939400D01*
X147462450Y-63939400D01*
X147483891Y-63940453D01*
X147483891Y-63940453D01*
G37*
D16*
X147243700Y-64414400D03*
D21*
X175617520Y-103528096D03*
X173617520Y-103528096D03*
X171617520Y-103528096D03*
X169617520Y-103528096D03*
X167617520Y-103528096D03*
X165617520Y-103528096D03*
X163617520Y-103528096D03*
X161617520Y-103528096D03*
X175617520Y-137344096D03*
X173617520Y-137344096D03*
X171617520Y-137344096D03*
X169617520Y-137344096D03*
X167617520Y-137344096D03*
X165617520Y-137344096D03*
X163617520Y-137344096D03*
X161617520Y-137344096D03*
D11*
G36*
X133627691Y-122906053D02*
G01*
X133648926Y-122909203D01*
X133669750Y-122914419D01*
X133689962Y-122921651D01*
X133709368Y-122930830D01*
X133727781Y-122941866D01*
X133745024Y-122954654D01*
X133760930Y-122969070D01*
X133775346Y-122984976D01*
X133788134Y-123002219D01*
X133799170Y-123020632D01*
X133808349Y-123040038D01*
X133815581Y-123060250D01*
X133820797Y-123081074D01*
X133823947Y-123102309D01*
X133825000Y-123123750D01*
X133825000Y-123561250D01*
X133823947Y-123582691D01*
X133820797Y-123603926D01*
X133815581Y-123624750D01*
X133808349Y-123644962D01*
X133799170Y-123664368D01*
X133788134Y-123682781D01*
X133775346Y-123700024D01*
X133760930Y-123715930D01*
X133745024Y-123730346D01*
X133727781Y-123743134D01*
X133709368Y-123754170D01*
X133689962Y-123763349D01*
X133669750Y-123770581D01*
X133648926Y-123775797D01*
X133627691Y-123778947D01*
X133606250Y-123780000D01*
X133093750Y-123780000D01*
X133072309Y-123778947D01*
X133051074Y-123775797D01*
X133030250Y-123770581D01*
X133010038Y-123763349D01*
X132990632Y-123754170D01*
X132972219Y-123743134D01*
X132954976Y-123730346D01*
X132939070Y-123715930D01*
X132924654Y-123700024D01*
X132911866Y-123682781D01*
X132900830Y-123664368D01*
X132891651Y-123644962D01*
X132884419Y-123624750D01*
X132879203Y-123603926D01*
X132876053Y-123582691D01*
X132875000Y-123561250D01*
X132875000Y-123123750D01*
X132876053Y-123102309D01*
X132879203Y-123081074D01*
X132884419Y-123060250D01*
X132891651Y-123040038D01*
X132900830Y-123020632D01*
X132911866Y-123002219D01*
X132924654Y-122984976D01*
X132939070Y-122969070D01*
X132954976Y-122954654D01*
X132972219Y-122941866D01*
X132990632Y-122930830D01*
X133010038Y-122921651D01*
X133030250Y-122914419D01*
X133051074Y-122909203D01*
X133072309Y-122906053D01*
X133093750Y-122905000D01*
X133606250Y-122905000D01*
X133627691Y-122906053D01*
X133627691Y-122906053D01*
G37*
D16*
X133350000Y-123342500D03*
D11*
G36*
X133627691Y-121331053D02*
G01*
X133648926Y-121334203D01*
X133669750Y-121339419D01*
X133689962Y-121346651D01*
X133709368Y-121355830D01*
X133727781Y-121366866D01*
X133745024Y-121379654D01*
X133760930Y-121394070D01*
X133775346Y-121409976D01*
X133788134Y-121427219D01*
X133799170Y-121445632D01*
X133808349Y-121465038D01*
X133815581Y-121485250D01*
X133820797Y-121506074D01*
X133823947Y-121527309D01*
X133825000Y-121548750D01*
X133825000Y-121986250D01*
X133823947Y-122007691D01*
X133820797Y-122028926D01*
X133815581Y-122049750D01*
X133808349Y-122069962D01*
X133799170Y-122089368D01*
X133788134Y-122107781D01*
X133775346Y-122125024D01*
X133760930Y-122140930D01*
X133745024Y-122155346D01*
X133727781Y-122168134D01*
X133709368Y-122179170D01*
X133689962Y-122188349D01*
X133669750Y-122195581D01*
X133648926Y-122200797D01*
X133627691Y-122203947D01*
X133606250Y-122205000D01*
X133093750Y-122205000D01*
X133072309Y-122203947D01*
X133051074Y-122200797D01*
X133030250Y-122195581D01*
X133010038Y-122188349D01*
X132990632Y-122179170D01*
X132972219Y-122168134D01*
X132954976Y-122155346D01*
X132939070Y-122140930D01*
X132924654Y-122125024D01*
X132911866Y-122107781D01*
X132900830Y-122089368D01*
X132891651Y-122069962D01*
X132884419Y-122049750D01*
X132879203Y-122028926D01*
X132876053Y-122007691D01*
X132875000Y-121986250D01*
X132875000Y-121548750D01*
X132876053Y-121527309D01*
X132879203Y-121506074D01*
X132884419Y-121485250D01*
X132891651Y-121465038D01*
X132900830Y-121445632D01*
X132911866Y-121427219D01*
X132924654Y-121409976D01*
X132939070Y-121394070D01*
X132954976Y-121379654D01*
X132972219Y-121366866D01*
X132990632Y-121355830D01*
X133010038Y-121346651D01*
X133030250Y-121339419D01*
X133051074Y-121334203D01*
X133072309Y-121331053D01*
X133093750Y-121330000D01*
X133606250Y-121330000D01*
X133627691Y-121331053D01*
X133627691Y-121331053D01*
G37*
D16*
X133350000Y-121767500D03*
D11*
G36*
X133627691Y-121331253D02*
G01*
X133648926Y-121334403D01*
X133669750Y-121339619D01*
X133689962Y-121346851D01*
X133709368Y-121356030D01*
X133727781Y-121367066D01*
X133745024Y-121379854D01*
X133760930Y-121394270D01*
X133775346Y-121410176D01*
X133788134Y-121427419D01*
X133799170Y-121445832D01*
X133808349Y-121465238D01*
X133815581Y-121485450D01*
X133820797Y-121506274D01*
X133823947Y-121527509D01*
X133825000Y-121548950D01*
X133825000Y-121986450D01*
X133823947Y-122007891D01*
X133820797Y-122029126D01*
X133815581Y-122049950D01*
X133808349Y-122070162D01*
X133799170Y-122089568D01*
X133788134Y-122107981D01*
X133775346Y-122125224D01*
X133760930Y-122141130D01*
X133745024Y-122155546D01*
X133727781Y-122168334D01*
X133709368Y-122179370D01*
X133689962Y-122188549D01*
X133669750Y-122195781D01*
X133648926Y-122200997D01*
X133627691Y-122204147D01*
X133606250Y-122205200D01*
X133093750Y-122205200D01*
X133072309Y-122204147D01*
X133051074Y-122200997D01*
X133030250Y-122195781D01*
X133010038Y-122188549D01*
X132990632Y-122179370D01*
X132972219Y-122168334D01*
X132954976Y-122155546D01*
X132939070Y-122141130D01*
X132924654Y-122125224D01*
X132911866Y-122107981D01*
X132900830Y-122089568D01*
X132891651Y-122070162D01*
X132884419Y-122049950D01*
X132879203Y-122029126D01*
X132876053Y-122007891D01*
X132875000Y-121986450D01*
X132875000Y-121548950D01*
X132876053Y-121527509D01*
X132879203Y-121506274D01*
X132884419Y-121485450D01*
X132891651Y-121465238D01*
X132900830Y-121445832D01*
X132911866Y-121427419D01*
X132924654Y-121410176D01*
X132939070Y-121394270D01*
X132954976Y-121379854D01*
X132972219Y-121367066D01*
X132990632Y-121356030D01*
X133010038Y-121346851D01*
X133030250Y-121339619D01*
X133051074Y-121334403D01*
X133072309Y-121331253D01*
X133093750Y-121330200D01*
X133606250Y-121330200D01*
X133627691Y-121331253D01*
X133627691Y-121331253D01*
G37*
D16*
X133350000Y-121767700D03*
D11*
G36*
X133627691Y-119756253D02*
G01*
X133648926Y-119759403D01*
X133669750Y-119764619D01*
X133689962Y-119771851D01*
X133709368Y-119781030D01*
X133727781Y-119792066D01*
X133745024Y-119804854D01*
X133760930Y-119819270D01*
X133775346Y-119835176D01*
X133788134Y-119852419D01*
X133799170Y-119870832D01*
X133808349Y-119890238D01*
X133815581Y-119910450D01*
X133820797Y-119931274D01*
X133823947Y-119952509D01*
X133825000Y-119973950D01*
X133825000Y-120411450D01*
X133823947Y-120432891D01*
X133820797Y-120454126D01*
X133815581Y-120474950D01*
X133808349Y-120495162D01*
X133799170Y-120514568D01*
X133788134Y-120532981D01*
X133775346Y-120550224D01*
X133760930Y-120566130D01*
X133745024Y-120580546D01*
X133727781Y-120593334D01*
X133709368Y-120604370D01*
X133689962Y-120613549D01*
X133669750Y-120620781D01*
X133648926Y-120625997D01*
X133627691Y-120629147D01*
X133606250Y-120630200D01*
X133093750Y-120630200D01*
X133072309Y-120629147D01*
X133051074Y-120625997D01*
X133030250Y-120620781D01*
X133010038Y-120613549D01*
X132990632Y-120604370D01*
X132972219Y-120593334D01*
X132954976Y-120580546D01*
X132939070Y-120566130D01*
X132924654Y-120550224D01*
X132911866Y-120532981D01*
X132900830Y-120514568D01*
X132891651Y-120495162D01*
X132884419Y-120474950D01*
X132879203Y-120454126D01*
X132876053Y-120432891D01*
X132875000Y-120411450D01*
X132875000Y-119973950D01*
X132876053Y-119952509D01*
X132879203Y-119931274D01*
X132884419Y-119910450D01*
X132891651Y-119890238D01*
X132900830Y-119870832D01*
X132911866Y-119852419D01*
X132924654Y-119835176D01*
X132939070Y-119819270D01*
X132954976Y-119804854D01*
X132972219Y-119792066D01*
X132990632Y-119781030D01*
X133010038Y-119771851D01*
X133030250Y-119764619D01*
X133051074Y-119759403D01*
X133072309Y-119756253D01*
X133093750Y-119755200D01*
X133606250Y-119755200D01*
X133627691Y-119756253D01*
X133627691Y-119756253D01*
G37*
D16*
X133350000Y-120192700D03*
D11*
G36*
X140220703Y-97617722D02*
G01*
X140235264Y-97619882D01*
X140249543Y-97623459D01*
X140263403Y-97628418D01*
X140276710Y-97634712D01*
X140289336Y-97642280D01*
X140301159Y-97651048D01*
X140312066Y-97660934D01*
X140321952Y-97671841D01*
X140330720Y-97683664D01*
X140338288Y-97696290D01*
X140344582Y-97709597D01*
X140349541Y-97723457D01*
X140353118Y-97737736D01*
X140355278Y-97752297D01*
X140356000Y-97767000D01*
X140356000Y-98067000D01*
X140355278Y-98081703D01*
X140353118Y-98096264D01*
X140349541Y-98110543D01*
X140344582Y-98124403D01*
X140338288Y-98137710D01*
X140330720Y-98150336D01*
X140321952Y-98162159D01*
X140312066Y-98173066D01*
X140301159Y-98182952D01*
X140289336Y-98191720D01*
X140276710Y-98199288D01*
X140263403Y-98205582D01*
X140249543Y-98210541D01*
X140235264Y-98214118D01*
X140220703Y-98216278D01*
X140206000Y-98217000D01*
X138756000Y-98217000D01*
X138741297Y-98216278D01*
X138726736Y-98214118D01*
X138712457Y-98210541D01*
X138698597Y-98205582D01*
X138685290Y-98199288D01*
X138672664Y-98191720D01*
X138660841Y-98182952D01*
X138649934Y-98173066D01*
X138640048Y-98162159D01*
X138631280Y-98150336D01*
X138623712Y-98137710D01*
X138617418Y-98124403D01*
X138612459Y-98110543D01*
X138608882Y-98096264D01*
X138606722Y-98081703D01*
X138606000Y-98067000D01*
X138606000Y-97767000D01*
X138606722Y-97752297D01*
X138608882Y-97737736D01*
X138612459Y-97723457D01*
X138617418Y-97709597D01*
X138623712Y-97696290D01*
X138631280Y-97683664D01*
X138640048Y-97671841D01*
X138649934Y-97660934D01*
X138660841Y-97651048D01*
X138672664Y-97642280D01*
X138685290Y-97634712D01*
X138698597Y-97628418D01*
X138712457Y-97623459D01*
X138726736Y-97619882D01*
X138741297Y-97617722D01*
X138756000Y-97617000D01*
X140206000Y-97617000D01*
X140220703Y-97617722D01*
X140220703Y-97617722D01*
G37*
D22*
X139481000Y-97917000D03*
D11*
G36*
X140220703Y-96347722D02*
G01*
X140235264Y-96349882D01*
X140249543Y-96353459D01*
X140263403Y-96358418D01*
X140276710Y-96364712D01*
X140289336Y-96372280D01*
X140301159Y-96381048D01*
X140312066Y-96390934D01*
X140321952Y-96401841D01*
X140330720Y-96413664D01*
X140338288Y-96426290D01*
X140344582Y-96439597D01*
X140349541Y-96453457D01*
X140353118Y-96467736D01*
X140355278Y-96482297D01*
X140356000Y-96497000D01*
X140356000Y-96797000D01*
X140355278Y-96811703D01*
X140353118Y-96826264D01*
X140349541Y-96840543D01*
X140344582Y-96854403D01*
X140338288Y-96867710D01*
X140330720Y-96880336D01*
X140321952Y-96892159D01*
X140312066Y-96903066D01*
X140301159Y-96912952D01*
X140289336Y-96921720D01*
X140276710Y-96929288D01*
X140263403Y-96935582D01*
X140249543Y-96940541D01*
X140235264Y-96944118D01*
X140220703Y-96946278D01*
X140206000Y-96947000D01*
X138756000Y-96947000D01*
X138741297Y-96946278D01*
X138726736Y-96944118D01*
X138712457Y-96940541D01*
X138698597Y-96935582D01*
X138685290Y-96929288D01*
X138672664Y-96921720D01*
X138660841Y-96912952D01*
X138649934Y-96903066D01*
X138640048Y-96892159D01*
X138631280Y-96880336D01*
X138623712Y-96867710D01*
X138617418Y-96854403D01*
X138612459Y-96840543D01*
X138608882Y-96826264D01*
X138606722Y-96811703D01*
X138606000Y-96797000D01*
X138606000Y-96497000D01*
X138606722Y-96482297D01*
X138608882Y-96467736D01*
X138612459Y-96453457D01*
X138617418Y-96439597D01*
X138623712Y-96426290D01*
X138631280Y-96413664D01*
X138640048Y-96401841D01*
X138649934Y-96390934D01*
X138660841Y-96381048D01*
X138672664Y-96372280D01*
X138685290Y-96364712D01*
X138698597Y-96358418D01*
X138712457Y-96353459D01*
X138726736Y-96349882D01*
X138741297Y-96347722D01*
X138756000Y-96347000D01*
X140206000Y-96347000D01*
X140220703Y-96347722D01*
X140220703Y-96347722D01*
G37*
D22*
X139481000Y-96647000D03*
D11*
G36*
X140220703Y-95077722D02*
G01*
X140235264Y-95079882D01*
X140249543Y-95083459D01*
X140263403Y-95088418D01*
X140276710Y-95094712D01*
X140289336Y-95102280D01*
X140301159Y-95111048D01*
X140312066Y-95120934D01*
X140321952Y-95131841D01*
X140330720Y-95143664D01*
X140338288Y-95156290D01*
X140344582Y-95169597D01*
X140349541Y-95183457D01*
X140353118Y-95197736D01*
X140355278Y-95212297D01*
X140356000Y-95227000D01*
X140356000Y-95527000D01*
X140355278Y-95541703D01*
X140353118Y-95556264D01*
X140349541Y-95570543D01*
X140344582Y-95584403D01*
X140338288Y-95597710D01*
X140330720Y-95610336D01*
X140321952Y-95622159D01*
X140312066Y-95633066D01*
X140301159Y-95642952D01*
X140289336Y-95651720D01*
X140276710Y-95659288D01*
X140263403Y-95665582D01*
X140249543Y-95670541D01*
X140235264Y-95674118D01*
X140220703Y-95676278D01*
X140206000Y-95677000D01*
X138756000Y-95677000D01*
X138741297Y-95676278D01*
X138726736Y-95674118D01*
X138712457Y-95670541D01*
X138698597Y-95665582D01*
X138685290Y-95659288D01*
X138672664Y-95651720D01*
X138660841Y-95642952D01*
X138649934Y-95633066D01*
X138640048Y-95622159D01*
X138631280Y-95610336D01*
X138623712Y-95597710D01*
X138617418Y-95584403D01*
X138612459Y-95570543D01*
X138608882Y-95556264D01*
X138606722Y-95541703D01*
X138606000Y-95527000D01*
X138606000Y-95227000D01*
X138606722Y-95212297D01*
X138608882Y-95197736D01*
X138612459Y-95183457D01*
X138617418Y-95169597D01*
X138623712Y-95156290D01*
X138631280Y-95143664D01*
X138640048Y-95131841D01*
X138649934Y-95120934D01*
X138660841Y-95111048D01*
X138672664Y-95102280D01*
X138685290Y-95094712D01*
X138698597Y-95088418D01*
X138712457Y-95083459D01*
X138726736Y-95079882D01*
X138741297Y-95077722D01*
X138756000Y-95077000D01*
X140206000Y-95077000D01*
X140220703Y-95077722D01*
X140220703Y-95077722D01*
G37*
D22*
X139481000Y-95377000D03*
D11*
G36*
X140220703Y-93807722D02*
G01*
X140235264Y-93809882D01*
X140249543Y-93813459D01*
X140263403Y-93818418D01*
X140276710Y-93824712D01*
X140289336Y-93832280D01*
X140301159Y-93841048D01*
X140312066Y-93850934D01*
X140321952Y-93861841D01*
X140330720Y-93873664D01*
X140338288Y-93886290D01*
X140344582Y-93899597D01*
X140349541Y-93913457D01*
X140353118Y-93927736D01*
X140355278Y-93942297D01*
X140356000Y-93957000D01*
X140356000Y-94257000D01*
X140355278Y-94271703D01*
X140353118Y-94286264D01*
X140349541Y-94300543D01*
X140344582Y-94314403D01*
X140338288Y-94327710D01*
X140330720Y-94340336D01*
X140321952Y-94352159D01*
X140312066Y-94363066D01*
X140301159Y-94372952D01*
X140289336Y-94381720D01*
X140276710Y-94389288D01*
X140263403Y-94395582D01*
X140249543Y-94400541D01*
X140235264Y-94404118D01*
X140220703Y-94406278D01*
X140206000Y-94407000D01*
X138756000Y-94407000D01*
X138741297Y-94406278D01*
X138726736Y-94404118D01*
X138712457Y-94400541D01*
X138698597Y-94395582D01*
X138685290Y-94389288D01*
X138672664Y-94381720D01*
X138660841Y-94372952D01*
X138649934Y-94363066D01*
X138640048Y-94352159D01*
X138631280Y-94340336D01*
X138623712Y-94327710D01*
X138617418Y-94314403D01*
X138612459Y-94300543D01*
X138608882Y-94286264D01*
X138606722Y-94271703D01*
X138606000Y-94257000D01*
X138606000Y-93957000D01*
X138606722Y-93942297D01*
X138608882Y-93927736D01*
X138612459Y-93913457D01*
X138617418Y-93899597D01*
X138623712Y-93886290D01*
X138631280Y-93873664D01*
X138640048Y-93861841D01*
X138649934Y-93850934D01*
X138660841Y-93841048D01*
X138672664Y-93832280D01*
X138685290Y-93824712D01*
X138698597Y-93818418D01*
X138712457Y-93813459D01*
X138726736Y-93809882D01*
X138741297Y-93807722D01*
X138756000Y-93807000D01*
X140206000Y-93807000D01*
X140220703Y-93807722D01*
X140220703Y-93807722D01*
G37*
D22*
X139481000Y-94107000D03*
D11*
G36*
X135070703Y-93807722D02*
G01*
X135085264Y-93809882D01*
X135099543Y-93813459D01*
X135113403Y-93818418D01*
X135126710Y-93824712D01*
X135139336Y-93832280D01*
X135151159Y-93841048D01*
X135162066Y-93850934D01*
X135171952Y-93861841D01*
X135180720Y-93873664D01*
X135188288Y-93886290D01*
X135194582Y-93899597D01*
X135199541Y-93913457D01*
X135203118Y-93927736D01*
X135205278Y-93942297D01*
X135206000Y-93957000D01*
X135206000Y-94257000D01*
X135205278Y-94271703D01*
X135203118Y-94286264D01*
X135199541Y-94300543D01*
X135194582Y-94314403D01*
X135188288Y-94327710D01*
X135180720Y-94340336D01*
X135171952Y-94352159D01*
X135162066Y-94363066D01*
X135151159Y-94372952D01*
X135139336Y-94381720D01*
X135126710Y-94389288D01*
X135113403Y-94395582D01*
X135099543Y-94400541D01*
X135085264Y-94404118D01*
X135070703Y-94406278D01*
X135056000Y-94407000D01*
X133606000Y-94407000D01*
X133591297Y-94406278D01*
X133576736Y-94404118D01*
X133562457Y-94400541D01*
X133548597Y-94395582D01*
X133535290Y-94389288D01*
X133522664Y-94381720D01*
X133510841Y-94372952D01*
X133499934Y-94363066D01*
X133490048Y-94352159D01*
X133481280Y-94340336D01*
X133473712Y-94327710D01*
X133467418Y-94314403D01*
X133462459Y-94300543D01*
X133458882Y-94286264D01*
X133456722Y-94271703D01*
X133456000Y-94257000D01*
X133456000Y-93957000D01*
X133456722Y-93942297D01*
X133458882Y-93927736D01*
X133462459Y-93913457D01*
X133467418Y-93899597D01*
X133473712Y-93886290D01*
X133481280Y-93873664D01*
X133490048Y-93861841D01*
X133499934Y-93850934D01*
X133510841Y-93841048D01*
X133522664Y-93832280D01*
X133535290Y-93824712D01*
X133548597Y-93818418D01*
X133562457Y-93813459D01*
X133576736Y-93809882D01*
X133591297Y-93807722D01*
X133606000Y-93807000D01*
X135056000Y-93807000D01*
X135070703Y-93807722D01*
X135070703Y-93807722D01*
G37*
D22*
X134331000Y-94107000D03*
D11*
G36*
X135070703Y-95077722D02*
G01*
X135085264Y-95079882D01*
X135099543Y-95083459D01*
X135113403Y-95088418D01*
X135126710Y-95094712D01*
X135139336Y-95102280D01*
X135151159Y-95111048D01*
X135162066Y-95120934D01*
X135171952Y-95131841D01*
X135180720Y-95143664D01*
X135188288Y-95156290D01*
X135194582Y-95169597D01*
X135199541Y-95183457D01*
X135203118Y-95197736D01*
X135205278Y-95212297D01*
X135206000Y-95227000D01*
X135206000Y-95527000D01*
X135205278Y-95541703D01*
X135203118Y-95556264D01*
X135199541Y-95570543D01*
X135194582Y-95584403D01*
X135188288Y-95597710D01*
X135180720Y-95610336D01*
X135171952Y-95622159D01*
X135162066Y-95633066D01*
X135151159Y-95642952D01*
X135139336Y-95651720D01*
X135126710Y-95659288D01*
X135113403Y-95665582D01*
X135099543Y-95670541D01*
X135085264Y-95674118D01*
X135070703Y-95676278D01*
X135056000Y-95677000D01*
X133606000Y-95677000D01*
X133591297Y-95676278D01*
X133576736Y-95674118D01*
X133562457Y-95670541D01*
X133548597Y-95665582D01*
X133535290Y-95659288D01*
X133522664Y-95651720D01*
X133510841Y-95642952D01*
X133499934Y-95633066D01*
X133490048Y-95622159D01*
X133481280Y-95610336D01*
X133473712Y-95597710D01*
X133467418Y-95584403D01*
X133462459Y-95570543D01*
X133458882Y-95556264D01*
X133456722Y-95541703D01*
X133456000Y-95527000D01*
X133456000Y-95227000D01*
X133456722Y-95212297D01*
X133458882Y-95197736D01*
X133462459Y-95183457D01*
X133467418Y-95169597D01*
X133473712Y-95156290D01*
X133481280Y-95143664D01*
X133490048Y-95131841D01*
X133499934Y-95120934D01*
X133510841Y-95111048D01*
X133522664Y-95102280D01*
X133535290Y-95094712D01*
X133548597Y-95088418D01*
X133562457Y-95083459D01*
X133576736Y-95079882D01*
X133591297Y-95077722D01*
X133606000Y-95077000D01*
X135056000Y-95077000D01*
X135070703Y-95077722D01*
X135070703Y-95077722D01*
G37*
D22*
X134331000Y-95377000D03*
D11*
G36*
X135070703Y-96347722D02*
G01*
X135085264Y-96349882D01*
X135099543Y-96353459D01*
X135113403Y-96358418D01*
X135126710Y-96364712D01*
X135139336Y-96372280D01*
X135151159Y-96381048D01*
X135162066Y-96390934D01*
X135171952Y-96401841D01*
X135180720Y-96413664D01*
X135188288Y-96426290D01*
X135194582Y-96439597D01*
X135199541Y-96453457D01*
X135203118Y-96467736D01*
X135205278Y-96482297D01*
X135206000Y-96497000D01*
X135206000Y-96797000D01*
X135205278Y-96811703D01*
X135203118Y-96826264D01*
X135199541Y-96840543D01*
X135194582Y-96854403D01*
X135188288Y-96867710D01*
X135180720Y-96880336D01*
X135171952Y-96892159D01*
X135162066Y-96903066D01*
X135151159Y-96912952D01*
X135139336Y-96921720D01*
X135126710Y-96929288D01*
X135113403Y-96935582D01*
X135099543Y-96940541D01*
X135085264Y-96944118D01*
X135070703Y-96946278D01*
X135056000Y-96947000D01*
X133606000Y-96947000D01*
X133591297Y-96946278D01*
X133576736Y-96944118D01*
X133562457Y-96940541D01*
X133548597Y-96935582D01*
X133535290Y-96929288D01*
X133522664Y-96921720D01*
X133510841Y-96912952D01*
X133499934Y-96903066D01*
X133490048Y-96892159D01*
X133481280Y-96880336D01*
X133473712Y-96867710D01*
X133467418Y-96854403D01*
X133462459Y-96840543D01*
X133458882Y-96826264D01*
X133456722Y-96811703D01*
X133456000Y-96797000D01*
X133456000Y-96497000D01*
X133456722Y-96482297D01*
X133458882Y-96467736D01*
X133462459Y-96453457D01*
X133467418Y-96439597D01*
X133473712Y-96426290D01*
X133481280Y-96413664D01*
X133490048Y-96401841D01*
X133499934Y-96390934D01*
X133510841Y-96381048D01*
X133522664Y-96372280D01*
X133535290Y-96364712D01*
X133548597Y-96358418D01*
X133562457Y-96353459D01*
X133576736Y-96349882D01*
X133591297Y-96347722D01*
X133606000Y-96347000D01*
X135056000Y-96347000D01*
X135070703Y-96347722D01*
X135070703Y-96347722D01*
G37*
D22*
X134331000Y-96647000D03*
D11*
G36*
X135070703Y-97617722D02*
G01*
X135085264Y-97619882D01*
X135099543Y-97623459D01*
X135113403Y-97628418D01*
X135126710Y-97634712D01*
X135139336Y-97642280D01*
X135151159Y-97651048D01*
X135162066Y-97660934D01*
X135171952Y-97671841D01*
X135180720Y-97683664D01*
X135188288Y-97696290D01*
X135194582Y-97709597D01*
X135199541Y-97723457D01*
X135203118Y-97737736D01*
X135205278Y-97752297D01*
X135206000Y-97767000D01*
X135206000Y-98067000D01*
X135205278Y-98081703D01*
X135203118Y-98096264D01*
X135199541Y-98110543D01*
X135194582Y-98124403D01*
X135188288Y-98137710D01*
X135180720Y-98150336D01*
X135171952Y-98162159D01*
X135162066Y-98173066D01*
X135151159Y-98182952D01*
X135139336Y-98191720D01*
X135126710Y-98199288D01*
X135113403Y-98205582D01*
X135099543Y-98210541D01*
X135085264Y-98214118D01*
X135070703Y-98216278D01*
X135056000Y-98217000D01*
X133606000Y-98217000D01*
X133591297Y-98216278D01*
X133576736Y-98214118D01*
X133562457Y-98210541D01*
X133548597Y-98205582D01*
X133535290Y-98199288D01*
X133522664Y-98191720D01*
X133510841Y-98182952D01*
X133499934Y-98173066D01*
X133490048Y-98162159D01*
X133481280Y-98150336D01*
X133473712Y-98137710D01*
X133467418Y-98124403D01*
X133462459Y-98110543D01*
X133458882Y-98096264D01*
X133456722Y-98081703D01*
X133456000Y-98067000D01*
X133456000Y-97767000D01*
X133456722Y-97752297D01*
X133458882Y-97737736D01*
X133462459Y-97723457D01*
X133467418Y-97709597D01*
X133473712Y-97696290D01*
X133481280Y-97683664D01*
X133490048Y-97671841D01*
X133499934Y-97660934D01*
X133510841Y-97651048D01*
X133522664Y-97642280D01*
X133535290Y-97634712D01*
X133548597Y-97628418D01*
X133562457Y-97623459D01*
X133576736Y-97619882D01*
X133591297Y-97617722D01*
X133606000Y-97617000D01*
X135056000Y-97617000D01*
X135070703Y-97617722D01*
X135070703Y-97617722D01*
G37*
D22*
X134331000Y-97917000D03*
D11*
G36*
X133246691Y-125395053D02*
G01*
X133267926Y-125398203D01*
X133288750Y-125403419D01*
X133308962Y-125410651D01*
X133328368Y-125419830D01*
X133346781Y-125430866D01*
X133364024Y-125443654D01*
X133379930Y-125458070D01*
X133394346Y-125473976D01*
X133407134Y-125491219D01*
X133418170Y-125509632D01*
X133427349Y-125529038D01*
X133434581Y-125549250D01*
X133439797Y-125570074D01*
X133442947Y-125591309D01*
X133444000Y-125612750D01*
X133444000Y-126050250D01*
X133442947Y-126071691D01*
X133439797Y-126092926D01*
X133434581Y-126113750D01*
X133427349Y-126133962D01*
X133418170Y-126153368D01*
X133407134Y-126171781D01*
X133394346Y-126189024D01*
X133379930Y-126204930D01*
X133364024Y-126219346D01*
X133346781Y-126232134D01*
X133328368Y-126243170D01*
X133308962Y-126252349D01*
X133288750Y-126259581D01*
X133267926Y-126264797D01*
X133246691Y-126267947D01*
X133225250Y-126269000D01*
X132712750Y-126269000D01*
X132691309Y-126267947D01*
X132670074Y-126264797D01*
X132649250Y-126259581D01*
X132629038Y-126252349D01*
X132609632Y-126243170D01*
X132591219Y-126232134D01*
X132573976Y-126219346D01*
X132558070Y-126204930D01*
X132543654Y-126189024D01*
X132530866Y-126171781D01*
X132519830Y-126153368D01*
X132510651Y-126133962D01*
X132503419Y-126113750D01*
X132498203Y-126092926D01*
X132495053Y-126071691D01*
X132494000Y-126050250D01*
X132494000Y-125612750D01*
X132495053Y-125591309D01*
X132498203Y-125570074D01*
X132503419Y-125549250D01*
X132510651Y-125529038D01*
X132519830Y-125509632D01*
X132530866Y-125491219D01*
X132543654Y-125473976D01*
X132558070Y-125458070D01*
X132573976Y-125443654D01*
X132591219Y-125430866D01*
X132609632Y-125419830D01*
X132629038Y-125410651D01*
X132649250Y-125403419D01*
X132670074Y-125398203D01*
X132691309Y-125395053D01*
X132712750Y-125394000D01*
X133225250Y-125394000D01*
X133246691Y-125395053D01*
X133246691Y-125395053D01*
G37*
D16*
X132969000Y-125831500D03*
D11*
G36*
X133246691Y-126970053D02*
G01*
X133267926Y-126973203D01*
X133288750Y-126978419D01*
X133308962Y-126985651D01*
X133328368Y-126994830D01*
X133346781Y-127005866D01*
X133364024Y-127018654D01*
X133379930Y-127033070D01*
X133394346Y-127048976D01*
X133407134Y-127066219D01*
X133418170Y-127084632D01*
X133427349Y-127104038D01*
X133434581Y-127124250D01*
X133439797Y-127145074D01*
X133442947Y-127166309D01*
X133444000Y-127187750D01*
X133444000Y-127625250D01*
X133442947Y-127646691D01*
X133439797Y-127667926D01*
X133434581Y-127688750D01*
X133427349Y-127708962D01*
X133418170Y-127728368D01*
X133407134Y-127746781D01*
X133394346Y-127764024D01*
X133379930Y-127779930D01*
X133364024Y-127794346D01*
X133346781Y-127807134D01*
X133328368Y-127818170D01*
X133308962Y-127827349D01*
X133288750Y-127834581D01*
X133267926Y-127839797D01*
X133246691Y-127842947D01*
X133225250Y-127844000D01*
X132712750Y-127844000D01*
X132691309Y-127842947D01*
X132670074Y-127839797D01*
X132649250Y-127834581D01*
X132629038Y-127827349D01*
X132609632Y-127818170D01*
X132591219Y-127807134D01*
X132573976Y-127794346D01*
X132558070Y-127779930D01*
X132543654Y-127764024D01*
X132530866Y-127746781D01*
X132519830Y-127728368D01*
X132510651Y-127708962D01*
X132503419Y-127688750D01*
X132498203Y-127667926D01*
X132495053Y-127646691D01*
X132494000Y-127625250D01*
X132494000Y-127187750D01*
X132495053Y-127166309D01*
X132498203Y-127145074D01*
X132503419Y-127124250D01*
X132510651Y-127104038D01*
X132519830Y-127084632D01*
X132530866Y-127066219D01*
X132543654Y-127048976D01*
X132558070Y-127033070D01*
X132573976Y-127018654D01*
X132591219Y-127005866D01*
X132609632Y-126994830D01*
X132629038Y-126985651D01*
X132649250Y-126978419D01*
X132670074Y-126973203D01*
X132691309Y-126970053D01*
X132712750Y-126969000D01*
X133225250Y-126969000D01*
X133246691Y-126970053D01*
X133246691Y-126970053D01*
G37*
D16*
X132969000Y-127406500D03*
D11*
G36*
X146322611Y-108930973D02*
G01*
X146343846Y-108934123D01*
X146364670Y-108939339D01*
X146384882Y-108946571D01*
X146404288Y-108955750D01*
X146422701Y-108966786D01*
X146439944Y-108979574D01*
X146455850Y-108993990D01*
X146470266Y-109009896D01*
X146483054Y-109027139D01*
X146494090Y-109045552D01*
X146503269Y-109064958D01*
X146510501Y-109085170D01*
X146515717Y-109105994D01*
X146518867Y-109127229D01*
X146519920Y-109148670D01*
X146519920Y-109586170D01*
X146518867Y-109607611D01*
X146515717Y-109628846D01*
X146510501Y-109649670D01*
X146503269Y-109669882D01*
X146494090Y-109689288D01*
X146483054Y-109707701D01*
X146470266Y-109724944D01*
X146455850Y-109740850D01*
X146439944Y-109755266D01*
X146422701Y-109768054D01*
X146404288Y-109779090D01*
X146384882Y-109788269D01*
X146364670Y-109795501D01*
X146343846Y-109800717D01*
X146322611Y-109803867D01*
X146301170Y-109804920D01*
X145788670Y-109804920D01*
X145767229Y-109803867D01*
X145745994Y-109800717D01*
X145725170Y-109795501D01*
X145704958Y-109788269D01*
X145685552Y-109779090D01*
X145667139Y-109768054D01*
X145649896Y-109755266D01*
X145633990Y-109740850D01*
X145619574Y-109724944D01*
X145606786Y-109707701D01*
X145595750Y-109689288D01*
X145586571Y-109669882D01*
X145579339Y-109649670D01*
X145574123Y-109628846D01*
X145570973Y-109607611D01*
X145569920Y-109586170D01*
X145569920Y-109148670D01*
X145570973Y-109127229D01*
X145574123Y-109105994D01*
X145579339Y-109085170D01*
X145586571Y-109064958D01*
X145595750Y-109045552D01*
X145606786Y-109027139D01*
X145619574Y-109009896D01*
X145633990Y-108993990D01*
X145649896Y-108979574D01*
X145667139Y-108966786D01*
X145685552Y-108955750D01*
X145704958Y-108946571D01*
X145725170Y-108939339D01*
X145745994Y-108934123D01*
X145767229Y-108930973D01*
X145788670Y-108929920D01*
X146301170Y-108929920D01*
X146322611Y-108930973D01*
X146322611Y-108930973D01*
G37*
D16*
X146044920Y-109367420D03*
D11*
G36*
X146322611Y-107355973D02*
G01*
X146343846Y-107359123D01*
X146364670Y-107364339D01*
X146384882Y-107371571D01*
X146404288Y-107380750D01*
X146422701Y-107391786D01*
X146439944Y-107404574D01*
X146455850Y-107418990D01*
X146470266Y-107434896D01*
X146483054Y-107452139D01*
X146494090Y-107470552D01*
X146503269Y-107489958D01*
X146510501Y-107510170D01*
X146515717Y-107530994D01*
X146518867Y-107552229D01*
X146519920Y-107573670D01*
X146519920Y-108011170D01*
X146518867Y-108032611D01*
X146515717Y-108053846D01*
X146510501Y-108074670D01*
X146503269Y-108094882D01*
X146494090Y-108114288D01*
X146483054Y-108132701D01*
X146470266Y-108149944D01*
X146455850Y-108165850D01*
X146439944Y-108180266D01*
X146422701Y-108193054D01*
X146404288Y-108204090D01*
X146384882Y-108213269D01*
X146364670Y-108220501D01*
X146343846Y-108225717D01*
X146322611Y-108228867D01*
X146301170Y-108229920D01*
X145788670Y-108229920D01*
X145767229Y-108228867D01*
X145745994Y-108225717D01*
X145725170Y-108220501D01*
X145704958Y-108213269D01*
X145685552Y-108204090D01*
X145667139Y-108193054D01*
X145649896Y-108180266D01*
X145633990Y-108165850D01*
X145619574Y-108149944D01*
X145606786Y-108132701D01*
X145595750Y-108114288D01*
X145586571Y-108094882D01*
X145579339Y-108074670D01*
X145574123Y-108053846D01*
X145570973Y-108032611D01*
X145569920Y-108011170D01*
X145569920Y-107573670D01*
X145570973Y-107552229D01*
X145574123Y-107530994D01*
X145579339Y-107510170D01*
X145586571Y-107489958D01*
X145595750Y-107470552D01*
X145606786Y-107452139D01*
X145619574Y-107434896D01*
X145633990Y-107418990D01*
X145649896Y-107404574D01*
X145667139Y-107391786D01*
X145685552Y-107380750D01*
X145704958Y-107371571D01*
X145725170Y-107364339D01*
X145745994Y-107359123D01*
X145767229Y-107355973D01*
X145788670Y-107354920D01*
X146301170Y-107354920D01*
X146322611Y-107355973D01*
X146322611Y-107355973D01*
G37*
D16*
X146044920Y-107792420D03*
D11*
G36*
X149375691Y-105380053D02*
G01*
X149396926Y-105383203D01*
X149417750Y-105388419D01*
X149437962Y-105395651D01*
X149457368Y-105404830D01*
X149475781Y-105415866D01*
X149493024Y-105428654D01*
X149508930Y-105443070D01*
X149523346Y-105458976D01*
X149536134Y-105476219D01*
X149547170Y-105494632D01*
X149556349Y-105514038D01*
X149563581Y-105534250D01*
X149568797Y-105555074D01*
X149571947Y-105576309D01*
X149573000Y-105597750D01*
X149573000Y-106035250D01*
X149571947Y-106056691D01*
X149568797Y-106077926D01*
X149563581Y-106098750D01*
X149556349Y-106118962D01*
X149547170Y-106138368D01*
X149536134Y-106156781D01*
X149523346Y-106174024D01*
X149508930Y-106189930D01*
X149493024Y-106204346D01*
X149475781Y-106217134D01*
X149457368Y-106228170D01*
X149437962Y-106237349D01*
X149417750Y-106244581D01*
X149396926Y-106249797D01*
X149375691Y-106252947D01*
X149354250Y-106254000D01*
X148841750Y-106254000D01*
X148820309Y-106252947D01*
X148799074Y-106249797D01*
X148778250Y-106244581D01*
X148758038Y-106237349D01*
X148738632Y-106228170D01*
X148720219Y-106217134D01*
X148702976Y-106204346D01*
X148687070Y-106189930D01*
X148672654Y-106174024D01*
X148659866Y-106156781D01*
X148648830Y-106138368D01*
X148639651Y-106118962D01*
X148632419Y-106098750D01*
X148627203Y-106077926D01*
X148624053Y-106056691D01*
X148623000Y-106035250D01*
X148623000Y-105597750D01*
X148624053Y-105576309D01*
X148627203Y-105555074D01*
X148632419Y-105534250D01*
X148639651Y-105514038D01*
X148648830Y-105494632D01*
X148659866Y-105476219D01*
X148672654Y-105458976D01*
X148687070Y-105443070D01*
X148702976Y-105428654D01*
X148720219Y-105415866D01*
X148738632Y-105404830D01*
X148758038Y-105395651D01*
X148778250Y-105388419D01*
X148799074Y-105383203D01*
X148820309Y-105380053D01*
X148841750Y-105379000D01*
X149354250Y-105379000D01*
X149375691Y-105380053D01*
X149375691Y-105380053D01*
G37*
D16*
X149098000Y-105816500D03*
D11*
G36*
X149375691Y-103805053D02*
G01*
X149396926Y-103808203D01*
X149417750Y-103813419D01*
X149437962Y-103820651D01*
X149457368Y-103829830D01*
X149475781Y-103840866D01*
X149493024Y-103853654D01*
X149508930Y-103868070D01*
X149523346Y-103883976D01*
X149536134Y-103901219D01*
X149547170Y-103919632D01*
X149556349Y-103939038D01*
X149563581Y-103959250D01*
X149568797Y-103980074D01*
X149571947Y-104001309D01*
X149573000Y-104022750D01*
X149573000Y-104460250D01*
X149571947Y-104481691D01*
X149568797Y-104502926D01*
X149563581Y-104523750D01*
X149556349Y-104543962D01*
X149547170Y-104563368D01*
X149536134Y-104581781D01*
X149523346Y-104599024D01*
X149508930Y-104614930D01*
X149493024Y-104629346D01*
X149475781Y-104642134D01*
X149457368Y-104653170D01*
X149437962Y-104662349D01*
X149417750Y-104669581D01*
X149396926Y-104674797D01*
X149375691Y-104677947D01*
X149354250Y-104679000D01*
X148841750Y-104679000D01*
X148820309Y-104677947D01*
X148799074Y-104674797D01*
X148778250Y-104669581D01*
X148758038Y-104662349D01*
X148738632Y-104653170D01*
X148720219Y-104642134D01*
X148702976Y-104629346D01*
X148687070Y-104614930D01*
X148672654Y-104599024D01*
X148659866Y-104581781D01*
X148648830Y-104563368D01*
X148639651Y-104543962D01*
X148632419Y-104523750D01*
X148627203Y-104502926D01*
X148624053Y-104481691D01*
X148623000Y-104460250D01*
X148623000Y-104022750D01*
X148624053Y-104001309D01*
X148627203Y-103980074D01*
X148632419Y-103959250D01*
X148639651Y-103939038D01*
X148648830Y-103919632D01*
X148659866Y-103901219D01*
X148672654Y-103883976D01*
X148687070Y-103868070D01*
X148702976Y-103853654D01*
X148720219Y-103840866D01*
X148738632Y-103829830D01*
X148758038Y-103820651D01*
X148778250Y-103813419D01*
X148799074Y-103808203D01*
X148820309Y-103805053D01*
X148841750Y-103804000D01*
X149354250Y-103804000D01*
X149375691Y-103805053D01*
X149375691Y-103805053D01*
G37*
D16*
X149098000Y-104241500D03*
D11*
G36*
X149185691Y-98459053D02*
G01*
X149206926Y-98462203D01*
X149227750Y-98467419D01*
X149247962Y-98474651D01*
X149267368Y-98483830D01*
X149285781Y-98494866D01*
X149303024Y-98507654D01*
X149318930Y-98522070D01*
X149333346Y-98537976D01*
X149346134Y-98555219D01*
X149357170Y-98573632D01*
X149366349Y-98593038D01*
X149373581Y-98613250D01*
X149378797Y-98634074D01*
X149381947Y-98655309D01*
X149383000Y-98676750D01*
X149383000Y-99189250D01*
X149381947Y-99210691D01*
X149378797Y-99231926D01*
X149373581Y-99252750D01*
X149366349Y-99272962D01*
X149357170Y-99292368D01*
X149346134Y-99310781D01*
X149333346Y-99328024D01*
X149318930Y-99343930D01*
X149303024Y-99358346D01*
X149285781Y-99371134D01*
X149267368Y-99382170D01*
X149247962Y-99391349D01*
X149227750Y-99398581D01*
X149206926Y-99403797D01*
X149185691Y-99406947D01*
X149164250Y-99408000D01*
X148726750Y-99408000D01*
X148705309Y-99406947D01*
X148684074Y-99403797D01*
X148663250Y-99398581D01*
X148643038Y-99391349D01*
X148623632Y-99382170D01*
X148605219Y-99371134D01*
X148587976Y-99358346D01*
X148572070Y-99343930D01*
X148557654Y-99328024D01*
X148544866Y-99310781D01*
X148533830Y-99292368D01*
X148524651Y-99272962D01*
X148517419Y-99252750D01*
X148512203Y-99231926D01*
X148509053Y-99210691D01*
X148508000Y-99189250D01*
X148508000Y-98676750D01*
X148509053Y-98655309D01*
X148512203Y-98634074D01*
X148517419Y-98613250D01*
X148524651Y-98593038D01*
X148533830Y-98573632D01*
X148544866Y-98555219D01*
X148557654Y-98537976D01*
X148572070Y-98522070D01*
X148587976Y-98507654D01*
X148605219Y-98494866D01*
X148623632Y-98483830D01*
X148643038Y-98474651D01*
X148663250Y-98467419D01*
X148684074Y-98462203D01*
X148705309Y-98459053D01*
X148726750Y-98458000D01*
X149164250Y-98458000D01*
X149185691Y-98459053D01*
X149185691Y-98459053D01*
G37*
D16*
X148945500Y-98933000D03*
D11*
G36*
X150760691Y-98459053D02*
G01*
X150781926Y-98462203D01*
X150802750Y-98467419D01*
X150822962Y-98474651D01*
X150842368Y-98483830D01*
X150860781Y-98494866D01*
X150878024Y-98507654D01*
X150893930Y-98522070D01*
X150908346Y-98537976D01*
X150921134Y-98555219D01*
X150932170Y-98573632D01*
X150941349Y-98593038D01*
X150948581Y-98613250D01*
X150953797Y-98634074D01*
X150956947Y-98655309D01*
X150958000Y-98676750D01*
X150958000Y-99189250D01*
X150956947Y-99210691D01*
X150953797Y-99231926D01*
X150948581Y-99252750D01*
X150941349Y-99272962D01*
X150932170Y-99292368D01*
X150921134Y-99310781D01*
X150908346Y-99328024D01*
X150893930Y-99343930D01*
X150878024Y-99358346D01*
X150860781Y-99371134D01*
X150842368Y-99382170D01*
X150822962Y-99391349D01*
X150802750Y-99398581D01*
X150781926Y-99403797D01*
X150760691Y-99406947D01*
X150739250Y-99408000D01*
X150301750Y-99408000D01*
X150280309Y-99406947D01*
X150259074Y-99403797D01*
X150238250Y-99398581D01*
X150218038Y-99391349D01*
X150198632Y-99382170D01*
X150180219Y-99371134D01*
X150162976Y-99358346D01*
X150147070Y-99343930D01*
X150132654Y-99328024D01*
X150119866Y-99310781D01*
X150108830Y-99292368D01*
X150099651Y-99272962D01*
X150092419Y-99252750D01*
X150087203Y-99231926D01*
X150084053Y-99210691D01*
X150083000Y-99189250D01*
X150083000Y-98676750D01*
X150084053Y-98655309D01*
X150087203Y-98634074D01*
X150092419Y-98613250D01*
X150099651Y-98593038D01*
X150108830Y-98573632D01*
X150119866Y-98555219D01*
X150132654Y-98537976D01*
X150147070Y-98522070D01*
X150162976Y-98507654D01*
X150180219Y-98494866D01*
X150198632Y-98483830D01*
X150218038Y-98474651D01*
X150238250Y-98467419D01*
X150259074Y-98462203D01*
X150280309Y-98459053D01*
X150301750Y-98458000D01*
X150739250Y-98458000D01*
X150760691Y-98459053D01*
X150760691Y-98459053D01*
G37*
D16*
X150520500Y-98933000D03*
D11*
G36*
X141819691Y-96173053D02*
G01*
X141840926Y-96176203D01*
X141861750Y-96181419D01*
X141881962Y-96188651D01*
X141901368Y-96197830D01*
X141919781Y-96208866D01*
X141937024Y-96221654D01*
X141952930Y-96236070D01*
X141967346Y-96251976D01*
X141980134Y-96269219D01*
X141991170Y-96287632D01*
X142000349Y-96307038D01*
X142007581Y-96327250D01*
X142012797Y-96348074D01*
X142015947Y-96369309D01*
X142017000Y-96390750D01*
X142017000Y-96903250D01*
X142015947Y-96924691D01*
X142012797Y-96945926D01*
X142007581Y-96966750D01*
X142000349Y-96986962D01*
X141991170Y-97006368D01*
X141980134Y-97024781D01*
X141967346Y-97042024D01*
X141952930Y-97057930D01*
X141937024Y-97072346D01*
X141919781Y-97085134D01*
X141901368Y-97096170D01*
X141881962Y-97105349D01*
X141861750Y-97112581D01*
X141840926Y-97117797D01*
X141819691Y-97120947D01*
X141798250Y-97122000D01*
X141360750Y-97122000D01*
X141339309Y-97120947D01*
X141318074Y-97117797D01*
X141297250Y-97112581D01*
X141277038Y-97105349D01*
X141257632Y-97096170D01*
X141239219Y-97085134D01*
X141221976Y-97072346D01*
X141206070Y-97057930D01*
X141191654Y-97042024D01*
X141178866Y-97024781D01*
X141167830Y-97006368D01*
X141158651Y-96986962D01*
X141151419Y-96966750D01*
X141146203Y-96945926D01*
X141143053Y-96924691D01*
X141142000Y-96903250D01*
X141142000Y-96390750D01*
X141143053Y-96369309D01*
X141146203Y-96348074D01*
X141151419Y-96327250D01*
X141158651Y-96307038D01*
X141167830Y-96287632D01*
X141178866Y-96269219D01*
X141191654Y-96251976D01*
X141206070Y-96236070D01*
X141221976Y-96221654D01*
X141239219Y-96208866D01*
X141257632Y-96197830D01*
X141277038Y-96188651D01*
X141297250Y-96181419D01*
X141318074Y-96176203D01*
X141339309Y-96173053D01*
X141360750Y-96172000D01*
X141798250Y-96172000D01*
X141819691Y-96173053D01*
X141819691Y-96173053D01*
G37*
D16*
X141579500Y-96647000D03*
D11*
G36*
X143394691Y-96173053D02*
G01*
X143415926Y-96176203D01*
X143436750Y-96181419D01*
X143456962Y-96188651D01*
X143476368Y-96197830D01*
X143494781Y-96208866D01*
X143512024Y-96221654D01*
X143527930Y-96236070D01*
X143542346Y-96251976D01*
X143555134Y-96269219D01*
X143566170Y-96287632D01*
X143575349Y-96307038D01*
X143582581Y-96327250D01*
X143587797Y-96348074D01*
X143590947Y-96369309D01*
X143592000Y-96390750D01*
X143592000Y-96903250D01*
X143590947Y-96924691D01*
X143587797Y-96945926D01*
X143582581Y-96966750D01*
X143575349Y-96986962D01*
X143566170Y-97006368D01*
X143555134Y-97024781D01*
X143542346Y-97042024D01*
X143527930Y-97057930D01*
X143512024Y-97072346D01*
X143494781Y-97085134D01*
X143476368Y-97096170D01*
X143456962Y-97105349D01*
X143436750Y-97112581D01*
X143415926Y-97117797D01*
X143394691Y-97120947D01*
X143373250Y-97122000D01*
X142935750Y-97122000D01*
X142914309Y-97120947D01*
X142893074Y-97117797D01*
X142872250Y-97112581D01*
X142852038Y-97105349D01*
X142832632Y-97096170D01*
X142814219Y-97085134D01*
X142796976Y-97072346D01*
X142781070Y-97057930D01*
X142766654Y-97042024D01*
X142753866Y-97024781D01*
X142742830Y-97006368D01*
X142733651Y-96986962D01*
X142726419Y-96966750D01*
X142721203Y-96945926D01*
X142718053Y-96924691D01*
X142717000Y-96903250D01*
X142717000Y-96390750D01*
X142718053Y-96369309D01*
X142721203Y-96348074D01*
X142726419Y-96327250D01*
X142733651Y-96307038D01*
X142742830Y-96287632D01*
X142753866Y-96269219D01*
X142766654Y-96251976D01*
X142781070Y-96236070D01*
X142796976Y-96221654D01*
X142814219Y-96208866D01*
X142832632Y-96197830D01*
X142852038Y-96188651D01*
X142872250Y-96181419D01*
X142893074Y-96176203D01*
X142914309Y-96173053D01*
X142935750Y-96172000D01*
X143373250Y-96172000D01*
X143394691Y-96173053D01*
X143394691Y-96173053D01*
G37*
D16*
X143154500Y-96647000D03*
D11*
G36*
X152169691Y-105380053D02*
G01*
X152190926Y-105383203D01*
X152211750Y-105388419D01*
X152231962Y-105395651D01*
X152251368Y-105404830D01*
X152269781Y-105415866D01*
X152287024Y-105428654D01*
X152302930Y-105443070D01*
X152317346Y-105458976D01*
X152330134Y-105476219D01*
X152341170Y-105494632D01*
X152350349Y-105514038D01*
X152357581Y-105534250D01*
X152362797Y-105555074D01*
X152365947Y-105576309D01*
X152367000Y-105597750D01*
X152367000Y-106035250D01*
X152365947Y-106056691D01*
X152362797Y-106077926D01*
X152357581Y-106098750D01*
X152350349Y-106118962D01*
X152341170Y-106138368D01*
X152330134Y-106156781D01*
X152317346Y-106174024D01*
X152302930Y-106189930D01*
X152287024Y-106204346D01*
X152269781Y-106217134D01*
X152251368Y-106228170D01*
X152231962Y-106237349D01*
X152211750Y-106244581D01*
X152190926Y-106249797D01*
X152169691Y-106252947D01*
X152148250Y-106254000D01*
X151635750Y-106254000D01*
X151614309Y-106252947D01*
X151593074Y-106249797D01*
X151572250Y-106244581D01*
X151552038Y-106237349D01*
X151532632Y-106228170D01*
X151514219Y-106217134D01*
X151496976Y-106204346D01*
X151481070Y-106189930D01*
X151466654Y-106174024D01*
X151453866Y-106156781D01*
X151442830Y-106138368D01*
X151433651Y-106118962D01*
X151426419Y-106098750D01*
X151421203Y-106077926D01*
X151418053Y-106056691D01*
X151417000Y-106035250D01*
X151417000Y-105597750D01*
X151418053Y-105576309D01*
X151421203Y-105555074D01*
X151426419Y-105534250D01*
X151433651Y-105514038D01*
X151442830Y-105494632D01*
X151453866Y-105476219D01*
X151466654Y-105458976D01*
X151481070Y-105443070D01*
X151496976Y-105428654D01*
X151514219Y-105415866D01*
X151532632Y-105404830D01*
X151552038Y-105395651D01*
X151572250Y-105388419D01*
X151593074Y-105383203D01*
X151614309Y-105380053D01*
X151635750Y-105379000D01*
X152148250Y-105379000D01*
X152169691Y-105380053D01*
X152169691Y-105380053D01*
G37*
D16*
X151892000Y-105816500D03*
D11*
G36*
X152169691Y-103805053D02*
G01*
X152190926Y-103808203D01*
X152211750Y-103813419D01*
X152231962Y-103820651D01*
X152251368Y-103829830D01*
X152269781Y-103840866D01*
X152287024Y-103853654D01*
X152302930Y-103868070D01*
X152317346Y-103883976D01*
X152330134Y-103901219D01*
X152341170Y-103919632D01*
X152350349Y-103939038D01*
X152357581Y-103959250D01*
X152362797Y-103980074D01*
X152365947Y-104001309D01*
X152367000Y-104022750D01*
X152367000Y-104460250D01*
X152365947Y-104481691D01*
X152362797Y-104502926D01*
X152357581Y-104523750D01*
X152350349Y-104543962D01*
X152341170Y-104563368D01*
X152330134Y-104581781D01*
X152317346Y-104599024D01*
X152302930Y-104614930D01*
X152287024Y-104629346D01*
X152269781Y-104642134D01*
X152251368Y-104653170D01*
X152231962Y-104662349D01*
X152211750Y-104669581D01*
X152190926Y-104674797D01*
X152169691Y-104677947D01*
X152148250Y-104679000D01*
X151635750Y-104679000D01*
X151614309Y-104677947D01*
X151593074Y-104674797D01*
X151572250Y-104669581D01*
X151552038Y-104662349D01*
X151532632Y-104653170D01*
X151514219Y-104642134D01*
X151496976Y-104629346D01*
X151481070Y-104614930D01*
X151466654Y-104599024D01*
X151453866Y-104581781D01*
X151442830Y-104563368D01*
X151433651Y-104543962D01*
X151426419Y-104523750D01*
X151421203Y-104502926D01*
X151418053Y-104481691D01*
X151417000Y-104460250D01*
X151417000Y-104022750D01*
X151418053Y-104001309D01*
X151421203Y-103980074D01*
X151426419Y-103959250D01*
X151433651Y-103939038D01*
X151442830Y-103919632D01*
X151453866Y-103901219D01*
X151466654Y-103883976D01*
X151481070Y-103868070D01*
X151496976Y-103853654D01*
X151514219Y-103840866D01*
X151532632Y-103829830D01*
X151552038Y-103820651D01*
X151572250Y-103813419D01*
X151593074Y-103808203D01*
X151614309Y-103805053D01*
X151635750Y-103804000D01*
X152148250Y-103804000D01*
X152169691Y-103805053D01*
X152169691Y-103805053D01*
G37*
D16*
X151892000Y-104241500D03*
D11*
G36*
X136358691Y-99856053D02*
G01*
X136379926Y-99859203D01*
X136400750Y-99864419D01*
X136420962Y-99871651D01*
X136440368Y-99880830D01*
X136458781Y-99891866D01*
X136476024Y-99904654D01*
X136491930Y-99919070D01*
X136506346Y-99934976D01*
X136519134Y-99952219D01*
X136530170Y-99970632D01*
X136539349Y-99990038D01*
X136546581Y-100010250D01*
X136551797Y-100031074D01*
X136554947Y-100052309D01*
X136556000Y-100073750D01*
X136556000Y-100586250D01*
X136554947Y-100607691D01*
X136551797Y-100628926D01*
X136546581Y-100649750D01*
X136539349Y-100669962D01*
X136530170Y-100689368D01*
X136519134Y-100707781D01*
X136506346Y-100725024D01*
X136491930Y-100740930D01*
X136476024Y-100755346D01*
X136458781Y-100768134D01*
X136440368Y-100779170D01*
X136420962Y-100788349D01*
X136400750Y-100795581D01*
X136379926Y-100800797D01*
X136358691Y-100803947D01*
X136337250Y-100805000D01*
X135899750Y-100805000D01*
X135878309Y-100803947D01*
X135857074Y-100800797D01*
X135836250Y-100795581D01*
X135816038Y-100788349D01*
X135796632Y-100779170D01*
X135778219Y-100768134D01*
X135760976Y-100755346D01*
X135745070Y-100740930D01*
X135730654Y-100725024D01*
X135717866Y-100707781D01*
X135706830Y-100689368D01*
X135697651Y-100669962D01*
X135690419Y-100649750D01*
X135685203Y-100628926D01*
X135682053Y-100607691D01*
X135681000Y-100586250D01*
X135681000Y-100073750D01*
X135682053Y-100052309D01*
X135685203Y-100031074D01*
X135690419Y-100010250D01*
X135697651Y-99990038D01*
X135706830Y-99970632D01*
X135717866Y-99952219D01*
X135730654Y-99934976D01*
X135745070Y-99919070D01*
X135760976Y-99904654D01*
X135778219Y-99891866D01*
X135796632Y-99880830D01*
X135816038Y-99871651D01*
X135836250Y-99864419D01*
X135857074Y-99859203D01*
X135878309Y-99856053D01*
X135899750Y-99855000D01*
X136337250Y-99855000D01*
X136358691Y-99856053D01*
X136358691Y-99856053D01*
G37*
D16*
X136118500Y-100330000D03*
D11*
G36*
X137933691Y-99856053D02*
G01*
X137954926Y-99859203D01*
X137975750Y-99864419D01*
X137995962Y-99871651D01*
X138015368Y-99880830D01*
X138033781Y-99891866D01*
X138051024Y-99904654D01*
X138066930Y-99919070D01*
X138081346Y-99934976D01*
X138094134Y-99952219D01*
X138105170Y-99970632D01*
X138114349Y-99990038D01*
X138121581Y-100010250D01*
X138126797Y-100031074D01*
X138129947Y-100052309D01*
X138131000Y-100073750D01*
X138131000Y-100586250D01*
X138129947Y-100607691D01*
X138126797Y-100628926D01*
X138121581Y-100649750D01*
X138114349Y-100669962D01*
X138105170Y-100689368D01*
X138094134Y-100707781D01*
X138081346Y-100725024D01*
X138066930Y-100740930D01*
X138051024Y-100755346D01*
X138033781Y-100768134D01*
X138015368Y-100779170D01*
X137995962Y-100788349D01*
X137975750Y-100795581D01*
X137954926Y-100800797D01*
X137933691Y-100803947D01*
X137912250Y-100805000D01*
X137474750Y-100805000D01*
X137453309Y-100803947D01*
X137432074Y-100800797D01*
X137411250Y-100795581D01*
X137391038Y-100788349D01*
X137371632Y-100779170D01*
X137353219Y-100768134D01*
X137335976Y-100755346D01*
X137320070Y-100740930D01*
X137305654Y-100725024D01*
X137292866Y-100707781D01*
X137281830Y-100689368D01*
X137272651Y-100669962D01*
X137265419Y-100649750D01*
X137260203Y-100628926D01*
X137257053Y-100607691D01*
X137256000Y-100586250D01*
X137256000Y-100073750D01*
X137257053Y-100052309D01*
X137260203Y-100031074D01*
X137265419Y-100010250D01*
X137272651Y-99990038D01*
X137281830Y-99970632D01*
X137292866Y-99952219D01*
X137305654Y-99934976D01*
X137320070Y-99919070D01*
X137335976Y-99904654D01*
X137353219Y-99891866D01*
X137371632Y-99880830D01*
X137391038Y-99871651D01*
X137411250Y-99864419D01*
X137432074Y-99859203D01*
X137453309Y-99856053D01*
X137474750Y-99855000D01*
X137912250Y-99855000D01*
X137933691Y-99856053D01*
X137933691Y-99856053D01*
G37*
D16*
X137693500Y-100330000D03*
D23*
X135509000Y-134696200D03*
X134239000Y-134696200D03*
X132969000Y-134696200D03*
X131699000Y-134696200D03*
X131699000Y-129463800D03*
X132969000Y-129463800D03*
X134239000Y-129463800D03*
X135509000Y-129463800D03*
D11*
G36*
X142390691Y-92756053D02*
G01*
X142411926Y-92759203D01*
X142432750Y-92764419D01*
X142452962Y-92771651D01*
X142472368Y-92780830D01*
X142490781Y-92791866D01*
X142508024Y-92804654D01*
X142523930Y-92819070D01*
X142538346Y-92834976D01*
X142551134Y-92852219D01*
X142562170Y-92870632D01*
X142571349Y-92890038D01*
X142578581Y-92910250D01*
X142583797Y-92931074D01*
X142586947Y-92952309D01*
X142588000Y-92973750D01*
X142588000Y-93411250D01*
X142586947Y-93432691D01*
X142583797Y-93453926D01*
X142578581Y-93474750D01*
X142571349Y-93494962D01*
X142562170Y-93514368D01*
X142551134Y-93532781D01*
X142538346Y-93550024D01*
X142523930Y-93565930D01*
X142508024Y-93580346D01*
X142490781Y-93593134D01*
X142472368Y-93604170D01*
X142452962Y-93613349D01*
X142432750Y-93620581D01*
X142411926Y-93625797D01*
X142390691Y-93628947D01*
X142369250Y-93630000D01*
X141856750Y-93630000D01*
X141835309Y-93628947D01*
X141814074Y-93625797D01*
X141793250Y-93620581D01*
X141773038Y-93613349D01*
X141753632Y-93604170D01*
X141735219Y-93593134D01*
X141717976Y-93580346D01*
X141702070Y-93565930D01*
X141687654Y-93550024D01*
X141674866Y-93532781D01*
X141663830Y-93514368D01*
X141654651Y-93494962D01*
X141647419Y-93474750D01*
X141642203Y-93453926D01*
X141639053Y-93432691D01*
X141638000Y-93411250D01*
X141638000Y-92973750D01*
X141639053Y-92952309D01*
X141642203Y-92931074D01*
X141647419Y-92910250D01*
X141654651Y-92890038D01*
X141663830Y-92870632D01*
X141674866Y-92852219D01*
X141687654Y-92834976D01*
X141702070Y-92819070D01*
X141717976Y-92804654D01*
X141735219Y-92791866D01*
X141753632Y-92780830D01*
X141773038Y-92771651D01*
X141793250Y-92764419D01*
X141814074Y-92759203D01*
X141835309Y-92756053D01*
X141856750Y-92755000D01*
X142369250Y-92755000D01*
X142390691Y-92756053D01*
X142390691Y-92756053D01*
G37*
D16*
X142113000Y-93192500D03*
D11*
G36*
X142390691Y-94331053D02*
G01*
X142411926Y-94334203D01*
X142432750Y-94339419D01*
X142452962Y-94346651D01*
X142472368Y-94355830D01*
X142490781Y-94366866D01*
X142508024Y-94379654D01*
X142523930Y-94394070D01*
X142538346Y-94409976D01*
X142551134Y-94427219D01*
X142562170Y-94445632D01*
X142571349Y-94465038D01*
X142578581Y-94485250D01*
X142583797Y-94506074D01*
X142586947Y-94527309D01*
X142588000Y-94548750D01*
X142588000Y-94986250D01*
X142586947Y-95007691D01*
X142583797Y-95028926D01*
X142578581Y-95049750D01*
X142571349Y-95069962D01*
X142562170Y-95089368D01*
X142551134Y-95107781D01*
X142538346Y-95125024D01*
X142523930Y-95140930D01*
X142508024Y-95155346D01*
X142490781Y-95168134D01*
X142472368Y-95179170D01*
X142452962Y-95188349D01*
X142432750Y-95195581D01*
X142411926Y-95200797D01*
X142390691Y-95203947D01*
X142369250Y-95205000D01*
X141856750Y-95205000D01*
X141835309Y-95203947D01*
X141814074Y-95200797D01*
X141793250Y-95195581D01*
X141773038Y-95188349D01*
X141753632Y-95179170D01*
X141735219Y-95168134D01*
X141717976Y-95155346D01*
X141702070Y-95140930D01*
X141687654Y-95125024D01*
X141674866Y-95107781D01*
X141663830Y-95089368D01*
X141654651Y-95069962D01*
X141647419Y-95049750D01*
X141642203Y-95028926D01*
X141639053Y-95007691D01*
X141638000Y-94986250D01*
X141638000Y-94548750D01*
X141639053Y-94527309D01*
X141642203Y-94506074D01*
X141647419Y-94485250D01*
X141654651Y-94465038D01*
X141663830Y-94445632D01*
X141674866Y-94427219D01*
X141687654Y-94409976D01*
X141702070Y-94394070D01*
X141717976Y-94379654D01*
X141735219Y-94366866D01*
X141753632Y-94355830D01*
X141773038Y-94346651D01*
X141793250Y-94339419D01*
X141814074Y-94334203D01*
X141835309Y-94331053D01*
X141856750Y-94330000D01*
X142369250Y-94330000D01*
X142390691Y-94331053D01*
X142390691Y-94331053D01*
G37*
D16*
X142113000Y-94767500D03*
D11*
G36*
X170203691Y-100427053D02*
G01*
X170224926Y-100430203D01*
X170245750Y-100435419D01*
X170265962Y-100442651D01*
X170285368Y-100451830D01*
X170303781Y-100462866D01*
X170321024Y-100475654D01*
X170336930Y-100490070D01*
X170351346Y-100505976D01*
X170364134Y-100523219D01*
X170375170Y-100541632D01*
X170384349Y-100561038D01*
X170391581Y-100581250D01*
X170396797Y-100602074D01*
X170399947Y-100623309D01*
X170401000Y-100644750D01*
X170401000Y-101082250D01*
X170399947Y-101103691D01*
X170396797Y-101124926D01*
X170391581Y-101145750D01*
X170384349Y-101165962D01*
X170375170Y-101185368D01*
X170364134Y-101203781D01*
X170351346Y-101221024D01*
X170336930Y-101236930D01*
X170321024Y-101251346D01*
X170303781Y-101264134D01*
X170285368Y-101275170D01*
X170265962Y-101284349D01*
X170245750Y-101291581D01*
X170224926Y-101296797D01*
X170203691Y-101299947D01*
X170182250Y-101301000D01*
X169669750Y-101301000D01*
X169648309Y-101299947D01*
X169627074Y-101296797D01*
X169606250Y-101291581D01*
X169586038Y-101284349D01*
X169566632Y-101275170D01*
X169548219Y-101264134D01*
X169530976Y-101251346D01*
X169515070Y-101236930D01*
X169500654Y-101221024D01*
X169487866Y-101203781D01*
X169476830Y-101185368D01*
X169467651Y-101165962D01*
X169460419Y-101145750D01*
X169455203Y-101124926D01*
X169452053Y-101103691D01*
X169451000Y-101082250D01*
X169451000Y-100644750D01*
X169452053Y-100623309D01*
X169455203Y-100602074D01*
X169460419Y-100581250D01*
X169467651Y-100561038D01*
X169476830Y-100541632D01*
X169487866Y-100523219D01*
X169500654Y-100505976D01*
X169515070Y-100490070D01*
X169530976Y-100475654D01*
X169548219Y-100462866D01*
X169566632Y-100451830D01*
X169586038Y-100442651D01*
X169606250Y-100435419D01*
X169627074Y-100430203D01*
X169648309Y-100427053D01*
X169669750Y-100426000D01*
X170182250Y-100426000D01*
X170203691Y-100427053D01*
X170203691Y-100427053D01*
G37*
D16*
X169926000Y-100863500D03*
D11*
G36*
X170203691Y-98852053D02*
G01*
X170224926Y-98855203D01*
X170245750Y-98860419D01*
X170265962Y-98867651D01*
X170285368Y-98876830D01*
X170303781Y-98887866D01*
X170321024Y-98900654D01*
X170336930Y-98915070D01*
X170351346Y-98930976D01*
X170364134Y-98948219D01*
X170375170Y-98966632D01*
X170384349Y-98986038D01*
X170391581Y-99006250D01*
X170396797Y-99027074D01*
X170399947Y-99048309D01*
X170401000Y-99069750D01*
X170401000Y-99507250D01*
X170399947Y-99528691D01*
X170396797Y-99549926D01*
X170391581Y-99570750D01*
X170384349Y-99590962D01*
X170375170Y-99610368D01*
X170364134Y-99628781D01*
X170351346Y-99646024D01*
X170336930Y-99661930D01*
X170321024Y-99676346D01*
X170303781Y-99689134D01*
X170285368Y-99700170D01*
X170265962Y-99709349D01*
X170245750Y-99716581D01*
X170224926Y-99721797D01*
X170203691Y-99724947D01*
X170182250Y-99726000D01*
X169669750Y-99726000D01*
X169648309Y-99724947D01*
X169627074Y-99721797D01*
X169606250Y-99716581D01*
X169586038Y-99709349D01*
X169566632Y-99700170D01*
X169548219Y-99689134D01*
X169530976Y-99676346D01*
X169515070Y-99661930D01*
X169500654Y-99646024D01*
X169487866Y-99628781D01*
X169476830Y-99610368D01*
X169467651Y-99590962D01*
X169460419Y-99570750D01*
X169455203Y-99549926D01*
X169452053Y-99528691D01*
X169451000Y-99507250D01*
X169451000Y-99069750D01*
X169452053Y-99048309D01*
X169455203Y-99027074D01*
X169460419Y-99006250D01*
X169467651Y-98986038D01*
X169476830Y-98966632D01*
X169487866Y-98948219D01*
X169500654Y-98930976D01*
X169515070Y-98915070D01*
X169530976Y-98900654D01*
X169548219Y-98887866D01*
X169566632Y-98876830D01*
X169586038Y-98867651D01*
X169606250Y-98860419D01*
X169627074Y-98855203D01*
X169648309Y-98852053D01*
X169669750Y-98851000D01*
X170182250Y-98851000D01*
X170203691Y-98852053D01*
X170203691Y-98852053D01*
G37*
D16*
X169926000Y-99288500D03*
D11*
G36*
X168171691Y-97299024D02*
G01*
X168192926Y-97302174D01*
X168213750Y-97307390D01*
X168233962Y-97314622D01*
X168253368Y-97323801D01*
X168271781Y-97334837D01*
X168289024Y-97347625D01*
X168304930Y-97362041D01*
X168319346Y-97377947D01*
X168332134Y-97395190D01*
X168343170Y-97413603D01*
X168352349Y-97433009D01*
X168359581Y-97453221D01*
X168364797Y-97474045D01*
X168367947Y-97495280D01*
X168369000Y-97516721D01*
X168369000Y-97954221D01*
X168367947Y-97975662D01*
X168364797Y-97996897D01*
X168359581Y-98017721D01*
X168352349Y-98037933D01*
X168343170Y-98057339D01*
X168332134Y-98075752D01*
X168319346Y-98092995D01*
X168304930Y-98108901D01*
X168289024Y-98123317D01*
X168271781Y-98136105D01*
X168253368Y-98147141D01*
X168233962Y-98156320D01*
X168213750Y-98163552D01*
X168192926Y-98168768D01*
X168171691Y-98171918D01*
X168150250Y-98172971D01*
X167637750Y-98172971D01*
X167616309Y-98171918D01*
X167595074Y-98168768D01*
X167574250Y-98163552D01*
X167554038Y-98156320D01*
X167534632Y-98147141D01*
X167516219Y-98136105D01*
X167498976Y-98123317D01*
X167483070Y-98108901D01*
X167468654Y-98092995D01*
X167455866Y-98075752D01*
X167444830Y-98057339D01*
X167435651Y-98037933D01*
X167428419Y-98017721D01*
X167423203Y-97996897D01*
X167420053Y-97975662D01*
X167419000Y-97954221D01*
X167419000Y-97516721D01*
X167420053Y-97495280D01*
X167423203Y-97474045D01*
X167428419Y-97453221D01*
X167435651Y-97433009D01*
X167444830Y-97413603D01*
X167455866Y-97395190D01*
X167468654Y-97377947D01*
X167483070Y-97362041D01*
X167498976Y-97347625D01*
X167516219Y-97334837D01*
X167534632Y-97323801D01*
X167554038Y-97314622D01*
X167574250Y-97307390D01*
X167595074Y-97302174D01*
X167616309Y-97299024D01*
X167637750Y-97297971D01*
X168150250Y-97297971D01*
X168171691Y-97299024D01*
X168171691Y-97299024D01*
G37*
D16*
X167894000Y-97735471D03*
D11*
G36*
X168171691Y-98874024D02*
G01*
X168192926Y-98877174D01*
X168213750Y-98882390D01*
X168233962Y-98889622D01*
X168253368Y-98898801D01*
X168271781Y-98909837D01*
X168289024Y-98922625D01*
X168304930Y-98937041D01*
X168319346Y-98952947D01*
X168332134Y-98970190D01*
X168343170Y-98988603D01*
X168352349Y-99008009D01*
X168359581Y-99028221D01*
X168364797Y-99049045D01*
X168367947Y-99070280D01*
X168369000Y-99091721D01*
X168369000Y-99529221D01*
X168367947Y-99550662D01*
X168364797Y-99571897D01*
X168359581Y-99592721D01*
X168352349Y-99612933D01*
X168343170Y-99632339D01*
X168332134Y-99650752D01*
X168319346Y-99667995D01*
X168304930Y-99683901D01*
X168289024Y-99698317D01*
X168271781Y-99711105D01*
X168253368Y-99722141D01*
X168233962Y-99731320D01*
X168213750Y-99738552D01*
X168192926Y-99743768D01*
X168171691Y-99746918D01*
X168150250Y-99747971D01*
X167637750Y-99747971D01*
X167616309Y-99746918D01*
X167595074Y-99743768D01*
X167574250Y-99738552D01*
X167554038Y-99731320D01*
X167534632Y-99722141D01*
X167516219Y-99711105D01*
X167498976Y-99698317D01*
X167483070Y-99683901D01*
X167468654Y-99667995D01*
X167455866Y-99650752D01*
X167444830Y-99632339D01*
X167435651Y-99612933D01*
X167428419Y-99592721D01*
X167423203Y-99571897D01*
X167420053Y-99550662D01*
X167419000Y-99529221D01*
X167419000Y-99091721D01*
X167420053Y-99070280D01*
X167423203Y-99049045D01*
X167428419Y-99028221D01*
X167435651Y-99008009D01*
X167444830Y-98988603D01*
X167455866Y-98970190D01*
X167468654Y-98952947D01*
X167483070Y-98937041D01*
X167498976Y-98922625D01*
X167516219Y-98909837D01*
X167534632Y-98898801D01*
X167554038Y-98889622D01*
X167574250Y-98882390D01*
X167595074Y-98877174D01*
X167616309Y-98874024D01*
X167637750Y-98872971D01*
X168150250Y-98872971D01*
X168171691Y-98874024D01*
X168171691Y-98874024D01*
G37*
D16*
X167894000Y-99310471D03*
D11*
G36*
X130198691Y-133904053D02*
G01*
X130219926Y-133907203D01*
X130240750Y-133912419D01*
X130260962Y-133919651D01*
X130280368Y-133928830D01*
X130298781Y-133939866D01*
X130316024Y-133952654D01*
X130331930Y-133967070D01*
X130346346Y-133982976D01*
X130359134Y-134000219D01*
X130370170Y-134018632D01*
X130379349Y-134038038D01*
X130386581Y-134058250D01*
X130391797Y-134079074D01*
X130394947Y-134100309D01*
X130396000Y-134121750D01*
X130396000Y-134559250D01*
X130394947Y-134580691D01*
X130391797Y-134601926D01*
X130386581Y-134622750D01*
X130379349Y-134642962D01*
X130370170Y-134662368D01*
X130359134Y-134680781D01*
X130346346Y-134698024D01*
X130331930Y-134713930D01*
X130316024Y-134728346D01*
X130298781Y-134741134D01*
X130280368Y-134752170D01*
X130260962Y-134761349D01*
X130240750Y-134768581D01*
X130219926Y-134773797D01*
X130198691Y-134776947D01*
X130177250Y-134778000D01*
X129664750Y-134778000D01*
X129643309Y-134776947D01*
X129622074Y-134773797D01*
X129601250Y-134768581D01*
X129581038Y-134761349D01*
X129561632Y-134752170D01*
X129543219Y-134741134D01*
X129525976Y-134728346D01*
X129510070Y-134713930D01*
X129495654Y-134698024D01*
X129482866Y-134680781D01*
X129471830Y-134662368D01*
X129462651Y-134642962D01*
X129455419Y-134622750D01*
X129450203Y-134601926D01*
X129447053Y-134580691D01*
X129446000Y-134559250D01*
X129446000Y-134121750D01*
X129447053Y-134100309D01*
X129450203Y-134079074D01*
X129455419Y-134058250D01*
X129462651Y-134038038D01*
X129471830Y-134018632D01*
X129482866Y-134000219D01*
X129495654Y-133982976D01*
X129510070Y-133967070D01*
X129525976Y-133952654D01*
X129543219Y-133939866D01*
X129561632Y-133928830D01*
X129581038Y-133919651D01*
X129601250Y-133912419D01*
X129622074Y-133907203D01*
X129643309Y-133904053D01*
X129664750Y-133903000D01*
X130177250Y-133903000D01*
X130198691Y-133904053D01*
X130198691Y-133904053D01*
G37*
D16*
X129921000Y-134340500D03*
D11*
G36*
X130198691Y-135479053D02*
G01*
X130219926Y-135482203D01*
X130240750Y-135487419D01*
X130260962Y-135494651D01*
X130280368Y-135503830D01*
X130298781Y-135514866D01*
X130316024Y-135527654D01*
X130331930Y-135542070D01*
X130346346Y-135557976D01*
X130359134Y-135575219D01*
X130370170Y-135593632D01*
X130379349Y-135613038D01*
X130386581Y-135633250D01*
X130391797Y-135654074D01*
X130394947Y-135675309D01*
X130396000Y-135696750D01*
X130396000Y-136134250D01*
X130394947Y-136155691D01*
X130391797Y-136176926D01*
X130386581Y-136197750D01*
X130379349Y-136217962D01*
X130370170Y-136237368D01*
X130359134Y-136255781D01*
X130346346Y-136273024D01*
X130331930Y-136288930D01*
X130316024Y-136303346D01*
X130298781Y-136316134D01*
X130280368Y-136327170D01*
X130260962Y-136336349D01*
X130240750Y-136343581D01*
X130219926Y-136348797D01*
X130198691Y-136351947D01*
X130177250Y-136353000D01*
X129664750Y-136353000D01*
X129643309Y-136351947D01*
X129622074Y-136348797D01*
X129601250Y-136343581D01*
X129581038Y-136336349D01*
X129561632Y-136327170D01*
X129543219Y-136316134D01*
X129525976Y-136303346D01*
X129510070Y-136288930D01*
X129495654Y-136273024D01*
X129482866Y-136255781D01*
X129471830Y-136237368D01*
X129462651Y-136217962D01*
X129455419Y-136197750D01*
X129450203Y-136176926D01*
X129447053Y-136155691D01*
X129446000Y-136134250D01*
X129446000Y-135696750D01*
X129447053Y-135675309D01*
X129450203Y-135654074D01*
X129455419Y-135633250D01*
X129462651Y-135613038D01*
X129471830Y-135593632D01*
X129482866Y-135575219D01*
X129495654Y-135557976D01*
X129510070Y-135542070D01*
X129525976Y-135527654D01*
X129543219Y-135514866D01*
X129561632Y-135503830D01*
X129581038Y-135494651D01*
X129601250Y-135487419D01*
X129622074Y-135482203D01*
X129643309Y-135479053D01*
X129664750Y-135478000D01*
X130177250Y-135478000D01*
X130198691Y-135479053D01*
X130198691Y-135479053D01*
G37*
D16*
X129921000Y-135915500D03*
D11*
G36*
X122105791Y-136480149D02*
G01*
X122127026Y-136483299D01*
X122147850Y-136488515D01*
X122168062Y-136495747D01*
X122187468Y-136504926D01*
X122205881Y-136515962D01*
X122223124Y-136528750D01*
X122239030Y-136543166D01*
X122253446Y-136559072D01*
X122266234Y-136576315D01*
X122277270Y-136594728D01*
X122286449Y-136614134D01*
X122293681Y-136634346D01*
X122298897Y-136655170D01*
X122302047Y-136676405D01*
X122303100Y-136697846D01*
X122303100Y-137210346D01*
X122302047Y-137231787D01*
X122298897Y-137253022D01*
X122293681Y-137273846D01*
X122286449Y-137294058D01*
X122277270Y-137313464D01*
X122266234Y-137331877D01*
X122253446Y-137349120D01*
X122239030Y-137365026D01*
X122223124Y-137379442D01*
X122205881Y-137392230D01*
X122187468Y-137403266D01*
X122168062Y-137412445D01*
X122147850Y-137419677D01*
X122127026Y-137424893D01*
X122105791Y-137428043D01*
X122084350Y-137429096D01*
X121646850Y-137429096D01*
X121625409Y-137428043D01*
X121604174Y-137424893D01*
X121583350Y-137419677D01*
X121563138Y-137412445D01*
X121543732Y-137403266D01*
X121525319Y-137392230D01*
X121508076Y-137379442D01*
X121492170Y-137365026D01*
X121477754Y-137349120D01*
X121464966Y-137331877D01*
X121453930Y-137313464D01*
X121444751Y-137294058D01*
X121437519Y-137273846D01*
X121432303Y-137253022D01*
X121429153Y-137231787D01*
X121428100Y-137210346D01*
X121428100Y-136697846D01*
X121429153Y-136676405D01*
X121432303Y-136655170D01*
X121437519Y-136634346D01*
X121444751Y-136614134D01*
X121453930Y-136594728D01*
X121464966Y-136576315D01*
X121477754Y-136559072D01*
X121492170Y-136543166D01*
X121508076Y-136528750D01*
X121525319Y-136515962D01*
X121543732Y-136504926D01*
X121563138Y-136495747D01*
X121583350Y-136488515D01*
X121604174Y-136483299D01*
X121625409Y-136480149D01*
X121646850Y-136479096D01*
X122084350Y-136479096D01*
X122105791Y-136480149D01*
X122105791Y-136480149D01*
G37*
D16*
X121865600Y-136954096D03*
D11*
G36*
X123680791Y-136480149D02*
G01*
X123702026Y-136483299D01*
X123722850Y-136488515D01*
X123743062Y-136495747D01*
X123762468Y-136504926D01*
X123780881Y-136515962D01*
X123798124Y-136528750D01*
X123814030Y-136543166D01*
X123828446Y-136559072D01*
X123841234Y-136576315D01*
X123852270Y-136594728D01*
X123861449Y-136614134D01*
X123868681Y-136634346D01*
X123873897Y-136655170D01*
X123877047Y-136676405D01*
X123878100Y-136697846D01*
X123878100Y-137210346D01*
X123877047Y-137231787D01*
X123873897Y-137253022D01*
X123868681Y-137273846D01*
X123861449Y-137294058D01*
X123852270Y-137313464D01*
X123841234Y-137331877D01*
X123828446Y-137349120D01*
X123814030Y-137365026D01*
X123798124Y-137379442D01*
X123780881Y-137392230D01*
X123762468Y-137403266D01*
X123743062Y-137412445D01*
X123722850Y-137419677D01*
X123702026Y-137424893D01*
X123680791Y-137428043D01*
X123659350Y-137429096D01*
X123221850Y-137429096D01*
X123200409Y-137428043D01*
X123179174Y-137424893D01*
X123158350Y-137419677D01*
X123138138Y-137412445D01*
X123118732Y-137403266D01*
X123100319Y-137392230D01*
X123083076Y-137379442D01*
X123067170Y-137365026D01*
X123052754Y-137349120D01*
X123039966Y-137331877D01*
X123028930Y-137313464D01*
X123019751Y-137294058D01*
X123012519Y-137273846D01*
X123007303Y-137253022D01*
X123004153Y-137231787D01*
X123003100Y-137210346D01*
X123003100Y-136697846D01*
X123004153Y-136676405D01*
X123007303Y-136655170D01*
X123012519Y-136634346D01*
X123019751Y-136614134D01*
X123028930Y-136594728D01*
X123039966Y-136576315D01*
X123052754Y-136559072D01*
X123067170Y-136543166D01*
X123083076Y-136528750D01*
X123100319Y-136515962D01*
X123118732Y-136504926D01*
X123138138Y-136495747D01*
X123158350Y-136488515D01*
X123179174Y-136483299D01*
X123200409Y-136480149D01*
X123221850Y-136479096D01*
X123659350Y-136479096D01*
X123680791Y-136480149D01*
X123680791Y-136480149D01*
G37*
D16*
X123440600Y-136954096D03*
D11*
G36*
X122105791Y-134321149D02*
G01*
X122127026Y-134324299D01*
X122147850Y-134329515D01*
X122168062Y-134336747D01*
X122187468Y-134345926D01*
X122205881Y-134356962D01*
X122223124Y-134369750D01*
X122239030Y-134384166D01*
X122253446Y-134400072D01*
X122266234Y-134417315D01*
X122277270Y-134435728D01*
X122286449Y-134455134D01*
X122293681Y-134475346D01*
X122298897Y-134496170D01*
X122302047Y-134517405D01*
X122303100Y-134538846D01*
X122303100Y-135051346D01*
X122302047Y-135072787D01*
X122298897Y-135094022D01*
X122293681Y-135114846D01*
X122286449Y-135135058D01*
X122277270Y-135154464D01*
X122266234Y-135172877D01*
X122253446Y-135190120D01*
X122239030Y-135206026D01*
X122223124Y-135220442D01*
X122205881Y-135233230D01*
X122187468Y-135244266D01*
X122168062Y-135253445D01*
X122147850Y-135260677D01*
X122127026Y-135265893D01*
X122105791Y-135269043D01*
X122084350Y-135270096D01*
X121646850Y-135270096D01*
X121625409Y-135269043D01*
X121604174Y-135265893D01*
X121583350Y-135260677D01*
X121563138Y-135253445D01*
X121543732Y-135244266D01*
X121525319Y-135233230D01*
X121508076Y-135220442D01*
X121492170Y-135206026D01*
X121477754Y-135190120D01*
X121464966Y-135172877D01*
X121453930Y-135154464D01*
X121444751Y-135135058D01*
X121437519Y-135114846D01*
X121432303Y-135094022D01*
X121429153Y-135072787D01*
X121428100Y-135051346D01*
X121428100Y-134538846D01*
X121429153Y-134517405D01*
X121432303Y-134496170D01*
X121437519Y-134475346D01*
X121444751Y-134455134D01*
X121453930Y-134435728D01*
X121464966Y-134417315D01*
X121477754Y-134400072D01*
X121492170Y-134384166D01*
X121508076Y-134369750D01*
X121525319Y-134356962D01*
X121543732Y-134345926D01*
X121563138Y-134336747D01*
X121583350Y-134329515D01*
X121604174Y-134324299D01*
X121625409Y-134321149D01*
X121646850Y-134320096D01*
X122084350Y-134320096D01*
X122105791Y-134321149D01*
X122105791Y-134321149D01*
G37*
D16*
X121865600Y-134795096D03*
D11*
G36*
X123680791Y-134321149D02*
G01*
X123702026Y-134324299D01*
X123722850Y-134329515D01*
X123743062Y-134336747D01*
X123762468Y-134345926D01*
X123780881Y-134356962D01*
X123798124Y-134369750D01*
X123814030Y-134384166D01*
X123828446Y-134400072D01*
X123841234Y-134417315D01*
X123852270Y-134435728D01*
X123861449Y-134455134D01*
X123868681Y-134475346D01*
X123873897Y-134496170D01*
X123877047Y-134517405D01*
X123878100Y-134538846D01*
X123878100Y-135051346D01*
X123877047Y-135072787D01*
X123873897Y-135094022D01*
X123868681Y-135114846D01*
X123861449Y-135135058D01*
X123852270Y-135154464D01*
X123841234Y-135172877D01*
X123828446Y-135190120D01*
X123814030Y-135206026D01*
X123798124Y-135220442D01*
X123780881Y-135233230D01*
X123762468Y-135244266D01*
X123743062Y-135253445D01*
X123722850Y-135260677D01*
X123702026Y-135265893D01*
X123680791Y-135269043D01*
X123659350Y-135270096D01*
X123221850Y-135270096D01*
X123200409Y-135269043D01*
X123179174Y-135265893D01*
X123158350Y-135260677D01*
X123138138Y-135253445D01*
X123118732Y-135244266D01*
X123100319Y-135233230D01*
X123083076Y-135220442D01*
X123067170Y-135206026D01*
X123052754Y-135190120D01*
X123039966Y-135172877D01*
X123028930Y-135154464D01*
X123019751Y-135135058D01*
X123012519Y-135114846D01*
X123007303Y-135094022D01*
X123004153Y-135072787D01*
X123003100Y-135051346D01*
X123003100Y-134538846D01*
X123004153Y-134517405D01*
X123007303Y-134496170D01*
X123012519Y-134475346D01*
X123019751Y-134455134D01*
X123028930Y-134435728D01*
X123039966Y-134417315D01*
X123052754Y-134400072D01*
X123067170Y-134384166D01*
X123083076Y-134369750D01*
X123100319Y-134356962D01*
X123118732Y-134345926D01*
X123138138Y-134336747D01*
X123158350Y-134329515D01*
X123179174Y-134324299D01*
X123200409Y-134321149D01*
X123221850Y-134320096D01*
X123659350Y-134320096D01*
X123680791Y-134321149D01*
X123680791Y-134321149D01*
G37*
D16*
X123440600Y-134795096D03*
D11*
G36*
X162583691Y-99065249D02*
G01*
X162604926Y-99068399D01*
X162625750Y-99073615D01*
X162645962Y-99080847D01*
X162665368Y-99090026D01*
X162683781Y-99101062D01*
X162701024Y-99113850D01*
X162716930Y-99128266D01*
X162731346Y-99144172D01*
X162744134Y-99161415D01*
X162755170Y-99179828D01*
X162764349Y-99199234D01*
X162771581Y-99219446D01*
X162776797Y-99240270D01*
X162779947Y-99261505D01*
X162781000Y-99282946D01*
X162781000Y-99720446D01*
X162779947Y-99741887D01*
X162776797Y-99763122D01*
X162771581Y-99783946D01*
X162764349Y-99804158D01*
X162755170Y-99823564D01*
X162744134Y-99841977D01*
X162731346Y-99859220D01*
X162716930Y-99875126D01*
X162701024Y-99889542D01*
X162683781Y-99902330D01*
X162665368Y-99913366D01*
X162645962Y-99922545D01*
X162625750Y-99929777D01*
X162604926Y-99934993D01*
X162583691Y-99938143D01*
X162562250Y-99939196D01*
X162049750Y-99939196D01*
X162028309Y-99938143D01*
X162007074Y-99934993D01*
X161986250Y-99929777D01*
X161966038Y-99922545D01*
X161946632Y-99913366D01*
X161928219Y-99902330D01*
X161910976Y-99889542D01*
X161895070Y-99875126D01*
X161880654Y-99859220D01*
X161867866Y-99841977D01*
X161856830Y-99823564D01*
X161847651Y-99804158D01*
X161840419Y-99783946D01*
X161835203Y-99763122D01*
X161832053Y-99741887D01*
X161831000Y-99720446D01*
X161831000Y-99282946D01*
X161832053Y-99261505D01*
X161835203Y-99240270D01*
X161840419Y-99219446D01*
X161847651Y-99199234D01*
X161856830Y-99179828D01*
X161867866Y-99161415D01*
X161880654Y-99144172D01*
X161895070Y-99128266D01*
X161910976Y-99113850D01*
X161928219Y-99101062D01*
X161946632Y-99090026D01*
X161966038Y-99080847D01*
X161986250Y-99073615D01*
X162007074Y-99068399D01*
X162028309Y-99065249D01*
X162049750Y-99064196D01*
X162562250Y-99064196D01*
X162583691Y-99065249D01*
X162583691Y-99065249D01*
G37*
D16*
X162306000Y-99501696D03*
D11*
G36*
X162583691Y-100640249D02*
G01*
X162604926Y-100643399D01*
X162625750Y-100648615D01*
X162645962Y-100655847D01*
X162665368Y-100665026D01*
X162683781Y-100676062D01*
X162701024Y-100688850D01*
X162716930Y-100703266D01*
X162731346Y-100719172D01*
X162744134Y-100736415D01*
X162755170Y-100754828D01*
X162764349Y-100774234D01*
X162771581Y-100794446D01*
X162776797Y-100815270D01*
X162779947Y-100836505D01*
X162781000Y-100857946D01*
X162781000Y-101295446D01*
X162779947Y-101316887D01*
X162776797Y-101338122D01*
X162771581Y-101358946D01*
X162764349Y-101379158D01*
X162755170Y-101398564D01*
X162744134Y-101416977D01*
X162731346Y-101434220D01*
X162716930Y-101450126D01*
X162701024Y-101464542D01*
X162683781Y-101477330D01*
X162665368Y-101488366D01*
X162645962Y-101497545D01*
X162625750Y-101504777D01*
X162604926Y-101509993D01*
X162583691Y-101513143D01*
X162562250Y-101514196D01*
X162049750Y-101514196D01*
X162028309Y-101513143D01*
X162007074Y-101509993D01*
X161986250Y-101504777D01*
X161966038Y-101497545D01*
X161946632Y-101488366D01*
X161928219Y-101477330D01*
X161910976Y-101464542D01*
X161895070Y-101450126D01*
X161880654Y-101434220D01*
X161867866Y-101416977D01*
X161856830Y-101398564D01*
X161847651Y-101379158D01*
X161840419Y-101358946D01*
X161835203Y-101338122D01*
X161832053Y-101316887D01*
X161831000Y-101295446D01*
X161831000Y-100857946D01*
X161832053Y-100836505D01*
X161835203Y-100815270D01*
X161840419Y-100794446D01*
X161847651Y-100774234D01*
X161856830Y-100754828D01*
X161867866Y-100736415D01*
X161880654Y-100719172D01*
X161895070Y-100703266D01*
X161910976Y-100688850D01*
X161928219Y-100676062D01*
X161946632Y-100665026D01*
X161966038Y-100655847D01*
X161986250Y-100648615D01*
X162007074Y-100643399D01*
X162028309Y-100640249D01*
X162049750Y-100639196D01*
X162562250Y-100639196D01*
X162583691Y-100640249D01*
X162583691Y-100640249D01*
G37*
D16*
X162306000Y-101076696D03*
D24*
X117370562Y-121672543D03*
X117370562Y-118372543D03*
X117370562Y-119472543D03*
X117370562Y-120572543D03*
X117370562Y-124672543D03*
X117370562Y-130172543D03*
X117370562Y-127972543D03*
X117370562Y-126872543D03*
X117370562Y-125772543D03*
X117370562Y-117272543D03*
X117370562Y-129072543D03*
X117370562Y-131272543D03*
X129570562Y-131272543D03*
X129570562Y-126872543D03*
X129570562Y-127972543D03*
X129570562Y-129072543D03*
X129570562Y-130172543D03*
X129570562Y-124672543D03*
X129570562Y-121672543D03*
X129570562Y-117272543D03*
X129570562Y-118372543D03*
X129570562Y-119472543D03*
X129570562Y-120572543D03*
X129570562Y-125772543D03*
D25*
X114661878Y-116854150D03*
X114661878Y-117354150D03*
X114661878Y-117854150D03*
X114661878Y-118354150D03*
X114661878Y-118854150D03*
X114661878Y-119354150D03*
X114661878Y-119854150D03*
X114661878Y-120354150D03*
D26*
X113911878Y-121104150D03*
X113411878Y-121104150D03*
X112911878Y-121104150D03*
X112411878Y-121104150D03*
X111911878Y-121104150D03*
X111411878Y-121104150D03*
X110911878Y-121104150D03*
X110411878Y-121104150D03*
D25*
X109661878Y-120354150D03*
X109661878Y-119854150D03*
X109661878Y-119354150D03*
X109661878Y-118854150D03*
X109661878Y-118354150D03*
X109661878Y-117854150D03*
X109661878Y-117354150D03*
X109661878Y-116854150D03*
D26*
X110411878Y-116104150D03*
X110911878Y-116104150D03*
X111411878Y-116104150D03*
X111911878Y-116104150D03*
X112411878Y-116104150D03*
X112911878Y-116104150D03*
X113411878Y-116104150D03*
X113911878Y-116104150D03*
D27*
X116708000Y-98573000D03*
X116708000Y-99673000D03*
X116708000Y-100773000D03*
X116708000Y-101873000D03*
X116708000Y-102973000D03*
X116708000Y-104073000D03*
X116708000Y-105173000D03*
X116708000Y-106273000D03*
D28*
X117338000Y-94228000D03*
D29*
X117188000Y-108618000D03*
D30*
X119338000Y-108213000D03*
D31*
X128338000Y-108213000D03*
D29*
X128668000Y-94328000D03*
D32*
X129463000Y-98633000D03*
X129463000Y-106413000D03*
D33*
X125713800Y-136890596D03*
X125713800Y-134985596D03*
X127593400Y-135938096D03*
M02*
