M48
; DRILL file {KiCad (5.1.4)-1} date 12/19/2019 6:40:18 PM
; FORMAT={-:-/ absolute / inch / decimal}
; #@! TF.CreationDate,2019-12-19T18:40:18-07:00
; #@! TF.GenerationSoftware,Kicad,Pcbnew,(5.1.4)-1
FMAT,2
INCH
T1C0.0150
T2C0.0157
T3C0.0236
T4C0.0350
T5C0.0354
T6C0.0394
T7C0.0400
T8C0.0472
T9C0.0510
T10C0.0591
T11C0.0669
T12C0.1260
T13C0.0256
%
G90
G05
T1
X4.0188Y-4.0842
X4.0683Y-3.9792
X4.205Y-4.15
X4.23Y-2.65
X4.23Y-4.41
X4.23Y-4.47
X4.248Y-4.867
X4.248Y-4.92
X4.26Y-4.37
X4.27Y-4.41
X4.27Y-4.47
X4.2719Y-4.6279
X4.2719Y-4.6679
X4.2719Y-4.7079
X4.28Y-4.81
X4.29Y-4.54
X4.29Y-4.85
X4.29Y-4.92
X4.3Y-4.5
X4.31Y-4.39
X4.31Y-4.43
X4.3189Y-4.5769
X4.3189Y-4.7669
X4.32Y-4.82
X4.32Y-4.89
X4.33Y-4.53
X4.33Y-4.93
X4.34Y-4.46
X4.35Y-4.42
X4.35Y-4.86
X4.36Y-4.9
X4.3659Y-4.5299
X4.3659Y-4.8099
X4.37Y-2.65
X4.37Y-4.49
X4.3739Y-4.6269
X4.3739Y-4.7119
X4.38Y-4.45
X4.39Y-4.87
X4.4119Y-4.8099
X4.4139Y-4.6719
X4.4219Y-4.5299
X4.4589Y-4.6269
X4.4589Y-4.7119
X4.4669Y-5.3025
X4.4719Y-4.5299
X4.4739Y-4.17
X4.474Y-4.842
X4.49Y-2.612
X4.5139Y-4.5299
X4.514Y-4.8099
X4.515Y-4.769
X4.546Y-3.924
X4.55Y-5.345
X4.55Y-4.0045
X4.5579Y-4.6899
X4.5579Y-4.7279
X4.5599Y-4.5299
X4.5599Y-4.5719
X4.5599Y-4.6179
X4.62Y-4.84
X4.6357Y-4.18
X4.6999Y-4.5619
X4.6999Y-4.6199
X4.6999Y-4.6779
X4.7Y-4.73
X4.711Y-5.338
X4.712Y-4.18
X4.756Y-4.04
X4.761Y-2.621
X4.7975Y-5.2205
X4.805Y-2.75
X4.8639Y-5.2569
X4.865Y-3.97
X4.865Y-4.18
X4.88Y-3.51
X4.945Y-4.0158
X4.95Y-2.755
X4.9834Y-3.0
X4.9844Y-2.899
X4.985Y-2.835
X4.9858Y-3.0995
X5.005Y-3.2
X5.026Y-4.729
X5.03Y-2.65
X5.04Y-4.99
X5.04Y-5.04
X5.05Y-3.87
X5.1039Y-4.5659
X5.1157Y-5.2507
X5.15Y-4.84
X5.17Y-2.65
X5.185Y-2.85
X5.195Y-3.25
X5.21Y-3.8
X5.235Y-5.365
X5.245Y-2.2925
X5.285Y-5.365
X5.29Y-2.615
X5.3Y-2.37
X5.3203Y-4.048
X5.3203Y-4.098
X5.335Y-5.365
X5.395Y-4.15
X5.42Y-3.9
X5.465Y-3.91
X5.465Y-4.21
X5.47Y-4.145
X5.4746Y-4.0525
X5.476Y-4.092
X5.49Y-2.3725
X5.49Y-2.62
X5.51Y-4.495
X5.525Y-3.93
X5.53Y-4.32
X5.57Y-3.845
X5.575Y-4.005
X5.575Y-4.069
X5.5788Y-4.1838
X5.59Y-4.125
X5.605Y-2.6111
X5.605Y-4.265
X5.6083Y-4.2201
X5.6153Y-2.75
X5.62Y-3.845
X5.63Y-4.06
X5.636Y-3.9407
X5.655Y-3.745
X5.655Y-3.61
X5.655Y-3.675
X5.655Y-4.26
X5.66Y-3.515
X5.6663Y-3.9413
X5.6832Y-2.4024
X5.684Y-4.294
X5.6971Y-4.3845
X5.708Y-2.43
X5.7103Y-4.495
X5.713Y-4.29
X5.7131Y-4.2441
X5.735Y-3.945
X5.7425Y-2.3125
X5.7433Y-2.41
X5.749Y-4.426
X5.75Y-2.75
X5.75Y-2.8
X5.7543Y-3.8249
X5.757Y-3.3
X5.76Y-2.88
X5.76Y-3.23
X5.771Y-4.035
X5.7763Y-4.3969
X5.78Y-3.945
X5.798Y-2.322
X5.805Y-3.81
X5.822Y-4.417
X5.825Y-3.945
X5.826Y-4.2827
X5.829Y-2.404
X5.839Y-2.325
X5.844Y-4.009
X5.8649Y-3.8325
X5.8653Y-3.9381
X5.87Y-3.795
X5.8702Y-4.2045
X5.88Y-3.515
X5.8825Y-2.32
X5.895Y-4.29
X5.909Y-3.984
X5.915Y-3.85
X5.9208Y-4.0969
X5.923Y-4.217
X5.925Y-4.158
X5.927Y-2.446
X5.927Y-4.3257
X5.93Y-2.69
X5.931Y-3.35
X5.936Y-2.403
X5.948Y-2.498
X5.9836Y-2.4607
X6.001Y-3.94
X6.005Y-2.735
X6.006Y-2.761
X6.0132Y-2.4976
X6.02Y-2.9
X6.023Y-4.182
X6.023Y-2.25
X6.0236Y-4.0379
X6.025Y-4.265
X6.0294Y-4.0686
X6.0423Y-4.0946
X6.0501Y-2.4742
X6.058Y-4.1565
X6.0654Y-2.1531
X6.07Y-3.1
X6.08Y-3.825
X6.106Y-2.677
X6.11Y-2.478
X6.11Y-2.87
X6.1104Y-2.6301
X6.111Y-2.31
X6.145Y-4.2625
X6.167Y-2.771
X6.167Y-2.797
X6.185Y-3.945
X6.185Y-3.99
X6.2Y-2.88
X6.207Y-2.284
X6.215Y-4.13
X6.2539Y-4.0513
X6.28Y-4.265
X6.285Y-3.68
X6.285Y-3.965
X6.29Y-4.1814
X6.295Y-4.05
X6.32Y-4.085
X6.33Y-2.96
X6.345Y-3.925
X6.3497Y-3.9847
X6.375Y-4.215
X6.375Y-3.66
X6.399Y-4.0175
X6.4175Y-2.73
X6.419Y-4.2191
X6.42Y-3.595
X6.42Y-3.66
X6.441Y-5.244
X6.442Y-4.379
X6.4725Y-2.96
X6.488Y-4.21
X6.4935Y-3.917
X6.505Y-3.979
X6.5075Y-2.7225
X6.515Y-3.04
X6.52Y-4.437
X6.521Y-5.344
X6.545Y-3.04
X6.549Y-3.755
X6.558Y-3.87
X6.585Y-3.9805
X6.59Y-2.8219
X6.595Y-4.393
X6.599Y-5.471
X6.625Y-4.215
X6.643Y-3.08
X6.6434Y-3.9342
X6.644Y-2.999
X6.6494Y-3.9631
X6.6566Y-4.0002
X6.677Y-5.335
X6.678Y-4.397
X6.7116Y-4.1428
X6.714Y-3.8606
X6.7231Y-3.9388
X6.7439Y-3.8319
X6.7465Y-3.9626
X6.757Y-4.336
X6.7739Y-3.8619
X6.774Y-3.564
X6.8189Y-3.9069
X6.8789Y-4.1869
X6.9Y-3.78
X6.914Y-5.3026
X6.96Y-3.78
X6.96Y-4.09
X6.97Y-3.51
X7.0039Y-3.9019
X7.0089Y-3.9769
X7.075Y-3.55
T2
X4.26Y-5.2726
X4.26Y-5.3326
X4.31Y-5.1746
X4.31Y-5.2246
X4.31Y-5.2726
X4.31Y-5.3326
X4.31Y-5.3806
X4.31Y-5.4306
X4.36Y-5.1746
X4.36Y-5.2246
X4.36Y-5.2726
X4.36Y-5.3326
X4.36Y-5.3806
X4.36Y-5.4306
X4.41Y-5.1746
X4.41Y-5.2246
X4.41Y-5.2726
X4.41Y-5.3326
X4.41Y-5.3806
X4.41Y-5.4306
X4.46Y-5.2596
X4.51Y-5.2746
X4.916Y-5.272
X5.38Y-3.86
X5.964Y-2.645
X6.316Y-2.436
X6.34Y-3.62
X6.778Y-3.626
X6.8475Y-5.4775
X6.855Y-5.345
X6.856Y-5.2026
X6.856Y-5.2526
X6.856Y-5.3006
X6.9025Y-5.4775
X6.9059Y-5.2606
X6.906Y-5.1726
X6.906Y-5.2179
X6.956Y-5.1726
X6.956Y-5.2226
X6.956Y-5.2706
X6.9575Y-5.4775
X6.958Y-5.3336
X6.958Y-5.3816
X6.958Y-5.4316
X7.006Y-5.1726
X7.006Y-5.2226
X7.006Y-5.2706
X7.006Y-5.3336
X7.006Y-5.3816
X7.006Y-5.4316
X7.0075Y-5.4775
X7.056Y-5.2706
X7.056Y-5.3336
T4
X5.6712Y-2.146
X5.9468Y-2.146
T5
X5.7106Y-2.2523
X5.9074Y-2.2523
T6
X5.212Y-4.166
X5.212Y-4.266
X5.212Y-4.366
X5.212Y-4.466
X5.212Y-4.566
X4.555Y-3.62
X4.655Y-3.62
X4.755Y-3.62
X4.855Y-3.62
X4.955Y-3.62
X5.055Y-3.62
X5.155Y-3.62
X5.255Y-3.62
X5.355Y-3.62
X5.83Y-4.512
X5.93Y-4.512
X6.03Y-4.512
X6.13Y-4.512
X6.23Y-4.512
X5.77Y-3.62
X5.87Y-3.62
X5.97Y-3.62
X6.07Y-3.62
X6.17Y-3.62
T7
X4.794Y-5.682
X4.894Y-5.682
X7.2547Y-3.8544
X7.2547Y-4.0544
X7.2647Y-3.9544
X6.62Y-5.6597
X6.72Y-5.6697
X6.82Y-5.6597
X6.4017Y-2.2327
X6.5017Y-2.2227
X6.6017Y-2.2327
X4.0372Y-3.5344
X4.0472Y-3.4344
X4.0472Y-3.6344
X7.255Y-4.76
X7.255Y-4.96
X7.265Y-4.86
X5.5465Y-5.675
X5.6465Y-5.685
X5.7465Y-5.675
X4.6664Y-2.2327
X4.7664Y-2.2227
X4.8664Y-2.2327
X4.435Y-5.675
X4.535Y-5.685
X4.635Y-5.675
T8
X6.7434Y-2.9118
X6.7434Y-3.0636
X6.7434Y-3.2014
X6.7434Y-3.3532
X6.7398Y-3.475
X7.1145Y-2.6222
X7.1145Y-2.774
X7.1145Y-3.2014
X7.1145Y-3.3532
X7.1145Y-2.9118
X7.1145Y-3.0636
T9
X6.1769Y-2.3569
X6.1769Y-2.6569
X6.5769Y-2.6569
X6.8769Y-2.3569
X6.8769Y-2.6569
T10
X7.205Y-5.3025
X4.0989Y-4.4419
X4.0989Y-4.8919
X4.0989Y-5.3025
T11
X3.9989Y-5.2025
X3.9989Y-5.4025
X4.1989Y-5.2025
X4.1989Y-5.4025
X7.105Y-5.2025
X7.105Y-5.4025
X7.305Y-5.2025
X7.305Y-5.4025
X3.9989Y-4.3419
X3.9989Y-4.5419
X4.1989Y-4.3419
X4.1989Y-4.5419
X3.9989Y-4.7919
X3.9989Y-4.9919
X4.1989Y-4.7919
X4.1989Y-4.9919
T12
X4.0719Y-5.6415
X4.2215Y-2.2665
X7.1215Y-2.2665
X7.2215Y-5.6415
T13
X5.6955Y-2.3263
X5.9231Y-2.3263
T3
G00X5.6392Y-2.1944
M15
G01X5.6392Y-2.1707
M16
G05
G00X5.6392Y-2.3676
M15
G01X5.6392Y-2.3243
M16
G05
G00X5.9794Y-2.1944
M15
G01X5.9794Y-2.1707
M16
G05
G00X5.9794Y-2.3676
M15
G01X5.9794Y-2.3243
M16
G05
T0
M30
