%TF.GenerationSoftware,KiCad,Pcbnew,(5.1.5)-3*%
%TF.CreationDate,2020-03-14T11:42:48-07:00*%
%TF.ProjectId,mainboard,6d61696e-626f-4617-9264-2e6b69636164,rev?*%
%TF.SameCoordinates,PXb3c5ff4PY8d80254*%
%TF.FileFunction,Copper,L3,Inr*%
%TF.FilePolarity,Positive*%
%FSLAX46Y46*%
G04 Gerber Fmt 4.6, Leading zero omitted, Abs format (unit mm)*
G04 Created by KiCad (PCBNEW (5.1.5)-3) date 2020-03-14 11:42:48*
%MOMM*%
%LPD*%
G04 APERTURE LIST*
%ADD10C,0.150000*%
%ADD11O,1.700000X1.700000*%
%ADD12C,1.400000*%
%ADD13C,2.032000*%
%ADD14R,2.032000X2.032000*%
%ADD15O,1.000000X2.100000*%
%ADD16O,1.000000X1.600000*%
%ADD17C,1.270000*%
%ADD18C,1.408000*%
%ADD19C,2.250000*%
%ADD20C,2.050000*%
%ADD21C,5.600000*%
%ADD22C,1.879600*%
%ADD23C,5.000000*%
%ADD24R,1.879600X1.879600*%
%ADD25C,2.006600*%
%ADD26C,0.584200*%
%ADD27C,0.600000*%
%ADD28C,0.279400*%
%ADD29C,0.508000*%
%ADD30C,0.271780*%
%ADD31C,0.271781*%
%ADD32C,1.270000*%
%ADD33C,0.609600*%
%ADD34C,1.016000*%
%ADD35C,0.304800*%
G04 APERTURE END LIST*
D10*
X-90170000Y93885000D02*
X-90170000Y2000000D01*
X-88170000Y0D02*
G75*
G02X-90170000Y2000000I0J2000000D01*
G01*
X-88170000Y0D02*
X-2000000Y0D01*
X0Y2000000D02*
G75*
G02X-2000000Y0I-2000000J0D01*
G01*
X0Y2000000D02*
X0Y93885000D01*
X-2000000Y95885000D02*
G75*
G02X0Y93885000I0J-2000000D01*
G01*
X-2000000Y95885000D02*
X-34230000Y95875004D01*
X-34230000Y95875004D02*
X-35500000Y94986004D01*
X-35500000Y94986004D02*
X-46295000Y94986004D01*
X-46295000Y94986004D02*
X-47574997Y95885000D01*
X-47574997Y95885000D02*
X-88170000Y95885000D01*
X-90170000Y93885000D02*
G75*
G02X-88170000Y95885000I2000000J0D01*
G01*
D11*
X-30264100Y33769300D03*
X-32804100Y33769300D03*
X-35344100Y33769300D03*
X-37884100Y33769300D03*
X-40424100Y33769300D03*
D12*
X-28740100Y78143100D03*
X-31280100Y78143100D03*
X-33820100Y78143100D03*
X-36360100Y78143100D03*
D13*
X-17224000Y67057804D03*
D14*
X-17224000Y63202204D03*
D15*
X-36629500Y88787300D03*
X-45269500Y88787300D03*
D16*
X-45269500Y92937300D03*
X-36629500Y92937300D03*
D14*
X-17314000Y60110100D03*
D17*
X-37457500Y93865700D03*
X-44457500Y93865700D03*
D18*
X-38457500Y91165700D03*
X-43457500Y91165700D03*
D19*
X-86935000Y38090004D03*
X-86935000Y33010004D03*
X-81855000Y33010004D03*
X-81855000Y38090004D03*
D20*
X-84395000Y35550004D03*
D19*
X-86935000Y26660004D03*
X-86935000Y21580004D03*
X-81855000Y21580004D03*
X-81855000Y26660004D03*
D20*
X-84395000Y24120004D03*
D19*
X-8039100Y11150004D03*
X-8039100Y16230004D03*
X-2959100Y16230004D03*
X-2959100Y11150004D03*
D20*
X-5499100Y13690004D03*
D21*
X-82540000Y90805000D03*
D22*
X-64198500Y4051300D03*
X-66738500Y4051300D03*
D23*
X-8880000Y90805000D03*
X-5080000Y5080000D03*
X-85080000Y5080000D03*
D11*
X-52489100Y56426100D03*
X-55029100Y56426100D03*
X-57569100Y56426100D03*
X-60109100Y56426100D03*
X-62649100Y56426100D03*
X-65189100Y56426100D03*
X-67729100Y56426100D03*
X-70269100Y56426100D03*
X-72809100Y56426100D03*
X-31788100Y56426100D03*
X-34328100Y56426100D03*
X-36868100Y56426100D03*
X-39408100Y56426100D03*
X-41948100Y56426100D03*
X-56121300Y42557700D03*
X-56121300Y40017700D03*
X-56121300Y37477700D03*
X-56121300Y34937700D03*
X-56121300Y32397700D03*
D24*
X-20358100Y4617004D03*
D22*
X-17818100Y4363004D03*
X-15278100Y4617004D03*
D20*
X-84395000Y13690004D03*
D19*
X-81855000Y11150004D03*
X-81855000Y16230004D03*
X-86935000Y16230004D03*
X-86935000Y11150004D03*
D24*
X-85706000Y61140504D03*
D22*
X-85960000Y58600504D03*
X-85706000Y56060504D03*
D24*
X-4237000Y45392504D03*
D22*
X-3983000Y47932504D03*
X-4237000Y50472504D03*
D24*
X-75857100Y4229100D03*
D22*
X-73317100Y3975100D03*
X-70777100Y4229100D03*
D24*
X-25902000Y91663004D03*
D22*
X-23362000Y91917004D03*
X-20822000Y91663004D03*
D24*
X-47625000Y4229100D03*
D22*
X-45085000Y3975100D03*
X-42545000Y4229100D03*
D24*
X-64900500Y91663004D03*
D22*
X-67440500Y91917004D03*
X-69980500Y91663004D03*
D13*
X-7798000Y74413404D03*
D14*
X-7798000Y70557804D03*
X-7798000Y63202204D03*
D13*
X-7798000Y67057804D03*
D14*
X-17224000Y70557804D03*
D13*
X-17224000Y74413404D03*
D14*
X-7798000Y77913404D03*
D13*
X-7798000Y81769004D03*
D25*
X-31613800Y80889004D03*
X-21453800Y80889004D03*
X-13833800Y80889004D03*
X-13833800Y88509004D03*
X-31613800Y88509004D03*
D24*
X-4229100Y22390100D03*
D22*
X-3975100Y24930100D03*
X-4229100Y27470100D03*
D26*
X-72685600Y32248004D03*
X-72736400Y28285604D03*
X-58868000Y32400404D03*
X-17969735Y50316122D03*
X-16450000Y50282004D03*
X-76190800Y33314804D03*
X-74920800Y33314804D03*
X-73854000Y33314804D03*
X-72685600Y33314804D03*
X-80000800Y30825604D03*
X-80000800Y29809604D03*
X-80000800Y28793604D03*
X-72685600Y31079604D03*
X-72736400Y29250804D03*
X-73850500Y26202804D03*
X-76444800Y26202804D03*
X-69126100Y28232100D03*
X-69129600Y29555604D03*
X-69129600Y31028804D03*
X-69129600Y32502004D03*
X-17740000Y48327604D03*
X-17144863Y47724504D03*
X-64964000Y14849004D03*
X-13783000Y42027004D03*
X-10608000Y49266004D03*
X-75251000Y28692004D03*
X-75251000Y30851004D03*
X-77410000Y30851004D03*
X-76394000Y29708004D03*
X-77410000Y28692004D03*
X-78807000Y27295004D03*
X-78807000Y32121004D03*
X-86427680Y44634201D03*
X-81699090Y42964100D03*
X-48552100Y34201100D03*
X-30645100Y43472100D03*
X-28867100Y54902110D03*
X-64554100Y59220100D03*
X-44742100Y59093100D03*
X-81064100Y81064100D03*
X-66459100Y78524100D03*
X-57188100Y81064100D03*
X-46901100Y45021487D03*
X-45758100Y50711100D03*
X-60236100Y50076100D03*
X-53369812Y44284011D03*
X-53369812Y45554011D03*
X-38265100Y50584100D03*
X-43396702Y39409245D03*
X-19428460Y46769020D03*
X-74866500Y25387300D03*
X-72936104Y12611100D03*
D27*
X-80302100Y12925300D03*
X-80302100Y14449300D03*
X-73952100Y14398500D03*
X-75222100Y14779500D03*
X-76492100Y11706100D03*
X-76492100Y12925300D03*
X-76492100Y10436100D03*
X-77762100Y12925300D03*
X-77762100Y10436100D03*
X-77762100Y11706100D03*
X-79032100Y11706100D03*
X-79032100Y10436100D03*
X-79032100Y12925300D03*
X-76492100Y16938500D03*
X-77762100Y15668500D03*
X-76492100Y14449300D03*
X-79032100Y16938500D03*
X-77762100Y16938500D03*
X-79032100Y15668500D03*
X-77762100Y14449300D03*
X-76492100Y15668500D03*
X-79032100Y14449300D03*
D26*
X-43463877Y34201100D03*
X-21120100Y76698004D03*
X-33693100Y75349100D03*
X-45878740Y78524104D03*
X-46140360Y82050978D03*
X-67576700Y81800702D03*
X-11722100Y44488100D03*
X-73825100Y27241500D03*
X-60845700Y28257500D03*
X-20231096Y41313100D03*
X-38011100Y42760906D03*
D27*
X-16344900Y56273700D03*
X-27470100Y56426100D03*
X-10553700Y14500100D03*
X-9283700Y12899900D03*
X-11823700Y14500100D03*
X-10553700Y15719300D03*
X-10553700Y16989300D03*
X-11823700Y16989300D03*
X-11772900Y11680700D03*
X-10553700Y11680700D03*
X-11823700Y15719300D03*
X-11772900Y12899900D03*
X-10553700Y10410700D03*
X-13096100Y14754100D03*
X-11772900Y10410700D03*
X-10553700Y12899900D03*
X-9283700Y14500100D03*
X-13093700Y16989300D03*
X-13093700Y15839300D03*
X-14363700Y14957300D03*
X-14363700Y16227300D03*
X-14363700Y13738100D03*
X-11785600Y9245600D03*
D26*
X-80606900Y23406100D03*
X-79540100Y23406100D03*
X-78016100Y24930100D03*
X-78778100Y24168100D03*
X-77000100Y24676100D03*
X-78524100Y23152100D03*
X-77762100Y23914100D03*
X-80606900Y24752300D03*
X-79540100Y25184100D03*
X-78778100Y25946100D03*
X-79794100Y26200100D03*
X-81064100Y36360100D03*
X-81064100Y34836100D03*
X-80048100Y36360100D03*
X-79032100Y35852100D03*
X-80048100Y34836100D03*
X-79286100Y34074100D03*
X-78524100Y33312100D03*
X-77508100Y34328100D03*
X-78270100Y35090100D03*
X-79540100Y33058100D03*
X-77254100Y35344100D03*
X-78016100Y36106100D03*
X-79032100Y36868100D03*
X-80302100Y37376100D03*
X-28613100Y45504100D03*
X-29656391Y45471627D03*
X-55283100Y90144600D03*
X-25463364Y41209126D03*
X-27343100Y48679084D03*
X-21247102Y47269400D03*
X-25971500Y46329600D03*
X-23571200Y48882300D03*
X-32423100Y40106600D03*
X-28867100Y47663100D03*
X-25438100Y57061100D03*
X-74870004Y42456100D03*
D27*
X-10515600Y9245600D03*
X-13182600Y9245600D03*
X-14579600Y9245600D03*
X-14389100Y12611100D03*
D26*
X-11468100Y59220100D03*
X-11722100Y52362100D03*
X-34010600Y52806600D03*
X-34836100Y47028100D03*
X-39662100Y59093100D03*
X-48869600Y90144604D03*
X-47028100Y50711100D03*
X-39528278Y48345210D03*
X-52997100Y12103100D03*
X-54267100Y12103100D03*
X-55537100Y12103100D03*
X-72936102Y46659800D03*
X-60744100Y81064100D03*
X-62776100Y78397100D03*
X-42456100Y78524100D03*
X-77508100Y81064100D03*
X-54140100Y81953100D03*
X-58568395Y15007395D03*
X-39403020Y41579800D03*
X-37858690Y63284118D03*
X-74460100Y82029300D03*
X-20891500Y9410700D03*
X-43393522Y40572700D03*
X-35521902Y42151300D03*
X-27724100Y73190100D03*
X-27978100Y44615100D03*
X-49060100Y88112600D03*
X-49060100Y81826100D03*
X-56172100Y51854100D03*
X-36080700Y48298102D03*
X-16446500Y57848500D03*
X-85171800Y47302004D03*
X-46803505Y42104505D03*
X-46056100Y41183500D03*
X-66648346Y15772144D03*
X-46520100Y43599100D03*
X-49568100Y43091090D03*
X-45504110Y45250100D03*
X-50838100Y49314100D03*
X-25501600Y79032090D03*
X-21932900Y50076096D03*
X-45351496Y48280299D03*
X-37960300Y86245700D03*
X-41236906Y89395300D03*
X-40449504Y87312500D03*
X-37426900Y84924900D03*
X-44581953Y48264953D03*
X-24104602Y73190100D03*
X-35506660Y45811440D03*
X-8801100Y58204100D03*
X-23215600Y79222600D03*
X-44869100Y40170100D03*
X-38773100Y39408100D03*
X-23279094Y47307500D03*
X-61902341Y74739499D03*
X-62903100Y46371715D03*
X-24879296Y37147500D03*
X-38417500Y47180500D03*
X-61927739Y72174101D03*
X-67703700Y45758082D03*
X-20993100Y36791900D03*
X-40068500Y46545500D03*
X-61866780Y69646800D03*
X-64935100Y47536100D03*
X-64935100Y42202100D03*
X-22898100Y35674300D03*
X-41922700Y45885100D03*
X-26581100Y41313100D03*
X-34632900Y42798948D03*
X-28740100Y42167191D03*
X-38061900Y41262300D03*
X-28994100Y40043100D03*
X-35471100Y40043100D03*
X-77613200Y26202804D03*
X-77613200Y33314804D03*
X-49451930Y45439749D03*
X-36487100Y73126600D03*
X-31026106Y74396600D03*
X-49415804Y44437310D03*
X-37960300Y38500082D03*
X-23710900Y41440100D03*
X-17212000Y51044004D03*
X-13246100Y52362100D03*
X-19621923Y47723633D03*
X-19764875Y48445016D03*
D27*
X-51854100Y50330100D03*
D26*
X-44869102Y53251100D03*
X-18032588Y43148103D03*
X-40526038Y39594075D03*
X-60490100Y21628100D03*
X-48044098Y38646100D03*
X-46139100Y40043100D03*
X-60490100Y20358098D03*
X-42278310Y64554101D03*
X-42346892Y51222362D03*
X-56807100Y75984100D03*
X-44869100Y55029100D03*
X-42837100Y48171084D03*
X-61887096Y76365100D03*
X-48171100Y48552100D03*
X-56553100Y65824100D03*
X-49695100Y49060100D03*
X-61379100Y67094100D03*
X-40551100Y48171110D03*
X-42456100Y77254100D03*
X-42202100Y75222100D03*
X-41059104Y51600100D03*
X-41694100Y48171094D03*
X-42202100Y66332094D03*
X-71158100Y25438100D03*
X-57696100Y25438100D03*
X-49695100Y41440100D03*
X-70758964Y42202100D03*
X-51473114Y42964100D03*
X-68821300Y42202078D03*
X-43799481Y37008964D03*
D27*
X-63639700Y14465300D03*
D26*
X-22872700Y12636500D03*
X-42481500Y35953700D03*
X-24904698Y15176500D03*
X-18910300Y12865100D03*
X-41789012Y36692693D03*
X-38118529Y44312173D03*
X-16878300Y38239700D03*
X-40627300Y36182300D03*
X-18884900Y36690300D03*
X-12890500Y13687304D03*
X-42625590Y87160100D03*
X-40195504Y89319100D03*
X-37731700Y87337900D03*
X-34444951Y93684233D03*
D27*
X-37020500Y81699096D03*
D26*
X-19748500Y72199500D03*
X-19773900Y70142100D03*
X-44152822Y87353140D03*
X-40106600Y78968600D03*
X-40043100Y75730100D03*
X-37439600Y75095110D03*
X-42646600Y89636594D03*
X-39090584Y89446100D03*
X-35521900Y91224100D03*
X-33312100Y85432900D03*
X-43522896Y86652100D03*
X-33286694Y89399100D03*
X-35358794Y45031075D03*
X-26579848Y55408842D03*
X-34833560Y85529420D03*
X-31343614Y48552100D03*
X-25438100Y55410100D03*
X-35031594Y44371270D03*
X-35772056Y84935050D03*
X-31330926Y47368149D03*
X-22898100Y71158100D03*
X-22072600Y71158100D03*
X-34328100Y69634052D03*
X-22161498Y52997100D03*
X-37884100Y80048100D03*
D27*
X-28079700Y86499700D03*
D26*
X-33301908Y81569306D03*
X-33413701Y80378300D03*
X-36522660Y85872320D03*
X-30264100Y91033600D03*
X-68846700Y12788900D03*
X-44133313Y39306500D03*
X-75047004Y13690004D03*
X-39408100Y51981112D03*
X-39538691Y51029699D03*
X-27224100Y47163100D03*
X-44869100Y56680100D03*
X-53886100Y88176100D03*
X-15307000Y49139004D03*
X-10481000Y47361004D03*
X-37630100Y76555600D03*
X-35026600Y76492096D03*
X-46901100Y46647100D03*
X-73037700Y48704500D03*
D28*
X-32249862Y73190100D02*
X-28137191Y73190100D01*
X-37858690Y67581272D02*
X-32249862Y73190100D01*
X-28137191Y73190100D02*
X-27724100Y73190100D01*
X-37858690Y63284118D02*
X-37858690Y67581272D01*
D29*
X-49060100Y88112600D02*
X-49060100Y81826100D01*
D30*
X-16738599Y57556401D02*
X-16446500Y57848500D01*
X-19088100Y55206900D02*
X-16738599Y57556401D01*
X-22669500Y50304700D02*
X-19088100Y53886100D01*
X-27927300Y50304700D02*
X-22669500Y50304700D01*
X-29425900Y48806100D02*
X-27927300Y50304700D01*
X-36639500Y47739302D02*
X-36639500Y44018200D01*
X-36080700Y48298102D02*
X-36639500Y47739302D01*
X-36639500Y44018200D02*
X-36008299Y43386999D01*
X-36008299Y43386999D02*
X-32706435Y43386999D01*
X-32706435Y43386999D02*
X-29425900Y46667534D01*
X-19088100Y53886100D02*
X-19088100Y55206900D01*
X-29425900Y46667534D02*
X-29425900Y48806100D01*
D28*
X-47168881Y42104505D02*
X-46803505Y42104505D01*
X-63284100Y36233100D02*
X-53040286Y36233100D01*
X-53040286Y36233100D02*
X-47168881Y42104505D01*
D30*
X-66276220Y36233100D02*
X-63284100Y36233100D01*
D31*
X-67364912Y36233100D02*
X-66276220Y36233100D01*
X-85171800Y47302004D02*
X-74102896Y36233100D01*
X-74102896Y36233100D02*
X-67364912Y36233100D01*
D30*
X-45504100Y40631500D02*
X-45504100Y34074100D01*
X-61760100Y17818100D02*
X-64602390Y17818100D01*
X-66356247Y16064243D02*
X-66648346Y15772144D01*
X-64602390Y17818100D02*
X-66356247Y16064243D01*
X-45504100Y34074100D02*
X-61760100Y17818100D01*
X-46056100Y41183500D02*
X-45504100Y40631500D01*
X-52641500Y37477700D02*
X-46520100Y43599100D01*
X-56121300Y37477700D02*
X-52641500Y37477700D01*
X-49860199Y42798991D02*
X-49568100Y43091090D01*
X-56121300Y40017700D02*
X-52641490Y40017700D01*
X-52641490Y40017700D02*
X-49860199Y42798991D01*
X-45504110Y44837009D02*
X-45504110Y45250100D01*
X-45504110Y42583090D02*
X-45504110Y44837009D01*
X-56121300Y34937700D02*
X-53149500Y34937700D01*
X-53149500Y34937700D02*
X-45504110Y42583090D01*
D32*
X-45085000Y3720965D02*
X-45085000Y3975100D01*
X-43053000Y1943100D02*
X-45085000Y3975100D01*
X-18961100Y1943100D02*
X-43053000Y1943100D01*
X-17818100Y4363004D02*
X-17818100Y3086100D01*
X-17818100Y3086100D02*
X-18961100Y1943100D01*
X-46774100Y1943100D02*
X-45123100Y3594100D01*
X-71285100Y1943100D02*
X-46774100Y1943100D01*
X-73317100Y3975100D02*
X-71285100Y1943100D01*
X-27555200Y80889004D02*
X-31613800Y80889004D01*
X-20866100Y74199904D02*
X-27555200Y80889004D01*
X-17224000Y63202204D02*
X-20866100Y66844304D01*
X-20866100Y66844304D02*
X-20866100Y74199904D01*
D33*
X-31613800Y80349400D02*
X-31613800Y80889004D01*
D34*
X-31677300Y80349400D02*
X-31613800Y80349400D01*
X-33820100Y78143100D02*
X-33820100Y78206600D01*
X-33820100Y78206600D02*
X-31677300Y80349400D01*
D30*
X-41109900Y89395300D02*
X-41236906Y89395300D01*
D28*
X-44002971Y82168609D02*
X-44002971Y59852571D01*
D30*
X-41236906Y88404706D02*
X-41236906Y89395300D01*
X-41135300Y88303100D02*
X-41236906Y88404706D01*
X-37960300Y86245700D02*
X-40017700Y88303100D01*
X-40017700Y88303100D02*
X-41135300Y88303100D01*
X-44002971Y82844629D02*
X-44002971Y82168609D01*
X-41236906Y85610694D02*
X-44002971Y82844629D01*
X-41236906Y88404706D02*
X-41236906Y85610694D01*
X-45351496Y48280299D02*
X-44002971Y49628824D01*
X-44002971Y49628824D02*
X-44002971Y59852571D01*
X-40449500Y87312496D02*
X-40449504Y87312500D01*
X-40449504Y85834121D02*
X-40449504Y86899409D01*
X-40449504Y86899409D02*
X-40449504Y87312500D01*
X-40449504Y85834121D02*
X-43600370Y82683256D01*
X-43600370Y82683256D02*
X-43600370Y49246536D01*
X-43600370Y49246536D02*
X-44289854Y48557052D01*
X-44289854Y48557052D02*
X-44581953Y48264953D01*
X-39522400Y84924900D02*
X-37426900Y84924900D01*
X-40449504Y85834121D02*
X-40431621Y85834121D01*
X-40431621Y85834121D02*
X-39522400Y84924900D01*
D28*
X-24104602Y72777009D02*
X-24104602Y73190100D01*
X-24104602Y62230002D02*
X-24104602Y72777009D01*
X-22901899Y51266101D02*
X-21130260Y53037740D01*
X-28134299Y51266101D02*
X-22901899Y51266101D01*
X-29832300Y49568100D02*
X-28134299Y51266101D01*
X-32965507Y43812460D02*
X-29832300Y46945667D01*
X-35506660Y45811440D02*
X-36029900Y45288200D01*
X-21130260Y53037740D02*
X-21130260Y59255660D01*
X-36029900Y44160440D02*
X-35681920Y43812460D01*
X-21130260Y59255660D02*
X-24104602Y62230002D01*
X-36029900Y45288200D02*
X-36029900Y44160440D01*
X-29832300Y46945667D02*
X-29832300Y49568100D01*
X-35681920Y43812460D02*
X-32965507Y43812460D01*
D32*
X-18022096Y77457300D02*
X-21453800Y80889004D01*
X-16167100Y77457300D02*
X-18022096Y77457300D01*
X-13804900Y75095100D02*
X-16167100Y77457300D01*
X-13804900Y63232426D02*
X-13804900Y75095100D01*
X-8801100Y58204100D02*
X-8776574Y58204100D01*
X-8776574Y58204100D02*
X-13804900Y63232426D01*
X-31613800Y87620800D02*
X-23215600Y79222600D01*
X-31613800Y88509004D02*
X-31613800Y87620800D01*
D30*
X-42811700Y38646100D02*
X-41182292Y37016692D01*
X-41182292Y34527492D02*
X-40424100Y33769300D01*
X-42811700Y39611300D02*
X-42811700Y38646100D01*
X-43192700Y39992300D02*
X-42811700Y39611300D01*
X-44005500Y39992300D02*
X-43192700Y39992300D01*
X-44869100Y40170100D02*
X-44183300Y40170100D01*
X-44183300Y40170100D02*
X-44005500Y39992300D01*
X-41182292Y37016692D02*
X-41182292Y34527492D01*
X-24472900Y46113694D02*
X-23571193Y47015401D01*
X-24472900Y41414700D02*
X-24472900Y46113694D01*
X-26771599Y39116001D02*
X-24472900Y41414700D01*
X-38481001Y39116001D02*
X-26771599Y39116001D01*
X-38773100Y39408100D02*
X-38481001Y39116001D01*
X-23571193Y47015401D02*
X-23279094Y47307500D01*
X-61785499Y74739499D02*
X-61902341Y74739499D01*
D28*
X-60744100Y73581258D02*
X-60744100Y68999100D01*
X-61902341Y74739499D02*
X-60744100Y73581258D01*
X-60744100Y68999100D02*
X-62649100Y67094100D01*
X-62649100Y67094100D02*
X-62649100Y56426100D01*
X-61502302Y47659302D02*
X-60874898Y47659302D01*
X-62649100Y56426100D02*
X-62649100Y48806100D01*
X-62649100Y48806100D02*
X-61502302Y47659302D01*
D30*
X-62611001Y46663814D02*
X-62903100Y46371715D01*
X-61615513Y47659302D02*
X-62611001Y46663814D01*
X-60874898Y47659302D02*
X-61615513Y47659302D01*
X-45875396Y47180500D02*
X-38417500Y47180500D01*
X-60874898Y47659302D02*
X-46354198Y47659302D01*
X-46354198Y47659302D02*
X-45875396Y47180500D01*
X-38417500Y45326300D02*
X-38417500Y47180500D01*
X-41537769Y42206031D02*
X-38417500Y45326300D01*
X-41537769Y39256943D02*
X-41537769Y42206031D01*
X-24879296Y37147500D02*
X-39428326Y37147500D01*
X-39428326Y37147500D02*
X-41537769Y39256943D01*
D28*
X-67729100Y66372740D02*
X-67729100Y56426100D01*
X-61927739Y72174101D02*
X-67729100Y66372740D01*
X-67729100Y56426100D02*
X-67729100Y45783482D01*
X-67729100Y45783482D02*
X-67703700Y45758082D01*
X-45880784Y46545500D02*
X-40481591Y46545500D01*
X-40481591Y46545500D02*
X-40068500Y46545500D01*
X-67703700Y45758082D02*
X-61784500Y45758082D01*
X-60311281Y47231301D02*
X-46566585Y47231301D01*
D30*
X-41955709Y44658291D02*
X-40360599Y46253401D01*
D28*
X-61784500Y45758082D02*
X-60311281Y47231301D01*
X-46566585Y47231301D02*
X-45880784Y46545500D01*
D30*
X-20993100Y36791900D02*
X-21285199Y36499801D01*
X-39344602Y36499801D02*
X-41955709Y39110909D01*
X-21285199Y36499801D02*
X-39344602Y36499801D01*
X-41955709Y39110909D02*
X-41955709Y44658291D01*
X-40360599Y46253401D02*
X-40068500Y46545500D01*
D28*
X-65189100Y66324480D02*
X-65189100Y56426100D01*
X-61866780Y69646800D02*
X-65189100Y66324480D01*
X-64935100Y56172100D02*
X-64935100Y47536100D01*
X-65189100Y56426100D02*
X-64935100Y56172100D01*
X-47003718Y45885100D02*
X-42335791Y45885100D01*
X-47295817Y46177199D02*
X-47003718Y45885100D01*
D30*
X-39098125Y35674300D02*
X-42367199Y38943374D01*
X-42367199Y38943374D02*
X-42367199Y45440601D01*
D28*
X-54766717Y46177199D02*
X-47295817Y46177199D01*
D30*
X-22898100Y35674300D02*
X-39098125Y35674300D01*
X-42367199Y45440601D02*
X-42214799Y45593001D01*
X-42214799Y45593001D02*
X-41922700Y45885100D01*
D28*
X-64935100Y42202100D02*
X-58741816Y42202100D01*
X-58741816Y42202100D02*
X-54766717Y46177199D01*
X-42335791Y45885100D02*
X-41922700Y45885100D01*
X-34219809Y42798948D02*
X-34632900Y42798948D01*
X-28066948Y42798948D02*
X-34219809Y42798948D01*
X-26581100Y41313100D02*
X-28066948Y42798948D01*
X-28740100Y42167191D02*
X-29644991Y41262300D01*
X-29644991Y41262300D02*
X-38061900Y41262300D01*
X-34963100Y39535100D02*
X-35471100Y40043100D01*
X-29502100Y39535100D02*
X-34963100Y39535100D01*
X-28994100Y40043100D02*
X-29502100Y39535100D01*
D35*
X-79696000Y24120004D02*
X-77613200Y26202804D01*
X-84395000Y24120004D02*
X-79696000Y24120004D01*
X-79848400Y35550004D02*
X-77613200Y33314804D01*
X-84395000Y35550004D02*
X-79848400Y35550004D01*
D33*
X-35217100Y74396600D02*
X-31026106Y74396600D01*
X-36487100Y73126600D02*
X-35217100Y74396600D01*
D31*
X-26650918Y38500082D02*
X-23710900Y41440100D01*
X-37960300Y38500082D02*
X-26650918Y38500082D01*
D28*
X-15893904Y52362100D02*
X-13246100Y52362100D01*
X-17212000Y51044004D02*
X-15893904Y52362100D01*
D30*
X-25665945Y37945082D02*
X-38877045Y37945082D01*
X-40233939Y39301976D02*
X-40526038Y39594075D01*
X-20462924Y43148103D02*
X-25665945Y37945082D01*
X-38877045Y37945082D02*
X-40233939Y39301976D01*
X-18032588Y43148103D02*
X-20462924Y43148103D01*
D31*
X-60198001Y21920199D02*
X-60490100Y21628100D01*
X-58712100Y23406100D02*
X-60198001Y21920199D01*
D30*
X-53124100Y33566100D02*
X-52616100Y34074100D01*
X-55664100Y31034372D02*
X-53132372Y33566100D01*
X-55664100Y26454100D02*
X-55664100Y31034372D01*
X-58712100Y23406100D02*
X-55664100Y26454100D01*
X-53132372Y33566100D02*
X-53124100Y33566100D01*
D31*
X-52616100Y34074100D02*
X-48336197Y38354001D01*
X-48336197Y38354001D02*
X-48044098Y38646100D01*
D30*
X-60490102Y20358098D02*
X-60490100Y20358098D01*
X-46139100Y40043100D02*
X-46139100Y34709100D01*
X-46139100Y34709100D02*
X-60490102Y20358098D01*
X-42346892Y54905528D02*
X-42346892Y51222362D01*
X-41948100Y56426100D02*
X-41948100Y55304320D01*
X-41948100Y55304320D02*
X-42346892Y54905528D01*
D28*
X-41948100Y64223891D02*
X-41948100Y56426100D01*
X-42278310Y64554101D02*
X-41948100Y64223891D01*
D30*
X-52489100Y71666100D02*
X-56807100Y75984100D01*
X-52489100Y56426100D02*
X-52489100Y71666100D01*
X-51092100Y55029100D02*
X-52489100Y56426100D01*
X-44869100Y55029100D02*
X-51092100Y55029100D01*
X-61594997Y76073001D02*
X-61887096Y76365100D01*
X-55029100Y56426100D02*
X-55029100Y69507104D01*
X-55029100Y69507104D02*
X-61594997Y76073001D01*
X-55029100Y55029100D02*
X-55029100Y56426100D01*
X-42837116Y48171084D02*
X-43345100Y47663100D01*
X-42837100Y48171084D02*
X-42837116Y48171084D01*
X-43345100Y47663100D02*
X-45758100Y47663100D01*
X-45758100Y47663100D02*
X-51219100Y53124100D01*
X-51219100Y53124100D02*
X-53124100Y53124100D01*
X-53124100Y53124100D02*
X-55029100Y55029100D01*
X-57569100Y64808100D02*
X-56553100Y65824100D01*
X-57569100Y56426100D02*
X-57569100Y64808100D01*
X-57569100Y55224019D02*
X-57569100Y56426100D01*
X-57569100Y54267100D02*
X-57569100Y55224019D01*
X-55410100Y52108100D02*
X-57569100Y54267100D01*
X-48171100Y48552100D02*
X-51727100Y52108100D01*
X-51727100Y52108100D02*
X-55410100Y52108100D01*
X-60109100Y65824100D02*
X-60109100Y56426100D01*
X-61379100Y67094100D02*
X-60109100Y65824100D01*
X-49987199Y49352199D02*
X-49695100Y49060100D01*
X-51553391Y50918391D02*
X-49987199Y49352199D01*
X-57420791Y50918391D02*
X-51553391Y50918391D01*
X-60109100Y56426100D02*
X-60109100Y53606700D01*
X-60109100Y53606700D02*
X-57420791Y50918391D01*
X-36004500Y54749700D02*
X-34328100Y56426100D01*
X-37782500Y54749700D02*
X-36004500Y54749700D01*
X-40297100Y52235100D02*
X-37782500Y54749700D01*
X-40297100Y48838201D02*
X-40297100Y52235100D01*
X-40551100Y48171110D02*
X-40551100Y48584201D01*
X-40551100Y48584201D02*
X-40297100Y48838201D01*
X-35178099Y57276099D02*
X-34328100Y56426100D01*
X-39632901Y73732401D02*
X-39632901Y61730901D01*
X-39632901Y61730901D02*
X-35178099Y57276099D01*
X-42456100Y77254100D02*
X-42456100Y76555600D01*
X-42456100Y76555600D02*
X-39632901Y73732401D01*
X-36868100Y56426100D02*
X-41059104Y52235096D01*
X-41059104Y52235096D02*
X-41059104Y52013191D01*
X-41059104Y52013191D02*
X-41059104Y51600100D01*
X-41910001Y74930001D02*
X-42202100Y75222100D01*
X-40031692Y73051692D02*
X-41910001Y74930001D01*
X-40031692Y60859692D02*
X-40031692Y73051692D01*
X-36868100Y56426100D02*
X-36868100Y57696100D01*
X-36868100Y57696100D02*
X-40031692Y60859692D01*
D28*
X-41567100Y65697094D02*
X-42202100Y66332094D01*
D30*
X-40258099Y55576101D02*
X-39408100Y56426100D01*
X-41694100Y48171094D02*
X-41694100Y54140100D01*
X-41694100Y54140100D02*
X-40258099Y55576101D01*
X-40932100Y57950100D02*
X-39408100Y56426100D01*
X-41567100Y65697094D02*
X-40932100Y65062094D01*
X-40932100Y65062094D02*
X-40932100Y57950100D01*
D28*
X-71158100Y25438100D02*
X-57696100Y25438100D01*
X-67329964Y38773100D02*
X-70466865Y41910001D01*
X-52362100Y38773100D02*
X-67329964Y38773100D01*
X-70466865Y41910001D02*
X-70758964Y42202100D01*
X-49695100Y41440100D02*
X-52362100Y38773100D01*
X-53021615Y41415599D02*
X-68034821Y41415599D01*
X-68529201Y41909979D02*
X-68821300Y42202078D01*
X-51473114Y42964100D02*
X-53021615Y41415599D01*
X-68034821Y41415599D02*
X-68529201Y41909979D01*
D30*
X-62928500Y14465300D02*
X-44970700Y32423100D01*
X-63639700Y14465300D02*
X-62928500Y14465300D01*
X-44970700Y32423100D02*
X-44091580Y33302220D01*
X-44091580Y33302220D02*
X-44091580Y33296580D01*
X-44107100Y33317740D02*
X-44091580Y33302220D01*
X-44107100Y35998860D02*
X-44107100Y33317740D01*
X-44091580Y36014380D02*
X-44107100Y35998860D01*
X-43799481Y37008964D02*
X-44091580Y36716865D01*
X-44091580Y36716865D02*
X-44091580Y36014380D01*
X-23285791Y12636500D02*
X-22872700Y12636500D01*
X-23380700Y12636500D02*
X-23285791Y12636500D01*
X-44107100Y33286700D02*
X-44030900Y33286700D01*
X-44030900Y33286700D02*
X-23380700Y12636500D01*
X-42481500Y35953700D02*
X-42481500Y32753302D01*
X-42481500Y32753302D02*
X-24904698Y15176500D01*
D28*
X-41789012Y36279602D02*
X-41789012Y36692693D01*
X-41789012Y33127612D02*
X-41789012Y36279602D01*
X-18910300Y12865100D02*
X-21526500Y12865100D01*
X-21526500Y12865100D02*
X-41789012Y33127612D01*
D30*
X-17291391Y38239700D02*
X-16878300Y38239700D01*
X-38118529Y44312173D02*
X-41113579Y41317123D01*
X-41113579Y41317123D02*
X-41113579Y39396727D01*
X-41113579Y39396727D02*
X-39263143Y37546291D01*
X-39263143Y37546291D02*
X-25500761Y37546291D01*
X-25500761Y37546291D02*
X-24807352Y38239700D01*
X-24807352Y38239700D02*
X-17291391Y38239700D01*
X-20485104Y35090096D02*
X-18884900Y36690300D01*
X-40627300Y36182300D02*
X-39535096Y35090096D01*
X-39535096Y35090096D02*
X-20485104Y35090096D01*
D33*
X-5501800Y13687304D02*
X-5499100Y13690004D01*
X-12890500Y13687304D02*
X-5501800Y13687304D01*
D29*
X-36360100Y91224100D02*
X-35521900Y91224100D01*
X-37553900Y90030300D02*
X-36360100Y91224100D01*
X-39090584Y89446100D02*
X-38506384Y90030300D01*
X-38506384Y90030300D02*
X-37553900Y90030300D01*
D28*
X-33312100Y89373694D02*
X-33286694Y89399100D01*
X-33312100Y85432900D02*
X-33312100Y89373694D01*
X-26871947Y55700941D02*
X-26579848Y55408842D01*
X-30746700Y57670700D02*
X-28776941Y55700941D01*
X-28776941Y55700941D02*
X-26871947Y55700941D01*
X-34480500Y57670700D02*
X-30746700Y57670700D01*
X-38976300Y81165700D02*
X-38976300Y62166500D01*
X-38976300Y62166500D02*
X-34480500Y57670700D01*
X-36378387Y85120987D02*
X-35969954Y85529420D01*
X-35969954Y85529420D02*
X-34833560Y85529420D01*
D30*
X-38976300Y82130900D02*
X-38976300Y81165700D01*
X-36378387Y85120987D02*
X-36378387Y84728813D01*
X-36378387Y84728813D02*
X-38976300Y82130900D01*
X-31407100Y48488614D02*
X-31343614Y48552100D01*
X-26579848Y55408842D02*
X-30799783Y51188907D01*
X-30799783Y51188907D02*
X-30799783Y48778417D01*
X-31026100Y48552100D02*
X-31343614Y48552100D01*
X-31407100Y48171100D02*
X-31407100Y48488614D01*
X-34547125Y45031075D02*
X-31407100Y48171100D01*
X-35358794Y45031075D02*
X-34547125Y45031075D01*
X-30799783Y48778417D02*
X-31026100Y48552100D01*
X-25438100Y55765700D02*
X-27800300Y58127900D01*
X-25438100Y55410100D02*
X-25438100Y55765700D01*
X-27800300Y58127900D02*
X-34302700Y58127900D01*
X-30264100Y50584100D02*
X-30264100Y48434975D01*
X-25438100Y55410100D02*
X-30264100Y50584100D01*
X-30264100Y48434975D02*
X-31330926Y47368149D01*
X-34327805Y44371270D02*
X-31330926Y47368149D01*
X-35031594Y44371270D02*
X-34327805Y44371270D01*
D28*
X-35772056Y84446144D02*
X-35772056Y84935050D01*
X-34302700Y58127900D02*
X-34302700Y58686700D01*
X-38569889Y81648311D02*
X-35772056Y84446144D01*
X-38569889Y62953889D02*
X-38569889Y81648311D01*
X-34302700Y58686700D02*
X-38569889Y62953889D01*
D32*
X-28740100Y78143100D02*
X-27750151Y78143100D01*
X-27750151Y78143100D02*
X-26835100Y78143100D01*
X-26835100Y78143100D02*
X-22390100Y73698100D01*
X-22390100Y73698100D02*
X-22390100Y71158100D01*
X-22898100Y71158100D02*
X-22390100Y71158100D01*
D28*
X-34328100Y69634052D02*
X-22161498Y57467450D01*
X-22161498Y57467450D02*
X-22161498Y52997100D01*
D30*
X-15436100Y61988000D02*
X-17314000Y60110100D01*
X-15436100Y74518264D02*
X-15436100Y61988000D01*
X-16881936Y75964100D02*
X-15436100Y74518264D01*
X-18466100Y75964100D02*
X-16881936Y75964100D01*
X-28079700Y86499700D02*
X-28079700Y85577700D01*
X-28079700Y85577700D02*
X-18466100Y75964100D01*
X-36403280Y85872320D02*
X-34709100Y87566500D01*
X-32867600Y91033600D02*
X-30264100Y91033600D01*
X-34709100Y87566500D02*
X-34709100Y89192100D01*
X-36522660Y85872320D02*
X-36403280Y85872320D01*
X-34709100Y89192100D02*
X-32867600Y91033600D01*
X-44818300Y38621513D02*
X-44425412Y39014401D01*
X-62141100Y16319500D02*
X-44818300Y33642300D01*
X-44818300Y33642300D02*
X-44818300Y38621513D01*
X-68846700Y12788900D02*
X-65316100Y16319500D01*
X-44031729Y39408084D02*
X-44133313Y39306500D01*
X-44425412Y39014401D02*
X-44133313Y39306500D01*
X-65316100Y16319500D02*
X-62141100Y16319500D01*
D33*
X-84395000Y13690004D02*
X-75047004Y13690004D01*
D28*
X-37503112Y53886100D02*
X-39408100Y51981112D01*
X-31788100Y56426100D02*
X-34328100Y53886100D01*
X-34328100Y53886100D02*
X-37503112Y53886100D01*
X-53886100Y87763009D02*
X-53886100Y88176100D01*
X-53886100Y83604100D02*
X-53886100Y88176100D01*
X-47828199Y77546199D02*
X-53886100Y83604100D01*
X-44869100Y56680100D02*
X-47828199Y59639199D01*
X-47828199Y59639199D02*
X-47828199Y77546199D01*
D32*
X-17224000Y70557804D02*
X-17224000Y67057804D01*
D28*
X-12259000Y49139004D02*
X-10481000Y47361004D01*
X-15307000Y49139004D02*
X-12259000Y49139004D01*
D30*
X-72745601Y48412401D02*
X-73037700Y48704500D01*
X-58966100Y43853100D02*
X-68186300Y43853100D01*
X-68186300Y43853100D02*
X-72745601Y48412401D01*
X-56172100Y46647100D02*
X-58966100Y43853100D01*
X-46901100Y46647100D02*
X-56172100Y46647100D01*
M02*
