%TF.GenerationSoftware,KiCad,Pcbnew,(5.1.5)-3*%
%TF.CreationDate,2020-03-14T11:42:48-07:00*%
%TF.ProjectId,mainboard,6d61696e-626f-4617-9264-2e6b69636164,rev?*%
%TF.SameCoordinates,PXb3c5ff4PY8d80254*%
%TF.FileFunction,Soldermask,Bot*%
%TF.FilePolarity,Negative*%
%FSLAX46Y46*%
G04 Gerber Fmt 4.6, Leading zero omitted, Abs format (unit mm)*
G04 Created by KiCad (PCBNEW (5.1.5)-3) date 2020-03-14 11:42:48*
%MOMM*%
%LPD*%
G04 APERTURE LIST*
%ADD10C,0.190500*%
%ADD11C,0.150000*%
%ADD12O,1.801600X1.801600*%
%ADD13C,0.100000*%
%ADD14C,1.501600*%
%ADD15R,2.901600X2.901600*%
%ADD16R,0.901600X0.401600*%
%ADD17R,0.401600X0.901600*%
%ADD18C,2.159000*%
%ADD19R,2.159000X2.159000*%
%ADD20C,0.751600*%
%ADD21O,1.101600X2.201600*%
%ADD22O,1.101600X1.701600*%
%ADD23R,1.101600X1.901600*%
%ADD24R,1.601600X1.651600*%
%ADD25C,1.371600*%
%ADD26C,1.509600*%
%ADD27R,0.551600X1.451600*%
%ADD28R,1.081600X3.501600*%
%ADD29C,2.351600*%
%ADD30C,2.151600*%
%ADD31C,2.000000*%
%ADD32R,1.427000X2.127000*%
%ADD33C,5.701600*%
%ADD34R,2.108200X2.413000*%
%ADD35R,2.413000X2.108200*%
%ADD36C,2.006600*%
%ADD37C,5.101600*%
%ADD38R,2.006600X2.006600*%
%ADD39R,0.711200X2.311400*%
%ADD40R,1.752600X0.939800*%
%ADD41R,0.889000X0.431800*%
%ADD42R,0.431800X0.889000*%
%ADD43R,2.921000X2.921000*%
%ADD44R,1.367000X0.927000*%
%ADD45R,2.627000X1.077000*%
%ADD46R,2.327000X1.277000*%
%ADD47R,1.377000X1.287000*%
%ADD48R,1.327000X1.287000*%
%ADD49R,1.277000X1.627000*%
%ADD50R,1.447800X0.685800*%
%ADD51C,2.133600*%
G04 APERTURE END LIST*
D10*
X-48007815Y88901815D02*
X-47245815Y88901815D01*
X-47608672Y88901815D02*
X-47608672Y89337243D01*
X-48007815Y89337243D02*
X-47245815Y89337243D01*
X-47245815Y89845243D02*
X-47245815Y89990386D01*
X-47282100Y90062958D01*
X-47354672Y90135529D01*
X-47499815Y90171815D01*
X-47753815Y90171815D01*
X-47898958Y90135529D01*
X-47971529Y90062958D01*
X-48007815Y89990386D01*
X-48007815Y89845243D01*
X-47971529Y89772672D01*
X-47898958Y89700100D01*
X-47753815Y89663815D01*
X-47499815Y89663815D01*
X-47354672Y89700100D01*
X-47282100Y89772672D01*
X-47245815Y89845243D01*
X-48007815Y90861243D02*
X-48007815Y90498386D01*
X-47245815Y90498386D01*
X-48007815Y91478100D02*
X-48007815Y91115243D01*
X-47245815Y91115243D01*
X-48007815Y91732100D02*
X-47245815Y91732100D01*
X-48007815Y92094958D02*
X-47245815Y92094958D01*
X-47245815Y92276386D01*
X-47282100Y92385243D01*
X-47354672Y92457815D01*
X-47427243Y92494100D01*
X-47572386Y92530386D01*
X-47681243Y92530386D01*
X-47826386Y92494100D01*
X-47898958Y92457815D01*
X-47971529Y92385243D01*
X-48007815Y92276386D01*
X-48007815Y92094958D01*
X-47790100Y92820672D02*
X-47790100Y93183529D01*
X-48007815Y92748100D02*
X-47245815Y93002100D01*
X-48007815Y93256100D01*
X-47644958Y93655243D02*
X-48007815Y93655243D01*
X-47245815Y93401243D02*
X-47644958Y93655243D01*
X-47245815Y93909243D01*
D11*
X-90170000Y93885000D02*
X-90170000Y2000000D01*
X-88170000Y0D02*
G75*
G02X-90170000Y2000000I0J2000000D01*
G01*
X-88170000Y0D02*
X-2000000Y0D01*
X0Y2000000D02*
G75*
G02X-2000000Y0I-2000000J0D01*
G01*
X0Y2000000D02*
X0Y93885000D01*
X-2000000Y95885000D02*
G75*
G02X0Y93885000I0J-2000000D01*
G01*
X-2000000Y95885000D02*
X-34230000Y95875004D01*
X-34230000Y95875004D02*
X-35500000Y94986004D01*
X-35500000Y94986004D02*
X-46295000Y94986004D01*
X-46295000Y94986004D02*
X-47574997Y95885000D01*
X-47574997Y95885000D02*
X-88170000Y95885000D01*
X-90170000Y93885000D02*
G75*
G02X-88170000Y95885000I2000000J0D01*
G01*
D12*
X-30264100Y33769300D03*
X-32804100Y33769300D03*
X-35344100Y33769300D03*
X-37884100Y33769300D03*
X-40424100Y33769300D03*
D13*
G36*
X-27799019Y88129224D02*
G01*
X-27775319Y88125709D01*
X-27752077Y88119887D01*
X-27729518Y88111815D01*
X-27707858Y88101571D01*
X-27687308Y88089253D01*
X-27668063Y88074981D01*
X-27650310Y88058890D01*
X-27634219Y88041137D01*
X-27619947Y88021892D01*
X-27607629Y88001342D01*
X-27597385Y87979682D01*
X-27589313Y87957123D01*
X-27583491Y87933881D01*
X-27579976Y87910181D01*
X-27578800Y87886250D01*
X-27578800Y87322950D01*
X-27579976Y87299019D01*
X-27583491Y87275319D01*
X-27589313Y87252077D01*
X-27597385Y87229518D01*
X-27607629Y87207858D01*
X-27619947Y87187308D01*
X-27634219Y87168063D01*
X-27650310Y87150310D01*
X-27668063Y87134219D01*
X-27687308Y87119947D01*
X-27707858Y87107629D01*
X-27729518Y87097385D01*
X-27752077Y87089313D01*
X-27775319Y87083491D01*
X-27799019Y87079976D01*
X-27822950Y87078800D01*
X-28311250Y87078800D01*
X-28335181Y87079976D01*
X-28358881Y87083491D01*
X-28382123Y87089313D01*
X-28404682Y87097385D01*
X-28426342Y87107629D01*
X-28446892Y87119947D01*
X-28466137Y87134219D01*
X-28483890Y87150310D01*
X-28499981Y87168063D01*
X-28514253Y87187308D01*
X-28526571Y87207858D01*
X-28536815Y87229518D01*
X-28544887Y87252077D01*
X-28550709Y87275319D01*
X-28554224Y87299019D01*
X-28555400Y87322950D01*
X-28555400Y87886250D01*
X-28554224Y87910181D01*
X-28550709Y87933881D01*
X-28544887Y87957123D01*
X-28536815Y87979682D01*
X-28526571Y88001342D01*
X-28514253Y88021892D01*
X-28499981Y88041137D01*
X-28483890Y88058890D01*
X-28466137Y88074981D01*
X-28446892Y88089253D01*
X-28426342Y88101571D01*
X-28404682Y88111815D01*
X-28382123Y88119887D01*
X-28358881Y88125709D01*
X-28335181Y88129224D01*
X-28311250Y88130400D01*
X-27822950Y88130400D01*
X-27799019Y88129224D01*
G37*
G36*
X-26224019Y88129224D02*
G01*
X-26200319Y88125709D01*
X-26177077Y88119887D01*
X-26154518Y88111815D01*
X-26132858Y88101571D01*
X-26112308Y88089253D01*
X-26093063Y88074981D01*
X-26075310Y88058890D01*
X-26059219Y88041137D01*
X-26044947Y88021892D01*
X-26032629Y88001342D01*
X-26022385Y87979682D01*
X-26014313Y87957123D01*
X-26008491Y87933881D01*
X-26004976Y87910181D01*
X-26003800Y87886250D01*
X-26003800Y87322950D01*
X-26004976Y87299019D01*
X-26008491Y87275319D01*
X-26014313Y87252077D01*
X-26022385Y87229518D01*
X-26032629Y87207858D01*
X-26044947Y87187308D01*
X-26059219Y87168063D01*
X-26075310Y87150310D01*
X-26093063Y87134219D01*
X-26112308Y87119947D01*
X-26132858Y87107629D01*
X-26154518Y87097385D01*
X-26177077Y87089313D01*
X-26200319Y87083491D01*
X-26224019Y87079976D01*
X-26247950Y87078800D01*
X-26736250Y87078800D01*
X-26760181Y87079976D01*
X-26783881Y87083491D01*
X-26807123Y87089313D01*
X-26829682Y87097385D01*
X-26851342Y87107629D01*
X-26871892Y87119947D01*
X-26891137Y87134219D01*
X-26908890Y87150310D01*
X-26924981Y87168063D01*
X-26939253Y87187308D01*
X-26951571Y87207858D01*
X-26961815Y87229518D01*
X-26969887Y87252077D01*
X-26975709Y87275319D01*
X-26979224Y87299019D01*
X-26980400Y87322950D01*
X-26980400Y87886250D01*
X-26979224Y87910181D01*
X-26975709Y87933881D01*
X-26969887Y87957123D01*
X-26961815Y87979682D01*
X-26951571Y88001342D01*
X-26939253Y88021892D01*
X-26924981Y88041137D01*
X-26908890Y88058890D01*
X-26891137Y88074981D01*
X-26871892Y88089253D01*
X-26851342Y88101571D01*
X-26829682Y88111815D01*
X-26807123Y88119887D01*
X-26783881Y88125709D01*
X-26760181Y88129224D01*
X-26736250Y88130400D01*
X-26247950Y88130400D01*
X-26224019Y88129224D01*
G37*
D14*
X-28740100Y78143100D03*
X-31280100Y78143100D03*
X-33820100Y78143100D03*
X-36360100Y78143100D03*
D15*
X-36106100Y82080100D03*
D16*
X-38106100Y83330100D03*
X-38106100Y82830100D03*
X-38106100Y82330100D03*
X-38106100Y81830100D03*
X-38106100Y81330100D03*
X-38106100Y80830100D03*
D17*
X-37356100Y80080100D03*
X-36856100Y80080100D03*
X-36356100Y80080100D03*
X-35856100Y80080100D03*
X-35356100Y80080100D03*
X-34856100Y80080100D03*
D16*
X-34106100Y80830100D03*
X-34106100Y81330100D03*
X-34106100Y81830100D03*
X-34106100Y82330100D03*
X-34106100Y82830100D03*
X-34106100Y83330100D03*
D17*
X-34856100Y84080100D03*
X-35356100Y84080100D03*
X-35856100Y84080100D03*
X-36356100Y84080100D03*
X-36856100Y84080100D03*
X-37356100Y84080100D03*
D18*
X-17224000Y67057804D03*
D19*
X-17224000Y63202204D03*
D13*
G36*
X-50358117Y44874990D02*
G01*
X-50331705Y44871072D01*
X-50305804Y44864584D01*
X-50280663Y44855589D01*
X-50256526Y44844172D01*
X-50233623Y44830445D01*
X-50212176Y44814539D01*
X-50192392Y44796608D01*
X-50174461Y44776824D01*
X-50158555Y44755377D01*
X-50144828Y44732474D01*
X-50133411Y44708337D01*
X-50124416Y44683196D01*
X-50117928Y44657295D01*
X-50114010Y44630883D01*
X-50112700Y44604214D01*
X-50112700Y43896786D01*
X-50114010Y43870117D01*
X-50117928Y43843705D01*
X-50124416Y43817804D01*
X-50133411Y43792663D01*
X-50144828Y43768526D01*
X-50158555Y43745623D01*
X-50174461Y43724176D01*
X-50192392Y43704392D01*
X-50212176Y43686461D01*
X-50233623Y43670555D01*
X-50256526Y43656828D01*
X-50280663Y43645411D01*
X-50305804Y43636416D01*
X-50331705Y43629928D01*
X-50358117Y43626010D01*
X-50384786Y43624700D01*
X-51342214Y43624700D01*
X-51368883Y43626010D01*
X-51395295Y43629928D01*
X-51421196Y43636416D01*
X-51446337Y43645411D01*
X-51470474Y43656828D01*
X-51493377Y43670555D01*
X-51514824Y43686461D01*
X-51534608Y43704392D01*
X-51552539Y43724176D01*
X-51568445Y43745623D01*
X-51582172Y43768526D01*
X-51593589Y43792663D01*
X-51602584Y43817804D01*
X-51609072Y43843705D01*
X-51612990Y43870117D01*
X-51614300Y43896786D01*
X-51614300Y44604214D01*
X-51612990Y44630883D01*
X-51609072Y44657295D01*
X-51602584Y44683196D01*
X-51593589Y44708337D01*
X-51582172Y44732474D01*
X-51568445Y44755377D01*
X-51552539Y44776824D01*
X-51534608Y44796608D01*
X-51514824Y44814539D01*
X-51493377Y44830445D01*
X-51470474Y44844172D01*
X-51446337Y44855589D01*
X-51421196Y44864584D01*
X-51395295Y44871072D01*
X-51368883Y44874990D01*
X-51342214Y44876300D01*
X-50384786Y44876300D01*
X-50358117Y44874990D01*
G37*
G36*
X-50358117Y46924990D02*
G01*
X-50331705Y46921072D01*
X-50305804Y46914584D01*
X-50280663Y46905589D01*
X-50256526Y46894172D01*
X-50233623Y46880445D01*
X-50212176Y46864539D01*
X-50192392Y46846608D01*
X-50174461Y46826824D01*
X-50158555Y46805377D01*
X-50144828Y46782474D01*
X-50133411Y46758337D01*
X-50124416Y46733196D01*
X-50117928Y46707295D01*
X-50114010Y46680883D01*
X-50112700Y46654214D01*
X-50112700Y45946786D01*
X-50114010Y45920117D01*
X-50117928Y45893705D01*
X-50124416Y45867804D01*
X-50133411Y45842663D01*
X-50144828Y45818526D01*
X-50158555Y45795623D01*
X-50174461Y45774176D01*
X-50192392Y45754392D01*
X-50212176Y45736461D01*
X-50233623Y45720555D01*
X-50256526Y45706828D01*
X-50280663Y45695411D01*
X-50305804Y45686416D01*
X-50331705Y45679928D01*
X-50358117Y45676010D01*
X-50384786Y45674700D01*
X-51342214Y45674700D01*
X-51368883Y45676010D01*
X-51395295Y45679928D01*
X-51421196Y45686416D01*
X-51446337Y45695411D01*
X-51470474Y45706828D01*
X-51493377Y45720555D01*
X-51514824Y45736461D01*
X-51534608Y45754392D01*
X-51552539Y45774176D01*
X-51568445Y45795623D01*
X-51582172Y45818526D01*
X-51593589Y45842663D01*
X-51602584Y45867804D01*
X-51609072Y45893705D01*
X-51612990Y45920117D01*
X-51614300Y45946786D01*
X-51614300Y46654214D01*
X-51612990Y46680883D01*
X-51609072Y46707295D01*
X-51602584Y46733196D01*
X-51593589Y46758337D01*
X-51582172Y46782474D01*
X-51568445Y46805377D01*
X-51552539Y46826824D01*
X-51534608Y46846608D01*
X-51514824Y46864539D01*
X-51493377Y46880445D01*
X-51470474Y46894172D01*
X-51446337Y46905589D01*
X-51421196Y46914584D01*
X-51395295Y46921072D01*
X-51368883Y46924990D01*
X-51342214Y46926300D01*
X-50384786Y46926300D01*
X-50358117Y46924990D01*
G37*
G36*
X-24129219Y49359528D02*
G01*
X-24105519Y49356013D01*
X-24082277Y49350191D01*
X-24059718Y49342119D01*
X-24038058Y49331875D01*
X-24017508Y49319557D01*
X-23998263Y49305285D01*
X-23980510Y49289194D01*
X-23964419Y49271441D01*
X-23950147Y49252196D01*
X-23937829Y49231646D01*
X-23927585Y49209986D01*
X-23919513Y49187427D01*
X-23913691Y49164185D01*
X-23910176Y49140485D01*
X-23909000Y49116554D01*
X-23909000Y48628254D01*
X-23910176Y48604323D01*
X-23913691Y48580623D01*
X-23919513Y48557381D01*
X-23927585Y48534822D01*
X-23937829Y48513162D01*
X-23950147Y48492612D01*
X-23964419Y48473367D01*
X-23980510Y48455614D01*
X-23998263Y48439523D01*
X-24017508Y48425251D01*
X-24038058Y48412933D01*
X-24059718Y48402689D01*
X-24082277Y48394617D01*
X-24105519Y48388795D01*
X-24129219Y48385280D01*
X-24153150Y48384104D01*
X-24716450Y48384104D01*
X-24740381Y48385280D01*
X-24764081Y48388795D01*
X-24787323Y48394617D01*
X-24809882Y48402689D01*
X-24831542Y48412933D01*
X-24852092Y48425251D01*
X-24871337Y48439523D01*
X-24889090Y48455614D01*
X-24905181Y48473367D01*
X-24919453Y48492612D01*
X-24931771Y48513162D01*
X-24942015Y48534822D01*
X-24950087Y48557381D01*
X-24955909Y48580623D01*
X-24959424Y48604323D01*
X-24960600Y48628254D01*
X-24960600Y49116554D01*
X-24959424Y49140485D01*
X-24955909Y49164185D01*
X-24950087Y49187427D01*
X-24942015Y49209986D01*
X-24931771Y49231646D01*
X-24919453Y49252196D01*
X-24905181Y49271441D01*
X-24889090Y49289194D01*
X-24871337Y49305285D01*
X-24852092Y49319557D01*
X-24831542Y49331875D01*
X-24809882Y49342119D01*
X-24787323Y49350191D01*
X-24764081Y49356013D01*
X-24740381Y49359528D01*
X-24716450Y49360704D01*
X-24153150Y49360704D01*
X-24129219Y49359528D01*
G37*
G36*
X-24129219Y47784528D02*
G01*
X-24105519Y47781013D01*
X-24082277Y47775191D01*
X-24059718Y47767119D01*
X-24038058Y47756875D01*
X-24017508Y47744557D01*
X-23998263Y47730285D01*
X-23980510Y47714194D01*
X-23964419Y47696441D01*
X-23950147Y47677196D01*
X-23937829Y47656646D01*
X-23927585Y47634986D01*
X-23919513Y47612427D01*
X-23913691Y47589185D01*
X-23910176Y47565485D01*
X-23909000Y47541554D01*
X-23909000Y47053254D01*
X-23910176Y47029323D01*
X-23913691Y47005623D01*
X-23919513Y46982381D01*
X-23927585Y46959822D01*
X-23937829Y46938162D01*
X-23950147Y46917612D01*
X-23964419Y46898367D01*
X-23980510Y46880614D01*
X-23998263Y46864523D01*
X-24017508Y46850251D01*
X-24038058Y46837933D01*
X-24059718Y46827689D01*
X-24082277Y46819617D01*
X-24105519Y46813795D01*
X-24129219Y46810280D01*
X-24153150Y46809104D01*
X-24716450Y46809104D01*
X-24740381Y46810280D01*
X-24764081Y46813795D01*
X-24787323Y46819617D01*
X-24809882Y46827689D01*
X-24831542Y46837933D01*
X-24852092Y46850251D01*
X-24871337Y46864523D01*
X-24889090Y46880614D01*
X-24905181Y46898367D01*
X-24919453Y46917612D01*
X-24931771Y46938162D01*
X-24942015Y46959822D01*
X-24950087Y46982381D01*
X-24955909Y47005623D01*
X-24959424Y47029323D01*
X-24960600Y47053254D01*
X-24960600Y47541554D01*
X-24959424Y47565485D01*
X-24955909Y47589185D01*
X-24950087Y47612427D01*
X-24942015Y47634986D01*
X-24931771Y47656646D01*
X-24919453Y47677196D01*
X-24905181Y47696441D01*
X-24889090Y47714194D01*
X-24871337Y47730285D01*
X-24852092Y47744557D01*
X-24831542Y47756875D01*
X-24809882Y47767119D01*
X-24787323Y47775191D01*
X-24764081Y47781013D01*
X-24740381Y47784528D01*
X-24716450Y47785704D01*
X-24153150Y47785704D01*
X-24129219Y47784528D01*
G37*
G36*
X-21906719Y49356824D02*
G01*
X-21883019Y49353309D01*
X-21859777Y49347487D01*
X-21837218Y49339415D01*
X-21815558Y49329171D01*
X-21795008Y49316853D01*
X-21775763Y49302581D01*
X-21758010Y49286490D01*
X-21741919Y49268737D01*
X-21727647Y49249492D01*
X-21715329Y49228942D01*
X-21705085Y49207282D01*
X-21697013Y49184723D01*
X-21691191Y49161481D01*
X-21687676Y49137781D01*
X-21686500Y49113850D01*
X-21686500Y48625550D01*
X-21687676Y48601619D01*
X-21691191Y48577919D01*
X-21697013Y48554677D01*
X-21705085Y48532118D01*
X-21715329Y48510458D01*
X-21727647Y48489908D01*
X-21741919Y48470663D01*
X-21758010Y48452910D01*
X-21775763Y48436819D01*
X-21795008Y48422547D01*
X-21815558Y48410229D01*
X-21837218Y48399985D01*
X-21859777Y48391913D01*
X-21883019Y48386091D01*
X-21906719Y48382576D01*
X-21930650Y48381400D01*
X-22493950Y48381400D01*
X-22517881Y48382576D01*
X-22541581Y48386091D01*
X-22564823Y48391913D01*
X-22587382Y48399985D01*
X-22609042Y48410229D01*
X-22629592Y48422547D01*
X-22648837Y48436819D01*
X-22666590Y48452910D01*
X-22682681Y48470663D01*
X-22696953Y48489908D01*
X-22709271Y48510458D01*
X-22719515Y48532118D01*
X-22727587Y48554677D01*
X-22733409Y48577919D01*
X-22736924Y48601619D01*
X-22738100Y48625550D01*
X-22738100Y49113850D01*
X-22736924Y49137781D01*
X-22733409Y49161481D01*
X-22727587Y49184723D01*
X-22719515Y49207282D01*
X-22709271Y49228942D01*
X-22696953Y49249492D01*
X-22682681Y49268737D01*
X-22666590Y49286490D01*
X-22648837Y49302581D01*
X-22629592Y49316853D01*
X-22609042Y49329171D01*
X-22587382Y49339415D01*
X-22564823Y49347487D01*
X-22541581Y49353309D01*
X-22517881Y49356824D01*
X-22493950Y49358000D01*
X-21930650Y49358000D01*
X-21906719Y49356824D01*
G37*
G36*
X-21906719Y47781824D02*
G01*
X-21883019Y47778309D01*
X-21859777Y47772487D01*
X-21837218Y47764415D01*
X-21815558Y47754171D01*
X-21795008Y47741853D01*
X-21775763Y47727581D01*
X-21758010Y47711490D01*
X-21741919Y47693737D01*
X-21727647Y47674492D01*
X-21715329Y47653942D01*
X-21705085Y47632282D01*
X-21697013Y47609723D01*
X-21691191Y47586481D01*
X-21687676Y47562781D01*
X-21686500Y47538850D01*
X-21686500Y47050550D01*
X-21687676Y47026619D01*
X-21691191Y47002919D01*
X-21697013Y46979677D01*
X-21705085Y46957118D01*
X-21715329Y46935458D01*
X-21727647Y46914908D01*
X-21741919Y46895663D01*
X-21758010Y46877910D01*
X-21775763Y46861819D01*
X-21795008Y46847547D01*
X-21815558Y46835229D01*
X-21837218Y46824985D01*
X-21859777Y46816913D01*
X-21883019Y46811091D01*
X-21906719Y46807576D01*
X-21930650Y46806400D01*
X-22493950Y46806400D01*
X-22517881Y46807576D01*
X-22541581Y46811091D01*
X-22564823Y46816913D01*
X-22587382Y46824985D01*
X-22609042Y46835229D01*
X-22629592Y46847547D01*
X-22648837Y46861819D01*
X-22666590Y46877910D01*
X-22682681Y46895663D01*
X-22696953Y46914908D01*
X-22709271Y46935458D01*
X-22719515Y46957118D01*
X-22727587Y46979677D01*
X-22733409Y47002919D01*
X-22736924Y47026619D01*
X-22738100Y47050550D01*
X-22738100Y47538850D01*
X-22736924Y47562781D01*
X-22733409Y47586481D01*
X-22727587Y47609723D01*
X-22719515Y47632282D01*
X-22709271Y47653942D01*
X-22696953Y47674492D01*
X-22682681Y47693737D01*
X-22666590Y47711490D01*
X-22648837Y47727581D01*
X-22629592Y47741853D01*
X-22609042Y47754171D01*
X-22587382Y47764415D01*
X-22564823Y47772487D01*
X-22541581Y47778309D01*
X-22517881Y47781824D01*
X-22493950Y47783000D01*
X-21930650Y47783000D01*
X-21906719Y47781824D01*
G37*
D20*
X-43839500Y89287300D03*
D21*
X-36629500Y88787300D03*
X-45269500Y88787300D03*
D22*
X-45269500Y92937300D03*
X-36629500Y92937300D03*
D20*
X-38059500Y89287300D03*
D23*
X-26888580Y26835700D03*
X-24888580Y26835700D03*
X-22888580Y26835700D03*
X-20888580Y26835700D03*
X-18888580Y26835700D03*
X-16888580Y26835700D03*
X-14888580Y26835700D03*
X-12888580Y26835700D03*
X-12888580Y11035700D03*
X-14888580Y11035700D03*
X-16888580Y11035700D03*
X-18888580Y11035700D03*
X-20888580Y11035700D03*
X-22888580Y11035700D03*
X-24888580Y11035700D03*
X-26888580Y11035700D03*
D19*
X-17314000Y60110100D03*
D24*
X-37907500Y93865700D03*
X-44007500Y93865700D03*
X-39957500Y93865700D03*
X-41957500Y93865700D03*
D25*
X-37457500Y93865700D03*
X-44457500Y93865700D03*
D26*
X-38457500Y91165700D03*
X-43457500Y91165700D03*
D27*
X-39657500Y91190700D03*
X-40307500Y91190700D03*
X-40957500Y91190700D03*
X-41607500Y91190700D03*
X-42257500Y91190700D03*
D13*
G36*
X-39393919Y87100524D02*
G01*
X-39370219Y87097009D01*
X-39346977Y87091187D01*
X-39324418Y87083115D01*
X-39302758Y87072871D01*
X-39282208Y87060553D01*
X-39262963Y87046281D01*
X-39245210Y87030190D01*
X-39229119Y87012437D01*
X-39214847Y86993192D01*
X-39202529Y86972642D01*
X-39192285Y86950982D01*
X-39184213Y86928423D01*
X-39178391Y86905181D01*
X-39174876Y86881481D01*
X-39173700Y86857550D01*
X-39173700Y86294250D01*
X-39174876Y86270319D01*
X-39178391Y86246619D01*
X-39184213Y86223377D01*
X-39192285Y86200818D01*
X-39202529Y86179158D01*
X-39214847Y86158608D01*
X-39229119Y86139363D01*
X-39245210Y86121610D01*
X-39262963Y86105519D01*
X-39282208Y86091247D01*
X-39302758Y86078929D01*
X-39324418Y86068685D01*
X-39346977Y86060613D01*
X-39370219Y86054791D01*
X-39393919Y86051276D01*
X-39417850Y86050100D01*
X-39906150Y86050100D01*
X-39930081Y86051276D01*
X-39953781Y86054791D01*
X-39977023Y86060613D01*
X-39999582Y86068685D01*
X-40021242Y86078929D01*
X-40041792Y86091247D01*
X-40061037Y86105519D01*
X-40078790Y86121610D01*
X-40094881Y86139363D01*
X-40109153Y86158608D01*
X-40121471Y86179158D01*
X-40131715Y86200818D01*
X-40139787Y86223377D01*
X-40145609Y86246619D01*
X-40149124Y86270319D01*
X-40150300Y86294250D01*
X-40150300Y86857550D01*
X-40149124Y86881481D01*
X-40145609Y86905181D01*
X-40139787Y86928423D01*
X-40131715Y86950982D01*
X-40121471Y86972642D01*
X-40109153Y86993192D01*
X-40094881Y87012437D01*
X-40078790Y87030190D01*
X-40061037Y87046281D01*
X-40041792Y87060553D01*
X-40021242Y87072871D01*
X-39999582Y87083115D01*
X-39977023Y87091187D01*
X-39953781Y87097009D01*
X-39930081Y87100524D01*
X-39906150Y87101700D01*
X-39417850Y87101700D01*
X-39393919Y87100524D01*
G37*
G36*
X-40968919Y87100524D02*
G01*
X-40945219Y87097009D01*
X-40921977Y87091187D01*
X-40899418Y87083115D01*
X-40877758Y87072871D01*
X-40857208Y87060553D01*
X-40837963Y87046281D01*
X-40820210Y87030190D01*
X-40804119Y87012437D01*
X-40789847Y86993192D01*
X-40777529Y86972642D01*
X-40767285Y86950982D01*
X-40759213Y86928423D01*
X-40753391Y86905181D01*
X-40749876Y86881481D01*
X-40748700Y86857550D01*
X-40748700Y86294250D01*
X-40749876Y86270319D01*
X-40753391Y86246619D01*
X-40759213Y86223377D01*
X-40767285Y86200818D01*
X-40777529Y86179158D01*
X-40789847Y86158608D01*
X-40804119Y86139363D01*
X-40820210Y86121610D01*
X-40837963Y86105519D01*
X-40857208Y86091247D01*
X-40877758Y86078929D01*
X-40899418Y86068685D01*
X-40921977Y86060613D01*
X-40945219Y86054791D01*
X-40968919Y86051276D01*
X-40992850Y86050100D01*
X-41481150Y86050100D01*
X-41505081Y86051276D01*
X-41528781Y86054791D01*
X-41552023Y86060613D01*
X-41574582Y86068685D01*
X-41596242Y86078929D01*
X-41616792Y86091247D01*
X-41636037Y86105519D01*
X-41653790Y86121610D01*
X-41669881Y86139363D01*
X-41684153Y86158608D01*
X-41696471Y86179158D01*
X-41706715Y86200818D01*
X-41714787Y86223377D01*
X-41720609Y86246619D01*
X-41724124Y86270319D01*
X-41725300Y86294250D01*
X-41725300Y86857550D01*
X-41724124Y86881481D01*
X-41720609Y86905181D01*
X-41714787Y86928423D01*
X-41706715Y86950982D01*
X-41696471Y86972642D01*
X-41684153Y86993192D01*
X-41669881Y87012437D01*
X-41653790Y87030190D01*
X-41636037Y87046281D01*
X-41616792Y87060553D01*
X-41596242Y87072871D01*
X-41574582Y87083115D01*
X-41552023Y87091187D01*
X-41528781Y87097009D01*
X-41505081Y87100524D01*
X-41481150Y87101700D01*
X-40992850Y87101700D01*
X-40968919Y87100524D01*
G37*
G36*
X-40968919Y85805124D02*
G01*
X-40945219Y85801609D01*
X-40921977Y85795787D01*
X-40899418Y85787715D01*
X-40877758Y85777471D01*
X-40857208Y85765153D01*
X-40837963Y85750881D01*
X-40820210Y85734790D01*
X-40804119Y85717037D01*
X-40789847Y85697792D01*
X-40777529Y85677242D01*
X-40767285Y85655582D01*
X-40759213Y85633023D01*
X-40753391Y85609781D01*
X-40749876Y85586081D01*
X-40748700Y85562150D01*
X-40748700Y84998850D01*
X-40749876Y84974919D01*
X-40753391Y84951219D01*
X-40759213Y84927977D01*
X-40767285Y84905418D01*
X-40777529Y84883758D01*
X-40789847Y84863208D01*
X-40804119Y84843963D01*
X-40820210Y84826210D01*
X-40837963Y84810119D01*
X-40857208Y84795847D01*
X-40877758Y84783529D01*
X-40899418Y84773285D01*
X-40921977Y84765213D01*
X-40945219Y84759391D01*
X-40968919Y84755876D01*
X-40992850Y84754700D01*
X-41481150Y84754700D01*
X-41505081Y84755876D01*
X-41528781Y84759391D01*
X-41552023Y84765213D01*
X-41574582Y84773285D01*
X-41596242Y84783529D01*
X-41616792Y84795847D01*
X-41636037Y84810119D01*
X-41653790Y84826210D01*
X-41669881Y84843963D01*
X-41684153Y84863208D01*
X-41696471Y84883758D01*
X-41706715Y84905418D01*
X-41714787Y84927977D01*
X-41720609Y84951219D01*
X-41724124Y84974919D01*
X-41725300Y84998850D01*
X-41725300Y85562150D01*
X-41724124Y85586081D01*
X-41720609Y85609781D01*
X-41714787Y85633023D01*
X-41706715Y85655582D01*
X-41696471Y85677242D01*
X-41684153Y85697792D01*
X-41669881Y85717037D01*
X-41653790Y85734790D01*
X-41636037Y85750881D01*
X-41616792Y85765153D01*
X-41596242Y85777471D01*
X-41574582Y85787715D01*
X-41552023Y85795787D01*
X-41528781Y85801609D01*
X-41505081Y85805124D01*
X-41481150Y85806300D01*
X-40992850Y85806300D01*
X-40968919Y85805124D01*
G37*
G36*
X-39393919Y85805124D02*
G01*
X-39370219Y85801609D01*
X-39346977Y85795787D01*
X-39324418Y85787715D01*
X-39302758Y85777471D01*
X-39282208Y85765153D01*
X-39262963Y85750881D01*
X-39245210Y85734790D01*
X-39229119Y85717037D01*
X-39214847Y85697792D01*
X-39202529Y85677242D01*
X-39192285Y85655582D01*
X-39184213Y85633023D01*
X-39178391Y85609781D01*
X-39174876Y85586081D01*
X-39173700Y85562150D01*
X-39173700Y84998850D01*
X-39174876Y84974919D01*
X-39178391Y84951219D01*
X-39184213Y84927977D01*
X-39192285Y84905418D01*
X-39202529Y84883758D01*
X-39214847Y84863208D01*
X-39229119Y84843963D01*
X-39245210Y84826210D01*
X-39262963Y84810119D01*
X-39282208Y84795847D01*
X-39302758Y84783529D01*
X-39324418Y84773285D01*
X-39346977Y84765213D01*
X-39370219Y84759391D01*
X-39393919Y84755876D01*
X-39417850Y84754700D01*
X-39906150Y84754700D01*
X-39930081Y84755876D01*
X-39953781Y84759391D01*
X-39977023Y84765213D01*
X-39999582Y84773285D01*
X-40021242Y84783529D01*
X-40041792Y84795847D01*
X-40061037Y84810119D01*
X-40078790Y84826210D01*
X-40094881Y84843963D01*
X-40109153Y84863208D01*
X-40121471Y84883758D01*
X-40131715Y84905418D01*
X-40139787Y84927977D01*
X-40145609Y84951219D01*
X-40149124Y84974919D01*
X-40150300Y84998850D01*
X-40150300Y85562150D01*
X-40149124Y85586081D01*
X-40145609Y85609781D01*
X-40139787Y85633023D01*
X-40131715Y85655582D01*
X-40121471Y85677242D01*
X-40109153Y85697792D01*
X-40094881Y85717037D01*
X-40078790Y85734790D01*
X-40061037Y85750881D01*
X-40041792Y85765153D01*
X-40021242Y85777471D01*
X-39999582Y85787715D01*
X-39977023Y85795787D01*
X-39953781Y85801609D01*
X-39930081Y85805124D01*
X-39906150Y85806300D01*
X-39417850Y85806300D01*
X-39393919Y85805124D01*
G37*
G36*
X-29970519Y83620724D02*
G01*
X-29946819Y83617209D01*
X-29923577Y83611387D01*
X-29901018Y83603315D01*
X-29879358Y83593071D01*
X-29858808Y83580753D01*
X-29839563Y83566481D01*
X-29821810Y83550390D01*
X-29805719Y83532637D01*
X-29791447Y83513392D01*
X-29779129Y83492842D01*
X-29768885Y83471182D01*
X-29760813Y83448623D01*
X-29754991Y83425381D01*
X-29751476Y83401681D01*
X-29750300Y83377750D01*
X-29750300Y82814450D01*
X-29751476Y82790519D01*
X-29754991Y82766819D01*
X-29760813Y82743577D01*
X-29768885Y82721018D01*
X-29779129Y82699358D01*
X-29791447Y82678808D01*
X-29805719Y82659563D01*
X-29821810Y82641810D01*
X-29839563Y82625719D01*
X-29858808Y82611447D01*
X-29879358Y82599129D01*
X-29901018Y82588885D01*
X-29923577Y82580813D01*
X-29946819Y82574991D01*
X-29970519Y82571476D01*
X-29994450Y82570300D01*
X-30482750Y82570300D01*
X-30506681Y82571476D01*
X-30530381Y82574991D01*
X-30553623Y82580813D01*
X-30576182Y82588885D01*
X-30597842Y82599129D01*
X-30618392Y82611447D01*
X-30637637Y82625719D01*
X-30655390Y82641810D01*
X-30671481Y82659563D01*
X-30685753Y82678808D01*
X-30698071Y82699358D01*
X-30708315Y82721018D01*
X-30716387Y82743577D01*
X-30722209Y82766819D01*
X-30725724Y82790519D01*
X-30726900Y82814450D01*
X-30726900Y83377750D01*
X-30725724Y83401681D01*
X-30722209Y83425381D01*
X-30716387Y83448623D01*
X-30708315Y83471182D01*
X-30698071Y83492842D01*
X-30685753Y83513392D01*
X-30671481Y83532637D01*
X-30655390Y83550390D01*
X-30637637Y83566481D01*
X-30618392Y83580753D01*
X-30597842Y83593071D01*
X-30576182Y83603315D01*
X-30553623Y83611387D01*
X-30530381Y83617209D01*
X-30506681Y83620724D01*
X-30482750Y83621900D01*
X-29994450Y83621900D01*
X-29970519Y83620724D01*
G37*
G36*
X-31545519Y83620724D02*
G01*
X-31521819Y83617209D01*
X-31498577Y83611387D01*
X-31476018Y83603315D01*
X-31454358Y83593071D01*
X-31433808Y83580753D01*
X-31414563Y83566481D01*
X-31396810Y83550390D01*
X-31380719Y83532637D01*
X-31366447Y83513392D01*
X-31354129Y83492842D01*
X-31343885Y83471182D01*
X-31335813Y83448623D01*
X-31329991Y83425381D01*
X-31326476Y83401681D01*
X-31325300Y83377750D01*
X-31325300Y82814450D01*
X-31326476Y82790519D01*
X-31329991Y82766819D01*
X-31335813Y82743577D01*
X-31343885Y82721018D01*
X-31354129Y82699358D01*
X-31366447Y82678808D01*
X-31380719Y82659563D01*
X-31396810Y82641810D01*
X-31414563Y82625719D01*
X-31433808Y82611447D01*
X-31454358Y82599129D01*
X-31476018Y82588885D01*
X-31498577Y82580813D01*
X-31521819Y82574991D01*
X-31545519Y82571476D01*
X-31569450Y82570300D01*
X-32057750Y82570300D01*
X-32081681Y82571476D01*
X-32105381Y82574991D01*
X-32128623Y82580813D01*
X-32151182Y82588885D01*
X-32172842Y82599129D01*
X-32193392Y82611447D01*
X-32212637Y82625719D01*
X-32230390Y82641810D01*
X-32246481Y82659563D01*
X-32260753Y82678808D01*
X-32273071Y82699358D01*
X-32283315Y82721018D01*
X-32291387Y82743577D01*
X-32297209Y82766819D01*
X-32300724Y82790519D01*
X-32301900Y82814450D01*
X-32301900Y83377750D01*
X-32300724Y83401681D01*
X-32297209Y83425381D01*
X-32291387Y83448623D01*
X-32283315Y83471182D01*
X-32273071Y83492842D01*
X-32260753Y83513392D01*
X-32246481Y83532637D01*
X-32230390Y83550390D01*
X-32212637Y83566481D01*
X-32193392Y83580753D01*
X-32172842Y83593071D01*
X-32151182Y83603315D01*
X-32128623Y83611387D01*
X-32105381Y83617209D01*
X-32081681Y83620724D01*
X-32057750Y83621900D01*
X-31569450Y83621900D01*
X-31545519Y83620724D01*
G37*
G36*
X-26236719Y85957524D02*
G01*
X-26213019Y85954009D01*
X-26189777Y85948187D01*
X-26167218Y85940115D01*
X-26145558Y85929871D01*
X-26125008Y85917553D01*
X-26105763Y85903281D01*
X-26088010Y85887190D01*
X-26071919Y85869437D01*
X-26057647Y85850192D01*
X-26045329Y85829642D01*
X-26035085Y85807982D01*
X-26027013Y85785423D01*
X-26021191Y85762181D01*
X-26017676Y85738481D01*
X-26016500Y85714550D01*
X-26016500Y85151250D01*
X-26017676Y85127319D01*
X-26021191Y85103619D01*
X-26027013Y85080377D01*
X-26035085Y85057818D01*
X-26045329Y85036158D01*
X-26057647Y85015608D01*
X-26071919Y84996363D01*
X-26088010Y84978610D01*
X-26105763Y84962519D01*
X-26125008Y84948247D01*
X-26145558Y84935929D01*
X-26167218Y84925685D01*
X-26189777Y84917613D01*
X-26213019Y84911791D01*
X-26236719Y84908276D01*
X-26260650Y84907100D01*
X-26748950Y84907100D01*
X-26772881Y84908276D01*
X-26796581Y84911791D01*
X-26819823Y84917613D01*
X-26842382Y84925685D01*
X-26864042Y84935929D01*
X-26884592Y84948247D01*
X-26903837Y84962519D01*
X-26921590Y84978610D01*
X-26937681Y84996363D01*
X-26951953Y85015608D01*
X-26964271Y85036158D01*
X-26974515Y85057818D01*
X-26982587Y85080377D01*
X-26988409Y85103619D01*
X-26991924Y85127319D01*
X-26993100Y85151250D01*
X-26993100Y85714550D01*
X-26991924Y85738481D01*
X-26988409Y85762181D01*
X-26982587Y85785423D01*
X-26974515Y85807982D01*
X-26964271Y85829642D01*
X-26951953Y85850192D01*
X-26937681Y85869437D01*
X-26921590Y85887190D01*
X-26903837Y85903281D01*
X-26884592Y85917553D01*
X-26864042Y85929871D01*
X-26842382Y85940115D01*
X-26819823Y85948187D01*
X-26796581Y85954009D01*
X-26772881Y85957524D01*
X-26748950Y85958700D01*
X-26260650Y85958700D01*
X-26236719Y85957524D01*
G37*
G36*
X-27811719Y85957524D02*
G01*
X-27788019Y85954009D01*
X-27764777Y85948187D01*
X-27742218Y85940115D01*
X-27720558Y85929871D01*
X-27700008Y85917553D01*
X-27680763Y85903281D01*
X-27663010Y85887190D01*
X-27646919Y85869437D01*
X-27632647Y85850192D01*
X-27620329Y85829642D01*
X-27610085Y85807982D01*
X-27602013Y85785423D01*
X-27596191Y85762181D01*
X-27592676Y85738481D01*
X-27591500Y85714550D01*
X-27591500Y85151250D01*
X-27592676Y85127319D01*
X-27596191Y85103619D01*
X-27602013Y85080377D01*
X-27610085Y85057818D01*
X-27620329Y85036158D01*
X-27632647Y85015608D01*
X-27646919Y84996363D01*
X-27663010Y84978610D01*
X-27680763Y84962519D01*
X-27700008Y84948247D01*
X-27720558Y84935929D01*
X-27742218Y84925685D01*
X-27764777Y84917613D01*
X-27788019Y84911791D01*
X-27811719Y84908276D01*
X-27835650Y84907100D01*
X-28323950Y84907100D01*
X-28347881Y84908276D01*
X-28371581Y84911791D01*
X-28394823Y84917613D01*
X-28417382Y84925685D01*
X-28439042Y84935929D01*
X-28459592Y84948247D01*
X-28478837Y84962519D01*
X-28496590Y84978610D01*
X-28512681Y84996363D01*
X-28526953Y85015608D01*
X-28539271Y85036158D01*
X-28549515Y85057818D01*
X-28557587Y85080377D01*
X-28563409Y85103619D01*
X-28566924Y85127319D01*
X-28568100Y85151250D01*
X-28568100Y85714550D01*
X-28566924Y85738481D01*
X-28563409Y85762181D01*
X-28557587Y85785423D01*
X-28549515Y85807982D01*
X-28539271Y85829642D01*
X-28526953Y85850192D01*
X-28512681Y85869437D01*
X-28496590Y85887190D01*
X-28478837Y85903281D01*
X-28459592Y85917553D01*
X-28439042Y85929871D01*
X-28417382Y85940115D01*
X-28394823Y85948187D01*
X-28371581Y85954009D01*
X-28347881Y85957524D01*
X-28323950Y85958700D01*
X-27835650Y85958700D01*
X-27811719Y85957524D01*
G37*
G36*
X-32053519Y85957524D02*
G01*
X-32029819Y85954009D01*
X-32006577Y85948187D01*
X-31984018Y85940115D01*
X-31962358Y85929871D01*
X-31941808Y85917553D01*
X-31922563Y85903281D01*
X-31904810Y85887190D01*
X-31888719Y85869437D01*
X-31874447Y85850192D01*
X-31862129Y85829642D01*
X-31851885Y85807982D01*
X-31843813Y85785423D01*
X-31837991Y85762181D01*
X-31834476Y85738481D01*
X-31833300Y85714550D01*
X-31833300Y85151250D01*
X-31834476Y85127319D01*
X-31837991Y85103619D01*
X-31843813Y85080377D01*
X-31851885Y85057818D01*
X-31862129Y85036158D01*
X-31874447Y85015608D01*
X-31888719Y84996363D01*
X-31904810Y84978610D01*
X-31922563Y84962519D01*
X-31941808Y84948247D01*
X-31962358Y84935929D01*
X-31984018Y84925685D01*
X-32006577Y84917613D01*
X-32029819Y84911791D01*
X-32053519Y84908276D01*
X-32077450Y84907100D01*
X-32565750Y84907100D01*
X-32589681Y84908276D01*
X-32613381Y84911791D01*
X-32636623Y84917613D01*
X-32659182Y84925685D01*
X-32680842Y84935929D01*
X-32701392Y84948247D01*
X-32720637Y84962519D01*
X-32738390Y84978610D01*
X-32754481Y84996363D01*
X-32768753Y85015608D01*
X-32781071Y85036158D01*
X-32791315Y85057818D01*
X-32799387Y85080377D01*
X-32805209Y85103619D01*
X-32808724Y85127319D01*
X-32809900Y85151250D01*
X-32809900Y85714550D01*
X-32808724Y85738481D01*
X-32805209Y85762181D01*
X-32799387Y85785423D01*
X-32791315Y85807982D01*
X-32781071Y85829642D01*
X-32768753Y85850192D01*
X-32754481Y85869437D01*
X-32738390Y85887190D01*
X-32720637Y85903281D01*
X-32701392Y85917553D01*
X-32680842Y85929871D01*
X-32659182Y85940115D01*
X-32636623Y85948187D01*
X-32613381Y85954009D01*
X-32589681Y85957524D01*
X-32565750Y85958700D01*
X-32077450Y85958700D01*
X-32053519Y85957524D01*
G37*
G36*
X-30478519Y85957524D02*
G01*
X-30454819Y85954009D01*
X-30431577Y85948187D01*
X-30409018Y85940115D01*
X-30387358Y85929871D01*
X-30366808Y85917553D01*
X-30347563Y85903281D01*
X-30329810Y85887190D01*
X-30313719Y85869437D01*
X-30299447Y85850192D01*
X-30287129Y85829642D01*
X-30276885Y85807982D01*
X-30268813Y85785423D01*
X-30262991Y85762181D01*
X-30259476Y85738481D01*
X-30258300Y85714550D01*
X-30258300Y85151250D01*
X-30259476Y85127319D01*
X-30262991Y85103619D01*
X-30268813Y85080377D01*
X-30276885Y85057818D01*
X-30287129Y85036158D01*
X-30299447Y85015608D01*
X-30313719Y84996363D01*
X-30329810Y84978610D01*
X-30347563Y84962519D01*
X-30366808Y84948247D01*
X-30387358Y84935929D01*
X-30409018Y84925685D01*
X-30431577Y84917613D01*
X-30454819Y84911791D01*
X-30478519Y84908276D01*
X-30502450Y84907100D01*
X-30990750Y84907100D01*
X-31014681Y84908276D01*
X-31038381Y84911791D01*
X-31061623Y84917613D01*
X-31084182Y84925685D01*
X-31105842Y84935929D01*
X-31126392Y84948247D01*
X-31145637Y84962519D01*
X-31163390Y84978610D01*
X-31179481Y84996363D01*
X-31193753Y85015608D01*
X-31206071Y85036158D01*
X-31216315Y85057818D01*
X-31224387Y85080377D01*
X-31230209Y85103619D01*
X-31233724Y85127319D01*
X-31234900Y85151250D01*
X-31234900Y85714550D01*
X-31233724Y85738481D01*
X-31230209Y85762181D01*
X-31224387Y85785423D01*
X-31216315Y85807982D01*
X-31206071Y85829642D01*
X-31193753Y85850192D01*
X-31179481Y85869437D01*
X-31163390Y85887190D01*
X-31145637Y85903281D01*
X-31126392Y85917553D01*
X-31105842Y85929871D01*
X-31084182Y85940115D01*
X-31061623Y85948187D01*
X-31038381Y85954009D01*
X-31014681Y85957524D01*
X-30990750Y85958700D01*
X-30502450Y85958700D01*
X-30478519Y85957524D01*
G37*
D28*
X-41024900Y77254100D03*
X-38654900Y77254100D03*
D13*
G36*
X-39534319Y81043124D02*
G01*
X-39510619Y81039609D01*
X-39487377Y81033787D01*
X-39464818Y81025715D01*
X-39443158Y81015471D01*
X-39422608Y81003153D01*
X-39403363Y80988881D01*
X-39385610Y80972790D01*
X-39369519Y80955037D01*
X-39355247Y80935792D01*
X-39342929Y80915242D01*
X-39332685Y80893582D01*
X-39324613Y80871023D01*
X-39318791Y80847781D01*
X-39315276Y80824081D01*
X-39314100Y80800150D01*
X-39314100Y80311850D01*
X-39315276Y80287919D01*
X-39318791Y80264219D01*
X-39324613Y80240977D01*
X-39332685Y80218418D01*
X-39342929Y80196758D01*
X-39355247Y80176208D01*
X-39369519Y80156963D01*
X-39385610Y80139210D01*
X-39403363Y80123119D01*
X-39422608Y80108847D01*
X-39443158Y80096529D01*
X-39464818Y80086285D01*
X-39487377Y80078213D01*
X-39510619Y80072391D01*
X-39534319Y80068876D01*
X-39558250Y80067700D01*
X-40121550Y80067700D01*
X-40145481Y80068876D01*
X-40169181Y80072391D01*
X-40192423Y80078213D01*
X-40214982Y80086285D01*
X-40236642Y80096529D01*
X-40257192Y80108847D01*
X-40276437Y80123119D01*
X-40294190Y80139210D01*
X-40310281Y80156963D01*
X-40324553Y80176208D01*
X-40336871Y80196758D01*
X-40347115Y80218418D01*
X-40355187Y80240977D01*
X-40361009Y80264219D01*
X-40364524Y80287919D01*
X-40365700Y80311850D01*
X-40365700Y80800150D01*
X-40364524Y80824081D01*
X-40361009Y80847781D01*
X-40355187Y80871023D01*
X-40347115Y80893582D01*
X-40336871Y80915242D01*
X-40324553Y80935792D01*
X-40310281Y80955037D01*
X-40294190Y80972790D01*
X-40276437Y80988881D01*
X-40257192Y81003153D01*
X-40236642Y81015471D01*
X-40214982Y81025715D01*
X-40192423Y81033787D01*
X-40169181Y81039609D01*
X-40145481Y81043124D01*
X-40121550Y81044300D01*
X-39558250Y81044300D01*
X-39534319Y81043124D01*
G37*
G36*
X-39534319Y82618124D02*
G01*
X-39510619Y82614609D01*
X-39487377Y82608787D01*
X-39464818Y82600715D01*
X-39443158Y82590471D01*
X-39422608Y82578153D01*
X-39403363Y82563881D01*
X-39385610Y82547790D01*
X-39369519Y82530037D01*
X-39355247Y82510792D01*
X-39342929Y82490242D01*
X-39332685Y82468582D01*
X-39324613Y82446023D01*
X-39318791Y82422781D01*
X-39315276Y82399081D01*
X-39314100Y82375150D01*
X-39314100Y81886850D01*
X-39315276Y81862919D01*
X-39318791Y81839219D01*
X-39324613Y81815977D01*
X-39332685Y81793418D01*
X-39342929Y81771758D01*
X-39355247Y81751208D01*
X-39369519Y81731963D01*
X-39385610Y81714210D01*
X-39403363Y81698119D01*
X-39422608Y81683847D01*
X-39443158Y81671529D01*
X-39464818Y81661285D01*
X-39487377Y81653213D01*
X-39510619Y81647391D01*
X-39534319Y81643876D01*
X-39558250Y81642700D01*
X-40121550Y81642700D01*
X-40145481Y81643876D01*
X-40169181Y81647391D01*
X-40192423Y81653213D01*
X-40214982Y81661285D01*
X-40236642Y81671529D01*
X-40257192Y81683847D01*
X-40276437Y81698119D01*
X-40294190Y81714210D01*
X-40310281Y81731963D01*
X-40324553Y81751208D01*
X-40336871Y81771758D01*
X-40347115Y81793418D01*
X-40355187Y81815977D01*
X-40361009Y81839219D01*
X-40364524Y81862919D01*
X-40365700Y81886850D01*
X-40365700Y82375150D01*
X-40364524Y82399081D01*
X-40361009Y82422781D01*
X-40355187Y82446023D01*
X-40347115Y82468582D01*
X-40336871Y82490242D01*
X-40324553Y82510792D01*
X-40310281Y82530037D01*
X-40294190Y82547790D01*
X-40276437Y82563881D01*
X-40257192Y82578153D01*
X-40236642Y82590471D01*
X-40214982Y82600715D01*
X-40192423Y82608787D01*
X-40169181Y82614609D01*
X-40145481Y82618124D01*
X-40121550Y82619300D01*
X-39558250Y82619300D01*
X-39534319Y82618124D01*
G37*
G36*
X-39419319Y84484324D02*
G01*
X-39395619Y84480809D01*
X-39372377Y84474987D01*
X-39349818Y84466915D01*
X-39328158Y84456671D01*
X-39307608Y84444353D01*
X-39288363Y84430081D01*
X-39270610Y84413990D01*
X-39254519Y84396237D01*
X-39240247Y84376992D01*
X-39227929Y84356442D01*
X-39217685Y84334782D01*
X-39209613Y84312223D01*
X-39203791Y84288981D01*
X-39200276Y84265281D01*
X-39199100Y84241350D01*
X-39199100Y83678050D01*
X-39200276Y83654119D01*
X-39203791Y83630419D01*
X-39209613Y83607177D01*
X-39217685Y83584618D01*
X-39227929Y83562958D01*
X-39240247Y83542408D01*
X-39254519Y83523163D01*
X-39270610Y83505410D01*
X-39288363Y83489319D01*
X-39307608Y83475047D01*
X-39328158Y83462729D01*
X-39349818Y83452485D01*
X-39372377Y83444413D01*
X-39395619Y83438591D01*
X-39419319Y83435076D01*
X-39443250Y83433900D01*
X-39931550Y83433900D01*
X-39955481Y83435076D01*
X-39979181Y83438591D01*
X-40002423Y83444413D01*
X-40024982Y83452485D01*
X-40046642Y83462729D01*
X-40067192Y83475047D01*
X-40086437Y83489319D01*
X-40104190Y83505410D01*
X-40120281Y83523163D01*
X-40134553Y83542408D01*
X-40146871Y83562958D01*
X-40157115Y83584618D01*
X-40165187Y83607177D01*
X-40171009Y83630419D01*
X-40174524Y83654119D01*
X-40175700Y83678050D01*
X-40175700Y84241350D01*
X-40174524Y84265281D01*
X-40171009Y84288981D01*
X-40165187Y84312223D01*
X-40157115Y84334782D01*
X-40146871Y84356442D01*
X-40134553Y84376992D01*
X-40120281Y84396237D01*
X-40104190Y84413990D01*
X-40086437Y84430081D01*
X-40067192Y84444353D01*
X-40046642Y84456671D01*
X-40024982Y84466915D01*
X-40002423Y84474987D01*
X-39979181Y84480809D01*
X-39955481Y84484324D01*
X-39931550Y84485500D01*
X-39443250Y84485500D01*
X-39419319Y84484324D01*
G37*
G36*
X-40994319Y84484324D02*
G01*
X-40970619Y84480809D01*
X-40947377Y84474987D01*
X-40924818Y84466915D01*
X-40903158Y84456671D01*
X-40882608Y84444353D01*
X-40863363Y84430081D01*
X-40845610Y84413990D01*
X-40829519Y84396237D01*
X-40815247Y84376992D01*
X-40802929Y84356442D01*
X-40792685Y84334782D01*
X-40784613Y84312223D01*
X-40778791Y84288981D01*
X-40775276Y84265281D01*
X-40774100Y84241350D01*
X-40774100Y83678050D01*
X-40775276Y83654119D01*
X-40778791Y83630419D01*
X-40784613Y83607177D01*
X-40792685Y83584618D01*
X-40802929Y83562958D01*
X-40815247Y83542408D01*
X-40829519Y83523163D01*
X-40845610Y83505410D01*
X-40863363Y83489319D01*
X-40882608Y83475047D01*
X-40903158Y83462729D01*
X-40924818Y83452485D01*
X-40947377Y83444413D01*
X-40970619Y83438591D01*
X-40994319Y83435076D01*
X-41018250Y83433900D01*
X-41506550Y83433900D01*
X-41530481Y83435076D01*
X-41554181Y83438591D01*
X-41577423Y83444413D01*
X-41599982Y83452485D01*
X-41621642Y83462729D01*
X-41642192Y83475047D01*
X-41661437Y83489319D01*
X-41679190Y83505410D01*
X-41695281Y83523163D01*
X-41709553Y83542408D01*
X-41721871Y83562958D01*
X-41732115Y83584618D01*
X-41740187Y83607177D01*
X-41746009Y83630419D01*
X-41749524Y83654119D01*
X-41750700Y83678050D01*
X-41750700Y84241350D01*
X-41749524Y84265281D01*
X-41746009Y84288981D01*
X-41740187Y84312223D01*
X-41732115Y84334782D01*
X-41721871Y84356442D01*
X-41709553Y84376992D01*
X-41695281Y84396237D01*
X-41679190Y84413990D01*
X-41661437Y84430081D01*
X-41642192Y84444353D01*
X-41621642Y84456671D01*
X-41599982Y84466915D01*
X-41577423Y84474987D01*
X-41554181Y84480809D01*
X-41530481Y84484324D01*
X-41506550Y84485500D01*
X-41018250Y84485500D01*
X-40994319Y84484324D01*
G37*
D29*
X-86935000Y38090004D03*
X-86935000Y33010004D03*
X-81855000Y33010004D03*
X-81855000Y38090004D03*
D30*
X-84395000Y35550004D03*
D29*
X-86935000Y26660004D03*
X-86935000Y21580004D03*
X-81855000Y21580004D03*
X-81855000Y26660004D03*
D30*
X-84395000Y24120004D03*
D31*
X-2070100Y94018100D03*
X-87668100Y93510100D03*
X-88176100Y1816100D03*
D32*
X-12888580Y44846004D03*
X-14888580Y44846004D03*
X-16888580Y44846004D03*
X-18888580Y44846004D03*
X-20888580Y44846004D03*
X-22888580Y44846004D03*
X-24888580Y44846004D03*
X-26888580Y44846004D03*
X-12888580Y11030004D03*
X-14888580Y11030004D03*
X-16888580Y11030004D03*
X-18888580Y11030004D03*
X-20888580Y11030004D03*
X-22888580Y11030004D03*
X-24888580Y11030004D03*
X-26888580Y11030004D03*
D29*
X-8039100Y11150004D03*
X-8039100Y16230004D03*
X-2959100Y16230004D03*
X-2959100Y11150004D03*
D30*
X-5499100Y13690004D03*
D33*
X-82540000Y90805000D03*
D34*
X-56706640Y83616800D03*
X-54166640Y83616800D03*
X-51626640Y83616800D03*
X-49086640Y83616800D03*
X-46546640Y83616800D03*
D35*
X-44260640Y81076800D03*
X-44260640Y78536800D03*
X-44260640Y75996800D03*
X-44260640Y73456800D03*
X-44260640Y70916800D03*
X-44260640Y68376800D03*
X-44260640Y65836800D03*
X-44260640Y63296800D03*
X-44260640Y60756800D03*
X-58992640Y60756800D03*
X-58992640Y63296800D03*
X-58992640Y65836800D03*
X-58992640Y68376800D03*
X-58992640Y70916800D03*
X-58992640Y73456800D03*
X-58992640Y75996800D03*
X-58992640Y78536800D03*
X-58992640Y81076800D03*
D34*
X-77002640Y83616800D03*
X-74462640Y83616800D03*
X-71922640Y83616800D03*
X-69382640Y83616800D03*
X-66842640Y83616800D03*
D35*
X-64556640Y81076800D03*
X-64556640Y78536800D03*
X-64556640Y75996800D03*
X-64556640Y73456800D03*
X-64556640Y70916800D03*
X-64556640Y68376800D03*
X-64556640Y65836800D03*
X-64556640Y63296800D03*
X-64556640Y60756800D03*
X-79288640Y60756800D03*
X-79288640Y63296800D03*
X-79288640Y65836800D03*
X-79288640Y68376800D03*
X-79288640Y70916800D03*
X-79288640Y73456800D03*
X-79288640Y75996800D03*
X-79288640Y78536800D03*
X-79288640Y81076800D03*
D36*
X-64198500Y4051300D03*
X-66738500Y4051300D03*
D37*
X-8880000Y90805000D03*
X-5080000Y5080000D03*
X-85080000Y5080000D03*
D12*
X-52489100Y56426100D03*
X-55029100Y56426100D03*
X-57569100Y56426100D03*
X-60109100Y56426100D03*
X-62649100Y56426100D03*
X-65189100Y56426100D03*
X-67729100Y56426100D03*
X-70269100Y56426100D03*
X-72809100Y56426100D03*
X-31788100Y56426100D03*
X-34328100Y56426100D03*
X-36868100Y56426100D03*
X-39408100Y56426100D03*
X-41948100Y56426100D03*
X-56121300Y42557700D03*
X-56121300Y40017700D03*
X-56121300Y37477700D03*
X-56121300Y34937700D03*
X-56121300Y32397700D03*
D13*
G36*
X-48257508Y50807055D02*
G01*
X-48240481Y50804530D01*
X-48223784Y50800347D01*
X-48207577Y50794548D01*
X-48192017Y50787189D01*
X-48177253Y50778340D01*
X-48163427Y50768086D01*
X-48150673Y50756527D01*
X-48139114Y50743773D01*
X-48128860Y50729947D01*
X-48120011Y50715183D01*
X-48112652Y50699623D01*
X-48106853Y50683416D01*
X-48102670Y50666719D01*
X-48100145Y50649692D01*
X-48099300Y50632500D01*
X-48099300Y50281700D01*
X-48100145Y50264508D01*
X-48102670Y50247481D01*
X-48106853Y50230784D01*
X-48112652Y50214577D01*
X-48120011Y50199017D01*
X-48128860Y50184253D01*
X-48139114Y50170427D01*
X-48150673Y50157673D01*
X-48163427Y50146114D01*
X-48177253Y50135860D01*
X-48192017Y50127011D01*
X-48207577Y50119652D01*
X-48223784Y50113853D01*
X-48240481Y50109670D01*
X-48257508Y50107145D01*
X-48274700Y50106300D01*
X-49775500Y50106300D01*
X-49792692Y50107145D01*
X-49809719Y50109670D01*
X-49826416Y50113853D01*
X-49842623Y50119652D01*
X-49858183Y50127011D01*
X-49872947Y50135860D01*
X-49886773Y50146114D01*
X-49899527Y50157673D01*
X-49911086Y50170427D01*
X-49921340Y50184253D01*
X-49930189Y50199017D01*
X-49937548Y50214577D01*
X-49943347Y50230784D01*
X-49947530Y50247481D01*
X-49950055Y50264508D01*
X-49950900Y50281700D01*
X-49950900Y50632500D01*
X-49950055Y50649692D01*
X-49947530Y50666719D01*
X-49943347Y50683416D01*
X-49937548Y50699623D01*
X-49930189Y50715183D01*
X-49921340Y50729947D01*
X-49911086Y50743773D01*
X-49899527Y50756527D01*
X-49886773Y50768086D01*
X-49872947Y50778340D01*
X-49858183Y50787189D01*
X-49842623Y50794548D01*
X-49826416Y50800347D01*
X-49809719Y50804530D01*
X-49792692Y50807055D01*
X-49775500Y50807900D01*
X-48274700Y50807900D01*
X-48257508Y50807055D01*
G37*
G36*
X-48257508Y52077055D02*
G01*
X-48240481Y52074530D01*
X-48223784Y52070347D01*
X-48207577Y52064548D01*
X-48192017Y52057189D01*
X-48177253Y52048340D01*
X-48163427Y52038086D01*
X-48150673Y52026527D01*
X-48139114Y52013773D01*
X-48128860Y51999947D01*
X-48120011Y51985183D01*
X-48112652Y51969623D01*
X-48106853Y51953416D01*
X-48102670Y51936719D01*
X-48100145Y51919692D01*
X-48099300Y51902500D01*
X-48099300Y51551700D01*
X-48100145Y51534508D01*
X-48102670Y51517481D01*
X-48106853Y51500784D01*
X-48112652Y51484577D01*
X-48120011Y51469017D01*
X-48128860Y51454253D01*
X-48139114Y51440427D01*
X-48150673Y51427673D01*
X-48163427Y51416114D01*
X-48177253Y51405860D01*
X-48192017Y51397011D01*
X-48207577Y51389652D01*
X-48223784Y51383853D01*
X-48240481Y51379670D01*
X-48257508Y51377145D01*
X-48274700Y51376300D01*
X-49775500Y51376300D01*
X-49792692Y51377145D01*
X-49809719Y51379670D01*
X-49826416Y51383853D01*
X-49842623Y51389652D01*
X-49858183Y51397011D01*
X-49872947Y51405860D01*
X-49886773Y51416114D01*
X-49899527Y51427673D01*
X-49911086Y51440427D01*
X-49921340Y51454253D01*
X-49930189Y51469017D01*
X-49937548Y51484577D01*
X-49943347Y51500784D01*
X-49947530Y51517481D01*
X-49950055Y51534508D01*
X-49950900Y51551700D01*
X-49950900Y51902500D01*
X-49950055Y51919692D01*
X-49947530Y51936719D01*
X-49943347Y51953416D01*
X-49937548Y51969623D01*
X-49930189Y51985183D01*
X-49921340Y51999947D01*
X-49911086Y52013773D01*
X-49899527Y52026527D01*
X-49886773Y52038086D01*
X-49872947Y52048340D01*
X-49858183Y52057189D01*
X-49842623Y52064548D01*
X-49826416Y52070347D01*
X-49809719Y52074530D01*
X-49792692Y52077055D01*
X-49775500Y52077900D01*
X-48274700Y52077900D01*
X-48257508Y52077055D01*
G37*
G36*
X-48257508Y53347055D02*
G01*
X-48240481Y53344530D01*
X-48223784Y53340347D01*
X-48207577Y53334548D01*
X-48192017Y53327189D01*
X-48177253Y53318340D01*
X-48163427Y53308086D01*
X-48150673Y53296527D01*
X-48139114Y53283773D01*
X-48128860Y53269947D01*
X-48120011Y53255183D01*
X-48112652Y53239623D01*
X-48106853Y53223416D01*
X-48102670Y53206719D01*
X-48100145Y53189692D01*
X-48099300Y53172500D01*
X-48099300Y52821700D01*
X-48100145Y52804508D01*
X-48102670Y52787481D01*
X-48106853Y52770784D01*
X-48112652Y52754577D01*
X-48120011Y52739017D01*
X-48128860Y52724253D01*
X-48139114Y52710427D01*
X-48150673Y52697673D01*
X-48163427Y52686114D01*
X-48177253Y52675860D01*
X-48192017Y52667011D01*
X-48207577Y52659652D01*
X-48223784Y52653853D01*
X-48240481Y52649670D01*
X-48257508Y52647145D01*
X-48274700Y52646300D01*
X-49775500Y52646300D01*
X-49792692Y52647145D01*
X-49809719Y52649670D01*
X-49826416Y52653853D01*
X-49842623Y52659652D01*
X-49858183Y52667011D01*
X-49872947Y52675860D01*
X-49886773Y52686114D01*
X-49899527Y52697673D01*
X-49911086Y52710427D01*
X-49921340Y52724253D01*
X-49930189Y52739017D01*
X-49937548Y52754577D01*
X-49943347Y52770784D01*
X-49947530Y52787481D01*
X-49950055Y52804508D01*
X-49950900Y52821700D01*
X-49950900Y53172500D01*
X-49950055Y53189692D01*
X-49947530Y53206719D01*
X-49943347Y53223416D01*
X-49937548Y53239623D01*
X-49930189Y53255183D01*
X-49921340Y53269947D01*
X-49911086Y53283773D01*
X-49899527Y53296527D01*
X-49886773Y53308086D01*
X-49872947Y53318340D01*
X-49858183Y53327189D01*
X-49842623Y53334548D01*
X-49826416Y53340347D01*
X-49809719Y53344530D01*
X-49792692Y53347055D01*
X-49775500Y53347900D01*
X-48274700Y53347900D01*
X-48257508Y53347055D01*
G37*
G36*
X-48257508Y54617055D02*
G01*
X-48240481Y54614530D01*
X-48223784Y54610347D01*
X-48207577Y54604548D01*
X-48192017Y54597189D01*
X-48177253Y54588340D01*
X-48163427Y54578086D01*
X-48150673Y54566527D01*
X-48139114Y54553773D01*
X-48128860Y54539947D01*
X-48120011Y54525183D01*
X-48112652Y54509623D01*
X-48106853Y54493416D01*
X-48102670Y54476719D01*
X-48100145Y54459692D01*
X-48099300Y54442500D01*
X-48099300Y54091700D01*
X-48100145Y54074508D01*
X-48102670Y54057481D01*
X-48106853Y54040784D01*
X-48112652Y54024577D01*
X-48120011Y54009017D01*
X-48128860Y53994253D01*
X-48139114Y53980427D01*
X-48150673Y53967673D01*
X-48163427Y53956114D01*
X-48177253Y53945860D01*
X-48192017Y53937011D01*
X-48207577Y53929652D01*
X-48223784Y53923853D01*
X-48240481Y53919670D01*
X-48257508Y53917145D01*
X-48274700Y53916300D01*
X-49775500Y53916300D01*
X-49792692Y53917145D01*
X-49809719Y53919670D01*
X-49826416Y53923853D01*
X-49842623Y53929652D01*
X-49858183Y53937011D01*
X-49872947Y53945860D01*
X-49886773Y53956114D01*
X-49899527Y53967673D01*
X-49911086Y53980427D01*
X-49921340Y53994253D01*
X-49930189Y54009017D01*
X-49937548Y54024577D01*
X-49943347Y54040784D01*
X-49947530Y54057481D01*
X-49950055Y54074508D01*
X-49950900Y54091700D01*
X-49950900Y54442500D01*
X-49950055Y54459692D01*
X-49947530Y54476719D01*
X-49943347Y54493416D01*
X-49937548Y54509623D01*
X-49930189Y54525183D01*
X-49921340Y54539947D01*
X-49911086Y54553773D01*
X-49899527Y54566527D01*
X-49886773Y54578086D01*
X-49872947Y54588340D01*
X-49858183Y54597189D01*
X-49842623Y54604548D01*
X-49826416Y54610347D01*
X-49809719Y54614530D01*
X-49792692Y54617055D01*
X-49775500Y54617900D01*
X-48274700Y54617900D01*
X-48257508Y54617055D01*
G37*
G36*
X-53407508Y54617055D02*
G01*
X-53390481Y54614530D01*
X-53373784Y54610347D01*
X-53357577Y54604548D01*
X-53342017Y54597189D01*
X-53327253Y54588340D01*
X-53313427Y54578086D01*
X-53300673Y54566527D01*
X-53289114Y54553773D01*
X-53278860Y54539947D01*
X-53270011Y54525183D01*
X-53262652Y54509623D01*
X-53256853Y54493416D01*
X-53252670Y54476719D01*
X-53250145Y54459692D01*
X-53249300Y54442500D01*
X-53249300Y54091700D01*
X-53250145Y54074508D01*
X-53252670Y54057481D01*
X-53256853Y54040784D01*
X-53262652Y54024577D01*
X-53270011Y54009017D01*
X-53278860Y53994253D01*
X-53289114Y53980427D01*
X-53300673Y53967673D01*
X-53313427Y53956114D01*
X-53327253Y53945860D01*
X-53342017Y53937011D01*
X-53357577Y53929652D01*
X-53373784Y53923853D01*
X-53390481Y53919670D01*
X-53407508Y53917145D01*
X-53424700Y53916300D01*
X-54925500Y53916300D01*
X-54942692Y53917145D01*
X-54959719Y53919670D01*
X-54976416Y53923853D01*
X-54992623Y53929652D01*
X-55008183Y53937011D01*
X-55022947Y53945860D01*
X-55036773Y53956114D01*
X-55049527Y53967673D01*
X-55061086Y53980427D01*
X-55071340Y53994253D01*
X-55080189Y54009017D01*
X-55087548Y54024577D01*
X-55093347Y54040784D01*
X-55097530Y54057481D01*
X-55100055Y54074508D01*
X-55100900Y54091700D01*
X-55100900Y54442500D01*
X-55100055Y54459692D01*
X-55097530Y54476719D01*
X-55093347Y54493416D01*
X-55087548Y54509623D01*
X-55080189Y54525183D01*
X-55071340Y54539947D01*
X-55061086Y54553773D01*
X-55049527Y54566527D01*
X-55036773Y54578086D01*
X-55022947Y54588340D01*
X-55008183Y54597189D01*
X-54992623Y54604548D01*
X-54976416Y54610347D01*
X-54959719Y54614530D01*
X-54942692Y54617055D01*
X-54925500Y54617900D01*
X-53424700Y54617900D01*
X-53407508Y54617055D01*
G37*
G36*
X-53407508Y53347055D02*
G01*
X-53390481Y53344530D01*
X-53373784Y53340347D01*
X-53357577Y53334548D01*
X-53342017Y53327189D01*
X-53327253Y53318340D01*
X-53313427Y53308086D01*
X-53300673Y53296527D01*
X-53289114Y53283773D01*
X-53278860Y53269947D01*
X-53270011Y53255183D01*
X-53262652Y53239623D01*
X-53256853Y53223416D01*
X-53252670Y53206719D01*
X-53250145Y53189692D01*
X-53249300Y53172500D01*
X-53249300Y52821700D01*
X-53250145Y52804508D01*
X-53252670Y52787481D01*
X-53256853Y52770784D01*
X-53262652Y52754577D01*
X-53270011Y52739017D01*
X-53278860Y52724253D01*
X-53289114Y52710427D01*
X-53300673Y52697673D01*
X-53313427Y52686114D01*
X-53327253Y52675860D01*
X-53342017Y52667011D01*
X-53357577Y52659652D01*
X-53373784Y52653853D01*
X-53390481Y52649670D01*
X-53407508Y52647145D01*
X-53424700Y52646300D01*
X-54925500Y52646300D01*
X-54942692Y52647145D01*
X-54959719Y52649670D01*
X-54976416Y52653853D01*
X-54992623Y52659652D01*
X-55008183Y52667011D01*
X-55022947Y52675860D01*
X-55036773Y52686114D01*
X-55049527Y52697673D01*
X-55061086Y52710427D01*
X-55071340Y52724253D01*
X-55080189Y52739017D01*
X-55087548Y52754577D01*
X-55093347Y52770784D01*
X-55097530Y52787481D01*
X-55100055Y52804508D01*
X-55100900Y52821700D01*
X-55100900Y53172500D01*
X-55100055Y53189692D01*
X-55097530Y53206719D01*
X-55093347Y53223416D01*
X-55087548Y53239623D01*
X-55080189Y53255183D01*
X-55071340Y53269947D01*
X-55061086Y53283773D01*
X-55049527Y53296527D01*
X-55036773Y53308086D01*
X-55022947Y53318340D01*
X-55008183Y53327189D01*
X-54992623Y53334548D01*
X-54976416Y53340347D01*
X-54959719Y53344530D01*
X-54942692Y53347055D01*
X-54925500Y53347900D01*
X-53424700Y53347900D01*
X-53407508Y53347055D01*
G37*
G36*
X-53407508Y52077055D02*
G01*
X-53390481Y52074530D01*
X-53373784Y52070347D01*
X-53357577Y52064548D01*
X-53342017Y52057189D01*
X-53327253Y52048340D01*
X-53313427Y52038086D01*
X-53300673Y52026527D01*
X-53289114Y52013773D01*
X-53278860Y51999947D01*
X-53270011Y51985183D01*
X-53262652Y51969623D01*
X-53256853Y51953416D01*
X-53252670Y51936719D01*
X-53250145Y51919692D01*
X-53249300Y51902500D01*
X-53249300Y51551700D01*
X-53250145Y51534508D01*
X-53252670Y51517481D01*
X-53256853Y51500784D01*
X-53262652Y51484577D01*
X-53270011Y51469017D01*
X-53278860Y51454253D01*
X-53289114Y51440427D01*
X-53300673Y51427673D01*
X-53313427Y51416114D01*
X-53327253Y51405860D01*
X-53342017Y51397011D01*
X-53357577Y51389652D01*
X-53373784Y51383853D01*
X-53390481Y51379670D01*
X-53407508Y51377145D01*
X-53424700Y51376300D01*
X-54925500Y51376300D01*
X-54942692Y51377145D01*
X-54959719Y51379670D01*
X-54976416Y51383853D01*
X-54992623Y51389652D01*
X-55008183Y51397011D01*
X-55022947Y51405860D01*
X-55036773Y51416114D01*
X-55049527Y51427673D01*
X-55061086Y51440427D01*
X-55071340Y51454253D01*
X-55080189Y51469017D01*
X-55087548Y51484577D01*
X-55093347Y51500784D01*
X-55097530Y51517481D01*
X-55100055Y51534508D01*
X-55100900Y51551700D01*
X-55100900Y51902500D01*
X-55100055Y51919692D01*
X-55097530Y51936719D01*
X-55093347Y51953416D01*
X-55087548Y51969623D01*
X-55080189Y51985183D01*
X-55071340Y51999947D01*
X-55061086Y52013773D01*
X-55049527Y52026527D01*
X-55036773Y52038086D01*
X-55022947Y52048340D01*
X-55008183Y52057189D01*
X-54992623Y52064548D01*
X-54976416Y52070347D01*
X-54959719Y52074530D01*
X-54942692Y52077055D01*
X-54925500Y52077900D01*
X-53424700Y52077900D01*
X-53407508Y52077055D01*
G37*
G36*
X-53407508Y50807055D02*
G01*
X-53390481Y50804530D01*
X-53373784Y50800347D01*
X-53357577Y50794548D01*
X-53342017Y50787189D01*
X-53327253Y50778340D01*
X-53313427Y50768086D01*
X-53300673Y50756527D01*
X-53289114Y50743773D01*
X-53278860Y50729947D01*
X-53270011Y50715183D01*
X-53262652Y50699623D01*
X-53256853Y50683416D01*
X-53252670Y50666719D01*
X-53250145Y50649692D01*
X-53249300Y50632500D01*
X-53249300Y50281700D01*
X-53250145Y50264508D01*
X-53252670Y50247481D01*
X-53256853Y50230784D01*
X-53262652Y50214577D01*
X-53270011Y50199017D01*
X-53278860Y50184253D01*
X-53289114Y50170427D01*
X-53300673Y50157673D01*
X-53313427Y50146114D01*
X-53327253Y50135860D01*
X-53342017Y50127011D01*
X-53357577Y50119652D01*
X-53373784Y50113853D01*
X-53390481Y50109670D01*
X-53407508Y50107145D01*
X-53424700Y50106300D01*
X-54925500Y50106300D01*
X-54942692Y50107145D01*
X-54959719Y50109670D01*
X-54976416Y50113853D01*
X-54992623Y50119652D01*
X-55008183Y50127011D01*
X-55022947Y50135860D01*
X-55036773Y50146114D01*
X-55049527Y50157673D01*
X-55061086Y50170427D01*
X-55071340Y50184253D01*
X-55080189Y50199017D01*
X-55087548Y50214577D01*
X-55093347Y50230784D01*
X-55097530Y50247481D01*
X-55100055Y50264508D01*
X-55100900Y50281700D01*
X-55100900Y50632500D01*
X-55100055Y50649692D01*
X-55097530Y50666719D01*
X-55093347Y50683416D01*
X-55087548Y50699623D01*
X-55080189Y50715183D01*
X-55071340Y50729947D01*
X-55061086Y50743773D01*
X-55049527Y50756527D01*
X-55036773Y50768086D01*
X-55022947Y50778340D01*
X-55008183Y50787189D01*
X-54992623Y50794548D01*
X-54976416Y50800347D01*
X-54959719Y50804530D01*
X-54942692Y50807055D01*
X-54925500Y50807900D01*
X-53424700Y50807900D01*
X-53407508Y50807055D01*
G37*
G36*
X-55231519Y23029724D02*
G01*
X-55207819Y23026209D01*
X-55184577Y23020387D01*
X-55162018Y23012315D01*
X-55140358Y23002071D01*
X-55119808Y22989753D01*
X-55100563Y22975481D01*
X-55082810Y22959390D01*
X-55066719Y22941637D01*
X-55052447Y22922392D01*
X-55040129Y22901842D01*
X-55029885Y22880182D01*
X-55021813Y22857623D01*
X-55015991Y22834381D01*
X-55012476Y22810681D01*
X-55011300Y22786750D01*
X-55011300Y22298450D01*
X-55012476Y22274519D01*
X-55015991Y22250819D01*
X-55021813Y22227577D01*
X-55029885Y22205018D01*
X-55040129Y22183358D01*
X-55052447Y22162808D01*
X-55066719Y22143563D01*
X-55082810Y22125810D01*
X-55100563Y22109719D01*
X-55119808Y22095447D01*
X-55140358Y22083129D01*
X-55162018Y22072885D01*
X-55184577Y22064813D01*
X-55207819Y22058991D01*
X-55231519Y22055476D01*
X-55255450Y22054300D01*
X-55818750Y22054300D01*
X-55842681Y22055476D01*
X-55866381Y22058991D01*
X-55889623Y22064813D01*
X-55912182Y22072885D01*
X-55933842Y22083129D01*
X-55954392Y22095447D01*
X-55973637Y22109719D01*
X-55991390Y22125810D01*
X-56007481Y22143563D01*
X-56021753Y22162808D01*
X-56034071Y22183358D01*
X-56044315Y22205018D01*
X-56052387Y22227577D01*
X-56058209Y22250819D01*
X-56061724Y22274519D01*
X-56062900Y22298450D01*
X-56062900Y22786750D01*
X-56061724Y22810681D01*
X-56058209Y22834381D01*
X-56052387Y22857623D01*
X-56044315Y22880182D01*
X-56034071Y22901842D01*
X-56021753Y22922392D01*
X-56007481Y22941637D01*
X-55991390Y22959390D01*
X-55973637Y22975481D01*
X-55954392Y22989753D01*
X-55933842Y23002071D01*
X-55912182Y23012315D01*
X-55889623Y23020387D01*
X-55866381Y23026209D01*
X-55842681Y23029724D01*
X-55818750Y23030900D01*
X-55255450Y23030900D01*
X-55231519Y23029724D01*
G37*
G36*
X-55231519Y21454724D02*
G01*
X-55207819Y21451209D01*
X-55184577Y21445387D01*
X-55162018Y21437315D01*
X-55140358Y21427071D01*
X-55119808Y21414753D01*
X-55100563Y21400481D01*
X-55082810Y21384390D01*
X-55066719Y21366637D01*
X-55052447Y21347392D01*
X-55040129Y21326842D01*
X-55029885Y21305182D01*
X-55021813Y21282623D01*
X-55015991Y21259381D01*
X-55012476Y21235681D01*
X-55011300Y21211750D01*
X-55011300Y20723450D01*
X-55012476Y20699519D01*
X-55015991Y20675819D01*
X-55021813Y20652577D01*
X-55029885Y20630018D01*
X-55040129Y20608358D01*
X-55052447Y20587808D01*
X-55066719Y20568563D01*
X-55082810Y20550810D01*
X-55100563Y20534719D01*
X-55119808Y20520447D01*
X-55140358Y20508129D01*
X-55162018Y20497885D01*
X-55184577Y20489813D01*
X-55207819Y20483991D01*
X-55231519Y20480476D01*
X-55255450Y20479300D01*
X-55818750Y20479300D01*
X-55842681Y20480476D01*
X-55866381Y20483991D01*
X-55889623Y20489813D01*
X-55912182Y20497885D01*
X-55933842Y20508129D01*
X-55954392Y20520447D01*
X-55973637Y20534719D01*
X-55991390Y20550810D01*
X-56007481Y20568563D01*
X-56021753Y20587808D01*
X-56034071Y20608358D01*
X-56044315Y20630018D01*
X-56052387Y20652577D01*
X-56058209Y20675819D01*
X-56061724Y20699519D01*
X-56062900Y20723450D01*
X-56062900Y21211750D01*
X-56061724Y21235681D01*
X-56058209Y21259381D01*
X-56052387Y21282623D01*
X-56044315Y21305182D01*
X-56034071Y21326842D01*
X-56021753Y21347392D01*
X-56007481Y21366637D01*
X-55991390Y21384390D01*
X-55973637Y21400481D01*
X-55954392Y21414753D01*
X-55933842Y21427071D01*
X-55912182Y21437315D01*
X-55889623Y21445387D01*
X-55866381Y21451209D01*
X-55842681Y21454724D01*
X-55818750Y21455900D01*
X-55255450Y21455900D01*
X-55231519Y21454724D01*
G37*
D38*
X-20358100Y4617004D03*
D36*
X-17818100Y4363004D03*
X-15278100Y4617004D03*
D13*
G36*
X-42155599Y39493804D02*
G01*
X-42131899Y39490289D01*
X-42108657Y39484467D01*
X-42086098Y39476395D01*
X-42064438Y39466151D01*
X-42043888Y39453833D01*
X-42024643Y39439561D01*
X-42006890Y39423470D01*
X-41990799Y39405717D01*
X-41976527Y39386472D01*
X-41964209Y39365922D01*
X-41953965Y39344262D01*
X-41945893Y39321703D01*
X-41940071Y39298461D01*
X-41936556Y39274761D01*
X-41935380Y39250830D01*
X-41935380Y38762530D01*
X-41936556Y38738599D01*
X-41940071Y38714899D01*
X-41945893Y38691657D01*
X-41953965Y38669098D01*
X-41964209Y38647438D01*
X-41976527Y38626888D01*
X-41990799Y38607643D01*
X-42006890Y38589890D01*
X-42024643Y38573799D01*
X-42043888Y38559527D01*
X-42064438Y38547209D01*
X-42086098Y38536965D01*
X-42108657Y38528893D01*
X-42131899Y38523071D01*
X-42155599Y38519556D01*
X-42179530Y38518380D01*
X-42742830Y38518380D01*
X-42766761Y38519556D01*
X-42790461Y38523071D01*
X-42813703Y38528893D01*
X-42836262Y38536965D01*
X-42857922Y38547209D01*
X-42878472Y38559527D01*
X-42897717Y38573799D01*
X-42915470Y38589890D01*
X-42931561Y38607643D01*
X-42945833Y38626888D01*
X-42958151Y38647438D01*
X-42968395Y38669098D01*
X-42976467Y38691657D01*
X-42982289Y38714899D01*
X-42985804Y38738599D01*
X-42986980Y38762530D01*
X-42986980Y39250830D01*
X-42985804Y39274761D01*
X-42982289Y39298461D01*
X-42976467Y39321703D01*
X-42968395Y39344262D01*
X-42958151Y39365922D01*
X-42945833Y39386472D01*
X-42931561Y39405717D01*
X-42915470Y39423470D01*
X-42897717Y39439561D01*
X-42878472Y39453833D01*
X-42857922Y39466151D01*
X-42836262Y39476395D01*
X-42813703Y39484467D01*
X-42790461Y39490289D01*
X-42766761Y39493804D01*
X-42742830Y39494980D01*
X-42179530Y39494980D01*
X-42155599Y39493804D01*
G37*
G36*
X-42155599Y41068804D02*
G01*
X-42131899Y41065289D01*
X-42108657Y41059467D01*
X-42086098Y41051395D01*
X-42064438Y41041151D01*
X-42043888Y41028833D01*
X-42024643Y41014561D01*
X-42006890Y40998470D01*
X-41990799Y40980717D01*
X-41976527Y40961472D01*
X-41964209Y40940922D01*
X-41953965Y40919262D01*
X-41945893Y40896703D01*
X-41940071Y40873461D01*
X-41936556Y40849761D01*
X-41935380Y40825830D01*
X-41935380Y40337530D01*
X-41936556Y40313599D01*
X-41940071Y40289899D01*
X-41945893Y40266657D01*
X-41953965Y40244098D01*
X-41964209Y40222438D01*
X-41976527Y40201888D01*
X-41990799Y40182643D01*
X-42006890Y40164890D01*
X-42024643Y40148799D01*
X-42043888Y40134527D01*
X-42064438Y40122209D01*
X-42086098Y40111965D01*
X-42108657Y40103893D01*
X-42131899Y40098071D01*
X-42155599Y40094556D01*
X-42179530Y40093380D01*
X-42742830Y40093380D01*
X-42766761Y40094556D01*
X-42790461Y40098071D01*
X-42813703Y40103893D01*
X-42836262Y40111965D01*
X-42857922Y40122209D01*
X-42878472Y40134527D01*
X-42897717Y40148799D01*
X-42915470Y40164890D01*
X-42931561Y40182643D01*
X-42945833Y40201888D01*
X-42958151Y40222438D01*
X-42968395Y40244098D01*
X-42976467Y40266657D01*
X-42982289Y40289899D01*
X-42985804Y40313599D01*
X-42986980Y40337530D01*
X-42986980Y40825830D01*
X-42985804Y40849761D01*
X-42982289Y40873461D01*
X-42976467Y40896703D01*
X-42968395Y40919262D01*
X-42958151Y40940922D01*
X-42945833Y40961472D01*
X-42931561Y40980717D01*
X-42915470Y40998470D01*
X-42897717Y41014561D01*
X-42878472Y41028833D01*
X-42857922Y41041151D01*
X-42836262Y41051395D01*
X-42813703Y41059467D01*
X-42790461Y41065289D01*
X-42766761Y41068804D01*
X-42742830Y41069980D01*
X-42179530Y41069980D01*
X-42155599Y41068804D01*
G37*
D30*
X-84395000Y13690004D03*
D29*
X-81855000Y11150004D03*
X-81855000Y16230004D03*
X-86935000Y16230004D03*
X-86935000Y11150004D03*
D13*
G36*
X-39102519Y43044724D02*
G01*
X-39078819Y43041209D01*
X-39055577Y43035387D01*
X-39033018Y43027315D01*
X-39011358Y43017071D01*
X-38990808Y43004753D01*
X-38971563Y42990481D01*
X-38953810Y42974390D01*
X-38937719Y42956637D01*
X-38923447Y42937392D01*
X-38911129Y42916842D01*
X-38900885Y42895182D01*
X-38892813Y42872623D01*
X-38886991Y42849381D01*
X-38883476Y42825681D01*
X-38882300Y42801750D01*
X-38882300Y42313450D01*
X-38883476Y42289519D01*
X-38886991Y42265819D01*
X-38892813Y42242577D01*
X-38900885Y42220018D01*
X-38911129Y42198358D01*
X-38923447Y42177808D01*
X-38937719Y42158563D01*
X-38953810Y42140810D01*
X-38971563Y42124719D01*
X-38990808Y42110447D01*
X-39011358Y42098129D01*
X-39033018Y42087885D01*
X-39055577Y42079813D01*
X-39078819Y42073991D01*
X-39102519Y42070476D01*
X-39126450Y42069300D01*
X-39689750Y42069300D01*
X-39713681Y42070476D01*
X-39737381Y42073991D01*
X-39760623Y42079813D01*
X-39783182Y42087885D01*
X-39804842Y42098129D01*
X-39825392Y42110447D01*
X-39844637Y42124719D01*
X-39862390Y42140810D01*
X-39878481Y42158563D01*
X-39892753Y42177808D01*
X-39905071Y42198358D01*
X-39915315Y42220018D01*
X-39923387Y42242577D01*
X-39929209Y42265819D01*
X-39932724Y42289519D01*
X-39933900Y42313450D01*
X-39933900Y42801750D01*
X-39932724Y42825681D01*
X-39929209Y42849381D01*
X-39923387Y42872623D01*
X-39915315Y42895182D01*
X-39905071Y42916842D01*
X-39892753Y42937392D01*
X-39878481Y42956637D01*
X-39862390Y42974390D01*
X-39844637Y42990481D01*
X-39825392Y43004753D01*
X-39804842Y43017071D01*
X-39783182Y43027315D01*
X-39760623Y43035387D01*
X-39737381Y43041209D01*
X-39713681Y43044724D01*
X-39689750Y43045900D01*
X-39126450Y43045900D01*
X-39102519Y43044724D01*
G37*
G36*
X-39102519Y44619724D02*
G01*
X-39078819Y44616209D01*
X-39055577Y44610387D01*
X-39033018Y44602315D01*
X-39011358Y44592071D01*
X-38990808Y44579753D01*
X-38971563Y44565481D01*
X-38953810Y44549390D01*
X-38937719Y44531637D01*
X-38923447Y44512392D01*
X-38911129Y44491842D01*
X-38900885Y44470182D01*
X-38892813Y44447623D01*
X-38886991Y44424381D01*
X-38883476Y44400681D01*
X-38882300Y44376750D01*
X-38882300Y43888450D01*
X-38883476Y43864519D01*
X-38886991Y43840819D01*
X-38892813Y43817577D01*
X-38900885Y43795018D01*
X-38911129Y43773358D01*
X-38923447Y43752808D01*
X-38937719Y43733563D01*
X-38953810Y43715810D01*
X-38971563Y43699719D01*
X-38990808Y43685447D01*
X-39011358Y43673129D01*
X-39033018Y43662885D01*
X-39055577Y43654813D01*
X-39078819Y43648991D01*
X-39102519Y43645476D01*
X-39126450Y43644300D01*
X-39689750Y43644300D01*
X-39713681Y43645476D01*
X-39737381Y43648991D01*
X-39760623Y43654813D01*
X-39783182Y43662885D01*
X-39804842Y43673129D01*
X-39825392Y43685447D01*
X-39844637Y43699719D01*
X-39862390Y43715810D01*
X-39878481Y43733563D01*
X-39892753Y43752808D01*
X-39905071Y43773358D01*
X-39915315Y43795018D01*
X-39923387Y43817577D01*
X-39929209Y43840819D01*
X-39932724Y43864519D01*
X-39933900Y43888450D01*
X-39933900Y44376750D01*
X-39932724Y44400681D01*
X-39929209Y44424381D01*
X-39923387Y44447623D01*
X-39915315Y44470182D01*
X-39905071Y44491842D01*
X-39892753Y44512392D01*
X-39878481Y44531637D01*
X-39862390Y44549390D01*
X-39844637Y44565481D01*
X-39825392Y44579753D01*
X-39804842Y44592071D01*
X-39783182Y44602315D01*
X-39760623Y44610387D01*
X-39737381Y44616209D01*
X-39713681Y44619724D01*
X-39689750Y44620900D01*
X-39126450Y44620900D01*
X-39102519Y44619724D01*
G37*
G36*
X-39292519Y49965724D02*
G01*
X-39268819Y49962209D01*
X-39245577Y49956387D01*
X-39223018Y49948315D01*
X-39201358Y49938071D01*
X-39180808Y49925753D01*
X-39161563Y49911481D01*
X-39143810Y49895390D01*
X-39127719Y49877637D01*
X-39113447Y49858392D01*
X-39101129Y49837842D01*
X-39090885Y49816182D01*
X-39082813Y49793623D01*
X-39076991Y49770381D01*
X-39073476Y49746681D01*
X-39072300Y49722750D01*
X-39072300Y49159450D01*
X-39073476Y49135519D01*
X-39076991Y49111819D01*
X-39082813Y49088577D01*
X-39090885Y49066018D01*
X-39101129Y49044358D01*
X-39113447Y49023808D01*
X-39127719Y49004563D01*
X-39143810Y48986810D01*
X-39161563Y48970719D01*
X-39180808Y48956447D01*
X-39201358Y48944129D01*
X-39223018Y48933885D01*
X-39245577Y48925813D01*
X-39268819Y48919991D01*
X-39292519Y48916476D01*
X-39316450Y48915300D01*
X-39804750Y48915300D01*
X-39828681Y48916476D01*
X-39852381Y48919991D01*
X-39875623Y48925813D01*
X-39898182Y48933885D01*
X-39919842Y48944129D01*
X-39940392Y48956447D01*
X-39959637Y48970719D01*
X-39977390Y48986810D01*
X-39993481Y49004563D01*
X-40007753Y49023808D01*
X-40020071Y49044358D01*
X-40030315Y49066018D01*
X-40038387Y49088577D01*
X-40044209Y49111819D01*
X-40047724Y49135519D01*
X-40048900Y49159450D01*
X-40048900Y49722750D01*
X-40047724Y49746681D01*
X-40044209Y49770381D01*
X-40038387Y49793623D01*
X-40030315Y49816182D01*
X-40020071Y49837842D01*
X-40007753Y49858392D01*
X-39993481Y49877637D01*
X-39977390Y49895390D01*
X-39959637Y49911481D01*
X-39940392Y49925753D01*
X-39919842Y49938071D01*
X-39898182Y49948315D01*
X-39875623Y49956387D01*
X-39852381Y49962209D01*
X-39828681Y49965724D01*
X-39804750Y49966900D01*
X-39316450Y49966900D01*
X-39292519Y49965724D01*
G37*
G36*
X-37717519Y49965724D02*
G01*
X-37693819Y49962209D01*
X-37670577Y49956387D01*
X-37648018Y49948315D01*
X-37626358Y49938071D01*
X-37605808Y49925753D01*
X-37586563Y49911481D01*
X-37568810Y49895390D01*
X-37552719Y49877637D01*
X-37538447Y49858392D01*
X-37526129Y49837842D01*
X-37515885Y49816182D01*
X-37507813Y49793623D01*
X-37501991Y49770381D01*
X-37498476Y49746681D01*
X-37497300Y49722750D01*
X-37497300Y49159450D01*
X-37498476Y49135519D01*
X-37501991Y49111819D01*
X-37507813Y49088577D01*
X-37515885Y49066018D01*
X-37526129Y49044358D01*
X-37538447Y49023808D01*
X-37552719Y49004563D01*
X-37568810Y48986810D01*
X-37586563Y48970719D01*
X-37605808Y48956447D01*
X-37626358Y48944129D01*
X-37648018Y48933885D01*
X-37670577Y48925813D01*
X-37693819Y48919991D01*
X-37717519Y48916476D01*
X-37741450Y48915300D01*
X-38229750Y48915300D01*
X-38253681Y48916476D01*
X-38277381Y48919991D01*
X-38300623Y48925813D01*
X-38323182Y48933885D01*
X-38344842Y48944129D01*
X-38365392Y48956447D01*
X-38384637Y48970719D01*
X-38402390Y48986810D01*
X-38418481Y49004563D01*
X-38432753Y49023808D01*
X-38445071Y49044358D01*
X-38455315Y49066018D01*
X-38463387Y49088577D01*
X-38469209Y49111819D01*
X-38472724Y49135519D01*
X-38473900Y49159450D01*
X-38473900Y49722750D01*
X-38472724Y49746681D01*
X-38469209Y49770381D01*
X-38463387Y49793623D01*
X-38455315Y49816182D01*
X-38445071Y49837842D01*
X-38432753Y49858392D01*
X-38418481Y49877637D01*
X-38402390Y49895390D01*
X-38384637Y49911481D01*
X-38365392Y49925753D01*
X-38344842Y49938071D01*
X-38323182Y49948315D01*
X-38300623Y49956387D01*
X-38277381Y49962209D01*
X-38253681Y49965724D01*
X-38229750Y49966900D01*
X-37741450Y49966900D01*
X-37717519Y49965724D01*
G37*
G36*
X-46658519Y52251724D02*
G01*
X-46634819Y52248209D01*
X-46611577Y52242387D01*
X-46589018Y52234315D01*
X-46567358Y52224071D01*
X-46546808Y52211753D01*
X-46527563Y52197481D01*
X-46509810Y52181390D01*
X-46493719Y52163637D01*
X-46479447Y52144392D01*
X-46467129Y52123842D01*
X-46456885Y52102182D01*
X-46448813Y52079623D01*
X-46442991Y52056381D01*
X-46439476Y52032681D01*
X-46438300Y52008750D01*
X-46438300Y51445450D01*
X-46439476Y51421519D01*
X-46442991Y51397819D01*
X-46448813Y51374577D01*
X-46456885Y51352018D01*
X-46467129Y51330358D01*
X-46479447Y51309808D01*
X-46493719Y51290563D01*
X-46509810Y51272810D01*
X-46527563Y51256719D01*
X-46546808Y51242447D01*
X-46567358Y51230129D01*
X-46589018Y51219885D01*
X-46611577Y51211813D01*
X-46634819Y51205991D01*
X-46658519Y51202476D01*
X-46682450Y51201300D01*
X-47170750Y51201300D01*
X-47194681Y51202476D01*
X-47218381Y51205991D01*
X-47241623Y51211813D01*
X-47264182Y51219885D01*
X-47285842Y51230129D01*
X-47306392Y51242447D01*
X-47325637Y51256719D01*
X-47343390Y51272810D01*
X-47359481Y51290563D01*
X-47373753Y51309808D01*
X-47386071Y51330358D01*
X-47396315Y51352018D01*
X-47404387Y51374577D01*
X-47410209Y51397819D01*
X-47413724Y51421519D01*
X-47414900Y51445450D01*
X-47414900Y52008750D01*
X-47413724Y52032681D01*
X-47410209Y52056381D01*
X-47404387Y52079623D01*
X-47396315Y52102182D01*
X-47386071Y52123842D01*
X-47373753Y52144392D01*
X-47359481Y52163637D01*
X-47343390Y52181390D01*
X-47325637Y52197481D01*
X-47306392Y52211753D01*
X-47285842Y52224071D01*
X-47264182Y52234315D01*
X-47241623Y52242387D01*
X-47218381Y52248209D01*
X-47194681Y52251724D01*
X-47170750Y52252900D01*
X-46682450Y52252900D01*
X-46658519Y52251724D01*
G37*
G36*
X-45083519Y52251724D02*
G01*
X-45059819Y52248209D01*
X-45036577Y52242387D01*
X-45014018Y52234315D01*
X-44992358Y52224071D01*
X-44971808Y52211753D01*
X-44952563Y52197481D01*
X-44934810Y52181390D01*
X-44918719Y52163637D01*
X-44904447Y52144392D01*
X-44892129Y52123842D01*
X-44881885Y52102182D01*
X-44873813Y52079623D01*
X-44867991Y52056381D01*
X-44864476Y52032681D01*
X-44863300Y52008750D01*
X-44863300Y51445450D01*
X-44864476Y51421519D01*
X-44867991Y51397819D01*
X-44873813Y51374577D01*
X-44881885Y51352018D01*
X-44892129Y51330358D01*
X-44904447Y51309808D01*
X-44918719Y51290563D01*
X-44934810Y51272810D01*
X-44952563Y51256719D01*
X-44971808Y51242447D01*
X-44992358Y51230129D01*
X-45014018Y51219885D01*
X-45036577Y51211813D01*
X-45059819Y51205991D01*
X-45083519Y51202476D01*
X-45107450Y51201300D01*
X-45595750Y51201300D01*
X-45619681Y51202476D01*
X-45643381Y51205991D01*
X-45666623Y51211813D01*
X-45689182Y51219885D01*
X-45710842Y51230129D01*
X-45731392Y51242447D01*
X-45750637Y51256719D01*
X-45768390Y51272810D01*
X-45784481Y51290563D01*
X-45798753Y51309808D01*
X-45811071Y51330358D01*
X-45821315Y51352018D01*
X-45829387Y51374577D01*
X-45835209Y51397819D01*
X-45838724Y51421519D01*
X-45839900Y51445450D01*
X-45839900Y52008750D01*
X-45838724Y52032681D01*
X-45835209Y52056381D01*
X-45829387Y52079623D01*
X-45821315Y52102182D01*
X-45811071Y52123842D01*
X-45798753Y52144392D01*
X-45784481Y52163637D01*
X-45768390Y52181390D01*
X-45750637Y52197481D01*
X-45731392Y52211753D01*
X-45710842Y52224071D01*
X-45689182Y52234315D01*
X-45666623Y52242387D01*
X-45643381Y52248209D01*
X-45619681Y52251724D01*
X-45595750Y52252900D01*
X-45107450Y52252900D01*
X-45083519Y52251724D01*
G37*
G36*
X-36308519Y43044724D02*
G01*
X-36284819Y43041209D01*
X-36261577Y43035387D01*
X-36239018Y43027315D01*
X-36217358Y43017071D01*
X-36196808Y43004753D01*
X-36177563Y42990481D01*
X-36159810Y42974390D01*
X-36143719Y42956637D01*
X-36129447Y42937392D01*
X-36117129Y42916842D01*
X-36106885Y42895182D01*
X-36098813Y42872623D01*
X-36092991Y42849381D01*
X-36089476Y42825681D01*
X-36088300Y42801750D01*
X-36088300Y42313450D01*
X-36089476Y42289519D01*
X-36092991Y42265819D01*
X-36098813Y42242577D01*
X-36106885Y42220018D01*
X-36117129Y42198358D01*
X-36129447Y42177808D01*
X-36143719Y42158563D01*
X-36159810Y42140810D01*
X-36177563Y42124719D01*
X-36196808Y42110447D01*
X-36217358Y42098129D01*
X-36239018Y42087885D01*
X-36261577Y42079813D01*
X-36284819Y42073991D01*
X-36308519Y42070476D01*
X-36332450Y42069300D01*
X-36895750Y42069300D01*
X-36919681Y42070476D01*
X-36943381Y42073991D01*
X-36966623Y42079813D01*
X-36989182Y42087885D01*
X-37010842Y42098129D01*
X-37031392Y42110447D01*
X-37050637Y42124719D01*
X-37068390Y42140810D01*
X-37084481Y42158563D01*
X-37098753Y42177808D01*
X-37111071Y42198358D01*
X-37121315Y42220018D01*
X-37129387Y42242577D01*
X-37135209Y42265819D01*
X-37138724Y42289519D01*
X-37139900Y42313450D01*
X-37139900Y42801750D01*
X-37138724Y42825681D01*
X-37135209Y42849381D01*
X-37129387Y42872623D01*
X-37121315Y42895182D01*
X-37111071Y42916842D01*
X-37098753Y42937392D01*
X-37084481Y42956637D01*
X-37068390Y42974390D01*
X-37050637Y42990481D01*
X-37031392Y43004753D01*
X-37010842Y43017071D01*
X-36989182Y43027315D01*
X-36966623Y43035387D01*
X-36943381Y43041209D01*
X-36919681Y43044724D01*
X-36895750Y43045900D01*
X-36332450Y43045900D01*
X-36308519Y43044724D01*
G37*
G36*
X-36308519Y44619724D02*
G01*
X-36284819Y44616209D01*
X-36261577Y44610387D01*
X-36239018Y44602315D01*
X-36217358Y44592071D01*
X-36196808Y44579753D01*
X-36177563Y44565481D01*
X-36159810Y44549390D01*
X-36143719Y44531637D01*
X-36129447Y44512392D01*
X-36117129Y44491842D01*
X-36106885Y44470182D01*
X-36098813Y44447623D01*
X-36092991Y44424381D01*
X-36089476Y44400681D01*
X-36088300Y44376750D01*
X-36088300Y43888450D01*
X-36089476Y43864519D01*
X-36092991Y43840819D01*
X-36098813Y43817577D01*
X-36106885Y43795018D01*
X-36117129Y43773358D01*
X-36129447Y43752808D01*
X-36143719Y43733563D01*
X-36159810Y43715810D01*
X-36177563Y43699719D01*
X-36196808Y43685447D01*
X-36217358Y43673129D01*
X-36239018Y43662885D01*
X-36261577Y43654813D01*
X-36284819Y43648991D01*
X-36308519Y43645476D01*
X-36332450Y43644300D01*
X-36895750Y43644300D01*
X-36919681Y43645476D01*
X-36943381Y43648991D01*
X-36966623Y43654813D01*
X-36989182Y43662885D01*
X-37010842Y43673129D01*
X-37031392Y43685447D01*
X-37050637Y43699719D01*
X-37068390Y43715810D01*
X-37084481Y43733563D01*
X-37098753Y43752808D01*
X-37111071Y43773358D01*
X-37121315Y43795018D01*
X-37129387Y43817577D01*
X-37135209Y43840819D01*
X-37138724Y43864519D01*
X-37139900Y43888450D01*
X-37139900Y44376750D01*
X-37138724Y44400681D01*
X-37135209Y44424381D01*
X-37129387Y44447623D01*
X-37121315Y44470182D01*
X-37111071Y44491842D01*
X-37098753Y44512392D01*
X-37084481Y44531637D01*
X-37068390Y44549390D01*
X-37050637Y44565481D01*
X-37031392Y44579753D01*
X-37010842Y44592071D01*
X-36989182Y44602315D01*
X-36966623Y44610387D01*
X-36943381Y44616209D01*
X-36919681Y44619724D01*
X-36895750Y44620900D01*
X-36332450Y44620900D01*
X-36308519Y44619724D01*
G37*
G36*
X-52119519Y48568724D02*
G01*
X-52095819Y48565209D01*
X-52072577Y48559387D01*
X-52050018Y48551315D01*
X-52028358Y48541071D01*
X-52007808Y48528753D01*
X-51988563Y48514481D01*
X-51970810Y48498390D01*
X-51954719Y48480637D01*
X-51940447Y48461392D01*
X-51928129Y48440842D01*
X-51917885Y48419182D01*
X-51909813Y48396623D01*
X-51903991Y48373381D01*
X-51900476Y48349681D01*
X-51899300Y48325750D01*
X-51899300Y47762450D01*
X-51900476Y47738519D01*
X-51903991Y47714819D01*
X-51909813Y47691577D01*
X-51917885Y47669018D01*
X-51928129Y47647358D01*
X-51940447Y47626808D01*
X-51954719Y47607563D01*
X-51970810Y47589810D01*
X-51988563Y47573719D01*
X-52007808Y47559447D01*
X-52028358Y47547129D01*
X-52050018Y47536885D01*
X-52072577Y47528813D01*
X-52095819Y47522991D01*
X-52119519Y47519476D01*
X-52143450Y47518300D01*
X-52631750Y47518300D01*
X-52655681Y47519476D01*
X-52679381Y47522991D01*
X-52702623Y47528813D01*
X-52725182Y47536885D01*
X-52746842Y47547129D01*
X-52767392Y47559447D01*
X-52786637Y47573719D01*
X-52804390Y47589810D01*
X-52820481Y47607563D01*
X-52834753Y47626808D01*
X-52847071Y47647358D01*
X-52857315Y47669018D01*
X-52865387Y47691577D01*
X-52871209Y47714819D01*
X-52874724Y47738519D01*
X-52875900Y47762450D01*
X-52875900Y48325750D01*
X-52874724Y48349681D01*
X-52871209Y48373381D01*
X-52865387Y48396623D01*
X-52857315Y48419182D01*
X-52847071Y48440842D01*
X-52834753Y48461392D01*
X-52820481Y48480637D01*
X-52804390Y48498390D01*
X-52786637Y48514481D01*
X-52767392Y48528753D01*
X-52746842Y48541071D01*
X-52725182Y48551315D01*
X-52702623Y48559387D01*
X-52679381Y48565209D01*
X-52655681Y48568724D01*
X-52631750Y48569900D01*
X-52143450Y48569900D01*
X-52119519Y48568724D01*
G37*
G36*
X-50544519Y48568724D02*
G01*
X-50520819Y48565209D01*
X-50497577Y48559387D01*
X-50475018Y48551315D01*
X-50453358Y48541071D01*
X-50432808Y48528753D01*
X-50413563Y48514481D01*
X-50395810Y48498390D01*
X-50379719Y48480637D01*
X-50365447Y48461392D01*
X-50353129Y48440842D01*
X-50342885Y48419182D01*
X-50334813Y48396623D01*
X-50328991Y48373381D01*
X-50325476Y48349681D01*
X-50324300Y48325750D01*
X-50324300Y47762450D01*
X-50325476Y47738519D01*
X-50328991Y47714819D01*
X-50334813Y47691577D01*
X-50342885Y47669018D01*
X-50353129Y47647358D01*
X-50365447Y47626808D01*
X-50379719Y47607563D01*
X-50395810Y47589810D01*
X-50413563Y47573719D01*
X-50432808Y47559447D01*
X-50453358Y47547129D01*
X-50475018Y47536885D01*
X-50497577Y47528813D01*
X-50520819Y47522991D01*
X-50544519Y47519476D01*
X-50568450Y47518300D01*
X-51056750Y47518300D01*
X-51080681Y47519476D01*
X-51104381Y47522991D01*
X-51127623Y47528813D01*
X-51150182Y47536885D01*
X-51171842Y47547129D01*
X-51192392Y47559447D01*
X-51211637Y47573719D01*
X-51229390Y47589810D01*
X-51245481Y47607563D01*
X-51259753Y47626808D01*
X-51272071Y47647358D01*
X-51282315Y47669018D01*
X-51290387Y47691577D01*
X-51296209Y47714819D01*
X-51299724Y47738519D01*
X-51300900Y47762450D01*
X-51300900Y48325750D01*
X-51299724Y48349681D01*
X-51296209Y48373381D01*
X-51290387Y48396623D01*
X-51282315Y48419182D01*
X-51272071Y48440842D01*
X-51259753Y48461392D01*
X-51245481Y48480637D01*
X-51229390Y48498390D01*
X-51211637Y48514481D01*
X-51192392Y48528753D01*
X-51171842Y48541071D01*
X-51150182Y48551315D01*
X-51127623Y48559387D01*
X-51104381Y48565209D01*
X-51080681Y48568724D01*
X-51056750Y48569900D01*
X-50568450Y48569900D01*
X-50544519Y48568724D01*
G37*
D39*
X-52997100Y13677900D03*
X-54267100Y13677900D03*
X-55537100Y13677900D03*
X-56807100Y13677900D03*
X-56807100Y18910300D03*
X-55537100Y18910300D03*
X-54267100Y18910300D03*
X-52997100Y18910300D03*
D13*
G36*
X-46087519Y55668724D02*
G01*
X-46063819Y55665209D01*
X-46040577Y55659387D01*
X-46018018Y55651315D01*
X-45996358Y55641071D01*
X-45975808Y55628753D01*
X-45956563Y55614481D01*
X-45938810Y55598390D01*
X-45922719Y55580637D01*
X-45908447Y55561392D01*
X-45896129Y55540842D01*
X-45885885Y55519182D01*
X-45877813Y55496623D01*
X-45871991Y55473381D01*
X-45868476Y55449681D01*
X-45867300Y55425750D01*
X-45867300Y54937450D01*
X-45868476Y54913519D01*
X-45871991Y54889819D01*
X-45877813Y54866577D01*
X-45885885Y54844018D01*
X-45896129Y54822358D01*
X-45908447Y54801808D01*
X-45922719Y54782563D01*
X-45938810Y54764810D01*
X-45956563Y54748719D01*
X-45975808Y54734447D01*
X-45996358Y54722129D01*
X-46018018Y54711885D01*
X-46040577Y54703813D01*
X-46063819Y54697991D01*
X-46087519Y54694476D01*
X-46111450Y54693300D01*
X-46674750Y54693300D01*
X-46698681Y54694476D01*
X-46722381Y54697991D01*
X-46745623Y54703813D01*
X-46768182Y54711885D01*
X-46789842Y54722129D01*
X-46810392Y54734447D01*
X-46829637Y54748719D01*
X-46847390Y54764810D01*
X-46863481Y54782563D01*
X-46877753Y54801808D01*
X-46890071Y54822358D01*
X-46900315Y54844018D01*
X-46908387Y54866577D01*
X-46914209Y54889819D01*
X-46917724Y54913519D01*
X-46918900Y54937450D01*
X-46918900Y55425750D01*
X-46917724Y55449681D01*
X-46914209Y55473381D01*
X-46908387Y55496623D01*
X-46900315Y55519182D01*
X-46890071Y55540842D01*
X-46877753Y55561392D01*
X-46863481Y55580637D01*
X-46847390Y55598390D01*
X-46829637Y55614481D01*
X-46810392Y55628753D01*
X-46789842Y55641071D01*
X-46768182Y55651315D01*
X-46745623Y55659387D01*
X-46722381Y55665209D01*
X-46698681Y55668724D01*
X-46674750Y55669900D01*
X-46111450Y55669900D01*
X-46087519Y55668724D01*
G37*
G36*
X-46087519Y54093724D02*
G01*
X-46063819Y54090209D01*
X-46040577Y54084387D01*
X-46018018Y54076315D01*
X-45996358Y54066071D01*
X-45975808Y54053753D01*
X-45956563Y54039481D01*
X-45938810Y54023390D01*
X-45922719Y54005637D01*
X-45908447Y53986392D01*
X-45896129Y53965842D01*
X-45885885Y53944182D01*
X-45877813Y53921623D01*
X-45871991Y53898381D01*
X-45868476Y53874681D01*
X-45867300Y53850750D01*
X-45867300Y53362450D01*
X-45868476Y53338519D01*
X-45871991Y53314819D01*
X-45877813Y53291577D01*
X-45885885Y53269018D01*
X-45896129Y53247358D01*
X-45908447Y53226808D01*
X-45922719Y53207563D01*
X-45938810Y53189810D01*
X-45956563Y53173719D01*
X-45975808Y53159447D01*
X-45996358Y53147129D01*
X-46018018Y53136885D01*
X-46040577Y53128813D01*
X-46063819Y53122991D01*
X-46087519Y53119476D01*
X-46111450Y53118300D01*
X-46674750Y53118300D01*
X-46698681Y53119476D01*
X-46722381Y53122991D01*
X-46745623Y53128813D01*
X-46768182Y53136885D01*
X-46789842Y53147129D01*
X-46810392Y53159447D01*
X-46829637Y53173719D01*
X-46847390Y53189810D01*
X-46863481Y53207563D01*
X-46877753Y53226808D01*
X-46890071Y53247358D01*
X-46900315Y53269018D01*
X-46908387Y53291577D01*
X-46914209Y53314819D01*
X-46917724Y53338519D01*
X-46918900Y53362450D01*
X-46918900Y53850750D01*
X-46917724Y53874681D01*
X-46914209Y53898381D01*
X-46908387Y53921623D01*
X-46900315Y53944182D01*
X-46890071Y53965842D01*
X-46877753Y53986392D01*
X-46863481Y54005637D01*
X-46847390Y54023390D01*
X-46829637Y54039481D01*
X-46810392Y54053753D01*
X-46789842Y54066071D01*
X-46768182Y54076315D01*
X-46745623Y54084387D01*
X-46722381Y54090209D01*
X-46698681Y54093724D01*
X-46674750Y54094900D01*
X-46111450Y54094900D01*
X-46087519Y54093724D01*
G37*
G36*
X-18274519Y47997724D02*
G01*
X-18250819Y47994209D01*
X-18227577Y47988387D01*
X-18205018Y47980315D01*
X-18183358Y47970071D01*
X-18162808Y47957753D01*
X-18143563Y47943481D01*
X-18125810Y47927390D01*
X-18109719Y47909637D01*
X-18095447Y47890392D01*
X-18083129Y47869842D01*
X-18072885Y47848182D01*
X-18064813Y47825623D01*
X-18058991Y47802381D01*
X-18055476Y47778681D01*
X-18054300Y47754750D01*
X-18054300Y47266450D01*
X-18055476Y47242519D01*
X-18058991Y47218819D01*
X-18064813Y47195577D01*
X-18072885Y47173018D01*
X-18083129Y47151358D01*
X-18095447Y47130808D01*
X-18109719Y47111563D01*
X-18125810Y47093810D01*
X-18143563Y47077719D01*
X-18162808Y47063447D01*
X-18183358Y47051129D01*
X-18205018Y47040885D01*
X-18227577Y47032813D01*
X-18250819Y47026991D01*
X-18274519Y47023476D01*
X-18298450Y47022300D01*
X-18861750Y47022300D01*
X-18885681Y47023476D01*
X-18909381Y47026991D01*
X-18932623Y47032813D01*
X-18955182Y47040885D01*
X-18976842Y47051129D01*
X-18997392Y47063447D01*
X-19016637Y47077719D01*
X-19034390Y47093810D01*
X-19050481Y47111563D01*
X-19064753Y47130808D01*
X-19077071Y47151358D01*
X-19087315Y47173018D01*
X-19095387Y47195577D01*
X-19101209Y47218819D01*
X-19104724Y47242519D01*
X-19105900Y47266450D01*
X-19105900Y47754750D01*
X-19104724Y47778681D01*
X-19101209Y47802381D01*
X-19095387Y47825623D01*
X-19087315Y47848182D01*
X-19077071Y47869842D01*
X-19064753Y47890392D01*
X-19050481Y47909637D01*
X-19034390Y47927390D01*
X-19016637Y47943481D01*
X-18997392Y47957753D01*
X-18976842Y47970071D01*
X-18955182Y47980315D01*
X-18932623Y47988387D01*
X-18909381Y47994209D01*
X-18885681Y47997724D01*
X-18861750Y47998900D01*
X-18298450Y47998900D01*
X-18274519Y47997724D01*
G37*
G36*
X-18274519Y49572724D02*
G01*
X-18250819Y49569209D01*
X-18227577Y49563387D01*
X-18205018Y49555315D01*
X-18183358Y49545071D01*
X-18162808Y49532753D01*
X-18143563Y49518481D01*
X-18125810Y49502390D01*
X-18109719Y49484637D01*
X-18095447Y49465392D01*
X-18083129Y49444842D01*
X-18072885Y49423182D01*
X-18064813Y49400623D01*
X-18058991Y49377381D01*
X-18055476Y49353681D01*
X-18054300Y49329750D01*
X-18054300Y48841450D01*
X-18055476Y48817519D01*
X-18058991Y48793819D01*
X-18064813Y48770577D01*
X-18072885Y48748018D01*
X-18083129Y48726358D01*
X-18095447Y48705808D01*
X-18109719Y48686563D01*
X-18125810Y48668810D01*
X-18143563Y48652719D01*
X-18162808Y48638447D01*
X-18183358Y48626129D01*
X-18205018Y48615885D01*
X-18227577Y48607813D01*
X-18250819Y48601991D01*
X-18274519Y48598476D01*
X-18298450Y48597300D01*
X-18861750Y48597300D01*
X-18885681Y48598476D01*
X-18909381Y48601991D01*
X-18932623Y48607813D01*
X-18955182Y48615885D01*
X-18976842Y48626129D01*
X-18997392Y48638447D01*
X-19016637Y48652719D01*
X-19034390Y48668810D01*
X-19050481Y48686563D01*
X-19064753Y48705808D01*
X-19077071Y48726358D01*
X-19087315Y48748018D01*
X-19095387Y48770577D01*
X-19101209Y48793819D01*
X-19104724Y48817519D01*
X-19105900Y48841450D01*
X-19105900Y49329750D01*
X-19104724Y49353681D01*
X-19101209Y49377381D01*
X-19095387Y49400623D01*
X-19087315Y49423182D01*
X-19077071Y49444842D01*
X-19064753Y49465392D01*
X-19050481Y49484637D01*
X-19034390Y49502390D01*
X-19016637Y49518481D01*
X-18997392Y49532753D01*
X-18976842Y49545071D01*
X-18955182Y49555315D01*
X-18932623Y49563387D01*
X-18909381Y49569209D01*
X-18885681Y49572724D01*
X-18861750Y49573900D01*
X-18298450Y49573900D01*
X-18274519Y49572724D01*
G37*
G36*
X-20306519Y51125753D02*
G01*
X-20282819Y51122238D01*
X-20259577Y51116416D01*
X-20237018Y51108344D01*
X-20215358Y51098100D01*
X-20194808Y51085782D01*
X-20175563Y51071510D01*
X-20157810Y51055419D01*
X-20141719Y51037666D01*
X-20127447Y51018421D01*
X-20115129Y50997871D01*
X-20104885Y50976211D01*
X-20096813Y50953652D01*
X-20090991Y50930410D01*
X-20087476Y50906710D01*
X-20086300Y50882779D01*
X-20086300Y50394479D01*
X-20087476Y50370548D01*
X-20090991Y50346848D01*
X-20096813Y50323606D01*
X-20104885Y50301047D01*
X-20115129Y50279387D01*
X-20127447Y50258837D01*
X-20141719Y50239592D01*
X-20157810Y50221839D01*
X-20175563Y50205748D01*
X-20194808Y50191476D01*
X-20215358Y50179158D01*
X-20237018Y50168914D01*
X-20259577Y50160842D01*
X-20282819Y50155020D01*
X-20306519Y50151505D01*
X-20330450Y50150329D01*
X-20893750Y50150329D01*
X-20917681Y50151505D01*
X-20941381Y50155020D01*
X-20964623Y50160842D01*
X-20987182Y50168914D01*
X-21008842Y50179158D01*
X-21029392Y50191476D01*
X-21048637Y50205748D01*
X-21066390Y50221839D01*
X-21082481Y50239592D01*
X-21096753Y50258837D01*
X-21109071Y50279387D01*
X-21119315Y50301047D01*
X-21127387Y50323606D01*
X-21133209Y50346848D01*
X-21136724Y50370548D01*
X-21137900Y50394479D01*
X-21137900Y50882779D01*
X-21136724Y50906710D01*
X-21133209Y50930410D01*
X-21127387Y50953652D01*
X-21119315Y50976211D01*
X-21109071Y50997871D01*
X-21096753Y51018421D01*
X-21082481Y51037666D01*
X-21066390Y51055419D01*
X-21048637Y51071510D01*
X-21029392Y51085782D01*
X-21008842Y51098100D01*
X-20987182Y51108344D01*
X-20964623Y51116416D01*
X-20941381Y51122238D01*
X-20917681Y51125753D01*
X-20893750Y51126929D01*
X-20330450Y51126929D01*
X-20306519Y51125753D01*
G37*
G36*
X-20306519Y49550753D02*
G01*
X-20282819Y49547238D01*
X-20259577Y49541416D01*
X-20237018Y49533344D01*
X-20215358Y49523100D01*
X-20194808Y49510782D01*
X-20175563Y49496510D01*
X-20157810Y49480419D01*
X-20141719Y49462666D01*
X-20127447Y49443421D01*
X-20115129Y49422871D01*
X-20104885Y49401211D01*
X-20096813Y49378652D01*
X-20090991Y49355410D01*
X-20087476Y49331710D01*
X-20086300Y49307779D01*
X-20086300Y48819479D01*
X-20087476Y48795548D01*
X-20090991Y48771848D01*
X-20096813Y48748606D01*
X-20104885Y48726047D01*
X-20115129Y48704387D01*
X-20127447Y48683837D01*
X-20141719Y48664592D01*
X-20157810Y48646839D01*
X-20175563Y48630748D01*
X-20194808Y48616476D01*
X-20215358Y48604158D01*
X-20237018Y48593914D01*
X-20259577Y48585842D01*
X-20282819Y48580020D01*
X-20306519Y48576505D01*
X-20330450Y48575329D01*
X-20893750Y48575329D01*
X-20917681Y48576505D01*
X-20941381Y48580020D01*
X-20964623Y48585842D01*
X-20987182Y48593914D01*
X-21008842Y48604158D01*
X-21029392Y48616476D01*
X-21048637Y48630748D01*
X-21066390Y48646839D01*
X-21082481Y48664592D01*
X-21096753Y48683837D01*
X-21109071Y48704387D01*
X-21119315Y48726047D01*
X-21127387Y48748606D01*
X-21133209Y48771848D01*
X-21136724Y48795548D01*
X-21137900Y48819479D01*
X-21137900Y49307779D01*
X-21136724Y49331710D01*
X-21133209Y49355410D01*
X-21127387Y49378652D01*
X-21119315Y49401211D01*
X-21109071Y49422871D01*
X-21096753Y49443421D01*
X-21082481Y49462666D01*
X-21066390Y49480419D01*
X-21048637Y49496510D01*
X-21029392Y49510782D01*
X-21008842Y49523100D01*
X-20987182Y49533344D01*
X-20964623Y49541416D01*
X-20941381Y49547238D01*
X-20917681Y49550753D01*
X-20893750Y49551929D01*
X-20330450Y49551929D01*
X-20306519Y49550753D01*
G37*
G36*
X-58279519Y14520724D02*
G01*
X-58255819Y14517209D01*
X-58232577Y14511387D01*
X-58210018Y14503315D01*
X-58188358Y14493071D01*
X-58167808Y14480753D01*
X-58148563Y14466481D01*
X-58130810Y14450390D01*
X-58114719Y14432637D01*
X-58100447Y14413392D01*
X-58088129Y14392842D01*
X-58077885Y14371182D01*
X-58069813Y14348623D01*
X-58063991Y14325381D01*
X-58060476Y14301681D01*
X-58059300Y14277750D01*
X-58059300Y13789450D01*
X-58060476Y13765519D01*
X-58063991Y13741819D01*
X-58069813Y13718577D01*
X-58077885Y13696018D01*
X-58088129Y13674358D01*
X-58100447Y13653808D01*
X-58114719Y13634563D01*
X-58130810Y13616810D01*
X-58148563Y13600719D01*
X-58167808Y13586447D01*
X-58188358Y13574129D01*
X-58210018Y13563885D01*
X-58232577Y13555813D01*
X-58255819Y13549991D01*
X-58279519Y13546476D01*
X-58303450Y13545300D01*
X-58866750Y13545300D01*
X-58890681Y13546476D01*
X-58914381Y13549991D01*
X-58937623Y13555813D01*
X-58960182Y13563885D01*
X-58981842Y13574129D01*
X-59002392Y13586447D01*
X-59021637Y13600719D01*
X-59039390Y13616810D01*
X-59055481Y13634563D01*
X-59069753Y13653808D01*
X-59082071Y13674358D01*
X-59092315Y13696018D01*
X-59100387Y13718577D01*
X-59106209Y13741819D01*
X-59109724Y13765519D01*
X-59110900Y13789450D01*
X-59110900Y14277750D01*
X-59109724Y14301681D01*
X-59106209Y14325381D01*
X-59100387Y14348623D01*
X-59092315Y14371182D01*
X-59082071Y14392842D01*
X-59069753Y14413392D01*
X-59055481Y14432637D01*
X-59039390Y14450390D01*
X-59021637Y14466481D01*
X-59002392Y14480753D01*
X-58981842Y14493071D01*
X-58960182Y14503315D01*
X-58937623Y14511387D01*
X-58914381Y14517209D01*
X-58890681Y14520724D01*
X-58866750Y14521900D01*
X-58303450Y14521900D01*
X-58279519Y14520724D01*
G37*
G36*
X-58279519Y12945724D02*
G01*
X-58255819Y12942209D01*
X-58232577Y12936387D01*
X-58210018Y12928315D01*
X-58188358Y12918071D01*
X-58167808Y12905753D01*
X-58148563Y12891481D01*
X-58130810Y12875390D01*
X-58114719Y12857637D01*
X-58100447Y12838392D01*
X-58088129Y12817842D01*
X-58077885Y12796182D01*
X-58069813Y12773623D01*
X-58063991Y12750381D01*
X-58060476Y12726681D01*
X-58059300Y12702750D01*
X-58059300Y12214450D01*
X-58060476Y12190519D01*
X-58063991Y12166819D01*
X-58069813Y12143577D01*
X-58077885Y12121018D01*
X-58088129Y12099358D01*
X-58100447Y12078808D01*
X-58114719Y12059563D01*
X-58130810Y12041810D01*
X-58148563Y12025719D01*
X-58167808Y12011447D01*
X-58188358Y11999129D01*
X-58210018Y11988885D01*
X-58232577Y11980813D01*
X-58255819Y11974991D01*
X-58279519Y11971476D01*
X-58303450Y11970300D01*
X-58866750Y11970300D01*
X-58890681Y11971476D01*
X-58914381Y11974991D01*
X-58937623Y11980813D01*
X-58960182Y11988885D01*
X-58981842Y11999129D01*
X-59002392Y12011447D01*
X-59021637Y12025719D01*
X-59039390Y12041810D01*
X-59055481Y12059563D01*
X-59069753Y12078808D01*
X-59082071Y12099358D01*
X-59092315Y12121018D01*
X-59100387Y12143577D01*
X-59106209Y12166819D01*
X-59109724Y12190519D01*
X-59110900Y12214450D01*
X-59110900Y12702750D01*
X-59109724Y12726681D01*
X-59106209Y12750381D01*
X-59100387Y12773623D01*
X-59092315Y12796182D01*
X-59082071Y12817842D01*
X-59069753Y12838392D01*
X-59055481Y12857637D01*
X-59039390Y12875390D01*
X-59021637Y12891481D01*
X-59002392Y12905753D01*
X-58981842Y12918071D01*
X-58960182Y12928315D01*
X-58937623Y12936387D01*
X-58914381Y12942209D01*
X-58890681Y12945724D01*
X-58866750Y12946900D01*
X-58303450Y12946900D01*
X-58279519Y12945724D01*
G37*
G36*
X-66372419Y11944628D02*
G01*
X-66348719Y11941113D01*
X-66325477Y11935291D01*
X-66302918Y11927219D01*
X-66281258Y11916975D01*
X-66260708Y11904657D01*
X-66241463Y11890385D01*
X-66223710Y11874294D01*
X-66207619Y11856541D01*
X-66193347Y11837296D01*
X-66181029Y11816746D01*
X-66170785Y11795086D01*
X-66162713Y11772527D01*
X-66156891Y11749285D01*
X-66153376Y11725585D01*
X-66152200Y11701654D01*
X-66152200Y11138354D01*
X-66153376Y11114423D01*
X-66156891Y11090723D01*
X-66162713Y11067481D01*
X-66170785Y11044922D01*
X-66181029Y11023262D01*
X-66193347Y11002712D01*
X-66207619Y10983467D01*
X-66223710Y10965714D01*
X-66241463Y10949623D01*
X-66260708Y10935351D01*
X-66281258Y10923033D01*
X-66302918Y10912789D01*
X-66325477Y10904717D01*
X-66348719Y10898895D01*
X-66372419Y10895380D01*
X-66396350Y10894204D01*
X-66884650Y10894204D01*
X-66908581Y10895380D01*
X-66932281Y10898895D01*
X-66955523Y10904717D01*
X-66978082Y10912789D01*
X-66999742Y10923033D01*
X-67020292Y10935351D01*
X-67039537Y10949623D01*
X-67057290Y10965714D01*
X-67073381Y10983467D01*
X-67087653Y11002712D01*
X-67099971Y11023262D01*
X-67110215Y11044922D01*
X-67118287Y11067481D01*
X-67124109Y11090723D01*
X-67127624Y11114423D01*
X-67128800Y11138354D01*
X-67128800Y11701654D01*
X-67127624Y11725585D01*
X-67124109Y11749285D01*
X-67118287Y11772527D01*
X-67110215Y11795086D01*
X-67099971Y11816746D01*
X-67087653Y11837296D01*
X-67073381Y11856541D01*
X-67057290Y11874294D01*
X-67039537Y11890385D01*
X-67020292Y11904657D01*
X-66999742Y11916975D01*
X-66978082Y11927219D01*
X-66955523Y11935291D01*
X-66932281Y11941113D01*
X-66908581Y11944628D01*
X-66884650Y11945804D01*
X-66396350Y11945804D01*
X-66372419Y11944628D01*
G37*
G36*
X-64797419Y11944628D02*
G01*
X-64773719Y11941113D01*
X-64750477Y11935291D01*
X-64727918Y11927219D01*
X-64706258Y11916975D01*
X-64685708Y11904657D01*
X-64666463Y11890385D01*
X-64648710Y11874294D01*
X-64632619Y11856541D01*
X-64618347Y11837296D01*
X-64606029Y11816746D01*
X-64595785Y11795086D01*
X-64587713Y11772527D01*
X-64581891Y11749285D01*
X-64578376Y11725585D01*
X-64577200Y11701654D01*
X-64577200Y11138354D01*
X-64578376Y11114423D01*
X-64581891Y11090723D01*
X-64587713Y11067481D01*
X-64595785Y11044922D01*
X-64606029Y11023262D01*
X-64618347Y11002712D01*
X-64632619Y10983467D01*
X-64648710Y10965714D01*
X-64666463Y10949623D01*
X-64685708Y10935351D01*
X-64706258Y10923033D01*
X-64727918Y10912789D01*
X-64750477Y10904717D01*
X-64773719Y10898895D01*
X-64797419Y10895380D01*
X-64821350Y10894204D01*
X-65309650Y10894204D01*
X-65333581Y10895380D01*
X-65357281Y10898895D01*
X-65380523Y10904717D01*
X-65403082Y10912789D01*
X-65424742Y10923033D01*
X-65445292Y10935351D01*
X-65464537Y10949623D01*
X-65482290Y10965714D01*
X-65498381Y10983467D01*
X-65512653Y11002712D01*
X-65524971Y11023262D01*
X-65535215Y11044922D01*
X-65543287Y11067481D01*
X-65549109Y11090723D01*
X-65552624Y11114423D01*
X-65553800Y11138354D01*
X-65553800Y11701654D01*
X-65552624Y11725585D01*
X-65549109Y11749285D01*
X-65543287Y11772527D01*
X-65535215Y11795086D01*
X-65524971Y11816746D01*
X-65512653Y11837296D01*
X-65498381Y11856541D01*
X-65482290Y11874294D01*
X-65464537Y11890385D01*
X-65445292Y11904657D01*
X-65424742Y11916975D01*
X-65403082Y11927219D01*
X-65380523Y11935291D01*
X-65357281Y11941113D01*
X-65333581Y11944628D01*
X-65309650Y11945804D01*
X-64821350Y11945804D01*
X-64797419Y11944628D01*
G37*
G36*
X-66372419Y14103628D02*
G01*
X-66348719Y14100113D01*
X-66325477Y14094291D01*
X-66302918Y14086219D01*
X-66281258Y14075975D01*
X-66260708Y14063657D01*
X-66241463Y14049385D01*
X-66223710Y14033294D01*
X-66207619Y14015541D01*
X-66193347Y13996296D01*
X-66181029Y13975746D01*
X-66170785Y13954086D01*
X-66162713Y13931527D01*
X-66156891Y13908285D01*
X-66153376Y13884585D01*
X-66152200Y13860654D01*
X-66152200Y13297354D01*
X-66153376Y13273423D01*
X-66156891Y13249723D01*
X-66162713Y13226481D01*
X-66170785Y13203922D01*
X-66181029Y13182262D01*
X-66193347Y13161712D01*
X-66207619Y13142467D01*
X-66223710Y13124714D01*
X-66241463Y13108623D01*
X-66260708Y13094351D01*
X-66281258Y13082033D01*
X-66302918Y13071789D01*
X-66325477Y13063717D01*
X-66348719Y13057895D01*
X-66372419Y13054380D01*
X-66396350Y13053204D01*
X-66884650Y13053204D01*
X-66908581Y13054380D01*
X-66932281Y13057895D01*
X-66955523Y13063717D01*
X-66978082Y13071789D01*
X-66999742Y13082033D01*
X-67020292Y13094351D01*
X-67039537Y13108623D01*
X-67057290Y13124714D01*
X-67073381Y13142467D01*
X-67087653Y13161712D01*
X-67099971Y13182262D01*
X-67110215Y13203922D01*
X-67118287Y13226481D01*
X-67124109Y13249723D01*
X-67127624Y13273423D01*
X-67128800Y13297354D01*
X-67128800Y13860654D01*
X-67127624Y13884585D01*
X-67124109Y13908285D01*
X-67118287Y13931527D01*
X-67110215Y13954086D01*
X-67099971Y13975746D01*
X-67087653Y13996296D01*
X-67073381Y14015541D01*
X-67057290Y14033294D01*
X-67039537Y14049385D01*
X-67020292Y14063657D01*
X-66999742Y14075975D01*
X-66978082Y14086219D01*
X-66955523Y14094291D01*
X-66932281Y14100113D01*
X-66908581Y14103628D01*
X-66884650Y14104804D01*
X-66396350Y14104804D01*
X-66372419Y14103628D01*
G37*
G36*
X-64797419Y14103628D02*
G01*
X-64773719Y14100113D01*
X-64750477Y14094291D01*
X-64727918Y14086219D01*
X-64706258Y14075975D01*
X-64685708Y14063657D01*
X-64666463Y14049385D01*
X-64648710Y14033294D01*
X-64632619Y14015541D01*
X-64618347Y13996296D01*
X-64606029Y13975746D01*
X-64595785Y13954086D01*
X-64587713Y13931527D01*
X-64581891Y13908285D01*
X-64578376Y13884585D01*
X-64577200Y13860654D01*
X-64577200Y13297354D01*
X-64578376Y13273423D01*
X-64581891Y13249723D01*
X-64587713Y13226481D01*
X-64595785Y13203922D01*
X-64606029Y13182262D01*
X-64618347Y13161712D01*
X-64632619Y13142467D01*
X-64648710Y13124714D01*
X-64666463Y13108623D01*
X-64685708Y13094351D01*
X-64706258Y13082033D01*
X-64727918Y13071789D01*
X-64750477Y13063717D01*
X-64773719Y13057895D01*
X-64797419Y13054380D01*
X-64821350Y13053204D01*
X-65309650Y13053204D01*
X-65333581Y13054380D01*
X-65357281Y13057895D01*
X-65380523Y13063717D01*
X-65403082Y13071789D01*
X-65424742Y13082033D01*
X-65445292Y13094351D01*
X-65464537Y13108623D01*
X-65482290Y13124714D01*
X-65498381Y13142467D01*
X-65512653Y13161712D01*
X-65524971Y13182262D01*
X-65535215Y13203922D01*
X-65543287Y13226481D01*
X-65549109Y13249723D01*
X-65552624Y13273423D01*
X-65553800Y13297354D01*
X-65553800Y13860654D01*
X-65552624Y13884585D01*
X-65549109Y13908285D01*
X-65543287Y13931527D01*
X-65535215Y13954086D01*
X-65524971Y13975746D01*
X-65512653Y13996296D01*
X-65498381Y14015541D01*
X-65482290Y14033294D01*
X-65464537Y14049385D01*
X-65445292Y14063657D01*
X-65424742Y14075975D01*
X-65403082Y14086219D01*
X-65380523Y14094291D01*
X-65357281Y14100113D01*
X-65333581Y14103628D01*
X-65309650Y14104804D01*
X-64821350Y14104804D01*
X-64797419Y14103628D01*
G37*
G36*
X-25894519Y49359528D02*
G01*
X-25870819Y49356013D01*
X-25847577Y49350191D01*
X-25825018Y49342119D01*
X-25803358Y49331875D01*
X-25782808Y49319557D01*
X-25763563Y49305285D01*
X-25745810Y49289194D01*
X-25729719Y49271441D01*
X-25715447Y49252196D01*
X-25703129Y49231646D01*
X-25692885Y49209986D01*
X-25684813Y49187427D01*
X-25678991Y49164185D01*
X-25675476Y49140485D01*
X-25674300Y49116554D01*
X-25674300Y48628254D01*
X-25675476Y48604323D01*
X-25678991Y48580623D01*
X-25684813Y48557381D01*
X-25692885Y48534822D01*
X-25703129Y48513162D01*
X-25715447Y48492612D01*
X-25729719Y48473367D01*
X-25745810Y48455614D01*
X-25763563Y48439523D01*
X-25782808Y48425251D01*
X-25803358Y48412933D01*
X-25825018Y48402689D01*
X-25847577Y48394617D01*
X-25870819Y48388795D01*
X-25894519Y48385280D01*
X-25918450Y48384104D01*
X-26481750Y48384104D01*
X-26505681Y48385280D01*
X-26529381Y48388795D01*
X-26552623Y48394617D01*
X-26575182Y48402689D01*
X-26596842Y48412933D01*
X-26617392Y48425251D01*
X-26636637Y48439523D01*
X-26654390Y48455614D01*
X-26670481Y48473367D01*
X-26684753Y48492612D01*
X-26697071Y48513162D01*
X-26707315Y48534822D01*
X-26715387Y48557381D01*
X-26721209Y48580623D01*
X-26724724Y48604323D01*
X-26725900Y48628254D01*
X-26725900Y49116554D01*
X-26724724Y49140485D01*
X-26721209Y49164185D01*
X-26715387Y49187427D01*
X-26707315Y49209986D01*
X-26697071Y49231646D01*
X-26684753Y49252196D01*
X-26670481Y49271441D01*
X-26654390Y49289194D01*
X-26636637Y49305285D01*
X-26617392Y49319557D01*
X-26596842Y49331875D01*
X-26575182Y49342119D01*
X-26552623Y49350191D01*
X-26529381Y49356013D01*
X-26505681Y49359528D01*
X-26481750Y49360704D01*
X-25918450Y49360704D01*
X-25894519Y49359528D01*
G37*
G36*
X-25894519Y47784528D02*
G01*
X-25870819Y47781013D01*
X-25847577Y47775191D01*
X-25825018Y47767119D01*
X-25803358Y47756875D01*
X-25782808Y47744557D01*
X-25763563Y47730285D01*
X-25745810Y47714194D01*
X-25729719Y47696441D01*
X-25715447Y47677196D01*
X-25703129Y47656646D01*
X-25692885Y47634986D01*
X-25684813Y47612427D01*
X-25678991Y47589185D01*
X-25675476Y47565485D01*
X-25674300Y47541554D01*
X-25674300Y47053254D01*
X-25675476Y47029323D01*
X-25678991Y47005623D01*
X-25684813Y46982381D01*
X-25692885Y46959822D01*
X-25703129Y46938162D01*
X-25715447Y46917612D01*
X-25729719Y46898367D01*
X-25745810Y46880614D01*
X-25763563Y46864523D01*
X-25782808Y46850251D01*
X-25803358Y46837933D01*
X-25825018Y46827689D01*
X-25847577Y46819617D01*
X-25870819Y46813795D01*
X-25894519Y46810280D01*
X-25918450Y46809104D01*
X-26481750Y46809104D01*
X-26505681Y46810280D01*
X-26529381Y46813795D01*
X-26552623Y46819617D01*
X-26575182Y46827689D01*
X-26596842Y46837933D01*
X-26617392Y46850251D01*
X-26636637Y46864523D01*
X-26654390Y46880614D01*
X-26670481Y46898367D01*
X-26684753Y46917612D01*
X-26697071Y46938162D01*
X-26707315Y46959822D01*
X-26715387Y46982381D01*
X-26721209Y47005623D01*
X-26724724Y47029323D01*
X-26725900Y47053254D01*
X-26725900Y47541554D01*
X-26724724Y47565485D01*
X-26721209Y47589185D01*
X-26715387Y47612427D01*
X-26707315Y47634986D01*
X-26697071Y47656646D01*
X-26684753Y47677196D01*
X-26670481Y47696441D01*
X-26654390Y47714194D01*
X-26636637Y47730285D01*
X-26617392Y47744557D01*
X-26596842Y47756875D01*
X-26575182Y47767119D01*
X-26552623Y47775191D01*
X-26529381Y47781013D01*
X-26505681Y47784528D01*
X-26481750Y47785704D01*
X-25918450Y47785704D01*
X-25894519Y47784528D01*
G37*
D38*
X-85706000Y61140504D03*
D36*
X-85960000Y58600504D03*
X-85706000Y56060504D03*
D38*
X-4237000Y45392504D03*
D36*
X-3983000Y47932504D03*
X-4237000Y50472504D03*
D38*
X-75857100Y4229100D03*
D36*
X-73317100Y3975100D03*
X-70777100Y4229100D03*
D38*
X-25902000Y91663004D03*
D36*
X-23362000Y91917004D03*
X-20822000Y91663004D03*
D38*
X-47625000Y4229100D03*
D36*
X-45085000Y3975100D03*
X-42545000Y4229100D03*
D38*
X-64900500Y91663004D03*
D36*
X-67440500Y91917004D03*
X-69980500Y91663004D03*
D18*
X-7798000Y74413404D03*
D19*
X-7798000Y70557804D03*
X-7798000Y63202204D03*
D18*
X-7798000Y67057804D03*
D19*
X-17224000Y70557804D03*
D18*
X-17224000Y74413404D03*
D19*
X-7798000Y77913404D03*
D18*
X-7798000Y81769004D03*
D40*
X-71135538Y26701557D03*
X-71135538Y30001557D03*
X-71135538Y28901557D03*
X-71135538Y27801557D03*
X-71135538Y23701557D03*
X-71135538Y18201557D03*
X-71135538Y20401557D03*
X-71135538Y21501557D03*
X-71135538Y22601557D03*
X-71135538Y31101557D03*
X-71135538Y19301557D03*
X-71135538Y17101557D03*
X-58935538Y17101557D03*
X-58935538Y21501557D03*
X-58935538Y20401557D03*
X-58935538Y19301557D03*
X-58935538Y18201557D03*
X-58935538Y23701557D03*
X-58935538Y26701557D03*
X-58935538Y31101557D03*
X-58935538Y30001557D03*
X-58935538Y28901557D03*
X-58935538Y27801557D03*
X-58935538Y22601557D03*
D41*
X-73844222Y31519950D03*
X-73844222Y31019950D03*
X-73844222Y30519950D03*
X-73844222Y30019950D03*
X-73844222Y29519950D03*
X-73844222Y29019950D03*
X-73844222Y28519950D03*
X-73844222Y28019950D03*
D42*
X-74594222Y27269950D03*
X-75094222Y27269950D03*
X-75594222Y27269950D03*
X-76094222Y27269950D03*
X-76594222Y27269950D03*
X-77094222Y27269950D03*
X-77594222Y27269950D03*
X-78094222Y27269950D03*
D41*
X-78844222Y28019950D03*
X-78844222Y28519950D03*
X-78844222Y29019950D03*
X-78844222Y29519950D03*
X-78844222Y30019950D03*
X-78844222Y30519950D03*
X-78844222Y31019950D03*
X-78844222Y31519950D03*
D42*
X-78094222Y32269950D03*
X-77594222Y32269950D03*
X-77094222Y32269950D03*
X-76594222Y32269950D03*
X-76094222Y32269950D03*
X-75594222Y32269950D03*
X-75094222Y32269950D03*
X-74594222Y32269950D03*
D43*
X-76344222Y29769950D03*
D44*
X-71798100Y49801100D03*
X-71798100Y48701100D03*
X-71798100Y47601100D03*
X-71798100Y46501100D03*
X-71798100Y45401100D03*
X-71798100Y44301100D03*
X-71798100Y43201100D03*
X-71798100Y42101100D03*
D45*
X-71168100Y54146100D03*
D46*
X-71318100Y39756100D03*
D47*
X-69168100Y40161100D03*
D48*
X-60168100Y40161100D03*
D46*
X-59838100Y54046100D03*
D49*
X-59043100Y49741100D03*
X-59043100Y41961100D03*
D50*
X-62792300Y11483504D03*
X-62792300Y13388504D03*
X-60912700Y12436004D03*
D51*
X-31613800Y80889004D03*
X-21453800Y80889004D03*
X-13833800Y80889004D03*
X-13833800Y88509004D03*
X-31613800Y88509004D03*
D38*
X-4229100Y22390100D03*
D36*
X-3975100Y24930100D03*
X-4229100Y27470100D03*
M02*
