%TF.GenerationSoftware,KiCad,Pcbnew,(5.1.4)-1*%
%TF.CreationDate,2019-12-19T18:40:15-07:00*%
%TF.ProjectId,mainboard,6d61696e-626f-4617-9264-2e6b69636164,rev?*%
%TF.SameCoordinates,Original*%
%TF.FileFunction,Copper,L3,Inr*%
%TF.FilePolarity,Positive*%
%FSLAX46Y46*%
G04 Gerber Fmt 4.6, Leading zero omitted, Abs format (unit mm)*
G04 Created by KiCad (PCBNEW (5.1.4)-1) date 2019-12-19 18:40:15*
%MOMM*%
%LPD*%
G04 APERTURE LIST*
%ADD10C,0.150000*%
%ADD11C,2.032000*%
%ADD12R,2.032000X2.032000*%
%ADD13O,1.000000X2.100000*%
%ADD14O,1.000000X1.600000*%
%ADD15O,1.700000X1.700000*%
%ADD16C,1.270000*%
%ADD17C,1.408000*%
%ADD18C,2.250000*%
%ADD19C,2.050000*%
%ADD20C,5.600000*%
%ADD21C,1.879600*%
%ADD22C,5.000000*%
%ADD23R,1.879600X1.879600*%
%ADD24C,2.006600*%
%ADD25C,0.584200*%
%ADD26C,0.600000*%
%ADD27C,0.279400*%
%ADD28C,0.508000*%
%ADD29C,0.271780*%
%ADD30C,0.271781*%
%ADD31C,1.270000*%
%ADD32C,0.304800*%
%ADD33C,0.609600*%
%ADD34C,0.228600*%
%ADD35C,1.524000*%
G04 APERTURE END LIST*
D10*
X98336100Y-54489100D02*
X98336100Y-146374100D01*
X100336100Y-148374100D02*
G75*
G02X98336100Y-146374100I0J2000000D01*
G01*
X100336100Y-148374100D02*
X186506100Y-148374100D01*
X188506100Y-146374100D02*
G75*
G02X186506100Y-148374100I-2000000J0D01*
G01*
X188506100Y-146374100D02*
X188506100Y-54489100D01*
X186506100Y-52489100D02*
G75*
G02X188506100Y-54489100I0J-2000000D01*
G01*
X186506100Y-52489100D02*
X154276100Y-52499096D01*
X154276100Y-52499096D02*
X153006100Y-53388096D01*
X153006100Y-53388096D02*
X142211100Y-53388096D01*
X142211100Y-53388096D02*
X140931103Y-52489100D01*
X140931103Y-52489100D02*
X100336100Y-52489100D01*
X98336100Y-54489100D02*
G75*
G02X100336100Y-52489100I2000000J0D01*
G01*
D11*
X171282100Y-81316296D03*
D12*
X171282100Y-85171896D03*
D13*
X151876600Y-59586800D03*
X143236600Y-59586800D03*
D14*
X143236600Y-55436800D03*
X151876600Y-55436800D03*
D12*
X171192100Y-88264000D03*
D15*
X158242000Y-114604800D03*
X155702000Y-114604800D03*
X153162000Y-114604800D03*
X150622000Y-114604800D03*
X148082000Y-114604800D03*
D16*
X151048600Y-54508400D03*
X144048600Y-54508400D03*
D17*
X150048600Y-57208400D03*
X145048600Y-57208400D03*
D18*
X101571100Y-110284096D03*
X101571100Y-115364096D03*
X106651100Y-115364096D03*
X106651100Y-110284096D03*
D19*
X104111100Y-112824096D03*
D18*
X101571100Y-121714096D03*
X101571100Y-126794096D03*
X106651100Y-126794096D03*
X106651100Y-121714096D03*
D19*
X104111100Y-124254096D03*
D18*
X180467000Y-137224096D03*
X180467000Y-132144096D03*
X185547000Y-132144096D03*
X185547000Y-137224096D03*
D19*
X183007000Y-134684096D03*
D20*
X107226100Y-57569100D03*
D21*
X124307600Y-144322800D03*
X121767600Y-144322800D03*
D22*
X180886100Y-57569100D03*
X183426100Y-143294100D03*
X103426100Y-143294100D03*
D15*
X136017000Y-91948000D03*
X133477000Y-91948000D03*
X130937000Y-91948000D03*
X128397000Y-91948000D03*
X125857000Y-91948000D03*
X123317000Y-91948000D03*
X120777000Y-91948000D03*
X118237000Y-91948000D03*
X115697000Y-91948000D03*
X156718000Y-91948000D03*
X154178000Y-91948000D03*
X151638000Y-91948000D03*
X149098000Y-91948000D03*
X146558000Y-91948000D03*
X132384800Y-105816400D03*
X132384800Y-108356400D03*
X132384800Y-110896400D03*
X132384800Y-113436400D03*
X132384800Y-115976400D03*
D23*
X168148000Y-143757096D03*
D21*
X170688000Y-144011096D03*
X173228000Y-143757096D03*
D19*
X104111100Y-134684096D03*
D18*
X106651100Y-137224096D03*
X106651100Y-132144096D03*
X101571100Y-132144096D03*
X101571100Y-137224096D03*
D23*
X102800100Y-87233596D03*
D21*
X102546100Y-89773596D03*
X102800100Y-92313596D03*
D23*
X184269100Y-102981596D03*
D21*
X184523100Y-100441596D03*
X184269100Y-97901596D03*
D23*
X112649000Y-144145000D03*
D21*
X115189000Y-144399000D03*
X117729000Y-144145000D03*
D23*
X162604100Y-56711096D03*
D21*
X165144100Y-56457096D03*
X167684100Y-56711096D03*
D23*
X140881100Y-144145000D03*
D21*
X143421100Y-144399000D03*
X145961100Y-144145000D03*
D23*
X123605600Y-56711096D03*
D21*
X121065600Y-56457096D03*
X118525600Y-56711096D03*
D11*
X180708100Y-73960696D03*
D12*
X180708100Y-77816296D03*
X180708100Y-85171896D03*
D11*
X180708100Y-81316296D03*
D12*
X171282100Y-77816296D03*
D11*
X171282100Y-73960696D03*
D12*
X180708100Y-70460696D03*
D11*
X180708100Y-66605096D03*
D24*
X156892300Y-67485096D03*
X167052300Y-67485096D03*
X174672300Y-67485096D03*
X174672300Y-59865096D03*
X156892300Y-59865096D03*
D23*
X184277000Y-125984000D03*
D21*
X184531000Y-123444000D03*
X184277000Y-120904000D03*
D25*
X115820500Y-116126096D03*
X115769700Y-120088496D03*
X129638100Y-115973696D03*
X170536365Y-98057978D03*
X172056100Y-98092096D03*
X112315300Y-115059296D03*
X113585300Y-115059296D03*
X114652100Y-115059296D03*
X115820500Y-115059296D03*
X108505300Y-117548496D03*
X108505300Y-118564496D03*
X108505300Y-119580496D03*
X115820500Y-117294496D03*
X115769700Y-119123296D03*
X114655600Y-122171296D03*
X112061300Y-122171296D03*
X119380000Y-120142000D03*
X119376500Y-118818496D03*
X119376500Y-117345296D03*
X119376500Y-115872096D03*
X170766100Y-100046496D03*
X171361237Y-100649596D03*
X123542100Y-133525096D03*
X174723100Y-106347096D03*
X177898100Y-99108096D03*
X113255100Y-119682096D03*
X113255100Y-117523096D03*
X111096100Y-117523096D03*
X112112100Y-118666096D03*
X111096100Y-119682096D03*
X109699100Y-121079096D03*
X109699100Y-116253096D03*
X102078420Y-103739899D03*
X106807010Y-105410000D03*
X139954000Y-114173000D03*
X157861000Y-104902000D03*
X159639000Y-93471990D03*
X123952000Y-89154000D03*
X143764000Y-89281000D03*
X107442000Y-67310000D03*
X122047000Y-69850000D03*
X131318000Y-67310000D03*
X141605000Y-103352613D03*
X142748000Y-97663000D03*
X128270000Y-98298000D03*
X135136288Y-104090089D03*
X135136288Y-102820089D03*
X149352000Y-89281000D03*
X150241000Y-97790000D03*
X154432000Y-97155004D03*
X145109398Y-108964855D03*
X169077640Y-101605080D03*
X113639600Y-122986800D03*
X115569996Y-135763000D03*
D26*
X108204000Y-135448800D03*
X108204000Y-133924800D03*
X114554000Y-133975600D03*
X113284000Y-133594600D03*
X112014000Y-136668000D03*
X112014000Y-135448800D03*
X112014000Y-137938000D03*
X110744000Y-135448800D03*
X110744000Y-137938000D03*
X110744000Y-136668000D03*
X109474000Y-136668000D03*
X109474000Y-137938000D03*
X109474000Y-135448800D03*
X112014000Y-131435600D03*
X110744000Y-132705600D03*
X112014000Y-133924800D03*
X109474000Y-131435600D03*
X110744000Y-131435600D03*
X109474000Y-132705600D03*
X110744000Y-133924800D03*
X112014000Y-132705600D03*
X109474000Y-133924800D03*
D25*
X145042223Y-114173000D03*
X167386000Y-71676096D03*
X155194000Y-72898000D03*
X142627360Y-69849996D03*
X142365740Y-66323122D03*
X120929400Y-66573398D03*
X176784000Y-103886000D03*
X114681000Y-121132600D03*
X127660400Y-120116600D03*
X168275004Y-107061000D03*
X150495000Y-105613194D03*
D26*
X172161200Y-92100400D03*
X161036000Y-91948000D03*
X177952400Y-133874000D03*
X179222400Y-135474200D03*
X176682400Y-133874000D03*
X177952400Y-132654800D03*
X177952400Y-131384800D03*
X176682400Y-131384800D03*
X176733200Y-136693400D03*
X177952400Y-136693400D03*
X176682400Y-132654800D03*
X176733200Y-135474200D03*
X177952400Y-137963400D03*
X175410000Y-133620000D03*
X176733200Y-137963400D03*
X177952400Y-135474200D03*
X179222400Y-133874000D03*
X175412400Y-131384800D03*
X175412400Y-132534800D03*
X174142400Y-133416800D03*
X174142400Y-132146800D03*
X174142400Y-134636000D03*
X176720500Y-139128500D03*
D25*
X107899200Y-124968000D03*
X108966000Y-124968000D03*
X110490000Y-123444000D03*
X109728000Y-124206000D03*
X111506000Y-123698000D03*
X109982000Y-125222000D03*
X110744000Y-124460000D03*
X107899200Y-123621800D03*
X108966000Y-123190000D03*
X109728000Y-122428000D03*
X108712000Y-122174000D03*
X107442000Y-112014000D03*
X107442000Y-113538000D03*
X108458000Y-112014000D03*
X109474000Y-112522000D03*
X108458000Y-113538000D03*
X109220000Y-114300000D03*
X109982000Y-115062000D03*
X110998000Y-114046000D03*
X110236000Y-113284000D03*
X108966000Y-115316000D03*
X111252000Y-113030000D03*
X110490000Y-112268000D03*
X109474000Y-111506000D03*
X108204000Y-110998000D03*
X159893000Y-102870000D03*
X158849709Y-102902473D03*
X133223000Y-58229500D03*
X163042736Y-107164974D03*
X161163000Y-99695016D03*
X167258998Y-101104700D03*
X162534600Y-102044500D03*
X164934900Y-99491800D03*
X156083000Y-108267500D03*
X159639000Y-100711000D03*
X163068000Y-91313000D03*
X113636096Y-105918000D03*
D26*
X177990500Y-139128500D03*
X175323500Y-139128500D03*
X173926500Y-139128500D03*
X174117000Y-135763000D03*
D25*
X177038000Y-89154000D03*
X176784000Y-96012000D03*
X141478000Y-97663000D03*
X148977822Y-100028890D03*
X135509000Y-136271000D03*
X134239000Y-136271000D03*
X132969000Y-136271000D03*
X115569998Y-101714300D03*
X127762000Y-67310000D03*
X125730000Y-69977000D03*
X146050000Y-69850000D03*
X110998000Y-67310000D03*
X134366000Y-66421000D03*
X129937705Y-133366705D03*
X149103080Y-106794300D03*
X150647410Y-85089982D03*
X114046000Y-66344800D03*
X167614600Y-138963400D03*
X145112578Y-107801400D03*
X152984198Y-106222800D03*
X160782000Y-75184000D03*
X160528000Y-103759000D03*
X139446000Y-60261500D03*
X139446000Y-66548000D03*
X132334000Y-96520000D03*
X152425400Y-100075998D03*
X172059600Y-90525600D03*
X103334300Y-101072096D03*
X141702595Y-106269595D03*
X142450000Y-107190600D03*
X121857754Y-132601956D03*
X141986000Y-104775000D03*
X138938000Y-105283010D03*
X143001990Y-103124000D03*
X152552400Y-70129400D03*
X152527000Y-69469000D03*
X163004500Y-69342010D03*
X166573200Y-98298004D03*
X143154604Y-100093801D03*
X150545800Y-62128400D03*
X147269194Y-58978800D03*
X148056596Y-61061600D03*
X151079200Y-63449200D03*
X143924147Y-100109147D03*
X164401498Y-75184000D03*
X152999440Y-102562660D03*
X179705000Y-90170000D03*
X165290500Y-69151500D03*
X143637000Y-108204000D03*
X149733000Y-108966000D03*
X165227006Y-101066600D03*
X126603759Y-73634601D03*
X125603000Y-102002385D03*
X163626804Y-111226600D03*
X150088600Y-101193600D03*
X126578361Y-76199999D03*
X120802400Y-102616018D03*
X167513000Y-111582200D03*
X148437600Y-101828600D03*
X126639320Y-78727300D03*
X123571000Y-100838000D03*
X123571000Y-106172000D03*
X165608000Y-112699800D03*
X146583400Y-102489000D03*
X161925000Y-107061000D03*
X153873200Y-105575152D03*
X159766000Y-106206909D03*
X150444200Y-107111800D03*
X159512000Y-108331000D03*
X153035000Y-108331000D03*
X141605000Y-101727000D03*
X115468400Y-99669600D03*
X110892900Y-122171296D03*
X110892900Y-115059296D03*
X139054170Y-102934351D03*
X152907994Y-73660000D03*
X157480000Y-73152000D03*
X139090296Y-103936790D03*
X150545800Y-109874018D03*
X164795200Y-106934000D03*
X171294100Y-97330096D03*
X175260000Y-96012000D03*
X168895777Y-100662282D03*
X168741225Y-99929084D03*
D26*
X136652000Y-98044000D03*
D25*
X143636998Y-95123000D03*
X170473512Y-105225997D03*
X147980062Y-108780025D03*
X128016000Y-126746000D03*
X140462002Y-109728000D03*
X142367000Y-108331000D03*
X128016000Y-128016002D03*
X146227790Y-83819999D03*
X146159208Y-97151738D03*
X131699000Y-72390000D03*
X143637000Y-93345000D03*
X145669000Y-100203016D03*
X126619004Y-72009000D03*
X140335000Y-99822000D03*
X131953000Y-82550000D03*
X138811000Y-99314000D03*
X127127000Y-81280000D03*
X147955000Y-100202990D03*
X146050000Y-71120000D03*
X146304000Y-73152000D03*
X147446996Y-96774000D03*
X146812000Y-100203006D03*
X146304000Y-82042006D03*
X117348000Y-122936000D03*
X130810000Y-122936000D03*
X137668000Y-99060000D03*
X138811000Y-106934000D03*
X117747136Y-106172000D03*
X137032986Y-105410000D03*
X119684800Y-106172022D03*
X144706619Y-111365136D03*
D26*
X124866400Y-133908800D03*
D25*
X165633400Y-135737600D03*
X146024600Y-112420400D03*
X163601402Y-133197600D03*
X169595800Y-135509000D03*
X146717088Y-111681407D03*
X150387571Y-104061927D03*
X171627800Y-110134400D03*
X147878800Y-112191800D03*
X169621200Y-111683800D03*
X175615600Y-134686796D03*
X145880510Y-61214000D03*
X148310596Y-59055000D03*
X150774400Y-61036200D03*
X154061149Y-54689867D03*
D26*
X151485600Y-67183004D03*
D25*
X168757600Y-76174600D03*
X168732200Y-78232000D03*
X144353278Y-61020960D03*
X145859500Y-58737506D03*
X149415516Y-58928000D03*
X152984200Y-57150000D03*
X155194000Y-62941200D03*
X155219406Y-58674000D03*
X144983204Y-61722000D03*
X153147306Y-103343025D03*
X161926252Y-92965258D03*
X157099000Y-100203000D03*
X153672540Y-62844680D03*
X163068000Y-92964000D03*
X153474506Y-104002830D03*
X157099000Y-101346000D03*
X152734044Y-63439050D03*
X156641800Y-70383400D03*
X166243000Y-77216000D03*
X165481000Y-77216000D03*
X156641800Y-71043800D03*
X154178000Y-78740048D03*
X166344602Y-95377000D03*
X150622000Y-68326000D03*
D26*
X160426400Y-61874400D03*
D25*
X155204192Y-66804794D03*
X155092399Y-67995800D03*
X157657800Y-58013604D03*
X151983440Y-62501780D03*
X119659400Y-135585200D03*
X144372787Y-109067600D03*
X113459096Y-134684096D03*
X149098000Y-96392988D03*
X148967409Y-97344401D03*
X161282000Y-101211000D03*
X143637000Y-91694000D03*
X134620000Y-60198000D03*
X173199100Y-99235096D03*
X178025100Y-101013096D03*
D27*
X156256238Y-75184000D02*
X160368909Y-75184000D01*
X150647410Y-80792828D02*
X156256238Y-75184000D01*
X160368909Y-75184000D02*
X160782000Y-75184000D01*
X150647410Y-85089982D02*
X150647410Y-80792828D01*
D28*
X139446000Y-60261500D02*
X139446000Y-66548000D01*
D29*
X171767501Y-90817699D02*
X172059600Y-90525600D01*
X169418000Y-93167200D02*
X171767501Y-90817699D01*
X165836600Y-98069400D02*
X169418000Y-94488000D01*
X160578800Y-98069400D02*
X165836600Y-98069400D01*
X159080200Y-99568000D02*
X160578800Y-98069400D01*
X151866600Y-100634798D02*
X151866600Y-104355900D01*
X152425400Y-100075998D02*
X151866600Y-100634798D01*
X151866600Y-104355900D02*
X152497801Y-104987101D01*
X152497801Y-104987101D02*
X155799665Y-104987101D01*
X155799665Y-104987101D02*
X159080200Y-101706566D01*
X169418000Y-94488000D02*
X169418000Y-93167200D01*
X159080200Y-101706566D02*
X159080200Y-99568000D01*
D27*
X141337219Y-106269595D02*
X141702595Y-106269595D01*
X125222000Y-112141000D02*
X135465814Y-112141000D01*
X135465814Y-112141000D02*
X141337219Y-106269595D01*
D29*
X122229880Y-112141000D02*
X125222000Y-112141000D01*
D30*
X121141188Y-112141000D02*
X122229880Y-112141000D01*
X103334300Y-101072096D02*
X114403204Y-112141000D01*
X114403204Y-112141000D02*
X121141188Y-112141000D01*
D29*
X143002000Y-107742600D02*
X143002000Y-114300000D01*
X126746000Y-130556000D02*
X123903710Y-130556000D01*
X122149853Y-132309857D02*
X121857754Y-132601956D01*
X123903710Y-130556000D02*
X122149853Y-132309857D01*
X143002000Y-114300000D02*
X126746000Y-130556000D01*
X142450000Y-107190600D02*
X143002000Y-107742600D01*
X135864600Y-110896400D02*
X141986000Y-104775000D01*
X132384800Y-110896400D02*
X135864600Y-110896400D01*
X138645901Y-105575109D02*
X138938000Y-105283010D01*
X132384800Y-108356400D02*
X135864610Y-108356400D01*
X135864610Y-108356400D02*
X138645901Y-105575109D01*
X143001990Y-103537091D02*
X143001990Y-103124000D01*
X143001990Y-105791010D02*
X143001990Y-103537091D01*
X132384800Y-113436400D02*
X135356600Y-113436400D01*
X135356600Y-113436400D02*
X143001990Y-105791010D01*
D31*
X143421100Y-144653135D02*
X143421100Y-144399000D01*
X145453100Y-146431000D02*
X143421100Y-144399000D01*
X169545000Y-146431000D02*
X145453100Y-146431000D01*
X170688000Y-144011096D02*
X170688000Y-145288000D01*
X170688000Y-145288000D02*
X169545000Y-146431000D01*
X141732000Y-146431000D02*
X143383000Y-144780000D01*
X117221000Y-146431000D02*
X141732000Y-146431000D01*
X115189000Y-144399000D02*
X117221000Y-146431000D01*
X160950900Y-67485096D02*
X156892300Y-67485096D01*
X167640000Y-74174196D02*
X160950900Y-67485096D01*
X171282100Y-85171896D02*
X167640000Y-81529796D01*
X167640000Y-81529796D02*
X167640000Y-74174196D01*
D29*
X147396200Y-58978800D02*
X147269194Y-58978800D01*
D27*
X144503129Y-66205491D02*
X144503129Y-88521529D01*
D29*
X147269194Y-59969394D02*
X147269194Y-58978800D01*
X147370800Y-60071000D02*
X147269194Y-59969394D01*
X150545800Y-62128400D02*
X148488400Y-60071000D01*
X148488400Y-60071000D02*
X147370800Y-60071000D01*
X144503129Y-65529471D02*
X144503129Y-66205491D01*
X147269194Y-62763406D02*
X144503129Y-65529471D01*
X147269194Y-59969394D02*
X147269194Y-62763406D01*
X143154604Y-100093801D02*
X144503129Y-98745276D01*
X144503129Y-98745276D02*
X144503129Y-88521529D01*
X148056600Y-61061604D02*
X148056596Y-61061600D01*
X148056596Y-62539979D02*
X148056596Y-61474691D01*
X148056596Y-61474691D02*
X148056596Y-61061600D01*
X148056596Y-62539979D02*
X144905730Y-65690844D01*
X144905730Y-65690844D02*
X144905730Y-99127564D01*
X144905730Y-99127564D02*
X144216246Y-99817048D01*
X144216246Y-99817048D02*
X143924147Y-100109147D01*
X148983700Y-63449200D02*
X151079200Y-63449200D01*
X148056596Y-62539979D02*
X148074479Y-62539979D01*
X148074479Y-62539979D02*
X148983700Y-63449200D01*
D27*
X164401498Y-75597091D02*
X164401498Y-75184000D01*
X164401498Y-86144098D02*
X164401498Y-75597091D01*
X165604201Y-97107999D02*
X167375840Y-95336360D01*
X160371801Y-97107999D02*
X165604201Y-97107999D01*
X158673800Y-98806000D02*
X160371801Y-97107999D01*
X155540593Y-104561640D02*
X158673800Y-101428433D01*
X152999440Y-102562660D02*
X152476200Y-103085900D01*
X167375840Y-95336360D02*
X167375840Y-89118440D01*
X152476200Y-104213660D02*
X152824180Y-104561640D01*
X167375840Y-89118440D02*
X164401498Y-86144098D01*
X152476200Y-103085900D02*
X152476200Y-104213660D01*
X158673800Y-101428433D02*
X158673800Y-98806000D01*
X152824180Y-104561640D02*
X155540593Y-104561640D01*
D31*
X170484004Y-70916800D02*
X167052300Y-67485096D01*
X172339000Y-70916800D02*
X170484004Y-70916800D01*
X174701200Y-73279000D02*
X172339000Y-70916800D01*
X174701200Y-85141674D02*
X174701200Y-73279000D01*
X179705000Y-90170000D02*
X179729526Y-90170000D01*
X179729526Y-90170000D02*
X174701200Y-85141674D01*
X156892300Y-60753300D02*
X165290500Y-69151500D01*
X156892300Y-59865096D02*
X156892300Y-60753300D01*
D29*
X145694400Y-109728000D02*
X147323808Y-111357408D01*
X147323808Y-113846608D02*
X148082000Y-114604800D01*
X145694400Y-108762800D02*
X145694400Y-109728000D01*
X145313400Y-108381800D02*
X145694400Y-108762800D01*
X144500600Y-108381800D02*
X145313400Y-108381800D01*
X143637000Y-108204000D02*
X144322800Y-108204000D01*
X144322800Y-108204000D02*
X144500600Y-108381800D01*
X147323808Y-111357408D02*
X147323808Y-113846608D01*
X164033200Y-102260406D02*
X164934907Y-101358699D01*
X164033200Y-106959400D02*
X164033200Y-102260406D01*
X161734501Y-109258099D02*
X164033200Y-106959400D01*
X150025099Y-109258099D02*
X161734501Y-109258099D01*
X149733000Y-108966000D02*
X150025099Y-109258099D01*
X164934907Y-101358699D02*
X165227006Y-101066600D01*
X126720601Y-73634601D02*
X126603759Y-73634601D01*
D27*
X127762000Y-74792842D02*
X127762000Y-79375000D01*
X126603759Y-73634601D02*
X127762000Y-74792842D01*
X127762000Y-79375000D02*
X125857000Y-81280000D01*
X125857000Y-81280000D02*
X125857000Y-91948000D01*
X127003798Y-100714798D02*
X127631202Y-100714798D01*
X125857000Y-91948000D02*
X125857000Y-99568000D01*
X125857000Y-99568000D02*
X127003798Y-100714798D01*
D29*
X125895099Y-101710286D02*
X125603000Y-102002385D01*
X126890587Y-100714798D02*
X125895099Y-101710286D01*
X127631202Y-100714798D02*
X126890587Y-100714798D01*
X142630704Y-101193600D02*
X150088600Y-101193600D01*
X127631202Y-100714798D02*
X142151902Y-100714798D01*
X142151902Y-100714798D02*
X142630704Y-101193600D01*
X150088600Y-103047800D02*
X150088600Y-101193600D01*
X146968331Y-106168069D02*
X150088600Y-103047800D01*
X146968331Y-109117157D02*
X146968331Y-106168069D01*
X163626804Y-111226600D02*
X149077774Y-111226600D01*
X149077774Y-111226600D02*
X146968331Y-109117157D01*
D27*
X120777000Y-82001360D02*
X120777000Y-91948000D01*
X126578361Y-76199999D02*
X120777000Y-82001360D01*
X120777000Y-91948000D02*
X120777000Y-102590618D01*
X120777000Y-102590618D02*
X120802400Y-102616018D01*
X142625316Y-101828600D02*
X148024509Y-101828600D01*
X148024509Y-101828600D02*
X148437600Y-101828600D01*
X120802400Y-102616018D02*
X126721600Y-102616018D01*
X128194819Y-101142799D02*
X141939515Y-101142799D01*
D29*
X146550391Y-103715809D02*
X148145501Y-102120699D01*
D27*
X126721600Y-102616018D02*
X128194819Y-101142799D01*
X141939515Y-101142799D02*
X142625316Y-101828600D01*
D29*
X167513000Y-111582200D02*
X167220901Y-111874299D01*
X149161498Y-111874299D02*
X146550391Y-109263191D01*
X167220901Y-111874299D02*
X149161498Y-111874299D01*
X146550391Y-109263191D02*
X146550391Y-103715809D01*
X148145501Y-102120699D02*
X148437600Y-101828600D01*
D27*
X123317000Y-82049620D02*
X123317000Y-91948000D01*
X126639320Y-78727300D02*
X123317000Y-82049620D01*
X123571000Y-92202000D02*
X123571000Y-100838000D01*
X123317000Y-91948000D02*
X123571000Y-92202000D01*
X141502382Y-102489000D02*
X146170309Y-102489000D01*
X141210283Y-102196901D02*
X141502382Y-102489000D01*
D29*
X149407975Y-112699800D02*
X146138901Y-109430726D01*
X146138901Y-109430726D02*
X146138901Y-102933499D01*
D27*
X133739383Y-102196901D02*
X141210283Y-102196901D01*
D29*
X165608000Y-112699800D02*
X149407975Y-112699800D01*
X146138901Y-102933499D02*
X146291301Y-102781099D01*
X146291301Y-102781099D02*
X146583400Y-102489000D01*
D27*
X123571000Y-106172000D02*
X129764284Y-106172000D01*
X129764284Y-106172000D02*
X133739383Y-102196901D01*
X146170309Y-102489000D02*
X146583400Y-102489000D01*
X154286291Y-105575152D02*
X153873200Y-105575152D01*
X160439152Y-105575152D02*
X154286291Y-105575152D01*
X161925000Y-107061000D02*
X160439152Y-105575152D01*
X159766000Y-106206909D02*
X158861109Y-107111800D01*
X158861109Y-107111800D02*
X150444200Y-107111800D01*
X153543000Y-108839000D02*
X153035000Y-108331000D01*
X159004000Y-108839000D02*
X153543000Y-108839000D01*
X159512000Y-108331000D02*
X159004000Y-108839000D01*
D29*
X115760499Y-99961699D02*
X115468400Y-99669600D01*
X129540000Y-104521000D02*
X120319800Y-104521000D01*
X120319800Y-104521000D02*
X115760499Y-99961699D01*
X132334000Y-101727000D02*
X129540000Y-104521000D01*
X141605000Y-101727000D02*
X132334000Y-101727000D01*
D32*
X108810100Y-124254096D02*
X110892900Y-122171296D01*
X104111100Y-124254096D02*
X108810100Y-124254096D01*
X108657700Y-112824096D02*
X110892900Y-115059296D01*
X104111100Y-112824096D02*
X108657700Y-112824096D01*
D33*
X156972000Y-73660000D02*
X157480000Y-73152000D01*
X152907994Y-73660000D02*
X156972000Y-73660000D01*
D30*
X161855182Y-109874018D02*
X164795200Y-106934000D01*
X150545800Y-109874018D02*
X161855182Y-109874018D01*
D27*
X172612196Y-96012000D02*
X175260000Y-96012000D01*
X171294100Y-97330096D02*
X172612196Y-96012000D01*
D29*
X162840155Y-110429018D02*
X149629055Y-110429018D01*
X148272161Y-109072124D02*
X147980062Y-108780025D01*
X168043176Y-105225997D02*
X162840155Y-110429018D01*
X149629055Y-110429018D02*
X148272161Y-109072124D01*
X170473512Y-105225997D02*
X168043176Y-105225997D01*
D30*
X128308099Y-126453901D02*
X128016000Y-126746000D01*
X129794000Y-124968000D02*
X128308099Y-126453901D01*
D29*
X135382000Y-114808000D02*
X135890000Y-114300000D01*
X132842000Y-117339728D02*
X135373728Y-114808000D01*
X132842000Y-121920000D02*
X132842000Y-117339728D01*
X129794000Y-124968000D02*
X132842000Y-121920000D01*
X135373728Y-114808000D02*
X135382000Y-114808000D01*
D30*
X135890000Y-114300000D02*
X140169903Y-110020099D01*
X140169903Y-110020099D02*
X140462002Y-109728000D01*
D29*
X128015998Y-128016002D02*
X128016000Y-128016002D01*
X142367000Y-108331000D02*
X142367000Y-113665000D01*
X142367000Y-113665000D02*
X128015998Y-128016002D01*
X146159208Y-93468572D02*
X146159208Y-97151738D01*
X146558000Y-91948000D02*
X146558000Y-93069780D01*
X146558000Y-93069780D02*
X146159208Y-93468572D01*
D27*
X146558000Y-84150209D02*
X146558000Y-91948000D01*
X146227790Y-83819999D02*
X146558000Y-84150209D01*
D29*
X136017000Y-76708000D02*
X131699000Y-72390000D01*
X136017000Y-91948000D02*
X136017000Y-76708000D01*
X137414000Y-93345000D02*
X136017000Y-91948000D01*
X143637000Y-93345000D02*
X137414000Y-93345000D01*
X126911103Y-72301099D02*
X126619004Y-72009000D01*
X133477000Y-91948000D02*
X133477000Y-78866996D01*
X133477000Y-78866996D02*
X126911103Y-72301099D01*
X133477000Y-93345000D02*
X133477000Y-91948000D01*
X145668984Y-100203016D02*
X145161000Y-100711000D01*
X145669000Y-100203016D02*
X145668984Y-100203016D01*
X145161000Y-100711000D02*
X142748000Y-100711000D01*
X142748000Y-100711000D02*
X137287000Y-95250000D01*
X137287000Y-95250000D02*
X135382000Y-95250000D01*
X135382000Y-95250000D02*
X133477000Y-93345000D01*
X130937000Y-83566000D02*
X131953000Y-82550000D01*
X130937000Y-91948000D02*
X130937000Y-83566000D01*
X130937000Y-93150081D02*
X130937000Y-91948000D01*
X130937000Y-94107000D02*
X130937000Y-93150081D01*
X133096000Y-96266000D02*
X130937000Y-94107000D01*
X140335000Y-99822000D02*
X136779000Y-96266000D01*
X136779000Y-96266000D02*
X133096000Y-96266000D01*
X128397000Y-82550000D02*
X128397000Y-91948000D01*
X127127000Y-81280000D02*
X128397000Y-82550000D01*
X138518901Y-99021901D02*
X138811000Y-99314000D01*
X136952709Y-97455709D02*
X138518901Y-99021901D01*
X131085309Y-97455709D02*
X136952709Y-97455709D01*
X128397000Y-91948000D02*
X128397000Y-94767400D01*
X128397000Y-94767400D02*
X131085309Y-97455709D01*
D34*
X148247099Y-72682099D02*
X146685000Y-71120000D01*
X146463091Y-71120000D02*
X146050000Y-71120000D01*
X146685000Y-71120000D02*
X146463091Y-71120000D01*
D29*
X148873199Y-86643199D02*
X153328001Y-91098001D01*
X153328001Y-91098001D02*
X154178000Y-91948000D01*
X148873199Y-73308199D02*
X148873199Y-86643199D01*
X148247099Y-72682099D02*
X148873199Y-73308199D01*
X152501600Y-93624400D02*
X154178000Y-91948000D01*
X150723600Y-93624400D02*
X152501600Y-93624400D01*
X148209000Y-96139000D02*
X150723600Y-93624400D01*
X148209000Y-99535899D02*
X148209000Y-96139000D01*
X147955000Y-100202990D02*
X147955000Y-99789899D01*
X147955000Y-99789899D02*
X148209000Y-99535899D01*
X151638000Y-91948000D02*
X147446996Y-96139004D01*
X147446996Y-96139004D02*
X147446996Y-96360909D01*
X147446996Y-96360909D02*
X147446996Y-96774000D01*
X151638000Y-90125489D02*
X148474408Y-86961897D01*
X148474408Y-75322408D02*
X146596099Y-73444099D01*
X146596099Y-73444099D02*
X146304000Y-73152000D01*
X151638000Y-91948000D02*
X151638000Y-90125489D01*
X148474408Y-86961897D02*
X148474408Y-75322408D01*
D27*
X146939000Y-82677006D02*
X146304000Y-82042006D01*
D29*
X149098000Y-90170000D02*
X149098000Y-91948000D01*
X147574000Y-88646000D02*
X149098000Y-90170000D01*
X146939000Y-82677006D02*
X147574000Y-83312006D01*
X147574000Y-83312006D02*
X147574000Y-88646000D01*
X148248001Y-92797999D02*
X149098000Y-91948000D01*
X146812000Y-100203006D02*
X146812000Y-94234000D01*
X146812000Y-94234000D02*
X148248001Y-92797999D01*
D27*
X117348000Y-122936000D02*
X130810000Y-122936000D01*
X121176136Y-109601000D02*
X118039235Y-106464099D01*
X136144000Y-109601000D02*
X121176136Y-109601000D01*
X118039235Y-106464099D02*
X117747136Y-106172000D01*
X138811000Y-106934000D02*
X136144000Y-109601000D01*
X135484485Y-106958501D02*
X120471279Y-106958501D01*
X119976899Y-106464121D02*
X119684800Y-106172022D01*
X137032986Y-105410000D02*
X135484485Y-106958501D01*
X120471279Y-106958501D02*
X119976899Y-106464121D01*
D29*
X125577600Y-133908800D02*
X143535400Y-115951000D01*
X124866400Y-133908800D02*
X125577600Y-133908800D01*
X143535400Y-115951000D02*
X144414520Y-115071880D01*
X144414520Y-115071880D02*
X144414520Y-115077520D01*
X144399000Y-115056360D02*
X144414520Y-115071880D01*
X144399000Y-112375240D02*
X144399000Y-115056360D01*
X144414520Y-112359720D02*
X144399000Y-112375240D01*
X144706619Y-111365136D02*
X144414520Y-111657235D01*
X144414520Y-111657235D02*
X144414520Y-112359720D01*
X165220309Y-135737600D02*
X165633400Y-135737600D01*
X165125400Y-135737600D02*
X165220309Y-135737600D01*
X144399000Y-115087400D02*
X144475200Y-115087400D01*
X144475200Y-115087400D02*
X165125400Y-135737600D01*
X146024600Y-112420400D02*
X146024600Y-115620798D01*
X146024600Y-115620798D02*
X163601402Y-133197600D01*
D27*
X146717088Y-112094498D02*
X146717088Y-111681407D01*
X146717088Y-115246488D02*
X146717088Y-112094498D01*
X169595800Y-135509000D02*
X166979600Y-135509000D01*
X166979600Y-135509000D02*
X146717088Y-115246488D01*
D29*
X171214709Y-110134400D02*
X171627800Y-110134400D01*
X150387571Y-104061927D02*
X147392521Y-107056977D01*
X147392521Y-107056977D02*
X147392521Y-108977373D01*
X147392521Y-108977373D02*
X149242957Y-110827809D01*
X149242957Y-110827809D02*
X163005339Y-110827809D01*
X163005339Y-110827809D02*
X163698748Y-110134400D01*
X163698748Y-110134400D02*
X171214709Y-110134400D01*
X168020996Y-113284004D02*
X169621200Y-111683800D01*
X147878800Y-112191800D02*
X148971004Y-113284004D01*
X148971004Y-113284004D02*
X168020996Y-113284004D01*
D33*
X183004300Y-134686796D02*
X183007000Y-134684096D01*
X175615600Y-134686796D02*
X183004300Y-134686796D01*
D28*
X152146000Y-57150000D02*
X152984200Y-57150000D01*
X150952200Y-58343800D02*
X152146000Y-57150000D01*
X149415516Y-58928000D02*
X149999716Y-58343800D01*
X149999716Y-58343800D02*
X150952200Y-58343800D01*
D27*
X155194000Y-62941200D02*
X155194000Y-58699406D01*
X155194000Y-58699406D02*
X155219406Y-58674000D01*
D29*
X152127713Y-64610487D02*
X149529800Y-67208400D01*
X152127713Y-63253113D02*
X152127713Y-64610487D01*
D27*
X161634153Y-92673159D02*
X161926252Y-92965258D01*
X157759400Y-90703400D02*
X159729159Y-92673159D01*
X159729159Y-92673159D02*
X161634153Y-92673159D01*
X154025600Y-90703400D02*
X157759400Y-90703400D01*
X149529800Y-67208400D02*
X149529800Y-86207600D01*
X149529800Y-86207600D02*
X154025600Y-90703400D01*
D29*
X153958975Y-103343025D02*
X157099000Y-100203000D01*
X153147306Y-103343025D02*
X153958975Y-103343025D01*
X157706317Y-97185193D02*
X157706317Y-99595683D01*
X161926252Y-92965258D02*
X157706317Y-97185193D01*
X157706317Y-99595683D02*
X157391099Y-99910901D01*
X157391099Y-99910901D02*
X157099000Y-100203000D01*
D27*
X152127713Y-63253113D02*
X152536146Y-62844680D01*
X152536146Y-62844680D02*
X153672540Y-62844680D01*
D29*
X163068000Y-92608400D02*
X160705800Y-90246200D01*
X163068000Y-92964000D02*
X163068000Y-92608400D01*
X160705800Y-90246200D02*
X154203400Y-90246200D01*
X154442170Y-104002830D02*
X157099000Y-101346000D01*
X153474506Y-104002830D02*
X154442170Y-104002830D01*
X163068000Y-92964000D02*
X158242000Y-97790000D01*
X158242000Y-97790000D02*
X158242000Y-100203000D01*
X158242000Y-100203000D02*
X157099000Y-101346000D01*
D27*
X149936211Y-85979011D02*
X149936211Y-67462389D01*
X149936211Y-67462389D02*
X152734044Y-64664556D01*
X154203400Y-90246200D02*
X149936211Y-85979011D01*
X152734044Y-64664556D02*
X152734044Y-63439050D01*
D31*
X161899600Y-70713600D02*
X165862000Y-74676000D01*
X156591000Y-70713600D02*
X161899600Y-70713600D01*
D35*
X165836600Y-74828400D02*
X165862000Y-77216000D01*
D27*
X154178000Y-78740048D02*
X166344602Y-90906650D01*
X166344602Y-90906650D02*
X166344602Y-95377000D01*
D29*
X173070000Y-86386100D02*
X171192100Y-88264000D01*
X173070000Y-73855836D02*
X173070000Y-86386100D01*
X171624164Y-72410000D02*
X173070000Y-73855836D01*
X170040000Y-72410000D02*
X171624164Y-72410000D01*
X160426400Y-61874400D02*
X160426400Y-62796400D01*
X160426400Y-62796400D02*
X170040000Y-72410000D01*
X153797000Y-60807600D02*
X152102820Y-62501780D01*
X152102820Y-62501780D02*
X151983440Y-62501780D01*
X153797000Y-59182000D02*
X153797000Y-60807600D01*
X154965396Y-58013604D02*
X153797000Y-59182000D01*
X157657800Y-58013604D02*
X154965396Y-58013604D01*
X143687800Y-109752587D02*
X144080688Y-109359699D01*
X126365000Y-132054600D02*
X143687800Y-114731800D01*
X143687800Y-114731800D02*
X143687800Y-109752587D01*
X119659400Y-135585200D02*
X123190000Y-132054600D01*
X144474371Y-108966016D02*
X144372787Y-109067600D01*
X144080688Y-109359699D02*
X144372787Y-109067600D01*
X123190000Y-132054600D02*
X126365000Y-132054600D01*
D33*
X104111100Y-134684096D02*
X113459096Y-134684096D01*
D27*
X151002988Y-94488000D02*
X149098000Y-96392988D01*
X156718000Y-91948000D02*
X154178000Y-94488000D01*
X154178000Y-94488000D02*
X151002988Y-94488000D01*
X134620000Y-60611091D02*
X134620000Y-60198000D01*
X134620000Y-64770000D02*
X134620000Y-60198000D01*
X140677901Y-70827901D02*
X134620000Y-64770000D01*
X143637000Y-91694000D02*
X140677901Y-88734901D01*
X140677901Y-88734901D02*
X140677901Y-70827901D01*
D31*
X171282100Y-77816296D02*
X171282100Y-81316296D01*
D27*
X176247100Y-99235096D02*
X178025100Y-101013096D01*
X173199100Y-99235096D02*
X176247100Y-99235096D01*
M02*
